<?xml version="1.0" standalone="no"?><!DOCTYPE svg PUBLIC "-//W3C//DTD SVG 1.1//EN" "http://www.w3.org/Graphics/SVG/1.1/DTD/svg11.dtd" ><svg xmlns="http://www.w3.org/2000/svg" xmlns:xlink="http://www.w3.org/1999/xlink" version="1.1"><metadata>Created by FontForge 20170731 at Thu Jun 10 12:59:23 2021
 By Aleksey,,,
Copyright (c) 2012 by Fontfabric. All rights reserved.</metadata><defs><font id="Nexa-Trial-Thin" horiz-adv-x="314"><font-face font-family="Nexa-Trial Thin" font-weight="50" font-stretch="normal" units-per-em="1000" panose-1="0 0 0 0 0 0 0 0 0 0" ascent="800" descent="-200" x-height="494" cap-height="700" bbox="-96 -298 1114 894" underline-thickness="50" underline-position="-175" unicode-range="U+000D-FB02"/><missing-glyph horiz-adv-x="305" d="M193.5 -143q-11.5 13 -29.5 17v-23q10 -2 15.5 -9t5.5 -17q0 -13 -9.5 -21.5t-22.5 -8.5q-14 0 -23 8.5t-9 21.5q0 10 5 17t14 9v22q-18 -3 -29 -16.5t-11 -31.5q0 -23 15.5 -38t37.5 -15t37 15t15 38q0 19 -11.5 32zM115.5 -101q15.5 -15 37.5 -15t37 15t15 38t-15 38.5
t-37 15.5q-23 0 -38 -15.5t-15 -38.5t15.5 -38zM115.5 301q15.5 -15 37.5 -15t37 15t15 37q0 19 -11.5 32.5t-29.5 17.5v-23q10 -2 15.5 -9.5t5.5 -17.5q0 -13 -9.5 -21.5t-22.5 -8.5q-14 0 -23 8.5t-9 21.5q0 21 19 27v23q-18 -4 -29 -17.5t-11 -32.5q0 -22 15.5 -37z
M108 627q8 -10 23 -10q14 0 20 8.5t10 25.5q2 10 4.5 14.5t7.5 4.5q12 0 12 -16t-15 -16v-23q16 0 25.5 10.5t9.5 28.5q0 17 -8.5 28t-24.5 11q-14 0 -20.5 -9.5t-10.5 -25.5q-2 -10 -4.5 -15t-7.5 -5q-4 0 -6.5 5t-2.5 11t3.5 10.5t9.5 4.5v21q-16 0 -24.5 -9.5t-8.5 -26.5
t8 -27zM203 9v21h-63l63 46v18h-101v-21h62l-62 -44v-20h101zM123 108v30h80v21h-80v28h-21v-79h21zM203 182v23l-18 7v40l18 8v23l-101 -41v-21zM123 393v28h80v23h-80v27h-21v-78h21zM165 515q17 0 28.5 12t11.5 31q0 17 -11.5 29t-28.5 12h-63v-22h62q10 0 15.5 -5.5
t5.5 -13.5q0 -10 -5.5 -15.5t-15.5 -5.5h-62v-22h63zM130.5 -40.5q9.5 9.5 22.5 9.5t22.5 -9.5t9.5 -22.5t-9.5 -22.5t-22.5 -9.5t-22.5 9.5t-9.5 22.5t9.5 22.5zM165 246v-28l-37 14z"/><glyph glyph-name="fi" unicode="fi" d="M125 -132h86v-24h-86v-30h-22v84h22v-30zM116.5 381.5q16.5 -16.5 40.5 -16.5t40.5 16.5t16.5 41.5t-16.5 41.5t-40.5 16.5t-40.5 -16.5t-16.5 -41.5t16.5 -41.5zM211 -86v23h-37v16l37 21v26l-41 -24q-10 20 -31 20q-16 0 -26 -10.5t-10 -27.5v-44h108zM103 40h108v-24
h-108v24zM211 54v25l-20 7v43l20 8v26l-108 -44v-23zM211 176v66h-21v-42h-87v-24h108zM211 290v23h-41v38h-22v-38h-23v42h-22v-65h108zM211 499v23h-68l68 50v19h-108v-23h66l-66 -47v-22h108zM125 607v30h86v24h-86v30h-22v-84h22zM132.5 447.5q9.5 9.5 24.5 9.5t25 -9.5
t10 -24.5q0 -14 -10 -24t-25 -10t-24.5 10t-9.5 24q0 15 9.5 24.5zM124 -44q0 7 4 11.5t10 4.5q7 0 11 -4.5t4 -11.5v-19h-29v19zM170 122v-28l-39 14z"/><glyph glyph-name="fl" unicode="fl" d="M125 -132h86v-24h-86v-30h-22v84h22v-30zM116.5 381.5q16.5 -16.5 40.5 -16.5t40.5 16.5t16.5 41.5t-16.5 41.5t-40.5 16.5t-40.5 -16.5t-16.5 -41.5t16.5 -41.5zM211 -86v23h-37v16l37 21v26l-41 -24q-10 20 -31 20q-16 0 -26 -10.5t-10 -27.5v-44h108zM103 40h108v-24
h-108v24zM211 54v25l-20 7v43l20 8v26l-108 -44v-23zM211 176v66h-21v-42h-87v-24h108zM211 290v23h-41v38h-22v-38h-23v42h-22v-65h108zM211 499v23h-68l68 50v19h-108v-23h66l-66 -47v-22h108zM125 607v30h86v24h-86v30h-22v-84h22zM132.5 447.5q9.5 9.5 24.5 9.5t25 -9.5
t10 -24.5q0 -14 -10 -24t-25 -10t-24.5 10t-9.5 24q0 15 9.5 24.5zM124 -44q0 7 4 11.5t10 4.5q7 0 11 -4.5t4 -11.5v-19h-29v19zM170 122v-28l-39 14z"/><glyph glyph-name="f_f" unicode="ff" d="M125 -132h86v-24h-86v-30h-22v84h22v-30zM116.5 381.5q16.5 -16.5 40.5 -16.5t40.5 16.5t16.5 41.5t-16.5 41.5t-40.5 16.5t-40.5 -16.5t-16.5 -41.5t16.5 -41.5zM211 -86v23h-37v16l37 21v26l-41 -24q-10 20 -31 20q-16 0 -26 -10.5t-10 -27.5v-44h108zM103 40h108v-24
h-108v24zM211 54v25l-20 7v43l20 8v26l-108 -44v-23zM211 176v66h-21v-42h-87v-24h108zM211 290v23h-41v38h-22v-38h-23v42h-22v-65h108zM211 499v23h-68l68 50v19h-108v-23h66l-66 -47v-22h108zM125 607v30h86v24h-86v30h-22v-84h22zM132.5 447.5q9.5 9.5 24.5 9.5t25 -9.5
t10 -24.5q0 -14 -10 -24t-25 -10t-24.5 10t-9.5 24q0 15 9.5 24.5zM124 -44q0 7 4 11.5t10 4.5q7 0 11 -4.5t4 -11.5v-19h-29v19zM170 122v-28l-39 14z"/><glyph glyph-name=".notdef" horiz-adv-x="305" d="M193.5 -143q-11.5 13 -29.5 17v-23q10 -2 15.5 -9t5.5 -17q0 -13 -9.5 -21.5t-22.5 -8.5q-14 0 -23 8.5t-9 21.5q0 10 5 17t14 9v22q-18 -3 -29 -16.5t-11 -31.5q0 -23 15.5 -38t37.5 -15t37 15t15 38q0 19 -11.5 32zM115.5 -101q15.5 -15 37.5 -15t37 15t15 38t-15 38.5
t-37 15.5q-23 0 -38 -15.5t-15 -38.5t15.5 -38zM115.5 301q15.5 -15 37.5 -15t37 15t15 37q0 19 -11.5 32.5t-29.5 17.5v-23q10 -2 15.5 -9.5t5.5 -17.5q0 -13 -9.5 -21.5t-22.5 -8.5q-14 0 -23 8.5t-9 21.5q0 21 19 27v23q-18 -4 -29 -17.5t-11 -32.5q0 -22 15.5 -37z
M108 627q8 -10 23 -10q14 0 20 8.5t10 25.5q2 10 4.5 14.5t7.5 4.5q12 0 12 -16t-15 -16v-23q16 0 25.5 10.5t9.5 28.5q0 17 -8.5 28t-24.5 11q-14 0 -20.5 -9.5t-10.5 -25.5q-2 -10 -4.5 -15t-7.5 -5q-4 0 -6.5 5t-2.5 11t3.5 10.5t9.5 4.5v21q-16 0 -24.5 -9.5t-8.5 -26.5
t8 -27zM203 9v21h-63l63 46v18h-101v-21h62l-62 -44v-20h101zM123 108v30h80v21h-80v28h-21v-79h21zM203 182v23l-18 7v40l18 8v23l-101 -41v-21zM123 393v28h80v23h-80v27h-21v-78h21zM165 515q17 0 28.5 12t11.5 31q0 17 -11.5 29t-28.5 12h-63v-22h62q10 0 15.5 -5.5
t5.5 -13.5q0 -10 -5.5 -15.5t-15.5 -5.5h-62v-22h63zM130.5 -40.5q9.5 9.5 22.5 9.5t22.5 -9.5t9.5 -22.5t-9.5 -22.5t-22.5 -9.5t-22.5 9.5t-9.5 22.5t9.5 22.5zM165 246v-28l-37 14z"/><glyph glyph-name="uni0000" d="M125 -132h86v-24h-86v-30h-22v84h22v-30zM116.5 381.5q16.5 -16.5 40.5 -16.5t40.5 16.5t16.5 41.5t-16.5 41.5t-40.5 16.5t-40.5 -16.5t-16.5 -41.5t16.5 -41.5zM211 -86v23h-37v16l37 21v26l-41 -24q-10 20 -31 20q-16 0 -26 -10.5t-10 -27.5v-44h108zM103 40h108v-24
h-108v24zM211 54v25l-20 7v43l20 8v26l-108 -44v-23zM211 176v66h-21v-42h-87v-24h108zM211 290v23h-41v38h-22v-38h-23v42h-22v-65h108zM211 499v23h-68l68 50v19h-108v-23h66l-66 -47v-22h108zM125 607v30h86v24h-86v30h-22v-84h22zM132.5 447.5q9.5 9.5 24.5 9.5t25 -9.5
t10 -24.5q0 -14 -10 -24t-25 -10t-24.5 10t-9.5 24q0 15 9.5 24.5zM124 -44q0 7 4 11.5t10 4.5q7 0 11 -4.5t4 -11.5v-19h-29v19zM170 122v-28l-39 14z"/><glyph glyph-name="nonmarkingreturn" unicode="" horiz-adv-x="352"/><glyph glyph-name="space" unicode=" " horiz-adv-x="271"/><glyph glyph-name="exclam" unicode="!" horiz-adv-x="226" d="M98 700h30v-550h-30v550zM93 42q8 8 20 8t20 -8t8 -20t-8 -20t-20 -8t-20 8t-8 20t8 20z"/><glyph glyph-name="quotedbl" unicode="&quot;" d="M125 -132h86v-24h-86v-30h-22v84h22v-30zM116.5 381.5q16.5 -16.5 40.5 -16.5t40.5 16.5t16.5 41.5t-16.5 41.5t-40.5 16.5t-40.5 -16.5t-16.5 -41.5t16.5 -41.5zM211 -86v23h-37v16l37 21v26l-41 -24q-10 20 -31 20q-16 0 -26 -10.5t-10 -27.5v-44h108zM103 40h108v-24
h-108v24zM211 54v25l-20 7v43l20 8v26l-108 -44v-23zM211 176v66h-21v-42h-87v-24h108zM211 290v23h-41v38h-22v-38h-23v42h-22v-65h108zM211 499v23h-68l68 50v19h-108v-23h66l-66 -47v-22h108zM125 607v30h86v24h-86v30h-22v-84h22zM132.5 447.5q9.5 9.5 24.5 9.5t25 -9.5
t10 -24.5q0 -14 -10 -24t-25 -10t-24.5 10t-9.5 24q0 15 9.5 24.5zM124 -44q0 7 4 11.5t10 4.5q7 0 11 -4.5t4 -11.5v-19h-29v19zM170 122v-28l-39 14z"/><glyph glyph-name="numbersign" unicode="#" d="M125 -132h86v-24h-86v-30h-22v84h22v-30zM116.5 381.5q16.5 -16.5 40.5 -16.5t40.5 16.5t16.5 41.5t-16.5 41.5t-40.5 16.5t-40.5 -16.5t-16.5 -41.5t16.5 -41.5zM211 -86v23h-37v16l37 21v26l-41 -24q-10 20 -31 20q-16 0 -26 -10.5t-10 -27.5v-44h108zM103 40h108v-24
h-108v24zM211 54v25l-20 7v43l20 8v26l-108 -44v-23zM211 176v66h-21v-42h-87v-24h108zM211 290v23h-41v38h-22v-38h-23v42h-22v-65h108zM211 499v23h-68l68 50v19h-108v-23h66l-66 -47v-22h108zM125 607v30h86v24h-86v30h-22v-84h22zM132.5 447.5q9.5 9.5 24.5 9.5t25 -9.5
t10 -24.5q0 -14 -10 -24t-25 -10t-24.5 10t-9.5 24q0 15 9.5 24.5zM124 -44q0 7 4 11.5t10 4.5q7 0 11 -4.5t4 -11.5v-19h-29v19zM170 122v-28l-39 14z"/><glyph glyph-name="dollar" unicode="$" d="M125 -132h86v-24h-86v-30h-22v84h22v-30zM116.5 381.5q16.5 -16.5 40.5 -16.5t40.5 16.5t16.5 41.5t-16.5 41.5t-40.5 16.5t-40.5 -16.5t-16.5 -41.5t16.5 -41.5zM211 -86v23h-37v16l37 21v26l-41 -24q-10 20 -31 20q-16 0 -26 -10.5t-10 -27.5v-44h108zM103 40h108v-24
h-108v24zM211 54v25l-20 7v43l20 8v26l-108 -44v-23zM211 176v66h-21v-42h-87v-24h108zM211 290v23h-41v38h-22v-38h-23v42h-22v-65h108zM211 499v23h-68l68 50v19h-108v-23h66l-66 -47v-22h108zM125 607v30h86v24h-86v30h-22v-84h22zM132.5 447.5q9.5 9.5 24.5 9.5t25 -9.5
t10 -24.5q0 -14 -10 -24t-25 -10t-24.5 10t-9.5 24q0 15 9.5 24.5zM124 -44q0 7 4 11.5t10 4.5q7 0 11 -4.5t4 -11.5v-19h-29v19zM170 122v-28l-39 14z"/><glyph glyph-name="percent" unicode="%" d="M125 -132h86v-24h-86v-30h-22v84h22v-30zM116.5 381.5q16.5 -16.5 40.5 -16.5t40.5 16.5t16.5 41.5t-16.5 41.5t-40.5 16.5t-40.5 -16.5t-16.5 -41.5t16.5 -41.5zM211 -86v23h-37v16l37 21v26l-41 -24q-10 20 -31 20q-16 0 -26 -10.5t-10 -27.5v-44h108zM103 40h108v-24
h-108v24zM211 54v25l-20 7v43l20 8v26l-108 -44v-23zM211 176v66h-21v-42h-87v-24h108zM211 290v23h-41v38h-22v-38h-23v42h-22v-65h108zM211 499v23h-68l68 50v19h-108v-23h66l-66 -47v-22h108zM125 607v30h86v24h-86v30h-22v-84h22zM132.5 447.5q9.5 9.5 24.5 9.5t25 -9.5
t10 -24.5q0 -14 -10 -24t-25 -10t-24.5 10t-9.5 24q0 15 9.5 24.5zM124 -44q0 7 4 11.5t10 4.5q7 0 11 -4.5t4 -11.5v-19h-29v19zM170 122v-28l-39 14z"/><glyph glyph-name="ampersand" unicode="&amp;" d="M125 -132h86v-24h-86v-30h-22v84h22v-30zM116.5 381.5q16.5 -16.5 40.5 -16.5t40.5 16.5t16.5 41.5t-16.5 41.5t-40.5 16.5t-40.5 -16.5t-16.5 -41.5t16.5 -41.5zM211 -86v23h-37v16l37 21v26l-41 -24q-10 20 -31 20q-16 0 -26 -10.5t-10 -27.5v-44h108zM103 40h108v-24
h-108v24zM211 54v25l-20 7v43l20 8v26l-108 -44v-23zM211 176v66h-21v-42h-87v-24h108zM211 290v23h-41v38h-22v-38h-23v42h-22v-65h108zM211 499v23h-68l68 50v19h-108v-23h66l-66 -47v-22h108zM125 607v30h86v24h-86v30h-22v-84h22zM132.5 447.5q9.5 9.5 24.5 9.5t25 -9.5
t10 -24.5q0 -14 -10 -24t-25 -10t-24.5 10t-9.5 24q0 15 9.5 24.5zM124 -44q0 7 4 11.5t10 4.5q7 0 11 -4.5t4 -11.5v-19h-29v19zM170 122v-28l-39 14z"/><glyph glyph-name="quotesingle" unicode="'" d="M125 -132h86v-24h-86v-30h-22v84h22v-30zM116.5 381.5q16.5 -16.5 40.5 -16.5t40.5 16.5t16.5 41.5t-16.5 41.5t-40.5 16.5t-40.5 -16.5t-16.5 -41.5t16.5 -41.5zM211 -86v23h-37v16l37 21v26l-41 -24q-10 20 -31 20q-16 0 -26 -10.5t-10 -27.5v-44h108zM103 40h108v-24
h-108v24zM211 54v25l-20 7v43l20 8v26l-108 -44v-23zM211 176v66h-21v-42h-87v-24h108zM211 290v23h-41v38h-22v-38h-23v42h-22v-65h108zM211 499v23h-68l68 50v19h-108v-23h66l-66 -47v-22h108zM125 607v30h86v24h-86v30h-22v-84h22zM132.5 447.5q9.5 9.5 24.5 9.5t25 -9.5
t10 -24.5q0 -14 -10 -24t-25 -10t-24.5 10t-9.5 24q0 15 9.5 24.5zM124 -44q0 7 4 11.5t10 4.5q7 0 11 -4.5t4 -11.5v-19h-29v19zM170 122v-28l-39 14z"/><glyph glyph-name="parenleft" unicode="(" d="M125 -132h86v-24h-86v-30h-22v84h22v-30zM116.5 381.5q16.5 -16.5 40.5 -16.5t40.5 16.5t16.5 41.5t-16.5 41.5t-40.5 16.5t-40.5 -16.5t-16.5 -41.5t16.5 -41.5zM211 -86v23h-37v16l37 21v26l-41 -24q-10 20 -31 20q-16 0 -26 -10.5t-10 -27.5v-44h108zM103 40h108v-24
h-108v24zM211 54v25l-20 7v43l20 8v26l-108 -44v-23zM211 176v66h-21v-42h-87v-24h108zM211 290v23h-41v38h-22v-38h-23v42h-22v-65h108zM211 499v23h-68l68 50v19h-108v-23h66l-66 -47v-22h108zM125 607v30h86v24h-86v30h-22v-84h22zM132.5 447.5q9.5 9.5 24.5 9.5t25 -9.5
t10 -24.5q0 -14 -10 -24t-25 -10t-24.5 10t-9.5 24q0 15 9.5 24.5zM124 -44q0 7 4 11.5t10 4.5q7 0 11 -4.5t4 -11.5v-19h-29v19zM170 122v-28l-39 14z"/><glyph glyph-name="parenright" unicode=")" d="M125 -132h86v-24h-86v-30h-22v84h22v-30zM116.5 381.5q16.5 -16.5 40.5 -16.5t40.5 16.5t16.5 41.5t-16.5 41.5t-40.5 16.5t-40.5 -16.5t-16.5 -41.5t16.5 -41.5zM211 -86v23h-37v16l37 21v26l-41 -24q-10 20 -31 20q-16 0 -26 -10.5t-10 -27.5v-44h108zM103 40h108v-24
h-108v24zM211 54v25l-20 7v43l20 8v26l-108 -44v-23zM211 176v66h-21v-42h-87v-24h108zM211 290v23h-41v38h-22v-38h-23v42h-22v-65h108zM211 499v23h-68l68 50v19h-108v-23h66l-66 -47v-22h108zM125 607v30h86v24h-86v30h-22v-84h22zM132.5 447.5q9.5 9.5 24.5 9.5t25 -9.5
t10 -24.5q0 -14 -10 -24t-25 -10t-24.5 10t-9.5 24q0 15 9.5 24.5zM124 -44q0 7 4 11.5t10 4.5q7 0 11 -4.5t4 -11.5v-19h-29v19zM170 122v-28l-39 14z"/><glyph glyph-name="asterisk" unicode="*" d="M125 -132h86v-24h-86v-30h-22v84h22v-30zM116.5 381.5q16.5 -16.5 40.5 -16.5t40.5 16.5t16.5 41.5t-16.5 41.5t-40.5 16.5t-40.5 -16.5t-16.5 -41.5t16.5 -41.5zM211 -86v23h-37v16l37 21v26l-41 -24q-10 20 -31 20q-16 0 -26 -10.5t-10 -27.5v-44h108zM103 40h108v-24
h-108v24zM211 54v25l-20 7v43l20 8v26l-108 -44v-23zM211 176v66h-21v-42h-87v-24h108zM211 290v23h-41v38h-22v-38h-23v42h-22v-65h108zM211 499v23h-68l68 50v19h-108v-23h66l-66 -47v-22h108zM125 607v30h86v24h-86v30h-22v-84h22zM132.5 447.5q9.5 9.5 24.5 9.5t25 -9.5
t10 -24.5q0 -14 -10 -24t-25 -10t-24.5 10t-9.5 24q0 15 9.5 24.5zM124 -44q0 7 4 11.5t10 4.5q7 0 11 -4.5t4 -11.5v-19h-29v19zM170 122v-28l-39 14z"/><glyph glyph-name="plus" unicode="+" d="M125 -132h86v-24h-86v-30h-22v84h22v-30zM116.5 381.5q16.5 -16.5 40.5 -16.5t40.5 16.5t16.5 41.5t-16.5 41.5t-40.5 16.5t-40.5 -16.5t-16.5 -41.5t16.5 -41.5zM211 -86v23h-37v16l37 21v26l-41 -24q-10 20 -31 20q-16 0 -26 -10.5t-10 -27.5v-44h108zM103 40h108v-24
h-108v24zM211 54v25l-20 7v43l20 8v26l-108 -44v-23zM211 176v66h-21v-42h-87v-24h108zM211 290v23h-41v38h-22v-38h-23v42h-22v-65h108zM211 499v23h-68l68 50v19h-108v-23h66l-66 -47v-22h108zM125 607v30h86v24h-86v30h-22v-84h22zM132.5 447.5q9.5 9.5 24.5 9.5t25 -9.5
t10 -24.5q0 -14 -10 -24t-25 -10t-24.5 10t-9.5 24q0 15 9.5 24.5zM124 -44q0 7 4 11.5t10 4.5q7 0 11 -4.5t4 -11.5v-19h-29v19zM170 122v-28l-39 14z"/><glyph glyph-name="comma" unicode="," horiz-adv-x="206" d="M96 -5q-9 2 -15 9.5t-6 17.5q0 12 8 20t20 8t20 -8t8 -21q0 -23 -38 -129h-28z"/><glyph glyph-name="hyphen" unicode="-" horiz-adv-x="497" d="M76 303h345v-30h-345v30z"/><glyph glyph-name="period" unicode="." horiz-adv-x="206" d="M83 2q-8 8 -8 20t8 20t20 8t20 -8t8 -20t-8 -20t-20 -8t-20 8z"/><glyph glyph-name="slash" unicode="/" d="M125 -132h86v-24h-86v-30h-22v84h22v-30zM116.5 381.5q16.5 -16.5 40.5 -16.5t40.5 16.5t16.5 41.5t-16.5 41.5t-40.5 16.5t-40.5 -16.5t-16.5 -41.5t16.5 -41.5zM211 -86v23h-37v16l37 21v26l-41 -24q-10 20 -31 20q-16 0 -26 -10.5t-10 -27.5v-44h108zM103 40h108v-24
h-108v24zM211 54v25l-20 7v43l20 8v26l-108 -44v-23zM211 176v66h-21v-42h-87v-24h108zM211 290v23h-41v38h-22v-38h-23v42h-22v-65h108zM211 499v23h-68l68 50v19h-108v-23h66l-66 -47v-22h108zM125 607v30h86v24h-86v30h-22v-84h22zM132.5 447.5q9.5 9.5 24.5 9.5t25 -9.5
t10 -24.5q0 -14 -10 -24t-25 -10t-24.5 10t-9.5 24q0 15 9.5 24.5zM124 -44q0 7 4 11.5t10 4.5q7 0 11 -4.5t4 -11.5v-19h-29v19zM170 122v-28l-39 14z"/><glyph glyph-name="zero" unicode="0" horiz-adv-x="706" d="M208 27q-64 33 -100 91t-36 132v201q0 74 36 132t100 91t145 33t145 -33t100 -91t36 -132v-201q0 -74 -36 -132t-100 -91t-145 -33t-145 33zM134 133.5q32 -51.5 89 -80.5t130 -29t130 29t89 80.5t32 116.5v201q0 65 -32 116.5t-89 80.5t-130 29t-130 -29t-89 -80.5
t-32 -116.5v-201q0 -65 32 -116.5z"/><glyph glyph-name="one" unicode="1" horiz-adv-x="387" d="M37 30h152v636l-135 -31v31l160 36h5v-672h145v-30h-327v30z"/><glyph glyph-name="two" unicode="2" horiz-adv-x="666" d="M139 292.5q70 49.5 197 49.5q114 0 173.5 42.5t59.5 124.5q0 77 -64 123.5t-171 46.5t-169 -43t-62 -118h-30q-1 57 31 100.5t91.5 67t138.5 23.5q80 0 140 -24.5t92.5 -70t32.5 -105.5q0 -94 -67.5 -145.5t-192.5 -51.5q-116 0 -178 -41t-62 -118v-123h499v-30h-529v153
q0 90 70 139.5z"/><glyph glyph-name="three" unicode="3" horiz-adv-x="659" d="M187 13.5q-61 22.5 -93.5 63t-32.5 94.5h30q0 -68 64.5 -109t173.5 -41q111 0 173.5 41.5t62.5 113.5q0 47 -31 86t-85 61t-120 22h-116v30h116q65 0 116 20t79.5 55.5t28.5 80.5q0 70 -60 109t-167 39q-67 0 -118 -18t-78.5 -51t-27.5 -75h-30q0 51 31 90.5t89 61.5
t134 22q119 0 188 -47.5t69 -130.5q0 -61 -43.5 -109t-111.5 -62q45 -9 83.5 -36.5t61 -66t22.5 -79.5q0 -87 -71 -137t-195 -50q-81 0 -142 22.5z"/><glyph glyph-name="four" unicode="4" horiz-adv-x="636" d="M471 164h-439l-4 33l440 503h33v-506h90v-30h-90v-164h-30v164zM471 194v463l-405 -463h405z"/><glyph glyph-name="five" unicode="5" horiz-adv-x="656" d="M136 47q-71 51 -71 142h30q0 -77 62.5 -120t175.5 -43q110 0 175.5 49.5t65.5 133.5q0 89 -55 136.5t-159 47.5h-275v307h480v-30h-450v-247h245q115 0 179.5 -56.5t64.5 -157.5q0 -64 -33.5 -112t-95 -74.5t-142.5 -26.5q-126 0 -197 51z"/><glyph glyph-name="six" unicode="6" horiz-adv-x="695" d="M216.5 19.5q-62.5 26.5 -96.5 74.5t-34 111v293q0 98 71.5 154.5t194.5 56.5q115 0 188 -46t79 -123h-31q-4 63 -69 101t-168 38q-110 0 -172.5 -48t-62.5 -133v-186q78 105 246 105q82 0 144.5 -26.5t97 -74.5t34.5 -111t-34 -111t-96.5 -74.5t-145.5 -26.5t-145.5 26.5
zM146 109q30 -41 86 -63.5t130 -22.5t130 22.5t86 63.5t30 96t-30 96t-86 63.5t-130 22.5t-130 -22.5t-86 -63.5t-30 -96t30 -96z"/><glyph glyph-name="seven" unicode="7" horiz-adv-x="563" d="M513 670h-479v30h516v-26l-397 -674h-35z"/><glyph glyph-name="eight" unicode="8" horiz-adv-x="700" d="M202 14.5q-64 24.5 -99.5 68.5t-35.5 101q0 65 49 115t122 63q-74 22 -114 65.5t-40 102.5q0 53 33.5 94.5t94 64.5t138.5 23t138.5 -23t94 -64.5t33.5 -94.5q0 -59 -40 -102.5t-114 -65.5q73 -13 122 -63t49 -115q0 -57 -35.5 -101t-99.5 -68.5t-148 -24.5t-148 24.5z
M129 98.5q32 -37.5 89.5 -58t131.5 -20.5t131.5 20.5t89.5 58t32 85.5t-32 85.5t-89.5 58t-131.5 20.5t-131.5 -20.5t-89.5 -58t-32 -85.5t32 -85.5zM144 451.5q30 -34.5 84 -54t122 -19.5q69 0 122.5 19.5t83.5 54t30 78.5t-30 78.5t-83.5 54t-122.5 19.5q-68 0 -122 -19.5
t-84 -54t-30 -78.5t30 -78.5z"/><glyph glyph-name="nine" unicode="9" horiz-adv-x="695" d="M153 38.5q-71 45.5 -77 123.5h31q4 -63 67 -101t163 -38q112 0 177 48t65 135v184q-79 -105 -246 -105q-82 0 -144.5 26.5t-97 74.5t-34.5 111t34 111t96.5 74.5t145.5 26.5t145.5 -26.5t96.5 -74.5t34 -111v-290q0 -101 -73.5 -157.5t-199.5 -56.5q-112 0 -183 45.5z
M117 401q30 -41 86 -63.5t130 -22.5t130 22.5t86 63.5t30 96t-30 96t-86 63.5t-130 22.5t-130 -22.5t-86 -63.5t-30 -96t30 -96z"/><glyph glyph-name="colon" unicode=":" horiz-adv-x="206" d="M83 2q-8 8 -8 20t8 20t20 8t20 -8t8 -20t-8 -20t-20 -8t-20 8zM83 345q8 8 20 8t20 -8t8 -20t-8 -20t-20 -8t-20 8t-8 20t8 20z"/><glyph glyph-name="semicolon" unicode=";" horiz-adv-x="206" d="M96 -5q-9 2 -15 9.5t-6 17.5q0 12 8 20t20 8t20 -8t8 -21q0 -23 -38 -129h-28zM83 345q8 8 20 8t20 -8t8 -20t-8 -20t-20 -8t-20 8t-8 20t8 20z"/><glyph glyph-name="less" unicode="&lt;" d="M125 -132h86v-24h-86v-30h-22v84h22v-30zM116.5 381.5q16.5 -16.5 40.5 -16.5t40.5 16.5t16.5 41.5t-16.5 41.5t-40.5 16.5t-40.5 -16.5t-16.5 -41.5t16.5 -41.5zM211 -86v23h-37v16l37 21v26l-41 -24q-10 20 -31 20q-16 0 -26 -10.5t-10 -27.5v-44h108zM103 40h108v-24
h-108v24zM211 54v25l-20 7v43l20 8v26l-108 -44v-23zM211 176v66h-21v-42h-87v-24h108zM211 290v23h-41v38h-22v-38h-23v42h-22v-65h108zM211 499v23h-68l68 50v19h-108v-23h66l-66 -47v-22h108zM125 607v30h86v24h-86v30h-22v-84h22zM132.5 447.5q9.5 9.5 24.5 9.5t25 -9.5
t10 -24.5q0 -14 -10 -24t-25 -10t-24.5 10t-9.5 24q0 15 9.5 24.5zM124 -44q0 7 4 11.5t10 4.5q7 0 11 -4.5t4 -11.5v-19h-29v19zM170 122v-28l-39 14z"/><glyph glyph-name="equal" unicode="=" d="M125 -132h86v-24h-86v-30h-22v84h22v-30zM116.5 381.5q16.5 -16.5 40.5 -16.5t40.5 16.5t16.5 41.5t-16.5 41.5t-40.5 16.5t-40.5 -16.5t-16.5 -41.5t16.5 -41.5zM211 -86v23h-37v16l37 21v26l-41 -24q-10 20 -31 20q-16 0 -26 -10.5t-10 -27.5v-44h108zM103 40h108v-24
h-108v24zM211 54v25l-20 7v43l20 8v26l-108 -44v-23zM211 176v66h-21v-42h-87v-24h108zM211 290v23h-41v38h-22v-38h-23v42h-22v-65h108zM211 499v23h-68l68 50v19h-108v-23h66l-66 -47v-22h108zM125 607v30h86v24h-86v30h-22v-84h22zM132.5 447.5q9.5 9.5 24.5 9.5t25 -9.5
t10 -24.5q0 -14 -10 -24t-25 -10t-24.5 10t-9.5 24q0 15 9.5 24.5zM124 -44q0 7 4 11.5t10 4.5q7 0 11 -4.5t4 -11.5v-19h-29v19zM170 122v-28l-39 14z"/><glyph glyph-name="greater" unicode="&gt;" d="M125 -132h86v-24h-86v-30h-22v84h22v-30zM116.5 381.5q16.5 -16.5 40.5 -16.5t40.5 16.5t16.5 41.5t-16.5 41.5t-40.5 16.5t-40.5 -16.5t-16.5 -41.5t16.5 -41.5zM211 -86v23h-37v16l37 21v26l-41 -24q-10 20 -31 20q-16 0 -26 -10.5t-10 -27.5v-44h108zM103 40h108v-24
h-108v24zM211 54v25l-20 7v43l20 8v26l-108 -44v-23zM211 176v66h-21v-42h-87v-24h108zM211 290v23h-41v38h-22v-38h-23v42h-22v-65h108zM211 499v23h-68l68 50v19h-108v-23h66l-66 -47v-22h108zM125 607v30h86v24h-86v30h-22v-84h22zM132.5 447.5q9.5 9.5 24.5 9.5t25 -9.5
t10 -24.5q0 -14 -10 -24t-25 -10t-24.5 10t-9.5 24q0 15 9.5 24.5zM124 -44q0 7 4 11.5t10 4.5q7 0 11 -4.5t4 -11.5v-19h-29v19zM170 122v-28l-39 14z"/><glyph glyph-name="question" unicode="?" horiz-adv-x="585" d="M261 274.5q15 29.5 50 48.5t98 33q55 12 80 50t25 107q0 82 -58 125.5t-165 43.5q-109 0 -166 -43.5t-57 -126.5h-30q0 96 66 148t187 52q120 0 186.5 -52.5t66.5 -146.5q0 -81 -31.5 -125.5t-101.5 -61.5q-57 -14 -85 -28.5t-39 -37t-11 -63.5v-47h-30v47q0 48 15 77.5z
M241 42q8 8 20 8t20 -8t8 -20t-8 -20t-20 -8t-20 8t-8 20t8 20z"/><glyph glyph-name="at" unicode="@" d="M125 -132h86v-24h-86v-30h-22v84h22v-30zM116.5 381.5q16.5 -16.5 40.5 -16.5t40.5 16.5t16.5 41.5t-16.5 41.5t-40.5 16.5t-40.5 -16.5t-16.5 -41.5t16.5 -41.5zM211 -86v23h-37v16l37 21v26l-41 -24q-10 20 -31 20q-16 0 -26 -10.5t-10 -27.5v-44h108zM103 40h108v-24
h-108v24zM211 54v25l-20 7v43l20 8v26l-108 -44v-23zM211 176v66h-21v-42h-87v-24h108zM211 290v23h-41v38h-22v-38h-23v42h-22v-65h108zM211 499v23h-68l68 50v19h-108v-23h66l-66 -47v-22h108zM125 607v30h86v24h-86v30h-22v-84h22zM132.5 447.5q9.5 9.5 24.5 9.5t25 -9.5
t10 -24.5q0 -14 -10 -24t-25 -10t-24.5 10t-9.5 24q0 15 9.5 24.5zM124 -44q0 7 4 11.5t10 4.5q7 0 11 -4.5t4 -11.5v-19h-29v19zM170 122v-28l-39 14z"/><glyph glyph-name="A" unicode="A" horiz-adv-x="730" d="M346 700h38l314 -700h-34l-82 182h-434l-82 -182h-34zM569 213l-204 454l-204 -454h408z"/><glyph glyph-name="B" unicode="B" horiz-adv-x="691" d="M104 700h299q92 0 148.5 -49.5t56.5 -130.5q0 -56 -30 -100.5t-80 -61.5q64 -20 99.5 -65.5t35.5 -106.5q0 -86 -61.5 -136t-168.5 -50h-299v700zM403 31q93 0 146 41t53 114q0 71 -54 113t-145 42h-268v-310h268zM403 372q82 0 128 39t46 109q0 69 -47 109t-127 40h-268
v-297h268z"/><glyph glyph-name="C" unicode="C" horiz-adv-x="719" d="M229 34q-81 46 -126.5 128.5t-45.5 187.5t45.5 187.5t126.5 128.5t185 46q71 0 135 -27t112 -77l-22 -21q-45 46 -102.5 70t-122.5 24q-95 0 -169.5 -42t-115.5 -117t-41 -172t41 -172t115.5 -117t169.5 -42q65 0 123.5 24t105.5 70l22 -21q-49 -50 -114.5 -77
t-136.5 -27q-104 0 -185 46z"/><glyph glyph-name="D" unicode="D" horiz-adv-x="745" d="M104 700h227q104 0 185.5 -44.5t126.5 -124t45 -181.5t-45 -181.5t-126.5 -124t-185.5 -44.5h-227v700zM331 31q95 0 169 40.5t115.5 113t41.5 165.5t-41.5 165.5t-115.5 113t-169 40.5h-196v-638h196z"/><glyph glyph-name="E" unicode="E" horiz-adv-x="652" d="M104 700h473v-31h-442v-300h421v-31h-421v-307h457v-31h-488v700z"/><glyph glyph-name="F" unicode="F" horiz-adv-x="613" d="M104 700h450v-31h-419v-305h395v-31h-395v-333h-31v700z"/><glyph glyph-name="G" unicode="G" horiz-adv-x="744" d="M229.5 35q-81.5 46 -127 128t-45.5 187q0 106 45 188t126.5 127.5t187.5 45.5q143 0 249 -104l-21 -23q-47 47 -105 71.5t-123 24.5q-97 0 -171.5 -41.5t-115.5 -116.5t-41 -172q0 -96 41.5 -171t116.5 -117t170 -42q66 0 128 25.5t101 67.5v209h-263v31h294v-254
q-52 -54 -119 -82t-141 -28q-105 0 -186.5 46z"/><glyph glyph-name="H" unicode="H" horiz-adv-x="750" d="M104 700h31v-325h480v325h31v-700h-31v344h-480v-344h-31v700z"/><glyph glyph-name="I" unicode="I" horiz-adv-x="239" d="M104 700h31v-700h-31v700z"/><glyph glyph-name="J" unicode="J" horiz-adv-x="656" d="M159 24q-60 34 -94 95t-34 138h30q0 -68 30 -122t83.5 -84t120.5 -30q69 0 122.5 29t82.5 82t29 123v414h-284v31h315v-445q0 -79 -33.5 -139t-93.5 -93t-138 -33q-76 0 -136 34z"/><glyph glyph-name="K" unicode="K" horiz-adv-x="572" d="M135 354v-354h-31v700h31v-324l359 324h46l-371 -335l401 -365h-46z"/><glyph glyph-name="L" unicode="L" horiz-adv-x="559" d="M104 700h31v-669h406v-31h-437v700z"/><glyph glyph-name="M" unicode="M" horiz-adv-x="905" d="M104 700h38l311 -436l310 436h38v-700h-31v656l-313 -439h-9l-313 439v-656h-31v700z"/><glyph glyph-name="N" unicode="N" horiz-adv-x="750" d="M104 700h38l473 -654v654h31v-700h-36l-475 657v-657h-31v700z"/><glyph glyph-name="O" unicode="O" horiz-adv-x="818" d="M227 34q-80 46 -125 128.5t-45 187.5t45 187.5t125 128.5t182 46t182 -46t125 -128.5t45 -187.5t-45 -187.5t-125 -128.5t-182 -46t-182 46zM129 178.5q41 -75.5 114 -117.5t166 -42t166 42t114 117.5t41 171.5t-41 171.5t-114 117.5t-166 42t-166 -42t-114 -117.5
t-41 -171.5t41 -171.5z"/><glyph glyph-name="P" unicode="P" horiz-adv-x="664" d="M104 700h291q72 0 124 -29t79 -80t27 -117t-27 -116.5t-79 -79t-124 -28.5h-260v-250h-31v700zM395 281q96 0 147.5 53t51.5 141t-51.5 141t-147.5 53h-260v-388h260z"/><glyph glyph-name="Q" unicode="Q" horiz-adv-x="818" d="M227 34q-80 46 -125 128.5t-45 187.5t45 187.5t125 128.5t182 46t182 -46t125 -128.5t45 -187.5q0 -74 -23 -137.5t-66 -112.5l115 -105l-22 -22l-114 105q-47 -43 -108.5 -66.5t-133.5 -23.5q-102 0 -182 46zM129 178.5q41 -75.5 114 -117.5t166 -42t166 42t114 117.5
t41 171.5t-41 171.5t-114 117.5t-166 42t-166 -42t-114 -117.5t-41 -171.5t41 -171.5z"/><glyph glyph-name="R" unicode="R" horiz-adv-x="692" d="M104 700h298q67 0 117.5 -26.5t78 -75t27.5 -111.5t-27.5 -111.5t-78 -75t-117.5 -26.5h-11l255 -274h-42l-255 274h-214v-274h-31v700zM402 305q88 0 140 49.5t52 132.5t-52 132.5t-140 49.5h-267v-364h267z"/><glyph glyph-name="S" unicode="S" horiz-adv-x="654" d="M167.5 27q-77.5 38 -116.5 99l25 19q33 -55 105 -90t151 -35q112 0 176 41.5t64 113.5q0 46 -22 75t-74.5 50t-152.5 41q-96 20 -151 44.5t-79.5 60t-24.5 87.5q0 53 32.5 94t91.5 63t137 22q77 0 140 -26.5t106 -76.5l-22 -22q-37 45 -95.5 69.5t-129.5 24.5
q-104 0 -166.5 -40.5t-62.5 -107.5q0 -44 21.5 -73t72 -50t139.5 -39q105 -21 163 -46t83 -60t25 -90q0 -86 -72.5 -136t-198.5 -50q-87 0 -164.5 38z"/><glyph glyph-name="T" unicode="T" horiz-adv-x="587" d="M15 700h557v-31h-263v-669h-31v669h-263v31z"/><glyph glyph-name="U" unicode="U" horiz-adv-x="728" d="M225 24q-61 35 -95 97.5t-34 142.5v436h31v-436q0 -72 30 -127.5t84 -86t123 -30.5t123 30.5t84 86t30 127.5v436h31v-436q0 -80 -34 -142.5t-95 -97.5t-139 -35t-139 35z"/><glyph glyph-name="V" unicode="V" horiz-adv-x="686" d="M36 700h34l273 -664l273 664h33l-287 -700h-38z"/><glyph glyph-name="W" unicode="W" horiz-adv-x="1083" d="M43 700h33l133 -388l93 -272l219 660h39l215 -660l95 272l136 388h33l-245 -700h-38l-116 354l-100 307l-101 -307l-118 -354h-38z"/><glyph glyph-name="X" unicode="X" horiz-adv-x="588" d="M293 336l-141 -197l-101 -139h-38l260 360l-238 340h38l95 -136l126 -179l126 179l95 136h38l-239 -340l261 -360h-38z"/><glyph glyph-name="Y" unicode="Y" horiz-adv-x="650" d="M309 278l-275 422h37l254 -391l253 391h37l-275 -424v-276h-31v278z"/><glyph glyph-name="Z" unicode="Z" horiz-adv-x="580" d="M19 19l479 650h-442v31h490v-18l-480 -651h480v-31h-527v19z"/><glyph glyph-name="bracketleft" unicode="[" d="M125 -132h86v-24h-86v-30h-22v84h22v-30zM116.5 381.5q16.5 -16.5 40.5 -16.5t40.5 16.5t16.5 41.5t-16.5 41.5t-40.5 16.5t-40.5 -16.5t-16.5 -41.5t16.5 -41.5zM211 -86v23h-37v16l37 21v26l-41 -24q-10 20 -31 20q-16 0 -26 -10.5t-10 -27.5v-44h108zM103 40h108v-24
h-108v24zM211 54v25l-20 7v43l20 8v26l-108 -44v-23zM211 176v66h-21v-42h-87v-24h108zM211 290v23h-41v38h-22v-38h-23v42h-22v-65h108zM211 499v23h-68l68 50v19h-108v-23h66l-66 -47v-22h108zM125 607v30h86v24h-86v30h-22v-84h22zM132.5 447.5q9.5 9.5 24.5 9.5t25 -9.5
t10 -24.5q0 -14 -10 -24t-25 -10t-24.5 10t-9.5 24q0 15 9.5 24.5zM124 -44q0 7 4 11.5t10 4.5q7 0 11 -4.5t4 -11.5v-19h-29v19zM170 122v-28l-39 14z"/><glyph glyph-name="backslash" unicode="\" d="M125 -132h86v-24h-86v-30h-22v84h22v-30zM116.5 381.5q16.5 -16.5 40.5 -16.5t40.5 16.5t16.5 41.5t-16.5 41.5t-40.5 16.5t-40.5 -16.5t-16.5 -41.5t16.5 -41.5zM211 -86v23h-37v16l37 21v26l-41 -24q-10 20 -31 20q-16 0 -26 -10.5t-10 -27.5v-44h108zM103 40h108v-24
h-108v24zM211 54v25l-20 7v43l20 8v26l-108 -44v-23zM211 176v66h-21v-42h-87v-24h108zM211 290v23h-41v38h-22v-38h-23v42h-22v-65h108zM211 499v23h-68l68 50v19h-108v-23h66l-66 -47v-22h108zM125 607v30h86v24h-86v30h-22v-84h22zM132.5 447.5q9.5 9.5 24.5 9.5t25 -9.5
t10 -24.5q0 -14 -10 -24t-25 -10t-24.5 10t-9.5 24q0 15 9.5 24.5zM124 -44q0 7 4 11.5t10 4.5q7 0 11 -4.5t4 -11.5v-19h-29v19zM170 122v-28l-39 14z"/><glyph glyph-name="bracketright" unicode="]" d="M125 -132h86v-24h-86v-30h-22v84h22v-30zM116.5 381.5q16.5 -16.5 40.5 -16.5t40.5 16.5t16.5 41.5t-16.5 41.5t-40.5 16.5t-40.5 -16.5t-16.5 -41.5t16.5 -41.5zM211 -86v23h-37v16l37 21v26l-41 -24q-10 20 -31 20q-16 0 -26 -10.5t-10 -27.5v-44h108zM103 40h108v-24
h-108v24zM211 54v25l-20 7v43l20 8v26l-108 -44v-23zM211 176v66h-21v-42h-87v-24h108zM211 290v23h-41v38h-22v-38h-23v42h-22v-65h108zM211 499v23h-68l68 50v19h-108v-23h66l-66 -47v-22h108zM125 607v30h86v24h-86v30h-22v-84h22zM132.5 447.5q9.5 9.5 24.5 9.5t25 -9.5
t10 -24.5q0 -14 -10 -24t-25 -10t-24.5 10t-9.5 24q0 15 9.5 24.5zM124 -44q0 7 4 11.5t10 4.5q7 0 11 -4.5t4 -11.5v-19h-29v19zM170 122v-28l-39 14z"/><glyph glyph-name="asciicircum" unicode="^" d="M125 -132h86v-24h-86v-30h-22v84h22v-30zM116.5 381.5q16.5 -16.5 40.5 -16.5t40.5 16.5t16.5 41.5t-16.5 41.5t-40.5 16.5t-40.5 -16.5t-16.5 -41.5t16.5 -41.5zM211 -86v23h-37v16l37 21v26l-41 -24q-10 20 -31 20q-16 0 -26 -10.5t-10 -27.5v-44h108zM103 40h108v-24
h-108v24zM211 54v25l-20 7v43l20 8v26l-108 -44v-23zM211 176v66h-21v-42h-87v-24h108zM211 290v23h-41v38h-22v-38h-23v42h-22v-65h108zM211 499v23h-68l68 50v19h-108v-23h66l-66 -47v-22h108zM125 607v30h86v24h-86v30h-22v-84h22zM132.5 447.5q9.5 9.5 24.5 9.5t25 -9.5
t10 -24.5q0 -14 -10 -24t-25 -10t-24.5 10t-9.5 24q0 15 9.5 24.5zM124 -44q0 7 4 11.5t10 4.5q7 0 11 -4.5t4 -11.5v-19h-29v19zM170 122v-28l-39 14z"/><glyph glyph-name="underscore" unicode="_" d="M125 -132h86v-24h-86v-30h-22v84h22v-30zM116.5 381.5q16.5 -16.5 40.5 -16.5t40.5 16.5t16.5 41.5t-16.5 41.5t-40.5 16.5t-40.5 -16.5t-16.5 -41.5t16.5 -41.5zM211 -86v23h-37v16l37 21v26l-41 -24q-10 20 -31 20q-16 0 -26 -10.5t-10 -27.5v-44h108zM103 40h108v-24
h-108v24zM211 54v25l-20 7v43l20 8v26l-108 -44v-23zM211 176v66h-21v-42h-87v-24h108zM211 290v23h-41v38h-22v-38h-23v42h-22v-65h108zM211 499v23h-68l68 50v19h-108v-23h66l-66 -47v-22h108zM125 607v30h86v24h-86v30h-22v-84h22zM132.5 447.5q9.5 9.5 24.5 9.5t25 -9.5
t10 -24.5q0 -14 -10 -24t-25 -10t-24.5 10t-9.5 24q0 15 9.5 24.5zM124 -44q0 7 4 11.5t10 4.5q7 0 11 -4.5t4 -11.5v-19h-29v19zM170 122v-28l-39 14z"/><glyph glyph-name="grave" unicode="`" d="M125 -132h86v-24h-86v-30h-22v84h22v-30zM116.5 381.5q16.5 -16.5 40.5 -16.5t40.5 16.5t16.5 41.5t-16.5 41.5t-40.5 16.5t-40.5 -16.5t-16.5 -41.5t16.5 -41.5zM211 -86v23h-37v16l37 21v26l-41 -24q-10 20 -31 20q-16 0 -26 -10.5t-10 -27.5v-44h108zM103 40h108v-24
h-108v24zM211 54v25l-20 7v43l20 8v26l-108 -44v-23zM211 176v66h-21v-42h-87v-24h108zM211 290v23h-41v38h-22v-38h-23v42h-22v-65h108zM211 499v23h-68l68 50v19h-108v-23h66l-66 -47v-22h108zM125 607v30h86v24h-86v30h-22v-84h22zM132.5 447.5q9.5 9.5 24.5 9.5t25 -9.5
t10 -24.5q0 -14 -10 -24t-25 -10t-24.5 10t-9.5 24q0 15 9.5 24.5zM124 -44q0 7 4 11.5t10 4.5q7 0 11 -4.5t4 -11.5v-19h-29v19zM170 122v-28l-39 14z"/><glyph glyph-name="a" unicode="a" horiz-adv-x="633" d="M171.5 24.5q-56.5 32.5 -88 90.5t-31.5 132t31.5 132t88 90.5t128.5 32.5q74 0 132.5 -35t85.5 -95v122h30v-494h-30v120q-27 -58 -85.5 -93t-132.5 -35q-72 0 -128.5 32.5zM110 128.5q28 -51.5 77.5 -79.5t112.5 -28t112.5 28t77.5 79.5t28 118.5t-28 118.5t-77.5 79.5
t-112.5 28t-112.5 -28t-77.5 -79.5t-28 -118.5t28 -118.5z"/><glyph glyph-name="b" unicode="b" horiz-adv-x="633" d="M200 26.5q-59 34.5 -85 92.5v-119h-30v700h30v-327q27 59 85.5 94t132.5 35q72 0 128.5 -32.5t88 -90.5t31.5 -132t-31.5 -132t-88 -90.5t-128.5 -32.5q-74 0 -133 34.5zM143 128.5q28 -51.5 77.5 -79.5t112.5 -28t112.5 28t77.5 79.5t28 118.5t-28 118.5t-77.5 79.5
t-112.5 28t-112.5 -28t-77.5 -79.5t-28 -118.5t28 -118.5z"/><glyph glyph-name="c" unicode="c" horiz-adv-x="532" d="M178 24q-58 33 -92 91.5t-34 131.5q0 75 33.5 133.5t91.5 90.5t130 32q102 0 174 -73l-20 -20q-58 64 -155 64q-61 0 -112 -27t-81.5 -78t-30.5 -122q0 -68 30.5 -120t82 -79.5t112.5 -27.5q44 0 85.5 16t73.5 48l20 -21q-36 -35 -82.5 -53.5t-96.5 -18.5q-71 0 -129 33z
"/><glyph glyph-name="d" unicode="d" horiz-adv-x="633" d="M171.5 24.5q-56.5 32.5 -88 90.5t-31.5 132t31.5 132t88 90.5t128.5 32.5q74 0 132.5 -35t85.5 -94v327h30v-700h-30v119q-26 -58 -85 -92.5t-133 -34.5q-72 0 -128.5 32.5zM110 128.5q28 -51.5 77.5 -79.5t112.5 -28t112.5 28t77.5 79.5t28 118.5t-28 118.5t-77.5 79.5
t-112.5 28t-112.5 -28t-77.5 -79.5t-28 -118.5t28 -118.5z"/><glyph glyph-name="e" unicode="e" horiz-adv-x="589" d="M172 24q-56 33 -88 91.5t-32 131.5t31.5 131.5t87.5 91.5t128 33q73 0 129 -30.5t87 -84.5t31 -124q0 -18 -1 -28h-463q7 -100 65.5 -158t151.5 -58q57 0 109.5 23.5t80.5 61.5l23 -17q-35 -46 -91 -71.5t-122 -25.5q-71 0 -127 33zM516 265q1 61 -26 108.5t-77 74
t-114 26.5q-93 0 -152 -57.5t-66 -151.5h435z"/><glyph glyph-name="f" unicode="f" horiz-adv-x="346" d="M168 669.5q30 42.5 105 42.5q55 0 94 -33l-18 -21q-32 25 -77 25q-53 0 -78.5 -29.5t-25.5 -101.5v-58h168v-29h-168v-465h-30v465h-103v29h103v58q0 75 30 117.5z"/><glyph glyph-name="g" unicode="g" horiz-adv-x="606" d="M181.5 -273.5q-54.5 24.5 -85 68t-30.5 97.5h30q0 -46 26.5 -82.5t74 -57.5t107.5 -21q98 0 156.5 39.5t58.5 105.5t-59 106t-156 40q-116 0 -184 64.5t-68 174.5q0 68 33 122.5t90.5 85.5t128.5 31q42 0 85 -12.5t72 -32.5l63 75l22 -17l-64 -76q41 -46 56.5 -84.5
t15.5 -91.5t-21.5 -99.5t-60 -79t-85.5 -42.5q77 -16 119.5 -59t42.5 -105q0 -51 -31 -90.5t-86.5 -61.5t-127.5 -22q-68 0 -122.5 24.5zM141 107q59 -56 163 -56q61 0 111 28t79.5 76t29.5 106q0 62 -27.5 110t-77.5 74t-115 26q-64 0 -114.5 -27t-79 -75t-28.5 -108
q0 -98 59 -154z"/><glyph glyph-name="h" unicode="h" horiz-adv-x="601" d="M85 700h30v-312q27 51 80 81.5t119 30.5q99 0 153.5 -55.5t54.5 -156.5v-288h-30v287q0 89 -46 136.5t-132 47.5q-57 0 -102.5 -25.5t-71 -69.5t-25.5 -98v-278h-30v700z"/><glyph glyph-name="i" unicode="i" horiz-adv-x="200" d="M85 494h30v-494h-30v494zM77 673q9 9 23 9t23 -9t9 -23t-9 -23t-23 -9t-23 9t-9 23t9 23z"/><glyph glyph-name="j" unicode="j" horiz-adv-x="200" d="M-51 -248.5q-20 5.5 -45 18.5l10 27q35 -22 79 -22q50 0 71 30.5t21 102.5v586h30v-586q0 -85 -29.5 -123.5t-94.5 -38.5q-22 0 -42 5.5zM77 673q9 9 23 9t23 -9t9 -23t-9 -23t-23 -9t-23 9t-9 23t9 23z"/><glyph glyph-name="k" unicode="k" horiz-adv-x="451" d="M115 238v-238h-30v700h30v-435l253 229h43l-267 -242l297 -252h-46z"/><glyph glyph-name="l" unicode="l" horiz-adv-x="200" d="M85 700h30v-700h-30v700z"/><glyph glyph-name="m" unicode="m" horiz-adv-x="928" d="M85 494h30v-101q26 50 72.5 78.5t101.5 28.5q69 0 116 -33t66 -96q24 59 74 94t111 35q91 0 142 -56t51 -156v-288h-30v287q0 89 -42 136.5t-121 47.5q-49 0 -89 -25t-62.5 -69t-22.5 -99v-278h-30v287q0 89 -42 136.5t-121 47.5q-49 0 -89 -25t-62.5 -69t-22.5 -99v-278
h-30v494z"/><glyph glyph-name="n" unicode="n" horiz-adv-x="601" d="M85 494h30v-106q27 51 80 81.5t119 30.5q99 0 153.5 -55.5t54.5 -156.5v-288h-30v287q0 89 -46 136.5t-132 47.5q-57 0 -102.5 -25.5t-71 -69.5t-25.5 -98v-278h-30v494z"/><glyph glyph-name="o" unicode="o" horiz-adv-x="606" d="M174 24q-57 33 -89.5 91.5t-32.5 131.5t32.5 131.5t89.5 91.5t129 33t129 -33t89.5 -91.5t32.5 -131.5t-32.5 -131.5t-89.5 -91.5t-129 -33t-129 33zM110.5 130.5q28.5 -51.5 79 -81t113.5 -29.5t113.5 29.5t79 81t28.5 116.5t-28.5 116.5t-79 81t-113.5 29.5
t-113.5 -29.5t-79 -81t-28.5 -116.5t28.5 -116.5z"/><glyph glyph-name="p" unicode="p" horiz-adv-x="633" d="M85 494h30v-119q26 58 85 92.5t133 34.5q72 0 128.5 -32.5t88 -90.5t31.5 -132t-31.5 -132t-88 -90.5t-128.5 -32.5q-74 0 -132.5 35t-85.5 94v-363h-30v736zM143 128.5q28 -51.5 77.5 -79.5t112.5 -28t112.5 28t77.5 79.5t28 118.5t-28 118.5t-77.5 79.5t-112.5 28
t-112.5 -28t-77.5 -79.5t-28 -118.5t28 -118.5z"/><glyph glyph-name="q" unicode="q" horiz-adv-x="633" d="M518 -242v363q-27 -59 -85.5 -94t-132.5 -35q-72 0 -128.5 32.5t-88 90.5t-31.5 132t31.5 132t88 90.5t128.5 32.5q74 0 133 -34.5t85 -92.5v119h30v-736h-30zM110 128.5q28 -51.5 77.5 -79.5t112.5 -28t112.5 28t77.5 79.5t28 118.5t-28 118.5t-77.5 79.5t-112.5 28
t-112.5 -28t-77.5 -79.5t-28 -118.5t28 -118.5z"/><glyph glyph-name="r" unicode="r" horiz-adv-x="391" d="M85 494h30v-117q25 56 71 88.5t103 32.5q54 0 96 -24l-13 -26q-37 21 -83 21q-48 0 -88 -28.5t-63 -77.5t-23 -107v-256h-30v494z"/><glyph glyph-name="s" unicode="s" horiz-adv-x="503" d="M130 18q-58 26 -87 65l21 19q30 -37 81 -59t111 -22q77 0 124 30t47 79q0 30 -15.5 49t-53 33.5t-109.5 28.5q-75 15 -115.5 31t-57 39t-16.5 60q0 61 53 96t145 35q59 0 104 -16t85 -50l-20 -21q-36 30 -75.5 44t-93.5 14q-80 0 -124 -26.5t-44 -75.5q0 -29 14.5 -46.5
t49.5 -30t101 -25.5q77 -15 120.5 -32.5t62.5 -43t19 -64.5q0 -62 -55 -99.5t-146 -37.5q-68 0 -126 26z"/><glyph glyph-name="t" unicode="t" horiz-adv-x="395" d="M173 28q-28 38 -28 116v321h-108v29h108v149l30 3v-152h176v-29h-176v-321q0 -63 19 -94.5t79 -31.5q18 0 42.5 7.5t46.5 17.5l13 -25q-24 -13 -51 -20.5t-49 -7.5q-74 0 -102 38z"/><glyph glyph-name="u" unicode="u" horiz-adv-x="594" d="M133 49.5q-54 55.5 -54 156.5v288h30v-287q0 -89 45.5 -136.5t129.5 -47.5q56 0 100.5 25.5t69.5 69.5t25 98v278h30v-494h-30v108q-27 -53 -78.5 -83.5t-116.5 -30.5q-97 0 -151 55.5z"/><glyph glyph-name="v" unicode="v" horiz-adv-x="533" d="M43 494h33l190 -456l97 230l94 226h33l-207 -494h-34z"/><glyph glyph-name="w" unicode="w" horiz-adv-x="813" d="M45 494h32l72 -208l86 -242l159 450h26l159 -452l85 244l71 208h32l-172 -494h-32l-49 140l-107 303l-108 -303l-49 -140h-32z"/><glyph glyph-name="x" unicode="x" horiz-adv-x="464" d="M352 74l-121 158l-175 -232h-37l195 258l-179 236h38l159 -209l87 113l73 96h38l-181 -236l197 -258h-38z"/><glyph glyph-name="y" unicode="y" horiz-adv-x="543" d="M253 3l-210 491h33l125 -295l68 -158l198 453h33l-322 -736h-33z"/><glyph glyph-name="z" unicode="z" horiz-adv-x="468" d="M30 18l355 447h-340v29h387v-18l-356 -447h355v-29h-401v18z"/><glyph glyph-name="braceleft" unicode="{" d="M125 -132h86v-24h-86v-30h-22v84h22v-30zM116.5 381.5q16.5 -16.5 40.5 -16.5t40.5 16.5t16.5 41.5t-16.5 41.5t-40.5 16.5t-40.5 -16.5t-16.5 -41.5t16.5 -41.5zM211 -86v23h-37v16l37 21v26l-41 -24q-10 20 -31 20q-16 0 -26 -10.5t-10 -27.5v-44h108zM103 40h108v-24
h-108v24zM211 54v25l-20 7v43l20 8v26l-108 -44v-23zM211 176v66h-21v-42h-87v-24h108zM211 290v23h-41v38h-22v-38h-23v42h-22v-65h108zM211 499v23h-68l68 50v19h-108v-23h66l-66 -47v-22h108zM125 607v30h86v24h-86v30h-22v-84h22zM132.5 447.5q9.5 9.5 24.5 9.5t25 -9.5
t10 -24.5q0 -14 -10 -24t-25 -10t-24.5 10t-9.5 24q0 15 9.5 24.5zM124 -44q0 7 4 11.5t10 4.5q7 0 11 -4.5t4 -11.5v-19h-29v19zM170 122v-28l-39 14z"/><glyph glyph-name="bar" unicode="|" d="M125 -132h86v-24h-86v-30h-22v84h22v-30zM116.5 381.5q16.5 -16.5 40.5 -16.5t40.5 16.5t16.5 41.5t-16.5 41.5t-40.5 16.5t-40.5 -16.5t-16.5 -41.5t16.5 -41.5zM211 -86v23h-37v16l37 21v26l-41 -24q-10 20 -31 20q-16 0 -26 -10.5t-10 -27.5v-44h108zM103 40h108v-24
h-108v24zM211 54v25l-20 7v43l20 8v26l-108 -44v-23zM211 176v66h-21v-42h-87v-24h108zM211 290v23h-41v38h-22v-38h-23v42h-22v-65h108zM211 499v23h-68l68 50v19h-108v-23h66l-66 -47v-22h108zM125 607v30h86v24h-86v30h-22v-84h22zM132.5 447.5q9.5 9.5 24.5 9.5t25 -9.5
t10 -24.5q0 -14 -10 -24t-25 -10t-24.5 10t-9.5 24q0 15 9.5 24.5zM124 -44q0 7 4 11.5t10 4.5q7 0 11 -4.5t4 -11.5v-19h-29v19zM170 122v-28l-39 14z"/><glyph glyph-name="braceright" unicode="}" d="M125 -132h86v-24h-86v-30h-22v84h22v-30zM116.5 381.5q16.5 -16.5 40.5 -16.5t40.5 16.5t16.5 41.5t-16.5 41.5t-40.5 16.5t-40.5 -16.5t-16.5 -41.5t16.5 -41.5zM211 -86v23h-37v16l37 21v26l-41 -24q-10 20 -31 20q-16 0 -26 -10.5t-10 -27.5v-44h108zM103 40h108v-24
h-108v24zM211 54v25l-20 7v43l20 8v26l-108 -44v-23zM211 176v66h-21v-42h-87v-24h108zM211 290v23h-41v38h-22v-38h-23v42h-22v-65h108zM211 499v23h-68l68 50v19h-108v-23h66l-66 -47v-22h108zM125 607v30h86v24h-86v30h-22v-84h22zM132.5 447.5q9.5 9.5 24.5 9.5t25 -9.5
t10 -24.5q0 -14 -10 -24t-25 -10t-24.5 10t-9.5 24q0 15 9.5 24.5zM124 -44q0 7 4 11.5t10 4.5q7 0 11 -4.5t4 -11.5v-19h-29v19zM170 122v-28l-39 14z"/><glyph glyph-name="asciitilde" unicode="~" d="M125 -132h86v-24h-86v-30h-22v84h22v-30zM116.5 381.5q16.5 -16.5 40.5 -16.5t40.5 16.5t16.5 41.5t-16.5 41.5t-40.5 16.5t-40.5 -16.5t-16.5 -41.5t16.5 -41.5zM211 -86v23h-37v16l37 21v26l-41 -24q-10 20 -31 20q-16 0 -26 -10.5t-10 -27.5v-44h108zM103 40h108v-24
h-108v24zM211 54v25l-20 7v43l20 8v26l-108 -44v-23zM211 176v66h-21v-42h-87v-24h108zM211 290v23h-41v38h-22v-38h-23v42h-22v-65h108zM211 499v23h-68l68 50v19h-108v-23h66l-66 -47v-22h108zM125 607v30h86v24h-86v30h-22v-84h22zM132.5 447.5q9.5 9.5 24.5 9.5t25 -9.5
t10 -24.5q0 -14 -10 -24t-25 -10t-24.5 10t-9.5 24q0 15 9.5 24.5zM124 -44q0 7 4 11.5t10 4.5q7 0 11 -4.5t4 -11.5v-19h-29v19zM170 122v-28l-39 14z"/><glyph glyph-name="uni00A0" unicode=" " horiz-adv-x="271"/><glyph glyph-name="exclamdown" unicode="¡" d="M125 -132h86v-24h-86v-30h-22v84h22v-30zM116.5 381.5q16.5 -16.5 40.5 -16.5t40.5 16.5t16.5 41.5t-16.5 41.5t-40.5 16.5t-40.5 -16.5t-16.5 -41.5t16.5 -41.5zM211 -86v23h-37v16l37 21v26l-41 -24q-10 20 -31 20q-16 0 -26 -10.5t-10 -27.5v-44h108zM103 40h108v-24
h-108v24zM211 54v25l-20 7v43l20 8v26l-108 -44v-23zM211 176v66h-21v-42h-87v-24h108zM211 290v23h-41v38h-22v-38h-23v42h-22v-65h108zM211 499v23h-68l68 50v19h-108v-23h66l-66 -47v-22h108zM125 607v30h86v24h-86v30h-22v-84h22zM132.5 447.5q9.5 9.5 24.5 9.5t25 -9.5
t10 -24.5q0 -14 -10 -24t-25 -10t-24.5 10t-9.5 24q0 15 9.5 24.5zM124 -44q0 7 4 11.5t10 4.5q7 0 11 -4.5t4 -11.5v-19h-29v19zM170 122v-28l-39 14z"/><glyph glyph-name="cent" unicode="¢" d="M125 -132h86v-24h-86v-30h-22v84h22v-30zM116.5 381.5q16.5 -16.5 40.5 -16.5t40.5 16.5t16.5 41.5t-16.5 41.5t-40.5 16.5t-40.5 -16.5t-16.5 -41.5t16.5 -41.5zM211 -86v23h-37v16l37 21v26l-41 -24q-10 20 -31 20q-16 0 -26 -10.5t-10 -27.5v-44h108zM103 40h108v-24
h-108v24zM211 54v25l-20 7v43l20 8v26l-108 -44v-23zM211 176v66h-21v-42h-87v-24h108zM211 290v23h-41v38h-22v-38h-23v42h-22v-65h108zM211 499v23h-68l68 50v19h-108v-23h66l-66 -47v-22h108zM125 607v30h86v24h-86v30h-22v-84h22zM132.5 447.5q9.5 9.5 24.5 9.5t25 -9.5
t10 -24.5q0 -14 -10 -24t-25 -10t-24.5 10t-9.5 24q0 15 9.5 24.5zM124 -44q0 7 4 11.5t10 4.5q7 0 11 -4.5t4 -11.5v-19h-29v19zM170 122v-28l-39 14z"/><glyph glyph-name="sterling" unicode="£" d="M125 -132h86v-24h-86v-30h-22v84h22v-30zM116.5 381.5q16.5 -16.5 40.5 -16.5t40.5 16.5t16.5 41.5t-16.5 41.5t-40.5 16.5t-40.5 -16.5t-16.5 -41.5t16.5 -41.5zM211 -86v23h-37v16l37 21v26l-41 -24q-10 20 -31 20q-16 0 -26 -10.5t-10 -27.5v-44h108zM103 40h108v-24
h-108v24zM211 54v25l-20 7v43l20 8v26l-108 -44v-23zM211 176v66h-21v-42h-87v-24h108zM211 290v23h-41v38h-22v-38h-23v42h-22v-65h108zM211 499v23h-68l68 50v19h-108v-23h66l-66 -47v-22h108zM125 607v30h86v24h-86v30h-22v-84h22zM132.5 447.5q9.5 9.5 24.5 9.5t25 -9.5
t10 -24.5q0 -14 -10 -24t-25 -10t-24.5 10t-9.5 24q0 15 9.5 24.5zM124 -44q0 7 4 11.5t10 4.5q7 0 11 -4.5t4 -11.5v-19h-29v19zM170 122v-28l-39 14z"/><glyph glyph-name="currency" unicode="¤" d="M125 -132h86v-24h-86v-30h-22v84h22v-30zM116.5 381.5q16.5 -16.5 40.5 -16.5t40.5 16.5t16.5 41.5t-16.5 41.5t-40.5 16.5t-40.5 -16.5t-16.5 -41.5t16.5 -41.5zM211 -86v23h-37v16l37 21v26l-41 -24q-10 20 -31 20q-16 0 -26 -10.5t-10 -27.5v-44h108zM103 40h108v-24
h-108v24zM211 54v25l-20 7v43l20 8v26l-108 -44v-23zM211 176v66h-21v-42h-87v-24h108zM211 290v23h-41v38h-22v-38h-23v42h-22v-65h108zM211 499v23h-68l68 50v19h-108v-23h66l-66 -47v-22h108zM125 607v30h86v24h-86v30h-22v-84h22zM132.5 447.5q9.5 9.5 24.5 9.5t25 -9.5
t10 -24.5q0 -14 -10 -24t-25 -10t-24.5 10t-9.5 24q0 15 9.5 24.5zM124 -44q0 7 4 11.5t10 4.5q7 0 11 -4.5t4 -11.5v-19h-29v19zM170 122v-28l-39 14z"/><glyph glyph-name="yen" unicode="¥" d="M125 -132h86v-24h-86v-30h-22v84h22v-30zM116.5 381.5q16.5 -16.5 40.5 -16.5t40.5 16.5t16.5 41.5t-16.5 41.5t-40.5 16.5t-40.5 -16.5t-16.5 -41.5t16.5 -41.5zM211 -86v23h-37v16l37 21v26l-41 -24q-10 20 -31 20q-16 0 -26 -10.5t-10 -27.5v-44h108zM103 40h108v-24
h-108v24zM211 54v25l-20 7v43l20 8v26l-108 -44v-23zM211 176v66h-21v-42h-87v-24h108zM211 290v23h-41v38h-22v-38h-23v42h-22v-65h108zM211 499v23h-68l68 50v19h-108v-23h66l-66 -47v-22h108zM125 607v30h86v24h-86v30h-22v-84h22zM132.5 447.5q9.5 9.5 24.5 9.5t25 -9.5
t10 -24.5q0 -14 -10 -24t-25 -10t-24.5 10t-9.5 24q0 15 9.5 24.5zM124 -44q0 7 4 11.5t10 4.5q7 0 11 -4.5t4 -11.5v-19h-29v19zM170 122v-28l-39 14z"/><glyph glyph-name="brokenbar" unicode="¦" d="M125 -132h86v-24h-86v-30h-22v84h22v-30zM116.5 381.5q16.5 -16.5 40.5 -16.5t40.5 16.5t16.5 41.5t-16.5 41.5t-40.5 16.5t-40.5 -16.5t-16.5 -41.5t16.5 -41.5zM211 -86v23h-37v16l37 21v26l-41 -24q-10 20 -31 20q-16 0 -26 -10.5t-10 -27.5v-44h108zM103 40h108v-24
h-108v24zM211 54v25l-20 7v43l20 8v26l-108 -44v-23zM211 176v66h-21v-42h-87v-24h108zM211 290v23h-41v38h-22v-38h-23v42h-22v-65h108zM211 499v23h-68l68 50v19h-108v-23h66l-66 -47v-22h108zM125 607v30h86v24h-86v30h-22v-84h22zM132.5 447.5q9.5 9.5 24.5 9.5t25 -9.5
t10 -24.5q0 -14 -10 -24t-25 -10t-24.5 10t-9.5 24q0 15 9.5 24.5zM124 -44q0 7 4 11.5t10 4.5q7 0 11 -4.5t4 -11.5v-19h-29v19zM170 122v-28l-39 14z"/><glyph glyph-name="section" unicode="§" d="M125 -132h86v-24h-86v-30h-22v84h22v-30zM116.5 381.5q16.5 -16.5 40.5 -16.5t40.5 16.5t16.5 41.5t-16.5 41.5t-40.5 16.5t-40.5 -16.5t-16.5 -41.5t16.5 -41.5zM211 -86v23h-37v16l37 21v26l-41 -24q-10 20 -31 20q-16 0 -26 -10.5t-10 -27.5v-44h108zM103 40h108v-24
h-108v24zM211 54v25l-20 7v43l20 8v26l-108 -44v-23zM211 176v66h-21v-42h-87v-24h108zM211 290v23h-41v38h-22v-38h-23v42h-22v-65h108zM211 499v23h-68l68 50v19h-108v-23h66l-66 -47v-22h108zM125 607v30h86v24h-86v30h-22v-84h22zM132.5 447.5q9.5 9.5 24.5 9.5t25 -9.5
t10 -24.5q0 -14 -10 -24t-25 -10t-24.5 10t-9.5 24q0 15 9.5 24.5zM124 -44q0 7 4 11.5t10 4.5q7 0 11 -4.5t4 -11.5v-19h-29v19zM170 122v-28l-39 14z"/><glyph glyph-name="dieresis" unicode="¨" d="M125 -132h86v-24h-86v-30h-22v84h22v-30zM116.5 381.5q16.5 -16.5 40.5 -16.5t40.5 16.5t16.5 41.5t-16.5 41.5t-40.5 16.5t-40.5 -16.5t-16.5 -41.5t16.5 -41.5zM211 -86v23h-37v16l37 21v26l-41 -24q-10 20 -31 20q-16 0 -26 -10.5t-10 -27.5v-44h108zM103 40h108v-24
h-108v24zM211 54v25l-20 7v43l20 8v26l-108 -44v-23zM211 176v66h-21v-42h-87v-24h108zM211 290v23h-41v38h-22v-38h-23v42h-22v-65h108zM211 499v23h-68l68 50v19h-108v-23h66l-66 -47v-22h108zM125 607v30h86v24h-86v30h-22v-84h22zM132.5 447.5q9.5 9.5 24.5 9.5t25 -9.5
t10 -24.5q0 -14 -10 -24t-25 -10t-24.5 10t-9.5 24q0 15 9.5 24.5zM124 -44q0 7 4 11.5t10 4.5q7 0 11 -4.5t4 -11.5v-19h-29v19zM170 122v-28l-39 14z"/><glyph glyph-name="copyright" unicode="©" d="M125 -132h86v-24h-86v-30h-22v84h22v-30zM116.5 381.5q16.5 -16.5 40.5 -16.5t40.5 16.5t16.5 41.5t-16.5 41.5t-40.5 16.5t-40.5 -16.5t-16.5 -41.5t16.5 -41.5zM211 -86v23h-37v16l37 21v26l-41 -24q-10 20 -31 20q-16 0 -26 -10.5t-10 -27.5v-44h108zM103 40h108v-24
h-108v24zM211 54v25l-20 7v43l20 8v26l-108 -44v-23zM211 176v66h-21v-42h-87v-24h108zM211 290v23h-41v38h-22v-38h-23v42h-22v-65h108zM211 499v23h-68l68 50v19h-108v-23h66l-66 -47v-22h108zM125 607v30h86v24h-86v30h-22v-84h22zM132.5 447.5q9.5 9.5 24.5 9.5t25 -9.5
t10 -24.5q0 -14 -10 -24t-25 -10t-24.5 10t-9.5 24q0 15 9.5 24.5zM124 -44q0 7 4 11.5t10 4.5q7 0 11 -4.5t4 -11.5v-19h-29v19zM170 122v-28l-39 14z"/><glyph glyph-name="ordfeminine" unicode="ª" d="M125 -132h86v-24h-86v-30h-22v84h22v-30zM116.5 381.5q16.5 -16.5 40.5 -16.5t40.5 16.5t16.5 41.5t-16.5 41.5t-40.5 16.5t-40.5 -16.5t-16.5 -41.5t16.5 -41.5zM211 -86v23h-37v16l37 21v26l-41 -24q-10 20 -31 20q-16 0 -26 -10.5t-10 -27.5v-44h108zM103 40h108v-24
h-108v24zM211 54v25l-20 7v43l20 8v26l-108 -44v-23zM211 176v66h-21v-42h-87v-24h108zM211 290v23h-41v38h-22v-38h-23v42h-22v-65h108zM211 499v23h-68l68 50v19h-108v-23h66l-66 -47v-22h108zM125 607v30h86v24h-86v30h-22v-84h22zM132.5 447.5q9.5 9.5 24.5 9.5t25 -9.5
t10 -24.5q0 -14 -10 -24t-25 -10t-24.5 10t-9.5 24q0 15 9.5 24.5zM124 -44q0 7 4 11.5t10 4.5q7 0 11 -4.5t4 -11.5v-19h-29v19zM170 122v-28l-39 14z"/><glyph glyph-name="guillemotleft" unicode="«" horiz-adv-x="372" d="M54 299l138 219h34l-137 -219l137 -219h-34zM281 518h34l-137 -219l137 -219h-34l-138 219z"/><glyph glyph-name="logicalnot" unicode="¬" d="M125 -132h86v-24h-86v-30h-22v84h22v-30zM116.5 381.5q16.5 -16.5 40.5 -16.5t40.5 16.5t16.5 41.5t-16.5 41.5t-40.5 16.5t-40.5 -16.5t-16.5 -41.5t16.5 -41.5zM211 -86v23h-37v16l37 21v26l-41 -24q-10 20 -31 20q-16 0 -26 -10.5t-10 -27.5v-44h108zM103 40h108v-24
h-108v24zM211 54v25l-20 7v43l20 8v26l-108 -44v-23zM211 176v66h-21v-42h-87v-24h108zM211 290v23h-41v38h-22v-38h-23v42h-22v-65h108zM211 499v23h-68l68 50v19h-108v-23h66l-66 -47v-22h108zM125 607v30h86v24h-86v30h-22v-84h22zM132.5 447.5q9.5 9.5 24.5 9.5t25 -9.5
t10 -24.5q0 -14 -10 -24t-25 -10t-24.5 10t-9.5 24q0 15 9.5 24.5zM124 -44q0 7 4 11.5t10 4.5q7 0 11 -4.5t4 -11.5v-19h-29v19zM170 122v-28l-39 14z"/><glyph glyph-name="uni00AD" unicode="­" d="M125 -132h86v-24h-86v-30h-22v84h22v-30zM116.5 381.5q16.5 -16.5 40.5 -16.5t40.5 16.5t16.5 41.5t-16.5 41.5t-40.5 16.5t-40.5 -16.5t-16.5 -41.5t16.5 -41.5zM211 -86v23h-37v16l37 21v26l-41 -24q-10 20 -31 20q-16 0 -26 -10.5t-10 -27.5v-44h108zM103 40h108v-24
h-108v24zM211 54v25l-20 7v43l20 8v26l-108 -44v-23zM211 176v66h-21v-42h-87v-24h108zM211 290v23h-41v38h-22v-38h-23v42h-22v-65h108zM211 499v23h-68l68 50v19h-108v-23h66l-66 -47v-22h108zM125 607v30h86v24h-86v30h-22v-84h22zM132.5 447.5q9.5 9.5 24.5 9.5t25 -9.5
t10 -24.5q0 -14 -10 -24t-25 -10t-24.5 10t-9.5 24q0 15 9.5 24.5zM124 -44q0 7 4 11.5t10 4.5q7 0 11 -4.5t4 -11.5v-19h-29v19zM170 122v-28l-39 14z"/><glyph glyph-name="registered" unicode="®" d="M125 -132h86v-24h-86v-30h-22v84h22v-30zM116.5 381.5q16.5 -16.5 40.5 -16.5t40.5 16.5t16.5 41.5t-16.5 41.5t-40.5 16.5t-40.5 -16.5t-16.5 -41.5t16.5 -41.5zM211 -86v23h-37v16l37 21v26l-41 -24q-10 20 -31 20q-16 0 -26 -10.5t-10 -27.5v-44h108zM103 40h108v-24
h-108v24zM211 54v25l-20 7v43l20 8v26l-108 -44v-23zM211 176v66h-21v-42h-87v-24h108zM211 290v23h-41v38h-22v-38h-23v42h-22v-65h108zM211 499v23h-68l68 50v19h-108v-23h66l-66 -47v-22h108zM125 607v30h86v24h-86v30h-22v-84h22zM132.5 447.5q9.5 9.5 24.5 9.5t25 -9.5
t10 -24.5q0 -14 -10 -24t-25 -10t-24.5 10t-9.5 24q0 15 9.5 24.5zM124 -44q0 7 4 11.5t10 4.5q7 0 11 -4.5t4 -11.5v-19h-29v19zM170 122v-28l-39 14z"/><glyph glyph-name="macron" unicode="¯" d="M125 -132h86v-24h-86v-30h-22v84h22v-30zM116.5 381.5q16.5 -16.5 40.5 -16.5t40.5 16.5t16.5 41.5t-16.5 41.5t-40.5 16.5t-40.5 -16.5t-16.5 -41.5t16.5 -41.5zM211 -86v23h-37v16l37 21v26l-41 -24q-10 20 -31 20q-16 0 -26 -10.5t-10 -27.5v-44h108zM103 40h108v-24
h-108v24zM211 54v25l-20 7v43l20 8v26l-108 -44v-23zM211 176v66h-21v-42h-87v-24h108zM211 290v23h-41v38h-22v-38h-23v42h-22v-65h108zM211 499v23h-68l68 50v19h-108v-23h66l-66 -47v-22h108zM125 607v30h86v24h-86v30h-22v-84h22zM132.5 447.5q9.5 9.5 24.5 9.5t25 -9.5
t10 -24.5q0 -14 -10 -24t-25 -10t-24.5 10t-9.5 24q0 15 9.5 24.5zM124 -44q0 7 4 11.5t10 4.5q7 0 11 -4.5t4 -11.5v-19h-29v19zM170 122v-28l-39 14z"/><glyph glyph-name="degree" unicode="°" d="M125 -132h86v-24h-86v-30h-22v84h22v-30zM116.5 381.5q16.5 -16.5 40.5 -16.5t40.5 16.5t16.5 41.5t-16.5 41.5t-40.5 16.5t-40.5 -16.5t-16.5 -41.5t16.5 -41.5zM211 -86v23h-37v16l37 21v26l-41 -24q-10 20 -31 20q-16 0 -26 -10.5t-10 -27.5v-44h108zM103 40h108v-24
h-108v24zM211 54v25l-20 7v43l20 8v26l-108 -44v-23zM211 176v66h-21v-42h-87v-24h108zM211 290v23h-41v38h-22v-38h-23v42h-22v-65h108zM211 499v23h-68l68 50v19h-108v-23h66l-66 -47v-22h108zM125 607v30h86v24h-86v30h-22v-84h22zM132.5 447.5q9.5 9.5 24.5 9.5t25 -9.5
t10 -24.5q0 -14 -10 -24t-25 -10t-24.5 10t-9.5 24q0 15 9.5 24.5zM124 -44q0 7 4 11.5t10 4.5q7 0 11 -4.5t4 -11.5v-19h-29v19zM170 122v-28l-39 14z"/><glyph glyph-name="plusminus" unicode="±" d="M125 -132h86v-24h-86v-30h-22v84h22v-30zM116.5 381.5q16.5 -16.5 40.5 -16.5t40.5 16.5t16.5 41.5t-16.5 41.5t-40.5 16.5t-40.5 -16.5t-16.5 -41.5t16.5 -41.5zM211 -86v23h-37v16l37 21v26l-41 -24q-10 20 -31 20q-16 0 -26 -10.5t-10 -27.5v-44h108zM103 40h108v-24
h-108v24zM211 54v25l-20 7v43l20 8v26l-108 -44v-23zM211 176v66h-21v-42h-87v-24h108zM211 290v23h-41v38h-22v-38h-23v42h-22v-65h108zM211 499v23h-68l68 50v19h-108v-23h66l-66 -47v-22h108zM125 607v30h86v24h-86v30h-22v-84h22zM132.5 447.5q9.5 9.5 24.5 9.5t25 -9.5
t10 -24.5q0 -14 -10 -24t-25 -10t-24.5 10t-9.5 24q0 15 9.5 24.5zM124 -44q0 7 4 11.5t10 4.5q7 0 11 -4.5t4 -11.5v-19h-29v19zM170 122v-28l-39 14z"/><glyph glyph-name="uni00B2" unicode="²" d="M125 -132h86v-24h-86v-30h-22v84h22v-30zM116.5 381.5q16.5 -16.5 40.5 -16.5t40.5 16.5t16.5 41.5t-16.5 41.5t-40.5 16.5t-40.5 -16.5t-16.5 -41.5t16.5 -41.5zM211 -86v23h-37v16l37 21v26l-41 -24q-10 20 -31 20q-16 0 -26 -10.5t-10 -27.5v-44h108zM103 40h108v-24
h-108v24zM211 54v25l-20 7v43l20 8v26l-108 -44v-23zM211 176v66h-21v-42h-87v-24h108zM211 290v23h-41v38h-22v-38h-23v42h-22v-65h108zM211 499v23h-68l68 50v19h-108v-23h66l-66 -47v-22h108zM125 607v30h86v24h-86v30h-22v-84h22zM132.5 447.5q9.5 9.5 24.5 9.5t25 -9.5
t10 -24.5q0 -14 -10 -24t-25 -10t-24.5 10t-9.5 24q0 15 9.5 24.5zM124 -44q0 7 4 11.5t10 4.5q7 0 11 -4.5t4 -11.5v-19h-29v19zM170 122v-28l-39 14z"/><glyph glyph-name="uni00B3" unicode="³" d="M125 -132h86v-24h-86v-30h-22v84h22v-30zM116.5 381.5q16.5 -16.5 40.5 -16.5t40.5 16.5t16.5 41.5t-16.5 41.5t-40.5 16.5t-40.5 -16.5t-16.5 -41.5t16.5 -41.5zM211 -86v23h-37v16l37 21v26l-41 -24q-10 20 -31 20q-16 0 -26 -10.5t-10 -27.5v-44h108zM103 40h108v-24
h-108v24zM211 54v25l-20 7v43l20 8v26l-108 -44v-23zM211 176v66h-21v-42h-87v-24h108zM211 290v23h-41v38h-22v-38h-23v42h-22v-65h108zM211 499v23h-68l68 50v19h-108v-23h66l-66 -47v-22h108zM125 607v30h86v24h-86v30h-22v-84h22zM132.5 447.5q9.5 9.5 24.5 9.5t25 -9.5
t10 -24.5q0 -14 -10 -24t-25 -10t-24.5 10t-9.5 24q0 15 9.5 24.5zM124 -44q0 7 4 11.5t10 4.5q7 0 11 -4.5t4 -11.5v-19h-29v19zM170 122v-28l-39 14z"/><glyph glyph-name="acute" unicode="´" d="M125 -132h86v-24h-86v-30h-22v84h22v-30zM116.5 381.5q16.5 -16.5 40.5 -16.5t40.5 16.5t16.5 41.5t-16.5 41.5t-40.5 16.5t-40.5 -16.5t-16.5 -41.5t16.5 -41.5zM211 -86v23h-37v16l37 21v26l-41 -24q-10 20 -31 20q-16 0 -26 -10.5t-10 -27.5v-44h108zM103 40h108v-24
h-108v24zM211 54v25l-20 7v43l20 8v26l-108 -44v-23zM211 176v66h-21v-42h-87v-24h108zM211 290v23h-41v38h-22v-38h-23v42h-22v-65h108zM211 499v23h-68l68 50v19h-108v-23h66l-66 -47v-22h108zM125 607v30h86v24h-86v30h-22v-84h22zM132.5 447.5q9.5 9.5 24.5 9.5t25 -9.5
t10 -24.5q0 -14 -10 -24t-25 -10t-24.5 10t-9.5 24q0 15 9.5 24.5zM124 -44q0 7 4 11.5t10 4.5q7 0 11 -4.5t4 -11.5v-19h-29v19zM170 122v-28l-39 14z"/><glyph glyph-name="uni00B5" unicode="µ" d="M125 -132h86v-24h-86v-30h-22v84h22v-30zM116.5 381.5q16.5 -16.5 40.5 -16.5t40.5 16.5t16.5 41.5t-16.5 41.5t-40.5 16.5t-40.5 -16.5t-16.5 -41.5t16.5 -41.5zM211 -86v23h-37v16l37 21v26l-41 -24q-10 20 -31 20q-16 0 -26 -10.5t-10 -27.5v-44h108zM103 40h108v-24
h-108v24zM211 54v25l-20 7v43l20 8v26l-108 -44v-23zM211 176v66h-21v-42h-87v-24h108zM211 290v23h-41v38h-22v-38h-23v42h-22v-65h108zM211 499v23h-68l68 50v19h-108v-23h66l-66 -47v-22h108zM125 607v30h86v24h-86v30h-22v-84h22zM132.5 447.5q9.5 9.5 24.5 9.5t25 -9.5
t10 -24.5q0 -14 -10 -24t-25 -10t-24.5 10t-9.5 24q0 15 9.5 24.5zM124 -44q0 7 4 11.5t10 4.5q7 0 11 -4.5t4 -11.5v-19h-29v19zM170 122v-28l-39 14z"/><glyph glyph-name="paragraph" unicode="¶" d="M125 -132h86v-24h-86v-30h-22v84h22v-30zM116.5 381.5q16.5 -16.5 40.5 -16.5t40.5 16.5t16.5 41.5t-16.5 41.5t-40.5 16.5t-40.5 -16.5t-16.5 -41.5t16.5 -41.5zM211 -86v23h-37v16l37 21v26l-41 -24q-10 20 -31 20q-16 0 -26 -10.5t-10 -27.5v-44h108zM103 40h108v-24
h-108v24zM211 54v25l-20 7v43l20 8v26l-108 -44v-23zM211 176v66h-21v-42h-87v-24h108zM211 290v23h-41v38h-22v-38h-23v42h-22v-65h108zM211 499v23h-68l68 50v19h-108v-23h66l-66 -47v-22h108zM125 607v30h86v24h-86v30h-22v-84h22zM132.5 447.5q9.5 9.5 24.5 9.5t25 -9.5
t10 -24.5q0 -14 -10 -24t-25 -10t-24.5 10t-9.5 24q0 15 9.5 24.5zM124 -44q0 7 4 11.5t10 4.5q7 0 11 -4.5t4 -11.5v-19h-29v19zM170 122v-28l-39 14z"/><glyph glyph-name="periodcentered" unicode="·" d="M125 -132h86v-24h-86v-30h-22v84h22v-30zM116.5 381.5q16.5 -16.5 40.5 -16.5t40.5 16.5t16.5 41.5t-16.5 41.5t-40.5 16.5t-40.5 -16.5t-16.5 -41.5t16.5 -41.5zM211 -86v23h-37v16l37 21v26l-41 -24q-10 20 -31 20q-16 0 -26 -10.5t-10 -27.5v-44h108zM103 40h108v-24
h-108v24zM211 54v25l-20 7v43l20 8v26l-108 -44v-23zM211 176v66h-21v-42h-87v-24h108zM211 290v23h-41v38h-22v-38h-23v42h-22v-65h108zM211 499v23h-68l68 50v19h-108v-23h66l-66 -47v-22h108zM125 607v30h86v24h-86v30h-22v-84h22zM132.5 447.5q9.5 9.5 24.5 9.5t25 -9.5
t10 -24.5q0 -14 -10 -24t-25 -10t-24.5 10t-9.5 24q0 15 9.5 24.5zM124 -44q0 7 4 11.5t10 4.5q7 0 11 -4.5t4 -11.5v-19h-29v19zM170 122v-28l-39 14z"/><glyph glyph-name="cedilla" unicode="¸" d="M125 -132h86v-24h-86v-30h-22v84h22v-30zM116.5 381.5q16.5 -16.5 40.5 -16.5t40.5 16.5t16.5 41.5t-16.5 41.5t-40.5 16.5t-40.5 -16.5t-16.5 -41.5t16.5 -41.5zM211 -86v23h-37v16l37 21v26l-41 -24q-10 20 -31 20q-16 0 -26 -10.5t-10 -27.5v-44h108zM103 40h108v-24
h-108v24zM211 54v25l-20 7v43l20 8v26l-108 -44v-23zM211 176v66h-21v-42h-87v-24h108zM211 290v23h-41v38h-22v-38h-23v42h-22v-65h108zM211 499v23h-68l68 50v19h-108v-23h66l-66 -47v-22h108zM125 607v30h86v24h-86v30h-22v-84h22zM132.5 447.5q9.5 9.5 24.5 9.5t25 -9.5
t10 -24.5q0 -14 -10 -24t-25 -10t-24.5 10t-9.5 24q0 15 9.5 24.5zM124 -44q0 7 4 11.5t10 4.5q7 0 11 -4.5t4 -11.5v-19h-29v19zM170 122v-28l-39 14z"/><glyph glyph-name="uni00B9" unicode="¹" d="M125 -132h86v-24h-86v-30h-22v84h22v-30zM116.5 381.5q16.5 -16.5 40.5 -16.5t40.5 16.5t16.5 41.5t-16.5 41.5t-40.5 16.5t-40.5 -16.5t-16.5 -41.5t16.5 -41.5zM211 -86v23h-37v16l37 21v26l-41 -24q-10 20 -31 20q-16 0 -26 -10.5t-10 -27.5v-44h108zM103 40h108v-24
h-108v24zM211 54v25l-20 7v43l20 8v26l-108 -44v-23zM211 176v66h-21v-42h-87v-24h108zM211 290v23h-41v38h-22v-38h-23v42h-22v-65h108zM211 499v23h-68l68 50v19h-108v-23h66l-66 -47v-22h108zM125 607v30h86v24h-86v30h-22v-84h22zM132.5 447.5q9.5 9.5 24.5 9.5t25 -9.5
t10 -24.5q0 -14 -10 -24t-25 -10t-24.5 10t-9.5 24q0 15 9.5 24.5zM124 -44q0 7 4 11.5t10 4.5q7 0 11 -4.5t4 -11.5v-19h-29v19zM170 122v-28l-39 14z"/><glyph glyph-name="ordmasculine" unicode="º" d="M125 -132h86v-24h-86v-30h-22v84h22v-30zM116.5 381.5q16.5 -16.5 40.5 -16.5t40.5 16.5t16.5 41.5t-16.5 41.5t-40.5 16.5t-40.5 -16.5t-16.5 -41.5t16.5 -41.5zM211 -86v23h-37v16l37 21v26l-41 -24q-10 20 -31 20q-16 0 -26 -10.5t-10 -27.5v-44h108zM103 40h108v-24
h-108v24zM211 54v25l-20 7v43l20 8v26l-108 -44v-23zM211 176v66h-21v-42h-87v-24h108zM211 290v23h-41v38h-22v-38h-23v42h-22v-65h108zM211 499v23h-68l68 50v19h-108v-23h66l-66 -47v-22h108zM125 607v30h86v24h-86v30h-22v-84h22zM132.5 447.5q9.5 9.5 24.5 9.5t25 -9.5
t10 -24.5q0 -14 -10 -24t-25 -10t-24.5 10t-9.5 24q0 15 9.5 24.5zM124 -44q0 7 4 11.5t10 4.5q7 0 11 -4.5t4 -11.5v-19h-29v19zM170 122v-28l-39 14z"/><glyph glyph-name="guillemotright" unicode="»" horiz-adv-x="372" d="M146 80l137 219l-137 219h34l138 -219l-138 -219h-34zM194 299l-137 219h34l138 -219l-138 -219h-34z"/><glyph glyph-name="onequarter" unicode="¼" d="M125 -132h86v-24h-86v-30h-22v84h22v-30zM116.5 381.5q16.5 -16.5 40.5 -16.5t40.5 16.5t16.5 41.5t-16.5 41.5t-40.5 16.5t-40.5 -16.5t-16.5 -41.5t16.5 -41.5zM211 -86v23h-37v16l37 21v26l-41 -24q-10 20 -31 20q-16 0 -26 -10.5t-10 -27.5v-44h108zM103 40h108v-24
h-108v24zM211 54v25l-20 7v43l20 8v26l-108 -44v-23zM211 176v66h-21v-42h-87v-24h108zM211 290v23h-41v38h-22v-38h-23v42h-22v-65h108zM211 499v23h-68l68 50v19h-108v-23h66l-66 -47v-22h108zM125 607v30h86v24h-86v30h-22v-84h22zM132.5 447.5q9.5 9.5 24.5 9.5t25 -9.5
t10 -24.5q0 -14 -10 -24t-25 -10t-24.5 10t-9.5 24q0 15 9.5 24.5zM124 -44q0 7 4 11.5t10 4.5q7 0 11 -4.5t4 -11.5v-19h-29v19zM170 122v-28l-39 14z"/><glyph glyph-name="onehalf" unicode="½" d="M125 -132h86v-24h-86v-30h-22v84h22v-30zM116.5 381.5q16.5 -16.5 40.5 -16.5t40.5 16.5t16.5 41.5t-16.5 41.5t-40.5 16.5t-40.5 -16.5t-16.5 -41.5t16.5 -41.5zM211 -86v23h-37v16l37 21v26l-41 -24q-10 20 -31 20q-16 0 -26 -10.5t-10 -27.5v-44h108zM103 40h108v-24
h-108v24zM211 54v25l-20 7v43l20 8v26l-108 -44v-23zM211 176v66h-21v-42h-87v-24h108zM211 290v23h-41v38h-22v-38h-23v42h-22v-65h108zM211 499v23h-68l68 50v19h-108v-23h66l-66 -47v-22h108zM125 607v30h86v24h-86v30h-22v-84h22zM132.5 447.5q9.5 9.5 24.5 9.5t25 -9.5
t10 -24.5q0 -14 -10 -24t-25 -10t-24.5 10t-9.5 24q0 15 9.5 24.5zM124 -44q0 7 4 11.5t10 4.5q7 0 11 -4.5t4 -11.5v-19h-29v19zM170 122v-28l-39 14z"/><glyph glyph-name="threequarters" unicode="¾" d="M125 -132h86v-24h-86v-30h-22v84h22v-30zM116.5 381.5q16.5 -16.5 40.5 -16.5t40.5 16.5t16.5 41.5t-16.5 41.5t-40.5 16.5t-40.5 -16.5t-16.5 -41.5t16.5 -41.5zM211 -86v23h-37v16l37 21v26l-41 -24q-10 20 -31 20q-16 0 -26 -10.5t-10 -27.5v-44h108zM103 40h108v-24
h-108v24zM211 54v25l-20 7v43l20 8v26l-108 -44v-23zM211 176v66h-21v-42h-87v-24h108zM211 290v23h-41v38h-22v-38h-23v42h-22v-65h108zM211 499v23h-68l68 50v19h-108v-23h66l-66 -47v-22h108zM125 607v30h86v24h-86v30h-22v-84h22zM132.5 447.5q9.5 9.5 24.5 9.5t25 -9.5
t10 -24.5q0 -14 -10 -24t-25 -10t-24.5 10t-9.5 24q0 15 9.5 24.5zM124 -44q0 7 4 11.5t10 4.5q7 0 11 -4.5t4 -11.5v-19h-29v19zM170 122v-28l-39 14z"/><glyph glyph-name="questiondown" unicode="¿" d="M125 -132h86v-24h-86v-30h-22v84h22v-30zM116.5 381.5q16.5 -16.5 40.5 -16.5t40.5 16.5t16.5 41.5t-16.5 41.5t-40.5 16.5t-40.5 -16.5t-16.5 -41.5t16.5 -41.5zM211 -86v23h-37v16l37 21v26l-41 -24q-10 20 -31 20q-16 0 -26 -10.5t-10 -27.5v-44h108zM103 40h108v-24
h-108v24zM211 54v25l-20 7v43l20 8v26l-108 -44v-23zM211 176v66h-21v-42h-87v-24h108zM211 290v23h-41v38h-22v-38h-23v42h-22v-65h108zM211 499v23h-68l68 50v19h-108v-23h66l-66 -47v-22h108zM125 607v30h86v24h-86v30h-22v-84h22zM132.5 447.5q9.5 9.5 24.5 9.5t25 -9.5
t10 -24.5q0 -14 -10 -24t-25 -10t-24.5 10t-9.5 24q0 15 9.5 24.5zM124 -44q0 7 4 11.5t10 4.5q7 0 11 -4.5t4 -11.5v-19h-29v19zM170 122v-28l-39 14z"/><glyph glyph-name="Agrave" unicode="À" d="M125 -132h86v-24h-86v-30h-22v84h22v-30zM116.5 381.5q16.5 -16.5 40.5 -16.5t40.5 16.5t16.5 41.5t-16.5 41.5t-40.5 16.5t-40.5 -16.5t-16.5 -41.5t16.5 -41.5zM211 -86v23h-37v16l37 21v26l-41 -24q-10 20 -31 20q-16 0 -26 -10.5t-10 -27.5v-44h108zM103 40h108v-24
h-108v24zM211 54v25l-20 7v43l20 8v26l-108 -44v-23zM211 176v66h-21v-42h-87v-24h108zM211 290v23h-41v38h-22v-38h-23v42h-22v-65h108zM211 499v23h-68l68 50v19h-108v-23h66l-66 -47v-22h108zM125 607v30h86v24h-86v30h-22v-84h22zM132.5 447.5q9.5 9.5 24.5 9.5t25 -9.5
t10 -24.5q0 -14 -10 -24t-25 -10t-24.5 10t-9.5 24q0 15 9.5 24.5zM124 -44q0 7 4 11.5t10 4.5q7 0 11 -4.5t4 -11.5v-19h-29v19zM170 122v-28l-39 14z"/><glyph glyph-name="Aacute" unicode="Á" d="M125 -132h86v-24h-86v-30h-22v84h22v-30zM116.5 381.5q16.5 -16.5 40.5 -16.5t40.5 16.5t16.5 41.5t-16.5 41.5t-40.5 16.5t-40.5 -16.5t-16.5 -41.5t16.5 -41.5zM211 -86v23h-37v16l37 21v26l-41 -24q-10 20 -31 20q-16 0 -26 -10.5t-10 -27.5v-44h108zM103 40h108v-24
h-108v24zM211 54v25l-20 7v43l20 8v26l-108 -44v-23zM211 176v66h-21v-42h-87v-24h108zM211 290v23h-41v38h-22v-38h-23v42h-22v-65h108zM211 499v23h-68l68 50v19h-108v-23h66l-66 -47v-22h108zM125 607v30h86v24h-86v30h-22v-84h22zM132.5 447.5q9.5 9.5 24.5 9.5t25 -9.5
t10 -24.5q0 -14 -10 -24t-25 -10t-24.5 10t-9.5 24q0 15 9.5 24.5zM124 -44q0 7 4 11.5t10 4.5q7 0 11 -4.5t4 -11.5v-19h-29v19zM170 122v-28l-39 14z"/><glyph glyph-name="Acircumflex" unicode="Â" d="M125 -132h86v-24h-86v-30h-22v84h22v-30zM116.5 381.5q16.5 -16.5 40.5 -16.5t40.5 16.5t16.5 41.5t-16.5 41.5t-40.5 16.5t-40.5 -16.5t-16.5 -41.5t16.5 -41.5zM211 -86v23h-37v16l37 21v26l-41 -24q-10 20 -31 20q-16 0 -26 -10.5t-10 -27.5v-44h108zM103 40h108v-24
h-108v24zM211 54v25l-20 7v43l20 8v26l-108 -44v-23zM211 176v66h-21v-42h-87v-24h108zM211 290v23h-41v38h-22v-38h-23v42h-22v-65h108zM211 499v23h-68l68 50v19h-108v-23h66l-66 -47v-22h108zM125 607v30h86v24h-86v30h-22v-84h22zM132.5 447.5q9.5 9.5 24.5 9.5t25 -9.5
t10 -24.5q0 -14 -10 -24t-25 -10t-24.5 10t-9.5 24q0 15 9.5 24.5zM124 -44q0 7 4 11.5t10 4.5q7 0 11 -4.5t4 -11.5v-19h-29v19zM170 122v-28l-39 14z"/><glyph glyph-name="Atilde" unicode="Ã" d="M125 -132h86v-24h-86v-30h-22v84h22v-30zM116.5 381.5q16.5 -16.5 40.5 -16.5t40.5 16.5t16.5 41.5t-16.5 41.5t-40.5 16.5t-40.5 -16.5t-16.5 -41.5t16.5 -41.5zM211 -86v23h-37v16l37 21v26l-41 -24q-10 20 -31 20q-16 0 -26 -10.5t-10 -27.5v-44h108zM103 40h108v-24
h-108v24zM211 54v25l-20 7v43l20 8v26l-108 -44v-23zM211 176v66h-21v-42h-87v-24h108zM211 290v23h-41v38h-22v-38h-23v42h-22v-65h108zM211 499v23h-68l68 50v19h-108v-23h66l-66 -47v-22h108zM125 607v30h86v24h-86v30h-22v-84h22zM132.5 447.5q9.5 9.5 24.5 9.5t25 -9.5
t10 -24.5q0 -14 -10 -24t-25 -10t-24.5 10t-9.5 24q0 15 9.5 24.5zM124 -44q0 7 4 11.5t10 4.5q7 0 11 -4.5t4 -11.5v-19h-29v19zM170 122v-28l-39 14z"/><glyph glyph-name="Adieresis" unicode="Ä" d="M125 -132h86v-24h-86v-30h-22v84h22v-30zM116.5 381.5q16.5 -16.5 40.5 -16.5t40.5 16.5t16.5 41.5t-16.5 41.5t-40.5 16.5t-40.5 -16.5t-16.5 -41.5t16.5 -41.5zM211 -86v23h-37v16l37 21v26l-41 -24q-10 20 -31 20q-16 0 -26 -10.5t-10 -27.5v-44h108zM103 40h108v-24
h-108v24zM211 54v25l-20 7v43l20 8v26l-108 -44v-23zM211 176v66h-21v-42h-87v-24h108zM211 290v23h-41v38h-22v-38h-23v42h-22v-65h108zM211 499v23h-68l68 50v19h-108v-23h66l-66 -47v-22h108zM125 607v30h86v24h-86v30h-22v-84h22zM132.5 447.5q9.5 9.5 24.5 9.5t25 -9.5
t10 -24.5q0 -14 -10 -24t-25 -10t-24.5 10t-9.5 24q0 15 9.5 24.5zM124 -44q0 7 4 11.5t10 4.5q7 0 11 -4.5t4 -11.5v-19h-29v19zM170 122v-28l-39 14z"/><glyph glyph-name="Aring" unicode="Å" d="M125 -132h86v-24h-86v-30h-22v84h22v-30zM116.5 381.5q16.5 -16.5 40.5 -16.5t40.5 16.5t16.5 41.5t-16.5 41.5t-40.5 16.5t-40.5 -16.5t-16.5 -41.5t16.5 -41.5zM211 -86v23h-37v16l37 21v26l-41 -24q-10 20 -31 20q-16 0 -26 -10.5t-10 -27.5v-44h108zM103 40h108v-24
h-108v24zM211 54v25l-20 7v43l20 8v26l-108 -44v-23zM211 176v66h-21v-42h-87v-24h108zM211 290v23h-41v38h-22v-38h-23v42h-22v-65h108zM211 499v23h-68l68 50v19h-108v-23h66l-66 -47v-22h108zM125 607v30h86v24h-86v30h-22v-84h22zM132.5 447.5q9.5 9.5 24.5 9.5t25 -9.5
t10 -24.5q0 -14 -10 -24t-25 -10t-24.5 10t-9.5 24q0 15 9.5 24.5zM124 -44q0 7 4 11.5t10 4.5q7 0 11 -4.5t4 -11.5v-19h-29v19zM170 122v-28l-39 14z"/><glyph glyph-name="AE" unicode="Æ" d="M125 -132h86v-24h-86v-30h-22v84h22v-30zM116.5 381.5q16.5 -16.5 40.5 -16.5t40.5 16.5t16.5 41.5t-16.5 41.5t-40.5 16.5t-40.5 -16.5t-16.5 -41.5t16.5 -41.5zM211 -86v23h-37v16l37 21v26l-41 -24q-10 20 -31 20q-16 0 -26 -10.5t-10 -27.5v-44h108zM103 40h108v-24
h-108v24zM211 54v25l-20 7v43l20 8v26l-108 -44v-23zM211 176v66h-21v-42h-87v-24h108zM211 290v23h-41v38h-22v-38h-23v42h-22v-65h108zM211 499v23h-68l68 50v19h-108v-23h66l-66 -47v-22h108zM125 607v30h86v24h-86v30h-22v-84h22zM132.5 447.5q9.5 9.5 24.5 9.5t25 -9.5
t10 -24.5q0 -14 -10 -24t-25 -10t-24.5 10t-9.5 24q0 15 9.5 24.5zM124 -44q0 7 4 11.5t10 4.5q7 0 11 -4.5t4 -11.5v-19h-29v19zM170 122v-28l-39 14z"/><glyph glyph-name="Ccedilla" unicode="Ç" d="M125 -132h86v-24h-86v-30h-22v84h22v-30zM116.5 381.5q16.5 -16.5 40.5 -16.5t40.5 16.5t16.5 41.5t-16.5 41.5t-40.5 16.5t-40.5 -16.5t-16.5 -41.5t16.5 -41.5zM211 -86v23h-37v16l37 21v26l-41 -24q-10 20 -31 20q-16 0 -26 -10.5t-10 -27.5v-44h108zM103 40h108v-24
h-108v24zM211 54v25l-20 7v43l20 8v26l-108 -44v-23zM211 176v66h-21v-42h-87v-24h108zM211 290v23h-41v38h-22v-38h-23v42h-22v-65h108zM211 499v23h-68l68 50v19h-108v-23h66l-66 -47v-22h108zM125 607v30h86v24h-86v30h-22v-84h22zM132.5 447.5q9.5 9.5 24.5 9.5t25 -9.5
t10 -24.5q0 -14 -10 -24t-25 -10t-24.5 10t-9.5 24q0 15 9.5 24.5zM124 -44q0 7 4 11.5t10 4.5q7 0 11 -4.5t4 -11.5v-19h-29v19zM170 122v-28l-39 14z"/><glyph glyph-name="Egrave" unicode="È" d="M125 -132h86v-24h-86v-30h-22v84h22v-30zM116.5 381.5q16.5 -16.5 40.5 -16.5t40.5 16.5t16.5 41.5t-16.5 41.5t-40.5 16.5t-40.5 -16.5t-16.5 -41.5t16.5 -41.5zM211 -86v23h-37v16l37 21v26l-41 -24q-10 20 -31 20q-16 0 -26 -10.5t-10 -27.5v-44h108zM103 40h108v-24
h-108v24zM211 54v25l-20 7v43l20 8v26l-108 -44v-23zM211 176v66h-21v-42h-87v-24h108zM211 290v23h-41v38h-22v-38h-23v42h-22v-65h108zM211 499v23h-68l68 50v19h-108v-23h66l-66 -47v-22h108zM125 607v30h86v24h-86v30h-22v-84h22zM132.5 447.5q9.5 9.5 24.5 9.5t25 -9.5
t10 -24.5q0 -14 -10 -24t-25 -10t-24.5 10t-9.5 24q0 15 9.5 24.5zM124 -44q0 7 4 11.5t10 4.5q7 0 11 -4.5t4 -11.5v-19h-29v19zM170 122v-28l-39 14z"/><glyph glyph-name="Eacute" unicode="É" d="M125 -132h86v-24h-86v-30h-22v84h22v-30zM116.5 381.5q16.5 -16.5 40.5 -16.5t40.5 16.5t16.5 41.5t-16.5 41.5t-40.5 16.5t-40.5 -16.5t-16.5 -41.5t16.5 -41.5zM211 -86v23h-37v16l37 21v26l-41 -24q-10 20 -31 20q-16 0 -26 -10.5t-10 -27.5v-44h108zM103 40h108v-24
h-108v24zM211 54v25l-20 7v43l20 8v26l-108 -44v-23zM211 176v66h-21v-42h-87v-24h108zM211 290v23h-41v38h-22v-38h-23v42h-22v-65h108zM211 499v23h-68l68 50v19h-108v-23h66l-66 -47v-22h108zM125 607v30h86v24h-86v30h-22v-84h22zM132.5 447.5q9.5 9.5 24.5 9.5t25 -9.5
t10 -24.5q0 -14 -10 -24t-25 -10t-24.5 10t-9.5 24q0 15 9.5 24.5zM124 -44q0 7 4 11.5t10 4.5q7 0 11 -4.5t4 -11.5v-19h-29v19zM170 122v-28l-39 14z"/><glyph glyph-name="Ecircumflex" unicode="Ê" d="M125 -132h86v-24h-86v-30h-22v84h22v-30zM116.5 381.5q16.5 -16.5 40.5 -16.5t40.5 16.5t16.5 41.5t-16.5 41.5t-40.5 16.5t-40.5 -16.5t-16.5 -41.5t16.5 -41.5zM211 -86v23h-37v16l37 21v26l-41 -24q-10 20 -31 20q-16 0 -26 -10.5t-10 -27.5v-44h108zM103 40h108v-24
h-108v24zM211 54v25l-20 7v43l20 8v26l-108 -44v-23zM211 176v66h-21v-42h-87v-24h108zM211 290v23h-41v38h-22v-38h-23v42h-22v-65h108zM211 499v23h-68l68 50v19h-108v-23h66l-66 -47v-22h108zM125 607v30h86v24h-86v30h-22v-84h22zM132.5 447.5q9.5 9.5 24.5 9.5t25 -9.5
t10 -24.5q0 -14 -10 -24t-25 -10t-24.5 10t-9.5 24q0 15 9.5 24.5zM124 -44q0 7 4 11.5t10 4.5q7 0 11 -4.5t4 -11.5v-19h-29v19zM170 122v-28l-39 14z"/><glyph glyph-name="Edieresis" unicode="Ë" d="M125 -132h86v-24h-86v-30h-22v84h22v-30zM116.5 381.5q16.5 -16.5 40.5 -16.5t40.5 16.5t16.5 41.5t-16.5 41.5t-40.5 16.5t-40.5 -16.5t-16.5 -41.5t16.5 -41.5zM211 -86v23h-37v16l37 21v26l-41 -24q-10 20 -31 20q-16 0 -26 -10.5t-10 -27.5v-44h108zM103 40h108v-24
h-108v24zM211 54v25l-20 7v43l20 8v26l-108 -44v-23zM211 176v66h-21v-42h-87v-24h108zM211 290v23h-41v38h-22v-38h-23v42h-22v-65h108zM211 499v23h-68l68 50v19h-108v-23h66l-66 -47v-22h108zM125 607v30h86v24h-86v30h-22v-84h22zM132.5 447.5q9.5 9.5 24.5 9.5t25 -9.5
t10 -24.5q0 -14 -10 -24t-25 -10t-24.5 10t-9.5 24q0 15 9.5 24.5zM124 -44q0 7 4 11.5t10 4.5q7 0 11 -4.5t4 -11.5v-19h-29v19zM170 122v-28l-39 14z"/><glyph glyph-name="Igrave" unicode="Ì" d="M125 -132h86v-24h-86v-30h-22v84h22v-30zM116.5 381.5q16.5 -16.5 40.5 -16.5t40.5 16.5t16.5 41.5t-16.5 41.5t-40.5 16.5t-40.5 -16.5t-16.5 -41.5t16.5 -41.5zM211 -86v23h-37v16l37 21v26l-41 -24q-10 20 -31 20q-16 0 -26 -10.5t-10 -27.5v-44h108zM103 40h108v-24
h-108v24zM211 54v25l-20 7v43l20 8v26l-108 -44v-23zM211 176v66h-21v-42h-87v-24h108zM211 290v23h-41v38h-22v-38h-23v42h-22v-65h108zM211 499v23h-68l68 50v19h-108v-23h66l-66 -47v-22h108zM125 607v30h86v24h-86v30h-22v-84h22zM132.5 447.5q9.5 9.5 24.5 9.5t25 -9.5
t10 -24.5q0 -14 -10 -24t-25 -10t-24.5 10t-9.5 24q0 15 9.5 24.5zM124 -44q0 7 4 11.5t10 4.5q7 0 11 -4.5t4 -11.5v-19h-29v19zM170 122v-28l-39 14z"/><glyph glyph-name="Iacute" unicode="Í" d="M125 -132h86v-24h-86v-30h-22v84h22v-30zM116.5 381.5q16.5 -16.5 40.5 -16.5t40.5 16.5t16.5 41.5t-16.5 41.5t-40.5 16.5t-40.5 -16.5t-16.5 -41.5t16.5 -41.5zM211 -86v23h-37v16l37 21v26l-41 -24q-10 20 -31 20q-16 0 -26 -10.5t-10 -27.5v-44h108zM103 40h108v-24
h-108v24zM211 54v25l-20 7v43l20 8v26l-108 -44v-23zM211 176v66h-21v-42h-87v-24h108zM211 290v23h-41v38h-22v-38h-23v42h-22v-65h108zM211 499v23h-68l68 50v19h-108v-23h66l-66 -47v-22h108zM125 607v30h86v24h-86v30h-22v-84h22zM132.5 447.5q9.5 9.5 24.5 9.5t25 -9.5
t10 -24.5q0 -14 -10 -24t-25 -10t-24.5 10t-9.5 24q0 15 9.5 24.5zM124 -44q0 7 4 11.5t10 4.5q7 0 11 -4.5t4 -11.5v-19h-29v19zM170 122v-28l-39 14z"/><glyph glyph-name="Icircumflex" unicode="Î" d="M125 -132h86v-24h-86v-30h-22v84h22v-30zM116.5 381.5q16.5 -16.5 40.5 -16.5t40.5 16.5t16.5 41.5t-16.5 41.5t-40.5 16.5t-40.5 -16.5t-16.5 -41.5t16.5 -41.5zM211 -86v23h-37v16l37 21v26l-41 -24q-10 20 -31 20q-16 0 -26 -10.5t-10 -27.5v-44h108zM103 40h108v-24
h-108v24zM211 54v25l-20 7v43l20 8v26l-108 -44v-23zM211 176v66h-21v-42h-87v-24h108zM211 290v23h-41v38h-22v-38h-23v42h-22v-65h108zM211 499v23h-68l68 50v19h-108v-23h66l-66 -47v-22h108zM125 607v30h86v24h-86v30h-22v-84h22zM132.5 447.5q9.5 9.5 24.5 9.5t25 -9.5
t10 -24.5q0 -14 -10 -24t-25 -10t-24.5 10t-9.5 24q0 15 9.5 24.5zM124 -44q0 7 4 11.5t10 4.5q7 0 11 -4.5t4 -11.5v-19h-29v19zM170 122v-28l-39 14z"/><glyph glyph-name="Idieresis" unicode="Ï" d="M125 -132h86v-24h-86v-30h-22v84h22v-30zM116.5 381.5q16.5 -16.5 40.5 -16.5t40.5 16.5t16.5 41.5t-16.5 41.5t-40.5 16.5t-40.5 -16.5t-16.5 -41.5t16.5 -41.5zM211 -86v23h-37v16l37 21v26l-41 -24q-10 20 -31 20q-16 0 -26 -10.5t-10 -27.5v-44h108zM103 40h108v-24
h-108v24zM211 54v25l-20 7v43l20 8v26l-108 -44v-23zM211 176v66h-21v-42h-87v-24h108zM211 290v23h-41v38h-22v-38h-23v42h-22v-65h108zM211 499v23h-68l68 50v19h-108v-23h66l-66 -47v-22h108zM125 607v30h86v24h-86v30h-22v-84h22zM132.5 447.5q9.5 9.5 24.5 9.5t25 -9.5
t10 -24.5q0 -14 -10 -24t-25 -10t-24.5 10t-9.5 24q0 15 9.5 24.5zM124 -44q0 7 4 11.5t10 4.5q7 0 11 -4.5t4 -11.5v-19h-29v19zM170 122v-28l-39 14z"/><glyph glyph-name="Eth" unicode="Ð" d="M125 -132h86v-24h-86v-30h-22v84h22v-30zM116.5 381.5q16.5 -16.5 40.5 -16.5t40.5 16.5t16.5 41.5t-16.5 41.5t-40.5 16.5t-40.5 -16.5t-16.5 -41.5t16.5 -41.5zM211 -86v23h-37v16l37 21v26l-41 -24q-10 20 -31 20q-16 0 -26 -10.5t-10 -27.5v-44h108zM103 40h108v-24
h-108v24zM211 54v25l-20 7v43l20 8v26l-108 -44v-23zM211 176v66h-21v-42h-87v-24h108zM211 290v23h-41v38h-22v-38h-23v42h-22v-65h108zM211 499v23h-68l68 50v19h-108v-23h66l-66 -47v-22h108zM125 607v30h86v24h-86v30h-22v-84h22zM132.5 447.5q9.5 9.5 24.5 9.5t25 -9.5
t10 -24.5q0 -14 -10 -24t-25 -10t-24.5 10t-9.5 24q0 15 9.5 24.5zM124 -44q0 7 4 11.5t10 4.5q7 0 11 -4.5t4 -11.5v-19h-29v19zM170 122v-28l-39 14z"/><glyph glyph-name="Ntilde" unicode="Ñ" d="M125 -132h86v-24h-86v-30h-22v84h22v-30zM116.5 381.5q16.5 -16.5 40.5 -16.5t40.5 16.5t16.5 41.5t-16.5 41.5t-40.5 16.5t-40.5 -16.5t-16.5 -41.5t16.5 -41.5zM211 -86v23h-37v16l37 21v26l-41 -24q-10 20 -31 20q-16 0 -26 -10.5t-10 -27.5v-44h108zM103 40h108v-24
h-108v24zM211 54v25l-20 7v43l20 8v26l-108 -44v-23zM211 176v66h-21v-42h-87v-24h108zM211 290v23h-41v38h-22v-38h-23v42h-22v-65h108zM211 499v23h-68l68 50v19h-108v-23h66l-66 -47v-22h108zM125 607v30h86v24h-86v30h-22v-84h22zM132.5 447.5q9.5 9.5 24.5 9.5t25 -9.5
t10 -24.5q0 -14 -10 -24t-25 -10t-24.5 10t-9.5 24q0 15 9.5 24.5zM124 -44q0 7 4 11.5t10 4.5q7 0 11 -4.5t4 -11.5v-19h-29v19zM170 122v-28l-39 14z"/><glyph glyph-name="Ograve" unicode="Ò" d="M125 -132h86v-24h-86v-30h-22v84h22v-30zM116.5 381.5q16.5 -16.5 40.5 -16.5t40.5 16.5t16.5 41.5t-16.5 41.5t-40.5 16.5t-40.5 -16.5t-16.5 -41.5t16.5 -41.5zM211 -86v23h-37v16l37 21v26l-41 -24q-10 20 -31 20q-16 0 -26 -10.5t-10 -27.5v-44h108zM103 40h108v-24
h-108v24zM211 54v25l-20 7v43l20 8v26l-108 -44v-23zM211 176v66h-21v-42h-87v-24h108zM211 290v23h-41v38h-22v-38h-23v42h-22v-65h108zM211 499v23h-68l68 50v19h-108v-23h66l-66 -47v-22h108zM125 607v30h86v24h-86v30h-22v-84h22zM132.5 447.5q9.5 9.5 24.5 9.5t25 -9.5
t10 -24.5q0 -14 -10 -24t-25 -10t-24.5 10t-9.5 24q0 15 9.5 24.5zM124 -44q0 7 4 11.5t10 4.5q7 0 11 -4.5t4 -11.5v-19h-29v19zM170 122v-28l-39 14z"/><glyph glyph-name="Oacute" unicode="Ó" d="M125 -132h86v-24h-86v-30h-22v84h22v-30zM116.5 381.5q16.5 -16.5 40.5 -16.5t40.5 16.5t16.5 41.5t-16.5 41.5t-40.5 16.5t-40.5 -16.5t-16.5 -41.5t16.5 -41.5zM211 -86v23h-37v16l37 21v26l-41 -24q-10 20 -31 20q-16 0 -26 -10.5t-10 -27.5v-44h108zM103 40h108v-24
h-108v24zM211 54v25l-20 7v43l20 8v26l-108 -44v-23zM211 176v66h-21v-42h-87v-24h108zM211 290v23h-41v38h-22v-38h-23v42h-22v-65h108zM211 499v23h-68l68 50v19h-108v-23h66l-66 -47v-22h108zM125 607v30h86v24h-86v30h-22v-84h22zM132.5 447.5q9.5 9.5 24.5 9.5t25 -9.5
t10 -24.5q0 -14 -10 -24t-25 -10t-24.5 10t-9.5 24q0 15 9.5 24.5zM124 -44q0 7 4 11.5t10 4.5q7 0 11 -4.5t4 -11.5v-19h-29v19zM170 122v-28l-39 14z"/><glyph glyph-name="Ocircumflex" unicode="Ô" d="M125 -132h86v-24h-86v-30h-22v84h22v-30zM116.5 381.5q16.5 -16.5 40.5 -16.5t40.5 16.5t16.5 41.5t-16.5 41.5t-40.5 16.5t-40.5 -16.5t-16.5 -41.5t16.5 -41.5zM211 -86v23h-37v16l37 21v26l-41 -24q-10 20 -31 20q-16 0 -26 -10.5t-10 -27.5v-44h108zM103 40h108v-24
h-108v24zM211 54v25l-20 7v43l20 8v26l-108 -44v-23zM211 176v66h-21v-42h-87v-24h108zM211 290v23h-41v38h-22v-38h-23v42h-22v-65h108zM211 499v23h-68l68 50v19h-108v-23h66l-66 -47v-22h108zM125 607v30h86v24h-86v30h-22v-84h22zM132.5 447.5q9.5 9.5 24.5 9.5t25 -9.5
t10 -24.5q0 -14 -10 -24t-25 -10t-24.5 10t-9.5 24q0 15 9.5 24.5zM124 -44q0 7 4 11.5t10 4.5q7 0 11 -4.5t4 -11.5v-19h-29v19zM170 122v-28l-39 14z"/><glyph glyph-name="Otilde" unicode="Õ" d="M125 -132h86v-24h-86v-30h-22v84h22v-30zM116.5 381.5q16.5 -16.5 40.5 -16.5t40.5 16.5t16.5 41.5t-16.5 41.5t-40.5 16.5t-40.5 -16.5t-16.5 -41.5t16.5 -41.5zM211 -86v23h-37v16l37 21v26l-41 -24q-10 20 -31 20q-16 0 -26 -10.5t-10 -27.5v-44h108zM103 40h108v-24
h-108v24zM211 54v25l-20 7v43l20 8v26l-108 -44v-23zM211 176v66h-21v-42h-87v-24h108zM211 290v23h-41v38h-22v-38h-23v42h-22v-65h108zM211 499v23h-68l68 50v19h-108v-23h66l-66 -47v-22h108zM125 607v30h86v24h-86v30h-22v-84h22zM132.5 447.5q9.5 9.5 24.5 9.5t25 -9.5
t10 -24.5q0 -14 -10 -24t-25 -10t-24.5 10t-9.5 24q0 15 9.5 24.5zM124 -44q0 7 4 11.5t10 4.5q7 0 11 -4.5t4 -11.5v-19h-29v19zM170 122v-28l-39 14z"/><glyph glyph-name="Odieresis" unicode="Ö" d="M125 -132h86v-24h-86v-30h-22v84h22v-30zM116.5 381.5q16.5 -16.5 40.5 -16.5t40.5 16.5t16.5 41.5t-16.5 41.5t-40.5 16.5t-40.5 -16.5t-16.5 -41.5t16.5 -41.5zM211 -86v23h-37v16l37 21v26l-41 -24q-10 20 -31 20q-16 0 -26 -10.5t-10 -27.5v-44h108zM103 40h108v-24
h-108v24zM211 54v25l-20 7v43l20 8v26l-108 -44v-23zM211 176v66h-21v-42h-87v-24h108zM211 290v23h-41v38h-22v-38h-23v42h-22v-65h108zM211 499v23h-68l68 50v19h-108v-23h66l-66 -47v-22h108zM125 607v30h86v24h-86v30h-22v-84h22zM132.5 447.5q9.5 9.5 24.5 9.5t25 -9.5
t10 -24.5q0 -14 -10 -24t-25 -10t-24.5 10t-9.5 24q0 15 9.5 24.5zM124 -44q0 7 4 11.5t10 4.5q7 0 11 -4.5t4 -11.5v-19h-29v19zM170 122v-28l-39 14z"/><glyph glyph-name="multiply" unicode="×" d="M125 -132h86v-24h-86v-30h-22v84h22v-30zM116.5 381.5q16.5 -16.5 40.5 -16.5t40.5 16.5t16.5 41.5t-16.5 41.5t-40.5 16.5t-40.5 -16.5t-16.5 -41.5t16.5 -41.5zM211 -86v23h-37v16l37 21v26l-41 -24q-10 20 -31 20q-16 0 -26 -10.5t-10 -27.5v-44h108zM103 40h108v-24
h-108v24zM211 54v25l-20 7v43l20 8v26l-108 -44v-23zM211 176v66h-21v-42h-87v-24h108zM211 290v23h-41v38h-22v-38h-23v42h-22v-65h108zM211 499v23h-68l68 50v19h-108v-23h66l-66 -47v-22h108zM125 607v30h86v24h-86v30h-22v-84h22zM132.5 447.5q9.5 9.5 24.5 9.5t25 -9.5
t10 -24.5q0 -14 -10 -24t-25 -10t-24.5 10t-9.5 24q0 15 9.5 24.5zM124 -44q0 7 4 11.5t10 4.5q7 0 11 -4.5t4 -11.5v-19h-29v19zM170 122v-28l-39 14z"/><glyph glyph-name="Oslash" unicode="Ø" d="M125 -132h86v-24h-86v-30h-22v84h22v-30zM116.5 381.5q16.5 -16.5 40.5 -16.5t40.5 16.5t16.5 41.5t-16.5 41.5t-40.5 16.5t-40.5 -16.5t-16.5 -41.5t16.5 -41.5zM211 -86v23h-37v16l37 21v26l-41 -24q-10 20 -31 20q-16 0 -26 -10.5t-10 -27.5v-44h108zM103 40h108v-24
h-108v24zM211 54v25l-20 7v43l20 8v26l-108 -44v-23zM211 176v66h-21v-42h-87v-24h108zM211 290v23h-41v38h-22v-38h-23v42h-22v-65h108zM211 499v23h-68l68 50v19h-108v-23h66l-66 -47v-22h108zM125 607v30h86v24h-86v30h-22v-84h22zM132.5 447.5q9.5 9.5 24.5 9.5t25 -9.5
t10 -24.5q0 -14 -10 -24t-25 -10t-24.5 10t-9.5 24q0 15 9.5 24.5zM124 -44q0 7 4 11.5t10 4.5q7 0 11 -4.5t4 -11.5v-19h-29v19zM170 122v-28l-39 14z"/><glyph glyph-name="Ugrave" unicode="Ù" d="M125 -132h86v-24h-86v-30h-22v84h22v-30zM116.5 381.5q16.5 -16.5 40.5 -16.5t40.5 16.5t16.5 41.5t-16.5 41.5t-40.5 16.5t-40.5 -16.5t-16.5 -41.5t16.5 -41.5zM211 -86v23h-37v16l37 21v26l-41 -24q-10 20 -31 20q-16 0 -26 -10.5t-10 -27.5v-44h108zM103 40h108v-24
h-108v24zM211 54v25l-20 7v43l20 8v26l-108 -44v-23zM211 176v66h-21v-42h-87v-24h108zM211 290v23h-41v38h-22v-38h-23v42h-22v-65h108zM211 499v23h-68l68 50v19h-108v-23h66l-66 -47v-22h108zM125 607v30h86v24h-86v30h-22v-84h22zM132.5 447.5q9.5 9.5 24.5 9.5t25 -9.5
t10 -24.5q0 -14 -10 -24t-25 -10t-24.5 10t-9.5 24q0 15 9.5 24.5zM124 -44q0 7 4 11.5t10 4.5q7 0 11 -4.5t4 -11.5v-19h-29v19zM170 122v-28l-39 14z"/><glyph glyph-name="Uacute" unicode="Ú" d="M125 -132h86v-24h-86v-30h-22v84h22v-30zM116.5 381.5q16.5 -16.5 40.5 -16.5t40.5 16.5t16.5 41.5t-16.5 41.5t-40.5 16.5t-40.5 -16.5t-16.5 -41.5t16.5 -41.5zM211 -86v23h-37v16l37 21v26l-41 -24q-10 20 -31 20q-16 0 -26 -10.5t-10 -27.5v-44h108zM103 40h108v-24
h-108v24zM211 54v25l-20 7v43l20 8v26l-108 -44v-23zM211 176v66h-21v-42h-87v-24h108zM211 290v23h-41v38h-22v-38h-23v42h-22v-65h108zM211 499v23h-68l68 50v19h-108v-23h66l-66 -47v-22h108zM125 607v30h86v24h-86v30h-22v-84h22zM132.5 447.5q9.5 9.5 24.5 9.5t25 -9.5
t10 -24.5q0 -14 -10 -24t-25 -10t-24.5 10t-9.5 24q0 15 9.5 24.5zM124 -44q0 7 4 11.5t10 4.5q7 0 11 -4.5t4 -11.5v-19h-29v19zM170 122v-28l-39 14z"/><glyph glyph-name="Ucircumflex" unicode="Û" d="M125 -132h86v-24h-86v-30h-22v84h22v-30zM116.5 381.5q16.5 -16.5 40.5 -16.5t40.5 16.5t16.5 41.5t-16.5 41.5t-40.5 16.5t-40.5 -16.5t-16.5 -41.5t16.5 -41.5zM211 -86v23h-37v16l37 21v26l-41 -24q-10 20 -31 20q-16 0 -26 -10.5t-10 -27.5v-44h108zM103 40h108v-24
h-108v24zM211 54v25l-20 7v43l20 8v26l-108 -44v-23zM211 176v66h-21v-42h-87v-24h108zM211 290v23h-41v38h-22v-38h-23v42h-22v-65h108zM211 499v23h-68l68 50v19h-108v-23h66l-66 -47v-22h108zM125 607v30h86v24h-86v30h-22v-84h22zM132.5 447.5q9.5 9.5 24.5 9.5t25 -9.5
t10 -24.5q0 -14 -10 -24t-25 -10t-24.5 10t-9.5 24q0 15 9.5 24.5zM124 -44q0 7 4 11.5t10 4.5q7 0 11 -4.5t4 -11.5v-19h-29v19zM170 122v-28l-39 14z"/><glyph glyph-name="Udieresis" unicode="Ü" d="M125 -132h86v-24h-86v-30h-22v84h22v-30zM116.5 381.5q16.5 -16.5 40.5 -16.5t40.5 16.5t16.5 41.5t-16.5 41.5t-40.5 16.5t-40.5 -16.5t-16.5 -41.5t16.5 -41.5zM211 -86v23h-37v16l37 21v26l-41 -24q-10 20 -31 20q-16 0 -26 -10.5t-10 -27.5v-44h108zM103 40h108v-24
h-108v24zM211 54v25l-20 7v43l20 8v26l-108 -44v-23zM211 176v66h-21v-42h-87v-24h108zM211 290v23h-41v38h-22v-38h-23v42h-22v-65h108zM211 499v23h-68l68 50v19h-108v-23h66l-66 -47v-22h108zM125 607v30h86v24h-86v30h-22v-84h22zM132.5 447.5q9.5 9.5 24.5 9.5t25 -9.5
t10 -24.5q0 -14 -10 -24t-25 -10t-24.5 10t-9.5 24q0 15 9.5 24.5zM124 -44q0 7 4 11.5t10 4.5q7 0 11 -4.5t4 -11.5v-19h-29v19zM170 122v-28l-39 14z"/><glyph glyph-name="Yacute" unicode="Ý" d="M125 -132h86v-24h-86v-30h-22v84h22v-30zM116.5 381.5q16.5 -16.5 40.5 -16.5t40.5 16.5t16.5 41.5t-16.5 41.5t-40.5 16.5t-40.5 -16.5t-16.5 -41.5t16.5 -41.5zM211 -86v23h-37v16l37 21v26l-41 -24q-10 20 -31 20q-16 0 -26 -10.5t-10 -27.5v-44h108zM103 40h108v-24
h-108v24zM211 54v25l-20 7v43l20 8v26l-108 -44v-23zM211 176v66h-21v-42h-87v-24h108zM211 290v23h-41v38h-22v-38h-23v42h-22v-65h108zM211 499v23h-68l68 50v19h-108v-23h66l-66 -47v-22h108zM125 607v30h86v24h-86v30h-22v-84h22zM132.5 447.5q9.5 9.5 24.5 9.5t25 -9.5
t10 -24.5q0 -14 -10 -24t-25 -10t-24.5 10t-9.5 24q0 15 9.5 24.5zM124 -44q0 7 4 11.5t10 4.5q7 0 11 -4.5t4 -11.5v-19h-29v19zM170 122v-28l-39 14z"/><glyph glyph-name="Thorn" unicode="Þ" d="M125 -132h86v-24h-86v-30h-22v84h22v-30zM116.5 381.5q16.5 -16.5 40.5 -16.5t40.5 16.5t16.5 41.5t-16.5 41.5t-40.5 16.5t-40.5 -16.5t-16.5 -41.5t16.5 -41.5zM211 -86v23h-37v16l37 21v26l-41 -24q-10 20 -31 20q-16 0 -26 -10.5t-10 -27.5v-44h108zM103 40h108v-24
h-108v24zM211 54v25l-20 7v43l20 8v26l-108 -44v-23zM211 176v66h-21v-42h-87v-24h108zM211 290v23h-41v38h-22v-38h-23v42h-22v-65h108zM211 499v23h-68l68 50v19h-108v-23h66l-66 -47v-22h108zM125 607v30h86v24h-86v30h-22v-84h22zM132.5 447.5q9.5 9.5 24.5 9.5t25 -9.5
t10 -24.5q0 -14 -10 -24t-25 -10t-24.5 10t-9.5 24q0 15 9.5 24.5zM124 -44q0 7 4 11.5t10 4.5q7 0 11 -4.5t4 -11.5v-19h-29v19zM170 122v-28l-39 14z"/><glyph glyph-name="germandbls" unicode="ß" horiz-adv-x="600" d="M188 20v33q68 -36 142 -36q88 0 138.5 44.5t50.5 123.5q0 88 -59.5 133t-177.5 45h-95v28h91q86 0 134.5 38.5t48.5 105.5q0 72 -44.5 109.5t-130.5 37.5t-128.5 -43t-42.5 -133v-506h-30v507q0 100 51.5 152t149.5 52q99 0 152 -45.5t53 -130.5q0 -55 -29.5 -96
t-80.5 -58q82 -17 125 -66.5t43 -127.5q0 -92 -58 -145.5t-155 -53.5q-79 0 -148 32z"/><glyph glyph-name="agrave" unicode="à" d="M125 -132h86v-24h-86v-30h-22v84h22v-30zM116.5 381.5q16.5 -16.5 40.5 -16.5t40.5 16.5t16.5 41.5t-16.5 41.5t-40.5 16.5t-40.5 -16.5t-16.5 -41.5t16.5 -41.5zM211 -86v23h-37v16l37 21v26l-41 -24q-10 20 -31 20q-16 0 -26 -10.5t-10 -27.5v-44h108zM103 40h108v-24
h-108v24zM211 54v25l-20 7v43l20 8v26l-108 -44v-23zM211 176v66h-21v-42h-87v-24h108zM211 290v23h-41v38h-22v-38h-23v42h-22v-65h108zM211 499v23h-68l68 50v19h-108v-23h66l-66 -47v-22h108zM125 607v30h86v24h-86v30h-22v-84h22zM132.5 447.5q9.5 9.5 24.5 9.5t25 -9.5
t10 -24.5q0 -14 -10 -24t-25 -10t-24.5 10t-9.5 24q0 15 9.5 24.5zM124 -44q0 7 4 11.5t10 4.5q7 0 11 -4.5t4 -11.5v-19h-29v19zM170 122v-28l-39 14z"/><glyph glyph-name="aacute" unicode="á" d="M125 -132h86v-24h-86v-30h-22v84h22v-30zM116.5 381.5q16.5 -16.5 40.5 -16.5t40.5 16.5t16.5 41.5t-16.5 41.5t-40.5 16.5t-40.5 -16.5t-16.5 -41.5t16.5 -41.5zM211 -86v23h-37v16l37 21v26l-41 -24q-10 20 -31 20q-16 0 -26 -10.5t-10 -27.5v-44h108zM103 40h108v-24
h-108v24zM211 54v25l-20 7v43l20 8v26l-108 -44v-23zM211 176v66h-21v-42h-87v-24h108zM211 290v23h-41v38h-22v-38h-23v42h-22v-65h108zM211 499v23h-68l68 50v19h-108v-23h66l-66 -47v-22h108zM125 607v30h86v24h-86v30h-22v-84h22zM132.5 447.5q9.5 9.5 24.5 9.5t25 -9.5
t10 -24.5q0 -14 -10 -24t-25 -10t-24.5 10t-9.5 24q0 15 9.5 24.5zM124 -44q0 7 4 11.5t10 4.5q7 0 11 -4.5t4 -11.5v-19h-29v19zM170 122v-28l-39 14z"/><glyph glyph-name="acircumflex" unicode="â" d="M125 -132h86v-24h-86v-30h-22v84h22v-30zM116.5 381.5q16.5 -16.5 40.5 -16.5t40.5 16.5t16.5 41.5t-16.5 41.5t-40.5 16.5t-40.5 -16.5t-16.5 -41.5t16.5 -41.5zM211 -86v23h-37v16l37 21v26l-41 -24q-10 20 -31 20q-16 0 -26 -10.5t-10 -27.5v-44h108zM103 40h108v-24
h-108v24zM211 54v25l-20 7v43l20 8v26l-108 -44v-23zM211 176v66h-21v-42h-87v-24h108zM211 290v23h-41v38h-22v-38h-23v42h-22v-65h108zM211 499v23h-68l68 50v19h-108v-23h66l-66 -47v-22h108zM125 607v30h86v24h-86v30h-22v-84h22zM132.5 447.5q9.5 9.5 24.5 9.5t25 -9.5
t10 -24.5q0 -14 -10 -24t-25 -10t-24.5 10t-9.5 24q0 15 9.5 24.5zM124 -44q0 7 4 11.5t10 4.5q7 0 11 -4.5t4 -11.5v-19h-29v19zM170 122v-28l-39 14z"/><glyph glyph-name="atilde" unicode="ã" d="M125 -132h86v-24h-86v-30h-22v84h22v-30zM116.5 381.5q16.5 -16.5 40.5 -16.5t40.5 16.5t16.5 41.5t-16.5 41.5t-40.5 16.5t-40.5 -16.5t-16.5 -41.5t16.5 -41.5zM211 -86v23h-37v16l37 21v26l-41 -24q-10 20 -31 20q-16 0 -26 -10.5t-10 -27.5v-44h108zM103 40h108v-24
h-108v24zM211 54v25l-20 7v43l20 8v26l-108 -44v-23zM211 176v66h-21v-42h-87v-24h108zM211 290v23h-41v38h-22v-38h-23v42h-22v-65h108zM211 499v23h-68l68 50v19h-108v-23h66l-66 -47v-22h108zM125 607v30h86v24h-86v30h-22v-84h22zM132.5 447.5q9.5 9.5 24.5 9.5t25 -9.5
t10 -24.5q0 -14 -10 -24t-25 -10t-24.5 10t-9.5 24q0 15 9.5 24.5zM124 -44q0 7 4 11.5t10 4.5q7 0 11 -4.5t4 -11.5v-19h-29v19zM170 122v-28l-39 14z"/><glyph glyph-name="adieresis" unicode="ä" d="M125 -132h86v-24h-86v-30h-22v84h22v-30zM116.5 381.5q16.5 -16.5 40.5 -16.5t40.5 16.5t16.5 41.5t-16.5 41.5t-40.5 16.5t-40.5 -16.5t-16.5 -41.5t16.5 -41.5zM211 -86v23h-37v16l37 21v26l-41 -24q-10 20 -31 20q-16 0 -26 -10.5t-10 -27.5v-44h108zM103 40h108v-24
h-108v24zM211 54v25l-20 7v43l20 8v26l-108 -44v-23zM211 176v66h-21v-42h-87v-24h108zM211 290v23h-41v38h-22v-38h-23v42h-22v-65h108zM211 499v23h-68l68 50v19h-108v-23h66l-66 -47v-22h108zM125 607v30h86v24h-86v30h-22v-84h22zM132.5 447.5q9.5 9.5 24.5 9.5t25 -9.5
t10 -24.5q0 -14 -10 -24t-25 -10t-24.5 10t-9.5 24q0 15 9.5 24.5zM124 -44q0 7 4 11.5t10 4.5q7 0 11 -4.5t4 -11.5v-19h-29v19zM170 122v-28l-39 14z"/><glyph glyph-name="aring" unicode="å" d="M125 -132h86v-24h-86v-30h-22v84h22v-30zM116.5 381.5q16.5 -16.5 40.5 -16.5t40.5 16.5t16.5 41.5t-16.5 41.5t-40.5 16.5t-40.5 -16.5t-16.5 -41.5t16.5 -41.5zM211 -86v23h-37v16l37 21v26l-41 -24q-10 20 -31 20q-16 0 -26 -10.5t-10 -27.5v-44h108zM103 40h108v-24
h-108v24zM211 54v25l-20 7v43l20 8v26l-108 -44v-23zM211 176v66h-21v-42h-87v-24h108zM211 290v23h-41v38h-22v-38h-23v42h-22v-65h108zM211 499v23h-68l68 50v19h-108v-23h66l-66 -47v-22h108zM125 607v30h86v24h-86v30h-22v-84h22zM132.5 447.5q9.5 9.5 24.5 9.5t25 -9.5
t10 -24.5q0 -14 -10 -24t-25 -10t-24.5 10t-9.5 24q0 15 9.5 24.5zM124 -44q0 7 4 11.5t10 4.5q7 0 11 -4.5t4 -11.5v-19h-29v19zM170 122v-28l-39 14z"/><glyph glyph-name="ae" unicode="æ" d="M125 -132h86v-24h-86v-30h-22v84h22v-30zM116.5 381.5q16.5 -16.5 40.5 -16.5t40.5 16.5t16.5 41.5t-16.5 41.5t-40.5 16.5t-40.5 -16.5t-16.5 -41.5t16.5 -41.5zM211 -86v23h-37v16l37 21v26l-41 -24q-10 20 -31 20q-16 0 -26 -10.5t-10 -27.5v-44h108zM103 40h108v-24
h-108v24zM211 54v25l-20 7v43l20 8v26l-108 -44v-23zM211 176v66h-21v-42h-87v-24h108zM211 290v23h-41v38h-22v-38h-23v42h-22v-65h108zM211 499v23h-68l68 50v19h-108v-23h66l-66 -47v-22h108zM125 607v30h86v24h-86v30h-22v-84h22zM132.5 447.5q9.5 9.5 24.5 9.5t25 -9.5
t10 -24.5q0 -14 -10 -24t-25 -10t-24.5 10t-9.5 24q0 15 9.5 24.5zM124 -44q0 7 4 11.5t10 4.5q7 0 11 -4.5t4 -11.5v-19h-29v19zM170 122v-28l-39 14z"/><glyph glyph-name="ccedilla" unicode="ç" d="M125 -132h86v-24h-86v-30h-22v84h22v-30zM116.5 381.5q16.5 -16.5 40.5 -16.5t40.5 16.5t16.5 41.5t-16.5 41.5t-40.5 16.5t-40.5 -16.5t-16.5 -41.5t16.5 -41.5zM211 -86v23h-37v16l37 21v26l-41 -24q-10 20 -31 20q-16 0 -26 -10.5t-10 -27.5v-44h108zM103 40h108v-24
h-108v24zM211 54v25l-20 7v43l20 8v26l-108 -44v-23zM211 176v66h-21v-42h-87v-24h108zM211 290v23h-41v38h-22v-38h-23v42h-22v-65h108zM211 499v23h-68l68 50v19h-108v-23h66l-66 -47v-22h108zM125 607v30h86v24h-86v30h-22v-84h22zM132.5 447.5q9.5 9.5 24.5 9.5t25 -9.5
t10 -24.5q0 -14 -10 -24t-25 -10t-24.5 10t-9.5 24q0 15 9.5 24.5zM124 -44q0 7 4 11.5t10 4.5q7 0 11 -4.5t4 -11.5v-19h-29v19zM170 122v-28l-39 14z"/><glyph glyph-name="egrave" unicode="è" d="M125 -132h86v-24h-86v-30h-22v84h22v-30zM116.5 381.5q16.5 -16.5 40.5 -16.5t40.5 16.5t16.5 41.5t-16.5 41.5t-40.5 16.5t-40.5 -16.5t-16.5 -41.5t16.5 -41.5zM211 -86v23h-37v16l37 21v26l-41 -24q-10 20 -31 20q-16 0 -26 -10.5t-10 -27.5v-44h108zM103 40h108v-24
h-108v24zM211 54v25l-20 7v43l20 8v26l-108 -44v-23zM211 176v66h-21v-42h-87v-24h108zM211 290v23h-41v38h-22v-38h-23v42h-22v-65h108zM211 499v23h-68l68 50v19h-108v-23h66l-66 -47v-22h108zM125 607v30h86v24h-86v30h-22v-84h22zM132.5 447.5q9.5 9.5 24.5 9.5t25 -9.5
t10 -24.5q0 -14 -10 -24t-25 -10t-24.5 10t-9.5 24q0 15 9.5 24.5zM124 -44q0 7 4 11.5t10 4.5q7 0 11 -4.5t4 -11.5v-19h-29v19zM170 122v-28l-39 14z"/><glyph glyph-name="eacute" unicode="é" d="M125 -132h86v-24h-86v-30h-22v84h22v-30zM116.5 381.5q16.5 -16.5 40.5 -16.5t40.5 16.5t16.5 41.5t-16.5 41.5t-40.5 16.5t-40.5 -16.5t-16.5 -41.5t16.5 -41.5zM211 -86v23h-37v16l37 21v26l-41 -24q-10 20 -31 20q-16 0 -26 -10.5t-10 -27.5v-44h108zM103 40h108v-24
h-108v24zM211 54v25l-20 7v43l20 8v26l-108 -44v-23zM211 176v66h-21v-42h-87v-24h108zM211 290v23h-41v38h-22v-38h-23v42h-22v-65h108zM211 499v23h-68l68 50v19h-108v-23h66l-66 -47v-22h108zM125 607v30h86v24h-86v30h-22v-84h22zM132.5 447.5q9.5 9.5 24.5 9.5t25 -9.5
t10 -24.5q0 -14 -10 -24t-25 -10t-24.5 10t-9.5 24q0 15 9.5 24.5zM124 -44q0 7 4 11.5t10 4.5q7 0 11 -4.5t4 -11.5v-19h-29v19zM170 122v-28l-39 14z"/><glyph glyph-name="ecircumflex" unicode="ê" d="M125 -132h86v-24h-86v-30h-22v84h22v-30zM116.5 381.5q16.5 -16.5 40.5 -16.5t40.5 16.5t16.5 41.5t-16.5 41.5t-40.5 16.5t-40.5 -16.5t-16.5 -41.5t16.5 -41.5zM211 -86v23h-37v16l37 21v26l-41 -24q-10 20 -31 20q-16 0 -26 -10.5t-10 -27.5v-44h108zM103 40h108v-24
h-108v24zM211 54v25l-20 7v43l20 8v26l-108 -44v-23zM211 176v66h-21v-42h-87v-24h108zM211 290v23h-41v38h-22v-38h-23v42h-22v-65h108zM211 499v23h-68l68 50v19h-108v-23h66l-66 -47v-22h108zM125 607v30h86v24h-86v30h-22v-84h22zM132.5 447.5q9.5 9.5 24.5 9.5t25 -9.5
t10 -24.5q0 -14 -10 -24t-25 -10t-24.5 10t-9.5 24q0 15 9.5 24.5zM124 -44q0 7 4 11.5t10 4.5q7 0 11 -4.5t4 -11.5v-19h-29v19zM170 122v-28l-39 14z"/><glyph glyph-name="edieresis" unicode="ë" d="M125 -132h86v-24h-86v-30h-22v84h22v-30zM116.5 381.5q16.5 -16.5 40.5 -16.5t40.5 16.5t16.5 41.5t-16.5 41.5t-40.5 16.5t-40.5 -16.5t-16.5 -41.5t16.5 -41.5zM211 -86v23h-37v16l37 21v26l-41 -24q-10 20 -31 20q-16 0 -26 -10.5t-10 -27.5v-44h108zM103 40h108v-24
h-108v24zM211 54v25l-20 7v43l20 8v26l-108 -44v-23zM211 176v66h-21v-42h-87v-24h108zM211 290v23h-41v38h-22v-38h-23v42h-22v-65h108zM211 499v23h-68l68 50v19h-108v-23h66l-66 -47v-22h108zM125 607v30h86v24h-86v30h-22v-84h22zM132.5 447.5q9.5 9.5 24.5 9.5t25 -9.5
t10 -24.5q0 -14 -10 -24t-25 -10t-24.5 10t-9.5 24q0 15 9.5 24.5zM124 -44q0 7 4 11.5t10 4.5q7 0 11 -4.5t4 -11.5v-19h-29v19zM170 122v-28l-39 14z"/><glyph glyph-name="igrave" unicode="ì" d="M125 -132h86v-24h-86v-30h-22v84h22v-30zM116.5 381.5q16.5 -16.5 40.5 -16.5t40.5 16.5t16.5 41.5t-16.5 41.5t-40.5 16.5t-40.5 -16.5t-16.5 -41.5t16.5 -41.5zM211 -86v23h-37v16l37 21v26l-41 -24q-10 20 -31 20q-16 0 -26 -10.5t-10 -27.5v-44h108zM103 40h108v-24
h-108v24zM211 54v25l-20 7v43l20 8v26l-108 -44v-23zM211 176v66h-21v-42h-87v-24h108zM211 290v23h-41v38h-22v-38h-23v42h-22v-65h108zM211 499v23h-68l68 50v19h-108v-23h66l-66 -47v-22h108zM125 607v30h86v24h-86v30h-22v-84h22zM132.5 447.5q9.5 9.5 24.5 9.5t25 -9.5
t10 -24.5q0 -14 -10 -24t-25 -10t-24.5 10t-9.5 24q0 15 9.5 24.5zM124 -44q0 7 4 11.5t10 4.5q7 0 11 -4.5t4 -11.5v-19h-29v19zM170 122v-28l-39 14z"/><glyph glyph-name="iacute" unicode="í" d="M125 -132h86v-24h-86v-30h-22v84h22v-30zM116.5 381.5q16.5 -16.5 40.5 -16.5t40.5 16.5t16.5 41.5t-16.5 41.5t-40.5 16.5t-40.5 -16.5t-16.5 -41.5t16.5 -41.5zM211 -86v23h-37v16l37 21v26l-41 -24q-10 20 -31 20q-16 0 -26 -10.5t-10 -27.5v-44h108zM103 40h108v-24
h-108v24zM211 54v25l-20 7v43l20 8v26l-108 -44v-23zM211 176v66h-21v-42h-87v-24h108zM211 290v23h-41v38h-22v-38h-23v42h-22v-65h108zM211 499v23h-68l68 50v19h-108v-23h66l-66 -47v-22h108zM125 607v30h86v24h-86v30h-22v-84h22zM132.5 447.5q9.5 9.5 24.5 9.5t25 -9.5
t10 -24.5q0 -14 -10 -24t-25 -10t-24.5 10t-9.5 24q0 15 9.5 24.5zM124 -44q0 7 4 11.5t10 4.5q7 0 11 -4.5t4 -11.5v-19h-29v19zM170 122v-28l-39 14z"/><glyph glyph-name="icircumflex" unicode="î" d="M125 -132h86v-24h-86v-30h-22v84h22v-30zM116.5 381.5q16.5 -16.5 40.5 -16.5t40.5 16.5t16.5 41.5t-16.5 41.5t-40.5 16.5t-40.5 -16.5t-16.5 -41.5t16.5 -41.5zM211 -86v23h-37v16l37 21v26l-41 -24q-10 20 -31 20q-16 0 -26 -10.5t-10 -27.5v-44h108zM103 40h108v-24
h-108v24zM211 54v25l-20 7v43l20 8v26l-108 -44v-23zM211 176v66h-21v-42h-87v-24h108zM211 290v23h-41v38h-22v-38h-23v42h-22v-65h108zM211 499v23h-68l68 50v19h-108v-23h66l-66 -47v-22h108zM125 607v30h86v24h-86v30h-22v-84h22zM132.5 447.5q9.5 9.5 24.5 9.5t25 -9.5
t10 -24.5q0 -14 -10 -24t-25 -10t-24.5 10t-9.5 24q0 15 9.5 24.5zM124 -44q0 7 4 11.5t10 4.5q7 0 11 -4.5t4 -11.5v-19h-29v19zM170 122v-28l-39 14z"/><glyph glyph-name="idieresis" unicode="ï" d="M125 -132h86v-24h-86v-30h-22v84h22v-30zM116.5 381.5q16.5 -16.5 40.5 -16.5t40.5 16.5t16.5 41.5t-16.5 41.5t-40.5 16.5t-40.5 -16.5t-16.5 -41.5t16.5 -41.5zM211 -86v23h-37v16l37 21v26l-41 -24q-10 20 -31 20q-16 0 -26 -10.5t-10 -27.5v-44h108zM103 40h108v-24
h-108v24zM211 54v25l-20 7v43l20 8v26l-108 -44v-23zM211 176v66h-21v-42h-87v-24h108zM211 290v23h-41v38h-22v-38h-23v42h-22v-65h108zM211 499v23h-68l68 50v19h-108v-23h66l-66 -47v-22h108zM125 607v30h86v24h-86v30h-22v-84h22zM132.5 447.5q9.5 9.5 24.5 9.5t25 -9.5
t10 -24.5q0 -14 -10 -24t-25 -10t-24.5 10t-9.5 24q0 15 9.5 24.5zM124 -44q0 7 4 11.5t10 4.5q7 0 11 -4.5t4 -11.5v-19h-29v19zM170 122v-28l-39 14z"/><glyph glyph-name="eth" unicode="ð" d="M125 -132h86v-24h-86v-30h-22v84h22v-30zM116.5 381.5q16.5 -16.5 40.5 -16.5t40.5 16.5t16.5 41.5t-16.5 41.5t-40.5 16.5t-40.5 -16.5t-16.5 -41.5t16.5 -41.5zM211 -86v23h-37v16l37 21v26l-41 -24q-10 20 -31 20q-16 0 -26 -10.5t-10 -27.5v-44h108zM103 40h108v-24
h-108v24zM211 54v25l-20 7v43l20 8v26l-108 -44v-23zM211 176v66h-21v-42h-87v-24h108zM211 290v23h-41v38h-22v-38h-23v42h-22v-65h108zM211 499v23h-68l68 50v19h-108v-23h66l-66 -47v-22h108zM125 607v30h86v24h-86v30h-22v-84h22zM132.5 447.5q9.5 9.5 24.5 9.5t25 -9.5
t10 -24.5q0 -14 -10 -24t-25 -10t-24.5 10t-9.5 24q0 15 9.5 24.5zM124 -44q0 7 4 11.5t10 4.5q7 0 11 -4.5t4 -11.5v-19h-29v19zM170 122v-28l-39 14z"/><glyph glyph-name="ntilde" unicode="ñ" d="M125 -132h86v-24h-86v-30h-22v84h22v-30zM116.5 381.5q16.5 -16.5 40.5 -16.5t40.5 16.5t16.5 41.5t-16.5 41.5t-40.5 16.5t-40.5 -16.5t-16.5 -41.5t16.5 -41.5zM211 -86v23h-37v16l37 21v26l-41 -24q-10 20 -31 20q-16 0 -26 -10.5t-10 -27.5v-44h108zM103 40h108v-24
h-108v24zM211 54v25l-20 7v43l20 8v26l-108 -44v-23zM211 176v66h-21v-42h-87v-24h108zM211 290v23h-41v38h-22v-38h-23v42h-22v-65h108zM211 499v23h-68l68 50v19h-108v-23h66l-66 -47v-22h108zM125 607v30h86v24h-86v30h-22v-84h22zM132.5 447.5q9.5 9.5 24.5 9.5t25 -9.5
t10 -24.5q0 -14 -10 -24t-25 -10t-24.5 10t-9.5 24q0 15 9.5 24.5zM124 -44q0 7 4 11.5t10 4.5q7 0 11 -4.5t4 -11.5v-19h-29v19zM170 122v-28l-39 14z"/><glyph glyph-name="ograve" unicode="ò" d="M125 -132h86v-24h-86v-30h-22v84h22v-30zM116.5 381.5q16.5 -16.5 40.5 -16.5t40.5 16.5t16.5 41.5t-16.5 41.5t-40.5 16.5t-40.5 -16.5t-16.5 -41.5t16.5 -41.5zM211 -86v23h-37v16l37 21v26l-41 -24q-10 20 -31 20q-16 0 -26 -10.5t-10 -27.5v-44h108zM103 40h108v-24
h-108v24zM211 54v25l-20 7v43l20 8v26l-108 -44v-23zM211 176v66h-21v-42h-87v-24h108zM211 290v23h-41v38h-22v-38h-23v42h-22v-65h108zM211 499v23h-68l68 50v19h-108v-23h66l-66 -47v-22h108zM125 607v30h86v24h-86v30h-22v-84h22zM132.5 447.5q9.5 9.5 24.5 9.5t25 -9.5
t10 -24.5q0 -14 -10 -24t-25 -10t-24.5 10t-9.5 24q0 15 9.5 24.5zM124 -44q0 7 4 11.5t10 4.5q7 0 11 -4.5t4 -11.5v-19h-29v19zM170 122v-28l-39 14z"/><glyph glyph-name="oacute" unicode="ó" d="M125 -132h86v-24h-86v-30h-22v84h22v-30zM116.5 381.5q16.5 -16.5 40.5 -16.5t40.5 16.5t16.5 41.5t-16.5 41.5t-40.5 16.5t-40.5 -16.5t-16.5 -41.5t16.5 -41.5zM211 -86v23h-37v16l37 21v26l-41 -24q-10 20 -31 20q-16 0 -26 -10.5t-10 -27.5v-44h108zM103 40h108v-24
h-108v24zM211 54v25l-20 7v43l20 8v26l-108 -44v-23zM211 176v66h-21v-42h-87v-24h108zM211 290v23h-41v38h-22v-38h-23v42h-22v-65h108zM211 499v23h-68l68 50v19h-108v-23h66l-66 -47v-22h108zM125 607v30h86v24h-86v30h-22v-84h22zM132.5 447.5q9.5 9.5 24.5 9.5t25 -9.5
t10 -24.5q0 -14 -10 -24t-25 -10t-24.5 10t-9.5 24q0 15 9.5 24.5zM124 -44q0 7 4 11.5t10 4.5q7 0 11 -4.5t4 -11.5v-19h-29v19zM170 122v-28l-39 14z"/><glyph glyph-name="ocircumflex" unicode="ô" d="M125 -132h86v-24h-86v-30h-22v84h22v-30zM116.5 381.5q16.5 -16.5 40.5 -16.5t40.5 16.5t16.5 41.5t-16.5 41.5t-40.5 16.5t-40.5 -16.5t-16.5 -41.5t16.5 -41.5zM211 -86v23h-37v16l37 21v26l-41 -24q-10 20 -31 20q-16 0 -26 -10.5t-10 -27.5v-44h108zM103 40h108v-24
h-108v24zM211 54v25l-20 7v43l20 8v26l-108 -44v-23zM211 176v66h-21v-42h-87v-24h108zM211 290v23h-41v38h-22v-38h-23v42h-22v-65h108zM211 499v23h-68l68 50v19h-108v-23h66l-66 -47v-22h108zM125 607v30h86v24h-86v30h-22v-84h22zM132.5 447.5q9.5 9.5 24.5 9.5t25 -9.5
t10 -24.5q0 -14 -10 -24t-25 -10t-24.5 10t-9.5 24q0 15 9.5 24.5zM124 -44q0 7 4 11.5t10 4.5q7 0 11 -4.5t4 -11.5v-19h-29v19zM170 122v-28l-39 14z"/><glyph glyph-name="otilde" unicode="õ" d="M125 -132h86v-24h-86v-30h-22v84h22v-30zM116.5 381.5q16.5 -16.5 40.5 -16.5t40.5 16.5t16.5 41.5t-16.5 41.5t-40.5 16.5t-40.5 -16.5t-16.5 -41.5t16.5 -41.5zM211 -86v23h-37v16l37 21v26l-41 -24q-10 20 -31 20q-16 0 -26 -10.5t-10 -27.5v-44h108zM103 40h108v-24
h-108v24zM211 54v25l-20 7v43l20 8v26l-108 -44v-23zM211 176v66h-21v-42h-87v-24h108zM211 290v23h-41v38h-22v-38h-23v42h-22v-65h108zM211 499v23h-68l68 50v19h-108v-23h66l-66 -47v-22h108zM125 607v30h86v24h-86v30h-22v-84h22zM132.5 447.5q9.5 9.5 24.5 9.5t25 -9.5
t10 -24.5q0 -14 -10 -24t-25 -10t-24.5 10t-9.5 24q0 15 9.5 24.5zM124 -44q0 7 4 11.5t10 4.5q7 0 11 -4.5t4 -11.5v-19h-29v19zM170 122v-28l-39 14z"/><glyph glyph-name="odieresis" unicode="ö" d="M125 -132h86v-24h-86v-30h-22v84h22v-30zM116.5 381.5q16.5 -16.5 40.5 -16.5t40.5 16.5t16.5 41.5t-16.5 41.5t-40.5 16.5t-40.5 -16.5t-16.5 -41.5t16.5 -41.5zM211 -86v23h-37v16l37 21v26l-41 -24q-10 20 -31 20q-16 0 -26 -10.5t-10 -27.5v-44h108zM103 40h108v-24
h-108v24zM211 54v25l-20 7v43l20 8v26l-108 -44v-23zM211 176v66h-21v-42h-87v-24h108zM211 290v23h-41v38h-22v-38h-23v42h-22v-65h108zM211 499v23h-68l68 50v19h-108v-23h66l-66 -47v-22h108zM125 607v30h86v24h-86v30h-22v-84h22zM132.5 447.5q9.5 9.5 24.5 9.5t25 -9.5
t10 -24.5q0 -14 -10 -24t-25 -10t-24.5 10t-9.5 24q0 15 9.5 24.5zM124 -44q0 7 4 11.5t10 4.5q7 0 11 -4.5t4 -11.5v-19h-29v19zM170 122v-28l-39 14z"/><glyph glyph-name="divide" unicode="÷" d="M125 -132h86v-24h-86v-30h-22v84h22v-30zM116.5 381.5q16.5 -16.5 40.5 -16.5t40.5 16.5t16.5 41.5t-16.5 41.5t-40.5 16.5t-40.5 -16.5t-16.5 -41.5t16.5 -41.5zM211 -86v23h-37v16l37 21v26l-41 -24q-10 20 -31 20q-16 0 -26 -10.5t-10 -27.5v-44h108zM103 40h108v-24
h-108v24zM211 54v25l-20 7v43l20 8v26l-108 -44v-23zM211 176v66h-21v-42h-87v-24h108zM211 290v23h-41v38h-22v-38h-23v42h-22v-65h108zM211 499v23h-68l68 50v19h-108v-23h66l-66 -47v-22h108zM125 607v30h86v24h-86v30h-22v-84h22zM132.5 447.5q9.5 9.5 24.5 9.5t25 -9.5
t10 -24.5q0 -14 -10 -24t-25 -10t-24.5 10t-9.5 24q0 15 9.5 24.5zM124 -44q0 7 4 11.5t10 4.5q7 0 11 -4.5t4 -11.5v-19h-29v19zM170 122v-28l-39 14z"/><glyph glyph-name="oslash" unicode="ø" d="M125 -132h86v-24h-86v-30h-22v84h22v-30zM116.5 381.5q16.5 -16.5 40.5 -16.5t40.5 16.5t16.5 41.5t-16.5 41.5t-40.5 16.5t-40.5 -16.5t-16.5 -41.5t16.5 -41.5zM211 -86v23h-37v16l37 21v26l-41 -24q-10 20 -31 20q-16 0 -26 -10.5t-10 -27.5v-44h108zM103 40h108v-24
h-108v24zM211 54v25l-20 7v43l20 8v26l-108 -44v-23zM211 176v66h-21v-42h-87v-24h108zM211 290v23h-41v38h-22v-38h-23v42h-22v-65h108zM211 499v23h-68l68 50v19h-108v-23h66l-66 -47v-22h108zM125 607v30h86v24h-86v30h-22v-84h22zM132.5 447.5q9.5 9.5 24.5 9.5t25 -9.5
t10 -24.5q0 -14 -10 -24t-25 -10t-24.5 10t-9.5 24q0 15 9.5 24.5zM124 -44q0 7 4 11.5t10 4.5q7 0 11 -4.5t4 -11.5v-19h-29v19zM170 122v-28l-39 14z"/><glyph glyph-name="ugrave" unicode="ù" d="M125 -132h86v-24h-86v-30h-22v84h22v-30zM116.5 381.5q16.5 -16.5 40.5 -16.5t40.5 16.5t16.5 41.5t-16.5 41.5t-40.5 16.5t-40.5 -16.5t-16.5 -41.5t16.5 -41.5zM211 -86v23h-37v16l37 21v26l-41 -24q-10 20 -31 20q-16 0 -26 -10.5t-10 -27.5v-44h108zM103 40h108v-24
h-108v24zM211 54v25l-20 7v43l20 8v26l-108 -44v-23zM211 176v66h-21v-42h-87v-24h108zM211 290v23h-41v38h-22v-38h-23v42h-22v-65h108zM211 499v23h-68l68 50v19h-108v-23h66l-66 -47v-22h108zM125 607v30h86v24h-86v30h-22v-84h22zM132.5 447.5q9.5 9.5 24.5 9.5t25 -9.5
t10 -24.5q0 -14 -10 -24t-25 -10t-24.5 10t-9.5 24q0 15 9.5 24.5zM124 -44q0 7 4 11.5t10 4.5q7 0 11 -4.5t4 -11.5v-19h-29v19zM170 122v-28l-39 14z"/><glyph glyph-name="uacute" unicode="ú" d="M125 -132h86v-24h-86v-30h-22v84h22v-30zM116.5 381.5q16.5 -16.5 40.5 -16.5t40.5 16.5t16.5 41.5t-16.5 41.5t-40.5 16.5t-40.5 -16.5t-16.5 -41.5t16.5 -41.5zM211 -86v23h-37v16l37 21v26l-41 -24q-10 20 -31 20q-16 0 -26 -10.5t-10 -27.5v-44h108zM103 40h108v-24
h-108v24zM211 54v25l-20 7v43l20 8v26l-108 -44v-23zM211 176v66h-21v-42h-87v-24h108zM211 290v23h-41v38h-22v-38h-23v42h-22v-65h108zM211 499v23h-68l68 50v19h-108v-23h66l-66 -47v-22h108zM125 607v30h86v24h-86v30h-22v-84h22zM132.5 447.5q9.5 9.5 24.5 9.5t25 -9.5
t10 -24.5q0 -14 -10 -24t-25 -10t-24.5 10t-9.5 24q0 15 9.5 24.5zM124 -44q0 7 4 11.5t10 4.5q7 0 11 -4.5t4 -11.5v-19h-29v19zM170 122v-28l-39 14z"/><glyph glyph-name="ucircumflex" unicode="û" d="M125 -132h86v-24h-86v-30h-22v84h22v-30zM116.5 381.5q16.5 -16.5 40.5 -16.5t40.5 16.5t16.5 41.5t-16.5 41.5t-40.5 16.5t-40.5 -16.5t-16.5 -41.5t16.5 -41.5zM211 -86v23h-37v16l37 21v26l-41 -24q-10 20 -31 20q-16 0 -26 -10.5t-10 -27.5v-44h108zM103 40h108v-24
h-108v24zM211 54v25l-20 7v43l20 8v26l-108 -44v-23zM211 176v66h-21v-42h-87v-24h108zM211 290v23h-41v38h-22v-38h-23v42h-22v-65h108zM211 499v23h-68l68 50v19h-108v-23h66l-66 -47v-22h108zM125 607v30h86v24h-86v30h-22v-84h22zM132.5 447.5q9.5 9.5 24.5 9.5t25 -9.5
t10 -24.5q0 -14 -10 -24t-25 -10t-24.5 10t-9.5 24q0 15 9.5 24.5zM124 -44q0 7 4 11.5t10 4.5q7 0 11 -4.5t4 -11.5v-19h-29v19zM170 122v-28l-39 14z"/><glyph glyph-name="udieresis" unicode="ü" d="M125 -132h86v-24h-86v-30h-22v84h22v-30zM116.5 381.5q16.5 -16.5 40.5 -16.5t40.5 16.5t16.5 41.5t-16.5 41.5t-40.5 16.5t-40.5 -16.5t-16.5 -41.5t16.5 -41.5zM211 -86v23h-37v16l37 21v26l-41 -24q-10 20 -31 20q-16 0 -26 -10.5t-10 -27.5v-44h108zM103 40h108v-24
h-108v24zM211 54v25l-20 7v43l20 8v26l-108 -44v-23zM211 176v66h-21v-42h-87v-24h108zM211 290v23h-41v38h-22v-38h-23v42h-22v-65h108zM211 499v23h-68l68 50v19h-108v-23h66l-66 -47v-22h108zM125 607v30h86v24h-86v30h-22v-84h22zM132.5 447.5q9.5 9.5 24.5 9.5t25 -9.5
t10 -24.5q0 -14 -10 -24t-25 -10t-24.5 10t-9.5 24q0 15 9.5 24.5zM124 -44q0 7 4 11.5t10 4.5q7 0 11 -4.5t4 -11.5v-19h-29v19zM170 122v-28l-39 14z"/><glyph glyph-name="yacute" unicode="ý" d="M125 -132h86v-24h-86v-30h-22v84h22v-30zM116.5 381.5q16.5 -16.5 40.5 -16.5t40.5 16.5t16.5 41.5t-16.5 41.5t-40.5 16.5t-40.5 -16.5t-16.5 -41.5t16.5 -41.5zM211 -86v23h-37v16l37 21v26l-41 -24q-10 20 -31 20q-16 0 -26 -10.5t-10 -27.5v-44h108zM103 40h108v-24
h-108v24zM211 54v25l-20 7v43l20 8v26l-108 -44v-23zM211 176v66h-21v-42h-87v-24h108zM211 290v23h-41v38h-22v-38h-23v42h-22v-65h108zM211 499v23h-68l68 50v19h-108v-23h66l-66 -47v-22h108zM125 607v30h86v24h-86v30h-22v-84h22zM132.5 447.5q9.5 9.5 24.5 9.5t25 -9.5
t10 -24.5q0 -14 -10 -24t-25 -10t-24.5 10t-9.5 24q0 15 9.5 24.5zM124 -44q0 7 4 11.5t10 4.5q7 0 11 -4.5t4 -11.5v-19h-29v19zM170 122v-28l-39 14z"/><glyph glyph-name="thorn" unicode="þ" d="M125 -132h86v-24h-86v-30h-22v84h22v-30zM116.5 381.5q16.5 -16.5 40.5 -16.5t40.5 16.5t16.5 41.5t-16.5 41.5t-40.5 16.5t-40.5 -16.5t-16.5 -41.5t16.5 -41.5zM211 -86v23h-37v16l37 21v26l-41 -24q-10 20 -31 20q-16 0 -26 -10.5t-10 -27.5v-44h108zM103 40h108v-24
h-108v24zM211 54v25l-20 7v43l20 8v26l-108 -44v-23zM211 176v66h-21v-42h-87v-24h108zM211 290v23h-41v38h-22v-38h-23v42h-22v-65h108zM211 499v23h-68l68 50v19h-108v-23h66l-66 -47v-22h108zM125 607v30h86v24h-86v30h-22v-84h22zM132.5 447.5q9.5 9.5 24.5 9.5t25 -9.5
t10 -24.5q0 -14 -10 -24t-25 -10t-24.5 10t-9.5 24q0 15 9.5 24.5zM124 -44q0 7 4 11.5t10 4.5q7 0 11 -4.5t4 -11.5v-19h-29v19zM170 122v-28l-39 14z"/><glyph glyph-name="ydieresis" unicode="ÿ" d="M125 -132h86v-24h-86v-30h-22v84h22v-30zM116.5 381.5q16.5 -16.5 40.5 -16.5t40.5 16.5t16.5 41.5t-16.5 41.5t-40.5 16.5t-40.5 -16.5t-16.5 -41.5t16.5 -41.5zM211 -86v23h-37v16l37 21v26l-41 -24q-10 20 -31 20q-16 0 -26 -10.5t-10 -27.5v-44h108zM103 40h108v-24
h-108v24zM211 54v25l-20 7v43l20 8v26l-108 -44v-23zM211 176v66h-21v-42h-87v-24h108zM211 290v23h-41v38h-22v-38h-23v42h-22v-65h108zM211 499v23h-68l68 50v19h-108v-23h66l-66 -47v-22h108zM125 607v30h86v24h-86v30h-22v-84h22zM132.5 447.5q9.5 9.5 24.5 9.5t25 -9.5
t10 -24.5q0 -14 -10 -24t-25 -10t-24.5 10t-9.5 24q0 15 9.5 24.5zM124 -44q0 7 4 11.5t10 4.5q7 0 11 -4.5t4 -11.5v-19h-29v19zM170 122v-28l-39 14z"/><glyph glyph-name="Amacron" unicode="Ā" d="M125 -132h86v-24h-86v-30h-22v84h22v-30zM116.5 381.5q16.5 -16.5 40.5 -16.5t40.5 16.5t16.5 41.5t-16.5 41.5t-40.5 16.5t-40.5 -16.5t-16.5 -41.5t16.5 -41.5zM211 -86v23h-37v16l37 21v26l-41 -24q-10 20 -31 20q-16 0 -26 -10.5t-10 -27.5v-44h108zM103 40h108v-24
h-108v24zM211 54v25l-20 7v43l20 8v26l-108 -44v-23zM211 176v66h-21v-42h-87v-24h108zM211 290v23h-41v38h-22v-38h-23v42h-22v-65h108zM211 499v23h-68l68 50v19h-108v-23h66l-66 -47v-22h108zM125 607v30h86v24h-86v30h-22v-84h22zM132.5 447.5q9.5 9.5 24.5 9.5t25 -9.5
t10 -24.5q0 -14 -10 -24t-25 -10t-24.5 10t-9.5 24q0 15 9.5 24.5zM124 -44q0 7 4 11.5t10 4.5q7 0 11 -4.5t4 -11.5v-19h-29v19zM170 122v-28l-39 14z"/><glyph glyph-name="amacron" unicode="ā" d="M125 -132h86v-24h-86v-30h-22v84h22v-30zM116.5 381.5q16.5 -16.5 40.5 -16.5t40.5 16.5t16.5 41.5t-16.5 41.5t-40.5 16.5t-40.5 -16.5t-16.5 -41.5t16.5 -41.5zM211 -86v23h-37v16l37 21v26l-41 -24q-10 20 -31 20q-16 0 -26 -10.5t-10 -27.5v-44h108zM103 40h108v-24
h-108v24zM211 54v25l-20 7v43l20 8v26l-108 -44v-23zM211 176v66h-21v-42h-87v-24h108zM211 290v23h-41v38h-22v-38h-23v42h-22v-65h108zM211 499v23h-68l68 50v19h-108v-23h66l-66 -47v-22h108zM125 607v30h86v24h-86v30h-22v-84h22zM132.5 447.5q9.5 9.5 24.5 9.5t25 -9.5
t10 -24.5q0 -14 -10 -24t-25 -10t-24.5 10t-9.5 24q0 15 9.5 24.5zM124 -44q0 7 4 11.5t10 4.5q7 0 11 -4.5t4 -11.5v-19h-29v19zM170 122v-28l-39 14z"/><glyph glyph-name="Abreve" unicode="Ă" d="M125 -132h86v-24h-86v-30h-22v84h22v-30zM116.5 381.5q16.5 -16.5 40.5 -16.5t40.5 16.5t16.5 41.5t-16.5 41.5t-40.5 16.5t-40.5 -16.5t-16.5 -41.5t16.5 -41.5zM211 -86v23h-37v16l37 21v26l-41 -24q-10 20 -31 20q-16 0 -26 -10.5t-10 -27.5v-44h108zM103 40h108v-24
h-108v24zM211 54v25l-20 7v43l20 8v26l-108 -44v-23zM211 176v66h-21v-42h-87v-24h108zM211 290v23h-41v38h-22v-38h-23v42h-22v-65h108zM211 499v23h-68l68 50v19h-108v-23h66l-66 -47v-22h108zM125 607v30h86v24h-86v30h-22v-84h22zM132.5 447.5q9.5 9.5 24.5 9.5t25 -9.5
t10 -24.5q0 -14 -10 -24t-25 -10t-24.5 10t-9.5 24q0 15 9.5 24.5zM124 -44q0 7 4 11.5t10 4.5q7 0 11 -4.5t4 -11.5v-19h-29v19zM170 122v-28l-39 14z"/><glyph glyph-name="abreve" unicode="ă" d="M125 -132h86v-24h-86v-30h-22v84h22v-30zM116.5 381.5q16.5 -16.5 40.5 -16.5t40.5 16.5t16.5 41.5t-16.5 41.5t-40.5 16.5t-40.5 -16.5t-16.5 -41.5t16.5 -41.5zM211 -86v23h-37v16l37 21v26l-41 -24q-10 20 -31 20q-16 0 -26 -10.5t-10 -27.5v-44h108zM103 40h108v-24
h-108v24zM211 54v25l-20 7v43l20 8v26l-108 -44v-23zM211 176v66h-21v-42h-87v-24h108zM211 290v23h-41v38h-22v-38h-23v42h-22v-65h108zM211 499v23h-68l68 50v19h-108v-23h66l-66 -47v-22h108zM125 607v30h86v24h-86v30h-22v-84h22zM132.5 447.5q9.5 9.5 24.5 9.5t25 -9.5
t10 -24.5q0 -14 -10 -24t-25 -10t-24.5 10t-9.5 24q0 15 9.5 24.5zM124 -44q0 7 4 11.5t10 4.5q7 0 11 -4.5t4 -11.5v-19h-29v19zM170 122v-28l-39 14z"/><glyph glyph-name="Aogonek" unicode="Ą" d="M125 -132h86v-24h-86v-30h-22v84h22v-30zM116.5 381.5q16.5 -16.5 40.5 -16.5t40.5 16.5t16.5 41.5t-16.5 41.5t-40.5 16.5t-40.5 -16.5t-16.5 -41.5t16.5 -41.5zM211 -86v23h-37v16l37 21v26l-41 -24q-10 20 -31 20q-16 0 -26 -10.5t-10 -27.5v-44h108zM103 40h108v-24
h-108v24zM211 54v25l-20 7v43l20 8v26l-108 -44v-23zM211 176v66h-21v-42h-87v-24h108zM211 290v23h-41v38h-22v-38h-23v42h-22v-65h108zM211 499v23h-68l68 50v19h-108v-23h66l-66 -47v-22h108zM125 607v30h86v24h-86v30h-22v-84h22zM132.5 447.5q9.5 9.5 24.5 9.5t25 -9.5
t10 -24.5q0 -14 -10 -24t-25 -10t-24.5 10t-9.5 24q0 15 9.5 24.5zM124 -44q0 7 4 11.5t10 4.5q7 0 11 -4.5t4 -11.5v-19h-29v19zM170 122v-28l-39 14z"/><glyph glyph-name="aogonek" unicode="ą" d="M125 -132h86v-24h-86v-30h-22v84h22v-30zM116.5 381.5q16.5 -16.5 40.5 -16.5t40.5 16.5t16.5 41.5t-16.5 41.5t-40.5 16.5t-40.5 -16.5t-16.5 -41.5t16.5 -41.5zM211 -86v23h-37v16l37 21v26l-41 -24q-10 20 -31 20q-16 0 -26 -10.5t-10 -27.5v-44h108zM103 40h108v-24
h-108v24zM211 54v25l-20 7v43l20 8v26l-108 -44v-23zM211 176v66h-21v-42h-87v-24h108zM211 290v23h-41v38h-22v-38h-23v42h-22v-65h108zM211 499v23h-68l68 50v19h-108v-23h66l-66 -47v-22h108zM125 607v30h86v24h-86v30h-22v-84h22zM132.5 447.5q9.5 9.5 24.5 9.5t25 -9.5
t10 -24.5q0 -14 -10 -24t-25 -10t-24.5 10t-9.5 24q0 15 9.5 24.5zM124 -44q0 7 4 11.5t10 4.5q7 0 11 -4.5t4 -11.5v-19h-29v19zM170 122v-28l-39 14z"/><glyph glyph-name="Cacute" unicode="Ć" d="M125 -132h86v-24h-86v-30h-22v84h22v-30zM116.5 381.5q16.5 -16.5 40.5 -16.5t40.5 16.5t16.5 41.5t-16.5 41.5t-40.5 16.5t-40.5 -16.5t-16.5 -41.5t16.5 -41.5zM211 -86v23h-37v16l37 21v26l-41 -24q-10 20 -31 20q-16 0 -26 -10.5t-10 -27.5v-44h108zM103 40h108v-24
h-108v24zM211 54v25l-20 7v43l20 8v26l-108 -44v-23zM211 176v66h-21v-42h-87v-24h108zM211 290v23h-41v38h-22v-38h-23v42h-22v-65h108zM211 499v23h-68l68 50v19h-108v-23h66l-66 -47v-22h108zM125 607v30h86v24h-86v30h-22v-84h22zM132.5 447.5q9.5 9.5 24.5 9.5t25 -9.5
t10 -24.5q0 -14 -10 -24t-25 -10t-24.5 10t-9.5 24q0 15 9.5 24.5zM124 -44q0 7 4 11.5t10 4.5q7 0 11 -4.5t4 -11.5v-19h-29v19zM170 122v-28l-39 14z"/><glyph glyph-name="cacute" unicode="ć" d="M125 -132h86v-24h-86v-30h-22v84h22v-30zM116.5 381.5q16.5 -16.5 40.5 -16.5t40.5 16.5t16.5 41.5t-16.5 41.5t-40.5 16.5t-40.5 -16.5t-16.5 -41.5t16.5 -41.5zM211 -86v23h-37v16l37 21v26l-41 -24q-10 20 -31 20q-16 0 -26 -10.5t-10 -27.5v-44h108zM103 40h108v-24
h-108v24zM211 54v25l-20 7v43l20 8v26l-108 -44v-23zM211 176v66h-21v-42h-87v-24h108zM211 290v23h-41v38h-22v-38h-23v42h-22v-65h108zM211 499v23h-68l68 50v19h-108v-23h66l-66 -47v-22h108zM125 607v30h86v24h-86v30h-22v-84h22zM132.5 447.5q9.5 9.5 24.5 9.5t25 -9.5
t10 -24.5q0 -14 -10 -24t-25 -10t-24.5 10t-9.5 24q0 15 9.5 24.5zM124 -44q0 7 4 11.5t10 4.5q7 0 11 -4.5t4 -11.5v-19h-29v19zM170 122v-28l-39 14z"/><glyph glyph-name="Ccircumflex" unicode="Ĉ" d="M125 -132h86v-24h-86v-30h-22v84h22v-30zM116.5 381.5q16.5 -16.5 40.5 -16.5t40.5 16.5t16.5 41.5t-16.5 41.5t-40.5 16.5t-40.5 -16.5t-16.5 -41.5t16.5 -41.5zM211 -86v23h-37v16l37 21v26l-41 -24q-10 20 -31 20q-16 0 -26 -10.5t-10 -27.5v-44h108zM103 40h108v-24
h-108v24zM211 54v25l-20 7v43l20 8v26l-108 -44v-23zM211 176v66h-21v-42h-87v-24h108zM211 290v23h-41v38h-22v-38h-23v42h-22v-65h108zM211 499v23h-68l68 50v19h-108v-23h66l-66 -47v-22h108zM125 607v30h86v24h-86v30h-22v-84h22zM132.5 447.5q9.5 9.5 24.5 9.5t25 -9.5
t10 -24.5q0 -14 -10 -24t-25 -10t-24.5 10t-9.5 24q0 15 9.5 24.5zM124 -44q0 7 4 11.5t10 4.5q7 0 11 -4.5t4 -11.5v-19h-29v19zM170 122v-28l-39 14z"/><glyph glyph-name="ccircumflex" unicode="ĉ" d="M125 -132h86v-24h-86v-30h-22v84h22v-30zM116.5 381.5q16.5 -16.5 40.5 -16.5t40.5 16.5t16.5 41.5t-16.5 41.5t-40.5 16.5t-40.5 -16.5t-16.5 -41.5t16.5 -41.5zM211 -86v23h-37v16l37 21v26l-41 -24q-10 20 -31 20q-16 0 -26 -10.5t-10 -27.5v-44h108zM103 40h108v-24
h-108v24zM211 54v25l-20 7v43l20 8v26l-108 -44v-23zM211 176v66h-21v-42h-87v-24h108zM211 290v23h-41v38h-22v-38h-23v42h-22v-65h108zM211 499v23h-68l68 50v19h-108v-23h66l-66 -47v-22h108zM125 607v30h86v24h-86v30h-22v-84h22zM132.5 447.5q9.5 9.5 24.5 9.5t25 -9.5
t10 -24.5q0 -14 -10 -24t-25 -10t-24.5 10t-9.5 24q0 15 9.5 24.5zM124 -44q0 7 4 11.5t10 4.5q7 0 11 -4.5t4 -11.5v-19h-29v19zM170 122v-28l-39 14z"/><glyph glyph-name="Cdotaccent" unicode="Ċ" d="M125 -132h86v-24h-86v-30h-22v84h22v-30zM116.5 381.5q16.5 -16.5 40.5 -16.5t40.5 16.5t16.5 41.5t-16.5 41.5t-40.5 16.5t-40.5 -16.5t-16.5 -41.5t16.5 -41.5zM211 -86v23h-37v16l37 21v26l-41 -24q-10 20 -31 20q-16 0 -26 -10.5t-10 -27.5v-44h108zM103 40h108v-24
h-108v24zM211 54v25l-20 7v43l20 8v26l-108 -44v-23zM211 176v66h-21v-42h-87v-24h108zM211 290v23h-41v38h-22v-38h-23v42h-22v-65h108zM211 499v23h-68l68 50v19h-108v-23h66l-66 -47v-22h108zM125 607v30h86v24h-86v30h-22v-84h22zM132.5 447.5q9.5 9.5 24.5 9.5t25 -9.5
t10 -24.5q0 -14 -10 -24t-25 -10t-24.5 10t-9.5 24q0 15 9.5 24.5zM124 -44q0 7 4 11.5t10 4.5q7 0 11 -4.5t4 -11.5v-19h-29v19zM170 122v-28l-39 14z"/><glyph glyph-name="cdotaccent" unicode="ċ" d="M125 -132h86v-24h-86v-30h-22v84h22v-30zM116.5 381.5q16.5 -16.5 40.5 -16.5t40.5 16.5t16.5 41.5t-16.5 41.5t-40.5 16.5t-40.5 -16.5t-16.5 -41.5t16.5 -41.5zM211 -86v23h-37v16l37 21v26l-41 -24q-10 20 -31 20q-16 0 -26 -10.5t-10 -27.5v-44h108zM103 40h108v-24
h-108v24zM211 54v25l-20 7v43l20 8v26l-108 -44v-23zM211 176v66h-21v-42h-87v-24h108zM211 290v23h-41v38h-22v-38h-23v42h-22v-65h108zM211 499v23h-68l68 50v19h-108v-23h66l-66 -47v-22h108zM125 607v30h86v24h-86v30h-22v-84h22zM132.5 447.5q9.5 9.5 24.5 9.5t25 -9.5
t10 -24.5q0 -14 -10 -24t-25 -10t-24.5 10t-9.5 24q0 15 9.5 24.5zM124 -44q0 7 4 11.5t10 4.5q7 0 11 -4.5t4 -11.5v-19h-29v19zM170 122v-28l-39 14z"/><glyph glyph-name="Ccaron" unicode="Č" d="M125 -132h86v-24h-86v-30h-22v84h22v-30zM116.5 381.5q16.5 -16.5 40.5 -16.5t40.5 16.5t16.5 41.5t-16.5 41.5t-40.5 16.5t-40.5 -16.5t-16.5 -41.5t16.5 -41.5zM211 -86v23h-37v16l37 21v26l-41 -24q-10 20 -31 20q-16 0 -26 -10.5t-10 -27.5v-44h108zM103 40h108v-24
h-108v24zM211 54v25l-20 7v43l20 8v26l-108 -44v-23zM211 176v66h-21v-42h-87v-24h108zM211 290v23h-41v38h-22v-38h-23v42h-22v-65h108zM211 499v23h-68l68 50v19h-108v-23h66l-66 -47v-22h108zM125 607v30h86v24h-86v30h-22v-84h22zM132.5 447.5q9.5 9.5 24.5 9.5t25 -9.5
t10 -24.5q0 -14 -10 -24t-25 -10t-24.5 10t-9.5 24q0 15 9.5 24.5zM124 -44q0 7 4 11.5t10 4.5q7 0 11 -4.5t4 -11.5v-19h-29v19zM170 122v-28l-39 14z"/><glyph glyph-name="ccaron" unicode="č" d="M125 -132h86v-24h-86v-30h-22v84h22v-30zM116.5 381.5q16.5 -16.5 40.5 -16.5t40.5 16.5t16.5 41.5t-16.5 41.5t-40.5 16.5t-40.5 -16.5t-16.5 -41.5t16.5 -41.5zM211 -86v23h-37v16l37 21v26l-41 -24q-10 20 -31 20q-16 0 -26 -10.5t-10 -27.5v-44h108zM103 40h108v-24
h-108v24zM211 54v25l-20 7v43l20 8v26l-108 -44v-23zM211 176v66h-21v-42h-87v-24h108zM211 290v23h-41v38h-22v-38h-23v42h-22v-65h108zM211 499v23h-68l68 50v19h-108v-23h66l-66 -47v-22h108zM125 607v30h86v24h-86v30h-22v-84h22zM132.5 447.5q9.5 9.5 24.5 9.5t25 -9.5
t10 -24.5q0 -14 -10 -24t-25 -10t-24.5 10t-9.5 24q0 15 9.5 24.5zM124 -44q0 7 4 11.5t10 4.5q7 0 11 -4.5t4 -11.5v-19h-29v19zM170 122v-28l-39 14z"/><glyph glyph-name="Dcaron" unicode="Ď" d="M125 -132h86v-24h-86v-30h-22v84h22v-30zM116.5 381.5q16.5 -16.5 40.5 -16.5t40.5 16.5t16.5 41.5t-16.5 41.5t-40.5 16.5t-40.5 -16.5t-16.5 -41.5t16.5 -41.5zM211 -86v23h-37v16l37 21v26l-41 -24q-10 20 -31 20q-16 0 -26 -10.5t-10 -27.5v-44h108zM103 40h108v-24
h-108v24zM211 54v25l-20 7v43l20 8v26l-108 -44v-23zM211 176v66h-21v-42h-87v-24h108zM211 290v23h-41v38h-22v-38h-23v42h-22v-65h108zM211 499v23h-68l68 50v19h-108v-23h66l-66 -47v-22h108zM125 607v30h86v24h-86v30h-22v-84h22zM132.5 447.5q9.5 9.5 24.5 9.5t25 -9.5
t10 -24.5q0 -14 -10 -24t-25 -10t-24.5 10t-9.5 24q0 15 9.5 24.5zM124 -44q0 7 4 11.5t10 4.5q7 0 11 -4.5t4 -11.5v-19h-29v19zM170 122v-28l-39 14z"/><glyph glyph-name="dcaron" unicode="ď" d="M125 -132h86v-24h-86v-30h-22v84h22v-30zM116.5 381.5q16.5 -16.5 40.5 -16.5t40.5 16.5t16.5 41.5t-16.5 41.5t-40.5 16.5t-40.5 -16.5t-16.5 -41.5t16.5 -41.5zM211 -86v23h-37v16l37 21v26l-41 -24q-10 20 -31 20q-16 0 -26 -10.5t-10 -27.5v-44h108zM103 40h108v-24
h-108v24zM211 54v25l-20 7v43l20 8v26l-108 -44v-23zM211 176v66h-21v-42h-87v-24h108zM211 290v23h-41v38h-22v-38h-23v42h-22v-65h108zM211 499v23h-68l68 50v19h-108v-23h66l-66 -47v-22h108zM125 607v30h86v24h-86v30h-22v-84h22zM132.5 447.5q9.5 9.5 24.5 9.5t25 -9.5
t10 -24.5q0 -14 -10 -24t-25 -10t-24.5 10t-9.5 24q0 15 9.5 24.5zM124 -44q0 7 4 11.5t10 4.5q7 0 11 -4.5t4 -11.5v-19h-29v19zM170 122v-28l-39 14z"/><glyph glyph-name="Dcroat" unicode="Đ" d="M125 -132h86v-24h-86v-30h-22v84h22v-30zM116.5 381.5q16.5 -16.5 40.5 -16.5t40.5 16.5t16.5 41.5t-16.5 41.5t-40.5 16.5t-40.5 -16.5t-16.5 -41.5t16.5 -41.5zM211 -86v23h-37v16l37 21v26l-41 -24q-10 20 -31 20q-16 0 -26 -10.5t-10 -27.5v-44h108zM103 40h108v-24
h-108v24zM211 54v25l-20 7v43l20 8v26l-108 -44v-23zM211 176v66h-21v-42h-87v-24h108zM211 290v23h-41v38h-22v-38h-23v42h-22v-65h108zM211 499v23h-68l68 50v19h-108v-23h66l-66 -47v-22h108zM125 607v30h86v24h-86v30h-22v-84h22zM132.5 447.5q9.5 9.5 24.5 9.5t25 -9.5
t10 -24.5q0 -14 -10 -24t-25 -10t-24.5 10t-9.5 24q0 15 9.5 24.5zM124 -44q0 7 4 11.5t10 4.5q7 0 11 -4.5t4 -11.5v-19h-29v19zM170 122v-28l-39 14z"/><glyph glyph-name="dcroat" unicode="đ" d="M125 -132h86v-24h-86v-30h-22v84h22v-30zM116.5 381.5q16.5 -16.5 40.5 -16.5t40.5 16.5t16.5 41.5t-16.5 41.5t-40.5 16.5t-40.5 -16.5t-16.5 -41.5t16.5 -41.5zM211 -86v23h-37v16l37 21v26l-41 -24q-10 20 -31 20q-16 0 -26 -10.5t-10 -27.5v-44h108zM103 40h108v-24
h-108v24zM211 54v25l-20 7v43l20 8v26l-108 -44v-23zM211 176v66h-21v-42h-87v-24h108zM211 290v23h-41v38h-22v-38h-23v42h-22v-65h108zM211 499v23h-68l68 50v19h-108v-23h66l-66 -47v-22h108zM125 607v30h86v24h-86v30h-22v-84h22zM132.5 447.5q9.5 9.5 24.5 9.5t25 -9.5
t10 -24.5q0 -14 -10 -24t-25 -10t-24.5 10t-9.5 24q0 15 9.5 24.5zM124 -44q0 7 4 11.5t10 4.5q7 0 11 -4.5t4 -11.5v-19h-29v19zM170 122v-28l-39 14z"/><glyph glyph-name="Emacron" unicode="Ē" d="M125 -132h86v-24h-86v-30h-22v84h22v-30zM116.5 381.5q16.5 -16.5 40.5 -16.5t40.5 16.5t16.5 41.5t-16.5 41.5t-40.5 16.5t-40.5 -16.5t-16.5 -41.5t16.5 -41.5zM211 -86v23h-37v16l37 21v26l-41 -24q-10 20 -31 20q-16 0 -26 -10.5t-10 -27.5v-44h108zM103 40h108v-24
h-108v24zM211 54v25l-20 7v43l20 8v26l-108 -44v-23zM211 176v66h-21v-42h-87v-24h108zM211 290v23h-41v38h-22v-38h-23v42h-22v-65h108zM211 499v23h-68l68 50v19h-108v-23h66l-66 -47v-22h108zM125 607v30h86v24h-86v30h-22v-84h22zM132.5 447.5q9.5 9.5 24.5 9.5t25 -9.5
t10 -24.5q0 -14 -10 -24t-25 -10t-24.5 10t-9.5 24q0 15 9.5 24.5zM124 -44q0 7 4 11.5t10 4.5q7 0 11 -4.5t4 -11.5v-19h-29v19zM170 122v-28l-39 14z"/><glyph glyph-name="emacron" unicode="ē" d="M125 -132h86v-24h-86v-30h-22v84h22v-30zM116.5 381.5q16.5 -16.5 40.5 -16.5t40.5 16.5t16.5 41.5t-16.5 41.5t-40.5 16.5t-40.5 -16.5t-16.5 -41.5t16.5 -41.5zM211 -86v23h-37v16l37 21v26l-41 -24q-10 20 -31 20q-16 0 -26 -10.5t-10 -27.5v-44h108zM103 40h108v-24
h-108v24zM211 54v25l-20 7v43l20 8v26l-108 -44v-23zM211 176v66h-21v-42h-87v-24h108zM211 290v23h-41v38h-22v-38h-23v42h-22v-65h108zM211 499v23h-68l68 50v19h-108v-23h66l-66 -47v-22h108zM125 607v30h86v24h-86v30h-22v-84h22zM132.5 447.5q9.5 9.5 24.5 9.5t25 -9.5
t10 -24.5q0 -14 -10 -24t-25 -10t-24.5 10t-9.5 24q0 15 9.5 24.5zM124 -44q0 7 4 11.5t10 4.5q7 0 11 -4.5t4 -11.5v-19h-29v19zM170 122v-28l-39 14z"/><glyph glyph-name="Ebreve" unicode="Ĕ" d="M125 -132h86v-24h-86v-30h-22v84h22v-30zM116.5 381.5q16.5 -16.5 40.5 -16.5t40.5 16.5t16.5 41.5t-16.5 41.5t-40.5 16.5t-40.5 -16.5t-16.5 -41.5t16.5 -41.5zM211 -86v23h-37v16l37 21v26l-41 -24q-10 20 -31 20q-16 0 -26 -10.5t-10 -27.5v-44h108zM103 40h108v-24
h-108v24zM211 54v25l-20 7v43l20 8v26l-108 -44v-23zM211 176v66h-21v-42h-87v-24h108zM211 290v23h-41v38h-22v-38h-23v42h-22v-65h108zM211 499v23h-68l68 50v19h-108v-23h66l-66 -47v-22h108zM125 607v30h86v24h-86v30h-22v-84h22zM132.5 447.5q9.5 9.5 24.5 9.5t25 -9.5
t10 -24.5q0 -14 -10 -24t-25 -10t-24.5 10t-9.5 24q0 15 9.5 24.5zM124 -44q0 7 4 11.5t10 4.5q7 0 11 -4.5t4 -11.5v-19h-29v19zM170 122v-28l-39 14z"/><glyph glyph-name="ebreve" unicode="ĕ" d="M125 -132h86v-24h-86v-30h-22v84h22v-30zM116.5 381.5q16.5 -16.5 40.5 -16.5t40.5 16.5t16.5 41.5t-16.5 41.5t-40.5 16.5t-40.5 -16.5t-16.5 -41.5t16.5 -41.5zM211 -86v23h-37v16l37 21v26l-41 -24q-10 20 -31 20q-16 0 -26 -10.5t-10 -27.5v-44h108zM103 40h108v-24
h-108v24zM211 54v25l-20 7v43l20 8v26l-108 -44v-23zM211 176v66h-21v-42h-87v-24h108zM211 290v23h-41v38h-22v-38h-23v42h-22v-65h108zM211 499v23h-68l68 50v19h-108v-23h66l-66 -47v-22h108zM125 607v30h86v24h-86v30h-22v-84h22zM132.5 447.5q9.5 9.5 24.5 9.5t25 -9.5
t10 -24.5q0 -14 -10 -24t-25 -10t-24.5 10t-9.5 24q0 15 9.5 24.5zM124 -44q0 7 4 11.5t10 4.5q7 0 11 -4.5t4 -11.5v-19h-29v19zM170 122v-28l-39 14z"/><glyph glyph-name="Edotaccent" unicode="Ė" d="M125 -132h86v-24h-86v-30h-22v84h22v-30zM116.5 381.5q16.5 -16.5 40.5 -16.5t40.5 16.5t16.5 41.5t-16.5 41.5t-40.5 16.5t-40.5 -16.5t-16.5 -41.5t16.5 -41.5zM211 -86v23h-37v16l37 21v26l-41 -24q-10 20 -31 20q-16 0 -26 -10.5t-10 -27.5v-44h108zM103 40h108v-24
h-108v24zM211 54v25l-20 7v43l20 8v26l-108 -44v-23zM211 176v66h-21v-42h-87v-24h108zM211 290v23h-41v38h-22v-38h-23v42h-22v-65h108zM211 499v23h-68l68 50v19h-108v-23h66l-66 -47v-22h108zM125 607v30h86v24h-86v30h-22v-84h22zM132.5 447.5q9.5 9.5 24.5 9.5t25 -9.5
t10 -24.5q0 -14 -10 -24t-25 -10t-24.5 10t-9.5 24q0 15 9.5 24.5zM124 -44q0 7 4 11.5t10 4.5q7 0 11 -4.5t4 -11.5v-19h-29v19zM170 122v-28l-39 14z"/><glyph glyph-name="edotaccent" unicode="ė" d="M125 -132h86v-24h-86v-30h-22v84h22v-30zM116.5 381.5q16.5 -16.5 40.5 -16.5t40.5 16.5t16.5 41.5t-16.5 41.5t-40.5 16.5t-40.5 -16.5t-16.5 -41.5t16.5 -41.5zM211 -86v23h-37v16l37 21v26l-41 -24q-10 20 -31 20q-16 0 -26 -10.5t-10 -27.5v-44h108zM103 40h108v-24
h-108v24zM211 54v25l-20 7v43l20 8v26l-108 -44v-23zM211 176v66h-21v-42h-87v-24h108zM211 290v23h-41v38h-22v-38h-23v42h-22v-65h108zM211 499v23h-68l68 50v19h-108v-23h66l-66 -47v-22h108zM125 607v30h86v24h-86v30h-22v-84h22zM132.5 447.5q9.5 9.5 24.5 9.5t25 -9.5
t10 -24.5q0 -14 -10 -24t-25 -10t-24.5 10t-9.5 24q0 15 9.5 24.5zM124 -44q0 7 4 11.5t10 4.5q7 0 11 -4.5t4 -11.5v-19h-29v19zM170 122v-28l-39 14z"/><glyph glyph-name="Eogonek" unicode="Ę" d="M125 -132h86v-24h-86v-30h-22v84h22v-30zM116.5 381.5q16.5 -16.5 40.5 -16.5t40.5 16.5t16.5 41.5t-16.5 41.5t-40.5 16.5t-40.5 -16.5t-16.5 -41.5t16.5 -41.5zM211 -86v23h-37v16l37 21v26l-41 -24q-10 20 -31 20q-16 0 -26 -10.5t-10 -27.5v-44h108zM103 40h108v-24
h-108v24zM211 54v25l-20 7v43l20 8v26l-108 -44v-23zM211 176v66h-21v-42h-87v-24h108zM211 290v23h-41v38h-22v-38h-23v42h-22v-65h108zM211 499v23h-68l68 50v19h-108v-23h66l-66 -47v-22h108zM125 607v30h86v24h-86v30h-22v-84h22zM132.5 447.5q9.5 9.5 24.5 9.5t25 -9.5
t10 -24.5q0 -14 -10 -24t-25 -10t-24.5 10t-9.5 24q0 15 9.5 24.5zM124 -44q0 7 4 11.5t10 4.5q7 0 11 -4.5t4 -11.5v-19h-29v19zM170 122v-28l-39 14z"/><glyph glyph-name="eogonek" unicode="ę" d="M125 -132h86v-24h-86v-30h-22v84h22v-30zM116.5 381.5q16.5 -16.5 40.5 -16.5t40.5 16.5t16.5 41.5t-16.5 41.5t-40.5 16.5t-40.5 -16.5t-16.5 -41.5t16.5 -41.5zM211 -86v23h-37v16l37 21v26l-41 -24q-10 20 -31 20q-16 0 -26 -10.5t-10 -27.5v-44h108zM103 40h108v-24
h-108v24zM211 54v25l-20 7v43l20 8v26l-108 -44v-23zM211 176v66h-21v-42h-87v-24h108zM211 290v23h-41v38h-22v-38h-23v42h-22v-65h108zM211 499v23h-68l68 50v19h-108v-23h66l-66 -47v-22h108zM125 607v30h86v24h-86v30h-22v-84h22zM132.5 447.5q9.5 9.5 24.5 9.5t25 -9.5
t10 -24.5q0 -14 -10 -24t-25 -10t-24.5 10t-9.5 24q0 15 9.5 24.5zM124 -44q0 7 4 11.5t10 4.5q7 0 11 -4.5t4 -11.5v-19h-29v19zM170 122v-28l-39 14z"/><glyph glyph-name="Ecaron" unicode="Ě" d="M125 -132h86v-24h-86v-30h-22v84h22v-30zM116.5 381.5q16.5 -16.5 40.5 -16.5t40.5 16.5t16.5 41.5t-16.5 41.5t-40.5 16.5t-40.5 -16.5t-16.5 -41.5t16.5 -41.5zM211 -86v23h-37v16l37 21v26l-41 -24q-10 20 -31 20q-16 0 -26 -10.5t-10 -27.5v-44h108zM103 40h108v-24
h-108v24zM211 54v25l-20 7v43l20 8v26l-108 -44v-23zM211 176v66h-21v-42h-87v-24h108zM211 290v23h-41v38h-22v-38h-23v42h-22v-65h108zM211 499v23h-68l68 50v19h-108v-23h66l-66 -47v-22h108zM125 607v30h86v24h-86v30h-22v-84h22zM132.5 447.5q9.5 9.5 24.5 9.5t25 -9.5
t10 -24.5q0 -14 -10 -24t-25 -10t-24.5 10t-9.5 24q0 15 9.5 24.5zM124 -44q0 7 4 11.5t10 4.5q7 0 11 -4.5t4 -11.5v-19h-29v19zM170 122v-28l-39 14z"/><glyph glyph-name="ecaron" unicode="ě" d="M125 -132h86v-24h-86v-30h-22v84h22v-30zM116.5 381.5q16.5 -16.5 40.5 -16.5t40.5 16.5t16.5 41.5t-16.5 41.5t-40.5 16.5t-40.5 -16.5t-16.5 -41.5t16.5 -41.5zM211 -86v23h-37v16l37 21v26l-41 -24q-10 20 -31 20q-16 0 -26 -10.5t-10 -27.5v-44h108zM103 40h108v-24
h-108v24zM211 54v25l-20 7v43l20 8v26l-108 -44v-23zM211 176v66h-21v-42h-87v-24h108zM211 290v23h-41v38h-22v-38h-23v42h-22v-65h108zM211 499v23h-68l68 50v19h-108v-23h66l-66 -47v-22h108zM125 607v30h86v24h-86v30h-22v-84h22zM132.5 447.5q9.5 9.5 24.5 9.5t25 -9.5
t10 -24.5q0 -14 -10 -24t-25 -10t-24.5 10t-9.5 24q0 15 9.5 24.5zM124 -44q0 7 4 11.5t10 4.5q7 0 11 -4.5t4 -11.5v-19h-29v19zM170 122v-28l-39 14z"/><glyph glyph-name="Gcircumflex" unicode="Ĝ" d="M125 -132h86v-24h-86v-30h-22v84h22v-30zM116.5 381.5q16.5 -16.5 40.5 -16.5t40.5 16.5t16.5 41.5t-16.5 41.5t-40.5 16.5t-40.5 -16.5t-16.5 -41.5t16.5 -41.5zM211 -86v23h-37v16l37 21v26l-41 -24q-10 20 -31 20q-16 0 -26 -10.5t-10 -27.5v-44h108zM103 40h108v-24
h-108v24zM211 54v25l-20 7v43l20 8v26l-108 -44v-23zM211 176v66h-21v-42h-87v-24h108zM211 290v23h-41v38h-22v-38h-23v42h-22v-65h108zM211 499v23h-68l68 50v19h-108v-23h66l-66 -47v-22h108zM125 607v30h86v24h-86v30h-22v-84h22zM132.5 447.5q9.5 9.5 24.5 9.5t25 -9.5
t10 -24.5q0 -14 -10 -24t-25 -10t-24.5 10t-9.5 24q0 15 9.5 24.5zM124 -44q0 7 4 11.5t10 4.5q7 0 11 -4.5t4 -11.5v-19h-29v19zM170 122v-28l-39 14z"/><glyph glyph-name="gcircumflex" unicode="ĝ" d="M125 -132h86v-24h-86v-30h-22v84h22v-30zM116.5 381.5q16.5 -16.5 40.5 -16.5t40.5 16.5t16.5 41.5t-16.5 41.5t-40.5 16.5t-40.5 -16.5t-16.5 -41.5t16.5 -41.5zM211 -86v23h-37v16l37 21v26l-41 -24q-10 20 -31 20q-16 0 -26 -10.5t-10 -27.5v-44h108zM103 40h108v-24
h-108v24zM211 54v25l-20 7v43l20 8v26l-108 -44v-23zM211 176v66h-21v-42h-87v-24h108zM211 290v23h-41v38h-22v-38h-23v42h-22v-65h108zM211 499v23h-68l68 50v19h-108v-23h66l-66 -47v-22h108zM125 607v30h86v24h-86v30h-22v-84h22zM132.5 447.5q9.5 9.5 24.5 9.5t25 -9.5
t10 -24.5q0 -14 -10 -24t-25 -10t-24.5 10t-9.5 24q0 15 9.5 24.5zM124 -44q0 7 4 11.5t10 4.5q7 0 11 -4.5t4 -11.5v-19h-29v19zM170 122v-28l-39 14z"/><glyph glyph-name="Gbreve" unicode="Ğ" d="M125 -132h86v-24h-86v-30h-22v84h22v-30zM116.5 381.5q16.5 -16.5 40.5 -16.5t40.5 16.5t16.5 41.5t-16.5 41.5t-40.5 16.5t-40.5 -16.5t-16.5 -41.5t16.5 -41.5zM211 -86v23h-37v16l37 21v26l-41 -24q-10 20 -31 20q-16 0 -26 -10.5t-10 -27.5v-44h108zM103 40h108v-24
h-108v24zM211 54v25l-20 7v43l20 8v26l-108 -44v-23zM211 176v66h-21v-42h-87v-24h108zM211 290v23h-41v38h-22v-38h-23v42h-22v-65h108zM211 499v23h-68l68 50v19h-108v-23h66l-66 -47v-22h108zM125 607v30h86v24h-86v30h-22v-84h22zM132.5 447.5q9.5 9.5 24.5 9.5t25 -9.5
t10 -24.5q0 -14 -10 -24t-25 -10t-24.5 10t-9.5 24q0 15 9.5 24.5zM124 -44q0 7 4 11.5t10 4.5q7 0 11 -4.5t4 -11.5v-19h-29v19zM170 122v-28l-39 14z"/><glyph glyph-name="gbreve" unicode="ğ" d="M125 -132h86v-24h-86v-30h-22v84h22v-30zM116.5 381.5q16.5 -16.5 40.5 -16.5t40.5 16.5t16.5 41.5t-16.5 41.5t-40.5 16.5t-40.5 -16.5t-16.5 -41.5t16.5 -41.5zM211 -86v23h-37v16l37 21v26l-41 -24q-10 20 -31 20q-16 0 -26 -10.5t-10 -27.5v-44h108zM103 40h108v-24
h-108v24zM211 54v25l-20 7v43l20 8v26l-108 -44v-23zM211 176v66h-21v-42h-87v-24h108zM211 290v23h-41v38h-22v-38h-23v42h-22v-65h108zM211 499v23h-68l68 50v19h-108v-23h66l-66 -47v-22h108zM125 607v30h86v24h-86v30h-22v-84h22zM132.5 447.5q9.5 9.5 24.5 9.5t25 -9.5
t10 -24.5q0 -14 -10 -24t-25 -10t-24.5 10t-9.5 24q0 15 9.5 24.5zM124 -44q0 7 4 11.5t10 4.5q7 0 11 -4.5t4 -11.5v-19h-29v19zM170 122v-28l-39 14z"/><glyph glyph-name="Gdotaccent" unicode="Ġ" d="M125 -132h86v-24h-86v-30h-22v84h22v-30zM116.5 381.5q16.5 -16.5 40.5 -16.5t40.5 16.5t16.5 41.5t-16.5 41.5t-40.5 16.5t-40.5 -16.5t-16.5 -41.5t16.5 -41.5zM211 -86v23h-37v16l37 21v26l-41 -24q-10 20 -31 20q-16 0 -26 -10.5t-10 -27.5v-44h108zM103 40h108v-24
h-108v24zM211 54v25l-20 7v43l20 8v26l-108 -44v-23zM211 176v66h-21v-42h-87v-24h108zM211 290v23h-41v38h-22v-38h-23v42h-22v-65h108zM211 499v23h-68l68 50v19h-108v-23h66l-66 -47v-22h108zM125 607v30h86v24h-86v30h-22v-84h22zM132.5 447.5q9.5 9.5 24.5 9.5t25 -9.5
t10 -24.5q0 -14 -10 -24t-25 -10t-24.5 10t-9.5 24q0 15 9.5 24.5zM124 -44q0 7 4 11.5t10 4.5q7 0 11 -4.5t4 -11.5v-19h-29v19zM170 122v-28l-39 14z"/><glyph glyph-name="gdotaccent" unicode="ġ" d="M125 -132h86v-24h-86v-30h-22v84h22v-30zM116.5 381.5q16.5 -16.5 40.5 -16.5t40.5 16.5t16.5 41.5t-16.5 41.5t-40.5 16.5t-40.5 -16.5t-16.5 -41.5t16.5 -41.5zM211 -86v23h-37v16l37 21v26l-41 -24q-10 20 -31 20q-16 0 -26 -10.5t-10 -27.5v-44h108zM103 40h108v-24
h-108v24zM211 54v25l-20 7v43l20 8v26l-108 -44v-23zM211 176v66h-21v-42h-87v-24h108zM211 290v23h-41v38h-22v-38h-23v42h-22v-65h108zM211 499v23h-68l68 50v19h-108v-23h66l-66 -47v-22h108zM125 607v30h86v24h-86v30h-22v-84h22zM132.5 447.5q9.5 9.5 24.5 9.5t25 -9.5
t10 -24.5q0 -14 -10 -24t-25 -10t-24.5 10t-9.5 24q0 15 9.5 24.5zM124 -44q0 7 4 11.5t10 4.5q7 0 11 -4.5t4 -11.5v-19h-29v19zM170 122v-28l-39 14z"/><glyph glyph-name="uni0122" unicode="Ģ" d="M125 -132h86v-24h-86v-30h-22v84h22v-30zM116.5 381.5q16.5 -16.5 40.5 -16.5t40.5 16.5t16.5 41.5t-16.5 41.5t-40.5 16.5t-40.5 -16.5t-16.5 -41.5t16.5 -41.5zM211 -86v23h-37v16l37 21v26l-41 -24q-10 20 -31 20q-16 0 -26 -10.5t-10 -27.5v-44h108zM103 40h108v-24
h-108v24zM211 54v25l-20 7v43l20 8v26l-108 -44v-23zM211 176v66h-21v-42h-87v-24h108zM211 290v23h-41v38h-22v-38h-23v42h-22v-65h108zM211 499v23h-68l68 50v19h-108v-23h66l-66 -47v-22h108zM125 607v30h86v24h-86v30h-22v-84h22zM132.5 447.5q9.5 9.5 24.5 9.5t25 -9.5
t10 -24.5q0 -14 -10 -24t-25 -10t-24.5 10t-9.5 24q0 15 9.5 24.5zM124 -44q0 7 4 11.5t10 4.5q7 0 11 -4.5t4 -11.5v-19h-29v19zM170 122v-28l-39 14z"/><glyph glyph-name="uni0123" unicode="ģ" d="M125 -132h86v-24h-86v-30h-22v84h22v-30zM116.5 381.5q16.5 -16.5 40.5 -16.5t40.5 16.5t16.5 41.5t-16.5 41.5t-40.5 16.5t-40.5 -16.5t-16.5 -41.5t16.5 -41.5zM211 -86v23h-37v16l37 21v26l-41 -24q-10 20 -31 20q-16 0 -26 -10.5t-10 -27.5v-44h108zM103 40h108v-24
h-108v24zM211 54v25l-20 7v43l20 8v26l-108 -44v-23zM211 176v66h-21v-42h-87v-24h108zM211 290v23h-41v38h-22v-38h-23v42h-22v-65h108zM211 499v23h-68l68 50v19h-108v-23h66l-66 -47v-22h108zM125 607v30h86v24h-86v30h-22v-84h22zM132.5 447.5q9.5 9.5 24.5 9.5t25 -9.5
t10 -24.5q0 -14 -10 -24t-25 -10t-24.5 10t-9.5 24q0 15 9.5 24.5zM124 -44q0 7 4 11.5t10 4.5q7 0 11 -4.5t4 -11.5v-19h-29v19zM170 122v-28l-39 14z"/><glyph glyph-name="Hcircumflex" unicode="Ĥ" d="M125 -132h86v-24h-86v-30h-22v84h22v-30zM116.5 381.5q16.5 -16.5 40.5 -16.5t40.5 16.5t16.5 41.5t-16.5 41.5t-40.5 16.5t-40.5 -16.5t-16.5 -41.5t16.5 -41.5zM211 -86v23h-37v16l37 21v26l-41 -24q-10 20 -31 20q-16 0 -26 -10.5t-10 -27.5v-44h108zM103 40h108v-24
h-108v24zM211 54v25l-20 7v43l20 8v26l-108 -44v-23zM211 176v66h-21v-42h-87v-24h108zM211 290v23h-41v38h-22v-38h-23v42h-22v-65h108zM211 499v23h-68l68 50v19h-108v-23h66l-66 -47v-22h108zM125 607v30h86v24h-86v30h-22v-84h22zM132.5 447.5q9.5 9.5 24.5 9.5t25 -9.5
t10 -24.5q0 -14 -10 -24t-25 -10t-24.5 10t-9.5 24q0 15 9.5 24.5zM124 -44q0 7 4 11.5t10 4.5q7 0 11 -4.5t4 -11.5v-19h-29v19zM170 122v-28l-39 14z"/><glyph glyph-name="hcircumflex" unicode="ĥ" d="M125 -132h86v-24h-86v-30h-22v84h22v-30zM116.5 381.5q16.5 -16.5 40.5 -16.5t40.5 16.5t16.5 41.5t-16.5 41.5t-40.5 16.5t-40.5 -16.5t-16.5 -41.5t16.5 -41.5zM211 -86v23h-37v16l37 21v26l-41 -24q-10 20 -31 20q-16 0 -26 -10.5t-10 -27.5v-44h108zM103 40h108v-24
h-108v24zM211 54v25l-20 7v43l20 8v26l-108 -44v-23zM211 176v66h-21v-42h-87v-24h108zM211 290v23h-41v38h-22v-38h-23v42h-22v-65h108zM211 499v23h-68l68 50v19h-108v-23h66l-66 -47v-22h108zM125 607v30h86v24h-86v30h-22v-84h22zM132.5 447.5q9.5 9.5 24.5 9.5t25 -9.5
t10 -24.5q0 -14 -10 -24t-25 -10t-24.5 10t-9.5 24q0 15 9.5 24.5zM124 -44q0 7 4 11.5t10 4.5q7 0 11 -4.5t4 -11.5v-19h-29v19zM170 122v-28l-39 14z"/><glyph glyph-name="Hbar" unicode="Ħ" d="M125 -132h86v-24h-86v-30h-22v84h22v-30zM116.5 381.5q16.5 -16.5 40.5 -16.5t40.5 16.5t16.5 41.5t-16.5 41.5t-40.5 16.5t-40.5 -16.5t-16.5 -41.5t16.5 -41.5zM211 -86v23h-37v16l37 21v26l-41 -24q-10 20 -31 20q-16 0 -26 -10.5t-10 -27.5v-44h108zM103 40h108v-24
h-108v24zM211 54v25l-20 7v43l20 8v26l-108 -44v-23zM211 176v66h-21v-42h-87v-24h108zM211 290v23h-41v38h-22v-38h-23v42h-22v-65h108zM211 499v23h-68l68 50v19h-108v-23h66l-66 -47v-22h108zM125 607v30h86v24h-86v30h-22v-84h22zM132.5 447.5q9.5 9.5 24.5 9.5t25 -9.5
t10 -24.5q0 -14 -10 -24t-25 -10t-24.5 10t-9.5 24q0 15 9.5 24.5zM124 -44q0 7 4 11.5t10 4.5q7 0 11 -4.5t4 -11.5v-19h-29v19zM170 122v-28l-39 14z"/><glyph glyph-name="hbar" unicode="ħ" d="M125 -132h86v-24h-86v-30h-22v84h22v-30zM116.5 381.5q16.5 -16.5 40.5 -16.5t40.5 16.5t16.5 41.5t-16.5 41.5t-40.5 16.5t-40.5 -16.5t-16.5 -41.5t16.5 -41.5zM211 -86v23h-37v16l37 21v26l-41 -24q-10 20 -31 20q-16 0 -26 -10.5t-10 -27.5v-44h108zM103 40h108v-24
h-108v24zM211 54v25l-20 7v43l20 8v26l-108 -44v-23zM211 176v66h-21v-42h-87v-24h108zM211 290v23h-41v38h-22v-38h-23v42h-22v-65h108zM211 499v23h-68l68 50v19h-108v-23h66l-66 -47v-22h108zM125 607v30h86v24h-86v30h-22v-84h22zM132.5 447.5q9.5 9.5 24.5 9.5t25 -9.5
t10 -24.5q0 -14 -10 -24t-25 -10t-24.5 10t-9.5 24q0 15 9.5 24.5zM124 -44q0 7 4 11.5t10 4.5q7 0 11 -4.5t4 -11.5v-19h-29v19zM170 122v-28l-39 14z"/><glyph glyph-name="Itilde" unicode="Ĩ" d="M125 -132h86v-24h-86v-30h-22v84h22v-30zM116.5 381.5q16.5 -16.5 40.5 -16.5t40.5 16.5t16.5 41.5t-16.5 41.5t-40.5 16.5t-40.5 -16.5t-16.5 -41.5t16.5 -41.5zM211 -86v23h-37v16l37 21v26l-41 -24q-10 20 -31 20q-16 0 -26 -10.5t-10 -27.5v-44h108zM103 40h108v-24
h-108v24zM211 54v25l-20 7v43l20 8v26l-108 -44v-23zM211 176v66h-21v-42h-87v-24h108zM211 290v23h-41v38h-22v-38h-23v42h-22v-65h108zM211 499v23h-68l68 50v19h-108v-23h66l-66 -47v-22h108zM125 607v30h86v24h-86v30h-22v-84h22zM132.5 447.5q9.5 9.5 24.5 9.5t25 -9.5
t10 -24.5q0 -14 -10 -24t-25 -10t-24.5 10t-9.5 24q0 15 9.5 24.5zM124 -44q0 7 4 11.5t10 4.5q7 0 11 -4.5t4 -11.5v-19h-29v19zM170 122v-28l-39 14z"/><glyph glyph-name="itilde" unicode="ĩ" d="M125 -132h86v-24h-86v-30h-22v84h22v-30zM116.5 381.5q16.5 -16.5 40.5 -16.5t40.5 16.5t16.5 41.5t-16.5 41.5t-40.5 16.5t-40.5 -16.5t-16.5 -41.5t16.5 -41.5zM211 -86v23h-37v16l37 21v26l-41 -24q-10 20 -31 20q-16 0 -26 -10.5t-10 -27.5v-44h108zM103 40h108v-24
h-108v24zM211 54v25l-20 7v43l20 8v26l-108 -44v-23zM211 176v66h-21v-42h-87v-24h108zM211 290v23h-41v38h-22v-38h-23v42h-22v-65h108zM211 499v23h-68l68 50v19h-108v-23h66l-66 -47v-22h108zM125 607v30h86v24h-86v30h-22v-84h22zM132.5 447.5q9.5 9.5 24.5 9.5t25 -9.5
t10 -24.5q0 -14 -10 -24t-25 -10t-24.5 10t-9.5 24q0 15 9.5 24.5zM124 -44q0 7 4 11.5t10 4.5q7 0 11 -4.5t4 -11.5v-19h-29v19zM170 122v-28l-39 14z"/><glyph glyph-name="Imacron" unicode="Ī" d="M125 -132h86v-24h-86v-30h-22v84h22v-30zM116.5 381.5q16.5 -16.5 40.5 -16.5t40.5 16.5t16.5 41.5t-16.5 41.5t-40.5 16.5t-40.5 -16.5t-16.5 -41.5t16.5 -41.5zM211 -86v23h-37v16l37 21v26l-41 -24q-10 20 -31 20q-16 0 -26 -10.5t-10 -27.5v-44h108zM103 40h108v-24
h-108v24zM211 54v25l-20 7v43l20 8v26l-108 -44v-23zM211 176v66h-21v-42h-87v-24h108zM211 290v23h-41v38h-22v-38h-23v42h-22v-65h108zM211 499v23h-68l68 50v19h-108v-23h66l-66 -47v-22h108zM125 607v30h86v24h-86v30h-22v-84h22zM132.5 447.5q9.5 9.5 24.5 9.5t25 -9.5
t10 -24.5q0 -14 -10 -24t-25 -10t-24.5 10t-9.5 24q0 15 9.5 24.5zM124 -44q0 7 4 11.5t10 4.5q7 0 11 -4.5t4 -11.5v-19h-29v19zM170 122v-28l-39 14z"/><glyph glyph-name="imacron" unicode="ī" d="M125 -132h86v-24h-86v-30h-22v84h22v-30zM116.5 381.5q16.5 -16.5 40.5 -16.5t40.5 16.5t16.5 41.5t-16.5 41.5t-40.5 16.5t-40.5 -16.5t-16.5 -41.5t16.5 -41.5zM211 -86v23h-37v16l37 21v26l-41 -24q-10 20 -31 20q-16 0 -26 -10.5t-10 -27.5v-44h108zM103 40h108v-24
h-108v24zM211 54v25l-20 7v43l20 8v26l-108 -44v-23zM211 176v66h-21v-42h-87v-24h108zM211 290v23h-41v38h-22v-38h-23v42h-22v-65h108zM211 499v23h-68l68 50v19h-108v-23h66l-66 -47v-22h108zM125 607v30h86v24h-86v30h-22v-84h22zM132.5 447.5q9.5 9.5 24.5 9.5t25 -9.5
t10 -24.5q0 -14 -10 -24t-25 -10t-24.5 10t-9.5 24q0 15 9.5 24.5zM124 -44q0 7 4 11.5t10 4.5q7 0 11 -4.5t4 -11.5v-19h-29v19zM170 122v-28l-39 14z"/><glyph glyph-name="Ibreve" unicode="Ĭ" d="M125 -132h86v-24h-86v-30h-22v84h22v-30zM116.5 381.5q16.5 -16.5 40.5 -16.5t40.5 16.5t16.5 41.5t-16.5 41.5t-40.5 16.5t-40.5 -16.5t-16.5 -41.5t16.5 -41.5zM211 -86v23h-37v16l37 21v26l-41 -24q-10 20 -31 20q-16 0 -26 -10.5t-10 -27.5v-44h108zM103 40h108v-24
h-108v24zM211 54v25l-20 7v43l20 8v26l-108 -44v-23zM211 176v66h-21v-42h-87v-24h108zM211 290v23h-41v38h-22v-38h-23v42h-22v-65h108zM211 499v23h-68l68 50v19h-108v-23h66l-66 -47v-22h108zM125 607v30h86v24h-86v30h-22v-84h22zM132.5 447.5q9.5 9.5 24.5 9.5t25 -9.5
t10 -24.5q0 -14 -10 -24t-25 -10t-24.5 10t-9.5 24q0 15 9.5 24.5zM124 -44q0 7 4 11.5t10 4.5q7 0 11 -4.5t4 -11.5v-19h-29v19zM170 122v-28l-39 14z"/><glyph glyph-name="ibreve" unicode="ĭ" d="M125 -132h86v-24h-86v-30h-22v84h22v-30zM116.5 381.5q16.5 -16.5 40.5 -16.5t40.5 16.5t16.5 41.5t-16.5 41.5t-40.5 16.5t-40.5 -16.5t-16.5 -41.5t16.5 -41.5zM211 -86v23h-37v16l37 21v26l-41 -24q-10 20 -31 20q-16 0 -26 -10.5t-10 -27.5v-44h108zM103 40h108v-24
h-108v24zM211 54v25l-20 7v43l20 8v26l-108 -44v-23zM211 176v66h-21v-42h-87v-24h108zM211 290v23h-41v38h-22v-38h-23v42h-22v-65h108zM211 499v23h-68l68 50v19h-108v-23h66l-66 -47v-22h108zM125 607v30h86v24h-86v30h-22v-84h22zM132.5 447.5q9.5 9.5 24.5 9.5t25 -9.5
t10 -24.5q0 -14 -10 -24t-25 -10t-24.5 10t-9.5 24q0 15 9.5 24.5zM124 -44q0 7 4 11.5t10 4.5q7 0 11 -4.5t4 -11.5v-19h-29v19zM170 122v-28l-39 14z"/><glyph glyph-name="Iogonek" unicode="Į" d="M125 -132h86v-24h-86v-30h-22v84h22v-30zM116.5 381.5q16.5 -16.5 40.5 -16.5t40.5 16.5t16.5 41.5t-16.5 41.5t-40.5 16.5t-40.5 -16.5t-16.5 -41.5t16.5 -41.5zM211 -86v23h-37v16l37 21v26l-41 -24q-10 20 -31 20q-16 0 -26 -10.5t-10 -27.5v-44h108zM103 40h108v-24
h-108v24zM211 54v25l-20 7v43l20 8v26l-108 -44v-23zM211 176v66h-21v-42h-87v-24h108zM211 290v23h-41v38h-22v-38h-23v42h-22v-65h108zM211 499v23h-68l68 50v19h-108v-23h66l-66 -47v-22h108zM125 607v30h86v24h-86v30h-22v-84h22zM132.5 447.5q9.5 9.5 24.5 9.5t25 -9.5
t10 -24.5q0 -14 -10 -24t-25 -10t-24.5 10t-9.5 24q0 15 9.5 24.5zM124 -44q0 7 4 11.5t10 4.5q7 0 11 -4.5t4 -11.5v-19h-29v19zM170 122v-28l-39 14z"/><glyph glyph-name="iogonek" unicode="į" d="M125 -132h86v-24h-86v-30h-22v84h22v-30zM116.5 381.5q16.5 -16.5 40.5 -16.5t40.5 16.5t16.5 41.5t-16.5 41.5t-40.5 16.5t-40.5 -16.5t-16.5 -41.5t16.5 -41.5zM211 -86v23h-37v16l37 21v26l-41 -24q-10 20 -31 20q-16 0 -26 -10.5t-10 -27.5v-44h108zM103 40h108v-24
h-108v24zM211 54v25l-20 7v43l20 8v26l-108 -44v-23zM211 176v66h-21v-42h-87v-24h108zM211 290v23h-41v38h-22v-38h-23v42h-22v-65h108zM211 499v23h-68l68 50v19h-108v-23h66l-66 -47v-22h108zM125 607v30h86v24h-86v30h-22v-84h22zM132.5 447.5q9.5 9.5 24.5 9.5t25 -9.5
t10 -24.5q0 -14 -10 -24t-25 -10t-24.5 10t-9.5 24q0 15 9.5 24.5zM124 -44q0 7 4 11.5t10 4.5q7 0 11 -4.5t4 -11.5v-19h-29v19zM170 122v-28l-39 14z"/><glyph glyph-name="Idotaccent" unicode="İ" d="M125 -132h86v-24h-86v-30h-22v84h22v-30zM116.5 381.5q16.5 -16.5 40.5 -16.5t40.5 16.5t16.5 41.5t-16.5 41.5t-40.5 16.5t-40.5 -16.5t-16.5 -41.5t16.5 -41.5zM211 -86v23h-37v16l37 21v26l-41 -24q-10 20 -31 20q-16 0 -26 -10.5t-10 -27.5v-44h108zM103 40h108v-24
h-108v24zM211 54v25l-20 7v43l20 8v26l-108 -44v-23zM211 176v66h-21v-42h-87v-24h108zM211 290v23h-41v38h-22v-38h-23v42h-22v-65h108zM211 499v23h-68l68 50v19h-108v-23h66l-66 -47v-22h108zM125 607v30h86v24h-86v30h-22v-84h22zM132.5 447.5q9.5 9.5 24.5 9.5t25 -9.5
t10 -24.5q0 -14 -10 -24t-25 -10t-24.5 10t-9.5 24q0 15 9.5 24.5zM124 -44q0 7 4 11.5t10 4.5q7 0 11 -4.5t4 -11.5v-19h-29v19zM170 122v-28l-39 14z"/><glyph glyph-name="dotlessi" unicode="ı" d="M125 -132h86v-24h-86v-30h-22v84h22v-30zM116.5 381.5q16.5 -16.5 40.5 -16.5t40.5 16.5t16.5 41.5t-16.5 41.5t-40.5 16.5t-40.5 -16.5t-16.5 -41.5t16.5 -41.5zM211 -86v23h-37v16l37 21v26l-41 -24q-10 20 -31 20q-16 0 -26 -10.5t-10 -27.5v-44h108zM103 40h108v-24
h-108v24zM211 54v25l-20 7v43l20 8v26l-108 -44v-23zM211 176v66h-21v-42h-87v-24h108zM211 290v23h-41v38h-22v-38h-23v42h-22v-65h108zM211 499v23h-68l68 50v19h-108v-23h66l-66 -47v-22h108zM125 607v30h86v24h-86v30h-22v-84h22zM132.5 447.5q9.5 9.5 24.5 9.5t25 -9.5
t10 -24.5q0 -14 -10 -24t-25 -10t-24.5 10t-9.5 24q0 15 9.5 24.5zM124 -44q0 7 4 11.5t10 4.5q7 0 11 -4.5t4 -11.5v-19h-29v19zM170 122v-28l-39 14z"/><glyph glyph-name="IJ" unicode="Ĳ" d="M125 -132h86v-24h-86v-30h-22v84h22v-30zM116.5 381.5q16.5 -16.5 40.5 -16.5t40.5 16.5t16.5 41.5t-16.5 41.5t-40.5 16.5t-40.5 -16.5t-16.5 -41.5t16.5 -41.5zM211 -86v23h-37v16l37 21v26l-41 -24q-10 20 -31 20q-16 0 -26 -10.5t-10 -27.5v-44h108zM103 40h108v-24
h-108v24zM211 54v25l-20 7v43l20 8v26l-108 -44v-23zM211 176v66h-21v-42h-87v-24h108zM211 290v23h-41v38h-22v-38h-23v42h-22v-65h108zM211 499v23h-68l68 50v19h-108v-23h66l-66 -47v-22h108zM125 607v30h86v24h-86v30h-22v-84h22zM132.5 447.5q9.5 9.5 24.5 9.5t25 -9.5
t10 -24.5q0 -14 -10 -24t-25 -10t-24.5 10t-9.5 24q0 15 9.5 24.5zM124 -44q0 7 4 11.5t10 4.5q7 0 11 -4.5t4 -11.5v-19h-29v19zM170 122v-28l-39 14z"/><glyph glyph-name="ij" unicode="ĳ" d="M125 -132h86v-24h-86v-30h-22v84h22v-30zM116.5 381.5q16.5 -16.5 40.5 -16.5t40.5 16.5t16.5 41.5t-16.5 41.5t-40.5 16.5t-40.5 -16.5t-16.5 -41.5t16.5 -41.5zM211 -86v23h-37v16l37 21v26l-41 -24q-10 20 -31 20q-16 0 -26 -10.5t-10 -27.5v-44h108zM103 40h108v-24
h-108v24zM211 54v25l-20 7v43l20 8v26l-108 -44v-23zM211 176v66h-21v-42h-87v-24h108zM211 290v23h-41v38h-22v-38h-23v42h-22v-65h108zM211 499v23h-68l68 50v19h-108v-23h66l-66 -47v-22h108zM125 607v30h86v24h-86v30h-22v-84h22zM132.5 447.5q9.5 9.5 24.5 9.5t25 -9.5
t10 -24.5q0 -14 -10 -24t-25 -10t-24.5 10t-9.5 24q0 15 9.5 24.5zM124 -44q0 7 4 11.5t10 4.5q7 0 11 -4.5t4 -11.5v-19h-29v19zM170 122v-28l-39 14z"/><glyph glyph-name="Jcircumflex" unicode="Ĵ" d="M125 -132h86v-24h-86v-30h-22v84h22v-30zM116.5 381.5q16.5 -16.5 40.5 -16.5t40.5 16.5t16.5 41.5t-16.5 41.5t-40.5 16.5t-40.5 -16.5t-16.5 -41.5t16.5 -41.5zM211 -86v23h-37v16l37 21v26l-41 -24q-10 20 -31 20q-16 0 -26 -10.5t-10 -27.5v-44h108zM103 40h108v-24
h-108v24zM211 54v25l-20 7v43l20 8v26l-108 -44v-23zM211 176v66h-21v-42h-87v-24h108zM211 290v23h-41v38h-22v-38h-23v42h-22v-65h108zM211 499v23h-68l68 50v19h-108v-23h66l-66 -47v-22h108zM125 607v30h86v24h-86v30h-22v-84h22zM132.5 447.5q9.5 9.5 24.5 9.5t25 -9.5
t10 -24.5q0 -14 -10 -24t-25 -10t-24.5 10t-9.5 24q0 15 9.5 24.5zM124 -44q0 7 4 11.5t10 4.5q7 0 11 -4.5t4 -11.5v-19h-29v19zM170 122v-28l-39 14z"/><glyph glyph-name="jcircumflex" unicode="ĵ" d="M125 -132h86v-24h-86v-30h-22v84h22v-30zM116.5 381.5q16.5 -16.5 40.5 -16.5t40.5 16.5t16.5 41.5t-16.5 41.5t-40.5 16.5t-40.5 -16.5t-16.5 -41.5t16.5 -41.5zM211 -86v23h-37v16l37 21v26l-41 -24q-10 20 -31 20q-16 0 -26 -10.5t-10 -27.5v-44h108zM103 40h108v-24
h-108v24zM211 54v25l-20 7v43l20 8v26l-108 -44v-23zM211 176v66h-21v-42h-87v-24h108zM211 290v23h-41v38h-22v-38h-23v42h-22v-65h108zM211 499v23h-68l68 50v19h-108v-23h66l-66 -47v-22h108zM125 607v30h86v24h-86v30h-22v-84h22zM132.5 447.5q9.5 9.5 24.5 9.5t25 -9.5
t10 -24.5q0 -14 -10 -24t-25 -10t-24.5 10t-9.5 24q0 15 9.5 24.5zM124 -44q0 7 4 11.5t10 4.5q7 0 11 -4.5t4 -11.5v-19h-29v19zM170 122v-28l-39 14z"/><glyph glyph-name="uni0136" unicode="Ķ" d="M125 -132h86v-24h-86v-30h-22v84h22v-30zM116.5 381.5q16.5 -16.5 40.5 -16.5t40.5 16.5t16.5 41.5t-16.5 41.5t-40.5 16.5t-40.5 -16.5t-16.5 -41.5t16.5 -41.5zM211 -86v23h-37v16l37 21v26l-41 -24q-10 20 -31 20q-16 0 -26 -10.5t-10 -27.5v-44h108zM103 40h108v-24
h-108v24zM211 54v25l-20 7v43l20 8v26l-108 -44v-23zM211 176v66h-21v-42h-87v-24h108zM211 290v23h-41v38h-22v-38h-23v42h-22v-65h108zM211 499v23h-68l68 50v19h-108v-23h66l-66 -47v-22h108zM125 607v30h86v24h-86v30h-22v-84h22zM132.5 447.5q9.5 9.5 24.5 9.5t25 -9.5
t10 -24.5q0 -14 -10 -24t-25 -10t-24.5 10t-9.5 24q0 15 9.5 24.5zM124 -44q0 7 4 11.5t10 4.5q7 0 11 -4.5t4 -11.5v-19h-29v19zM170 122v-28l-39 14z"/><glyph glyph-name="uni0137" unicode="ķ" d="M125 -132h86v-24h-86v-30h-22v84h22v-30zM116.5 381.5q16.5 -16.5 40.5 -16.5t40.5 16.5t16.5 41.5t-16.5 41.5t-40.5 16.5t-40.5 -16.5t-16.5 -41.5t16.5 -41.5zM211 -86v23h-37v16l37 21v26l-41 -24q-10 20 -31 20q-16 0 -26 -10.5t-10 -27.5v-44h108zM103 40h108v-24
h-108v24zM211 54v25l-20 7v43l20 8v26l-108 -44v-23zM211 176v66h-21v-42h-87v-24h108zM211 290v23h-41v38h-22v-38h-23v42h-22v-65h108zM211 499v23h-68l68 50v19h-108v-23h66l-66 -47v-22h108zM125 607v30h86v24h-86v30h-22v-84h22zM132.5 447.5q9.5 9.5 24.5 9.5t25 -9.5
t10 -24.5q0 -14 -10 -24t-25 -10t-24.5 10t-9.5 24q0 15 9.5 24.5zM124 -44q0 7 4 11.5t10 4.5q7 0 11 -4.5t4 -11.5v-19h-29v19zM170 122v-28l-39 14z"/><glyph glyph-name="kgreenlandic" unicode="ĸ" d="M125 -132h86v-24h-86v-30h-22v84h22v-30zM116.5 381.5q16.5 -16.5 40.5 -16.5t40.5 16.5t16.5 41.5t-16.5 41.5t-40.5 16.5t-40.5 -16.5t-16.5 -41.5t16.5 -41.5zM211 -86v23h-37v16l37 21v26l-41 -24q-10 20 -31 20q-16 0 -26 -10.5t-10 -27.5v-44h108zM103 40h108v-24
h-108v24zM211 54v25l-20 7v43l20 8v26l-108 -44v-23zM211 176v66h-21v-42h-87v-24h108zM211 290v23h-41v38h-22v-38h-23v42h-22v-65h108zM211 499v23h-68l68 50v19h-108v-23h66l-66 -47v-22h108zM125 607v30h86v24h-86v30h-22v-84h22zM132.5 447.5q9.5 9.5 24.5 9.5t25 -9.5
t10 -24.5q0 -14 -10 -24t-25 -10t-24.5 10t-9.5 24q0 15 9.5 24.5zM124 -44q0 7 4 11.5t10 4.5q7 0 11 -4.5t4 -11.5v-19h-29v19zM170 122v-28l-39 14z"/><glyph glyph-name="Lacute" unicode="Ĺ" d="M125 -132h86v-24h-86v-30h-22v84h22v-30zM116.5 381.5q16.5 -16.5 40.5 -16.5t40.5 16.5t16.5 41.5t-16.5 41.5t-40.5 16.5t-40.5 -16.5t-16.5 -41.5t16.5 -41.5zM211 -86v23h-37v16l37 21v26l-41 -24q-10 20 -31 20q-16 0 -26 -10.5t-10 -27.5v-44h108zM103 40h108v-24
h-108v24zM211 54v25l-20 7v43l20 8v26l-108 -44v-23zM211 176v66h-21v-42h-87v-24h108zM211 290v23h-41v38h-22v-38h-23v42h-22v-65h108zM211 499v23h-68l68 50v19h-108v-23h66l-66 -47v-22h108zM125 607v30h86v24h-86v30h-22v-84h22zM132.5 447.5q9.5 9.5 24.5 9.5t25 -9.5
t10 -24.5q0 -14 -10 -24t-25 -10t-24.5 10t-9.5 24q0 15 9.5 24.5zM124 -44q0 7 4 11.5t10 4.5q7 0 11 -4.5t4 -11.5v-19h-29v19zM170 122v-28l-39 14z"/><glyph glyph-name="lacute" unicode="ĺ" d="M125 -132h86v-24h-86v-30h-22v84h22v-30zM116.5 381.5q16.5 -16.5 40.5 -16.5t40.5 16.5t16.5 41.5t-16.5 41.5t-40.5 16.5t-40.5 -16.5t-16.5 -41.5t16.5 -41.5zM211 -86v23h-37v16l37 21v26l-41 -24q-10 20 -31 20q-16 0 -26 -10.5t-10 -27.5v-44h108zM103 40h108v-24
h-108v24zM211 54v25l-20 7v43l20 8v26l-108 -44v-23zM211 176v66h-21v-42h-87v-24h108zM211 290v23h-41v38h-22v-38h-23v42h-22v-65h108zM211 499v23h-68l68 50v19h-108v-23h66l-66 -47v-22h108zM125 607v30h86v24h-86v30h-22v-84h22zM132.5 447.5q9.5 9.5 24.5 9.5t25 -9.5
t10 -24.5q0 -14 -10 -24t-25 -10t-24.5 10t-9.5 24q0 15 9.5 24.5zM124 -44q0 7 4 11.5t10 4.5q7 0 11 -4.5t4 -11.5v-19h-29v19zM170 122v-28l-39 14z"/><glyph glyph-name="uni013B" unicode="Ļ" d="M125 -132h86v-24h-86v-30h-22v84h22v-30zM116.5 381.5q16.5 -16.5 40.5 -16.5t40.5 16.5t16.5 41.5t-16.5 41.5t-40.5 16.5t-40.5 -16.5t-16.5 -41.5t16.5 -41.5zM211 -86v23h-37v16l37 21v26l-41 -24q-10 20 -31 20q-16 0 -26 -10.5t-10 -27.5v-44h108zM103 40h108v-24
h-108v24zM211 54v25l-20 7v43l20 8v26l-108 -44v-23zM211 176v66h-21v-42h-87v-24h108zM211 290v23h-41v38h-22v-38h-23v42h-22v-65h108zM211 499v23h-68l68 50v19h-108v-23h66l-66 -47v-22h108zM125 607v30h86v24h-86v30h-22v-84h22zM132.5 447.5q9.5 9.5 24.5 9.5t25 -9.5
t10 -24.5q0 -14 -10 -24t-25 -10t-24.5 10t-9.5 24q0 15 9.5 24.5zM124 -44q0 7 4 11.5t10 4.5q7 0 11 -4.5t4 -11.5v-19h-29v19zM170 122v-28l-39 14z"/><glyph glyph-name="uni013C" unicode="ļ" d="M125 -132h86v-24h-86v-30h-22v84h22v-30zM116.5 381.5q16.5 -16.5 40.5 -16.5t40.5 16.5t16.5 41.5t-16.5 41.5t-40.5 16.5t-40.5 -16.5t-16.5 -41.5t16.5 -41.5zM211 -86v23h-37v16l37 21v26l-41 -24q-10 20 -31 20q-16 0 -26 -10.5t-10 -27.5v-44h108zM103 40h108v-24
h-108v24zM211 54v25l-20 7v43l20 8v26l-108 -44v-23zM211 176v66h-21v-42h-87v-24h108zM211 290v23h-41v38h-22v-38h-23v42h-22v-65h108zM211 499v23h-68l68 50v19h-108v-23h66l-66 -47v-22h108zM125 607v30h86v24h-86v30h-22v-84h22zM132.5 447.5q9.5 9.5 24.5 9.5t25 -9.5
t10 -24.5q0 -14 -10 -24t-25 -10t-24.5 10t-9.5 24q0 15 9.5 24.5zM124 -44q0 7 4 11.5t10 4.5q7 0 11 -4.5t4 -11.5v-19h-29v19zM170 122v-28l-39 14z"/><glyph glyph-name="Lcaron" unicode="Ľ" d="M125 -132h86v-24h-86v-30h-22v84h22v-30zM116.5 381.5q16.5 -16.5 40.5 -16.5t40.5 16.5t16.5 41.5t-16.5 41.5t-40.5 16.5t-40.5 -16.5t-16.5 -41.5t16.5 -41.5zM211 -86v23h-37v16l37 21v26l-41 -24q-10 20 -31 20q-16 0 -26 -10.5t-10 -27.5v-44h108zM103 40h108v-24
h-108v24zM211 54v25l-20 7v43l20 8v26l-108 -44v-23zM211 176v66h-21v-42h-87v-24h108zM211 290v23h-41v38h-22v-38h-23v42h-22v-65h108zM211 499v23h-68l68 50v19h-108v-23h66l-66 -47v-22h108zM125 607v30h86v24h-86v30h-22v-84h22zM132.5 447.5q9.5 9.5 24.5 9.5t25 -9.5
t10 -24.5q0 -14 -10 -24t-25 -10t-24.5 10t-9.5 24q0 15 9.5 24.5zM124 -44q0 7 4 11.5t10 4.5q7 0 11 -4.5t4 -11.5v-19h-29v19zM170 122v-28l-39 14z"/><glyph glyph-name="lcaron" unicode="ľ" d="M125 -132h86v-24h-86v-30h-22v84h22v-30zM116.5 381.5q16.5 -16.5 40.5 -16.5t40.5 16.5t16.5 41.5t-16.5 41.5t-40.5 16.5t-40.5 -16.5t-16.5 -41.5t16.5 -41.5zM211 -86v23h-37v16l37 21v26l-41 -24q-10 20 -31 20q-16 0 -26 -10.5t-10 -27.5v-44h108zM103 40h108v-24
h-108v24zM211 54v25l-20 7v43l20 8v26l-108 -44v-23zM211 176v66h-21v-42h-87v-24h108zM211 290v23h-41v38h-22v-38h-23v42h-22v-65h108zM211 499v23h-68l68 50v19h-108v-23h66l-66 -47v-22h108zM125 607v30h86v24h-86v30h-22v-84h22zM132.5 447.5q9.5 9.5 24.5 9.5t25 -9.5
t10 -24.5q0 -14 -10 -24t-25 -10t-24.5 10t-9.5 24q0 15 9.5 24.5zM124 -44q0 7 4 11.5t10 4.5q7 0 11 -4.5t4 -11.5v-19h-29v19zM170 122v-28l-39 14z"/><glyph glyph-name="Ldot" unicode="Ŀ" d="M125 -132h86v-24h-86v-30h-22v84h22v-30zM116.5 381.5q16.5 -16.5 40.5 -16.5t40.5 16.5t16.5 41.5t-16.5 41.5t-40.5 16.5t-40.5 -16.5t-16.5 -41.5t16.5 -41.5zM211 -86v23h-37v16l37 21v26l-41 -24q-10 20 -31 20q-16 0 -26 -10.5t-10 -27.5v-44h108zM103 40h108v-24
h-108v24zM211 54v25l-20 7v43l20 8v26l-108 -44v-23zM211 176v66h-21v-42h-87v-24h108zM211 290v23h-41v38h-22v-38h-23v42h-22v-65h108zM211 499v23h-68l68 50v19h-108v-23h66l-66 -47v-22h108zM125 607v30h86v24h-86v30h-22v-84h22zM132.5 447.5q9.5 9.5 24.5 9.5t25 -9.5
t10 -24.5q0 -14 -10 -24t-25 -10t-24.5 10t-9.5 24q0 15 9.5 24.5zM124 -44q0 7 4 11.5t10 4.5q7 0 11 -4.5t4 -11.5v-19h-29v19zM170 122v-28l-39 14z"/><glyph glyph-name="ldot" unicode="ŀ" d="M125 -132h86v-24h-86v-30h-22v84h22v-30zM116.5 381.5q16.5 -16.5 40.5 -16.5t40.5 16.5t16.5 41.5t-16.5 41.5t-40.5 16.5t-40.5 -16.5t-16.5 -41.5t16.5 -41.5zM211 -86v23h-37v16l37 21v26l-41 -24q-10 20 -31 20q-16 0 -26 -10.5t-10 -27.5v-44h108zM103 40h108v-24
h-108v24zM211 54v25l-20 7v43l20 8v26l-108 -44v-23zM211 176v66h-21v-42h-87v-24h108zM211 290v23h-41v38h-22v-38h-23v42h-22v-65h108zM211 499v23h-68l68 50v19h-108v-23h66l-66 -47v-22h108zM125 607v30h86v24h-86v30h-22v-84h22zM132.5 447.5q9.5 9.5 24.5 9.5t25 -9.5
t10 -24.5q0 -14 -10 -24t-25 -10t-24.5 10t-9.5 24q0 15 9.5 24.5zM124 -44q0 7 4 11.5t10 4.5q7 0 11 -4.5t4 -11.5v-19h-29v19zM170 122v-28l-39 14z"/><glyph glyph-name="Lslash" unicode="Ł" d="M125 -132h86v-24h-86v-30h-22v84h22v-30zM116.5 381.5q16.5 -16.5 40.5 -16.5t40.5 16.5t16.5 41.5t-16.5 41.5t-40.5 16.5t-40.5 -16.5t-16.5 -41.5t16.5 -41.5zM211 -86v23h-37v16l37 21v26l-41 -24q-10 20 -31 20q-16 0 -26 -10.5t-10 -27.5v-44h108zM103 40h108v-24
h-108v24zM211 54v25l-20 7v43l20 8v26l-108 -44v-23zM211 176v66h-21v-42h-87v-24h108zM211 290v23h-41v38h-22v-38h-23v42h-22v-65h108zM211 499v23h-68l68 50v19h-108v-23h66l-66 -47v-22h108zM125 607v30h86v24h-86v30h-22v-84h22zM132.5 447.5q9.5 9.5 24.5 9.5t25 -9.5
t10 -24.5q0 -14 -10 -24t-25 -10t-24.5 10t-9.5 24q0 15 9.5 24.5zM124 -44q0 7 4 11.5t10 4.5q7 0 11 -4.5t4 -11.5v-19h-29v19zM170 122v-28l-39 14z"/><glyph glyph-name="lslash" unicode="ł" d="M125 -132h86v-24h-86v-30h-22v84h22v-30zM116.5 381.5q16.5 -16.5 40.5 -16.5t40.5 16.5t16.5 41.5t-16.5 41.5t-40.5 16.5t-40.5 -16.5t-16.5 -41.5t16.5 -41.5zM211 -86v23h-37v16l37 21v26l-41 -24q-10 20 -31 20q-16 0 -26 -10.5t-10 -27.5v-44h108zM103 40h108v-24
h-108v24zM211 54v25l-20 7v43l20 8v26l-108 -44v-23zM211 176v66h-21v-42h-87v-24h108zM211 290v23h-41v38h-22v-38h-23v42h-22v-65h108zM211 499v23h-68l68 50v19h-108v-23h66l-66 -47v-22h108zM125 607v30h86v24h-86v30h-22v-84h22zM132.5 447.5q9.5 9.5 24.5 9.5t25 -9.5
t10 -24.5q0 -14 -10 -24t-25 -10t-24.5 10t-9.5 24q0 15 9.5 24.5zM124 -44q0 7 4 11.5t10 4.5q7 0 11 -4.5t4 -11.5v-19h-29v19zM170 122v-28l-39 14z"/><glyph glyph-name="Nacute" unicode="Ń" d="M125 -132h86v-24h-86v-30h-22v84h22v-30zM116.5 381.5q16.5 -16.5 40.5 -16.5t40.5 16.5t16.5 41.5t-16.5 41.5t-40.5 16.5t-40.5 -16.5t-16.5 -41.5t16.5 -41.5zM211 -86v23h-37v16l37 21v26l-41 -24q-10 20 -31 20q-16 0 -26 -10.5t-10 -27.5v-44h108zM103 40h108v-24
h-108v24zM211 54v25l-20 7v43l20 8v26l-108 -44v-23zM211 176v66h-21v-42h-87v-24h108zM211 290v23h-41v38h-22v-38h-23v42h-22v-65h108zM211 499v23h-68l68 50v19h-108v-23h66l-66 -47v-22h108zM125 607v30h86v24h-86v30h-22v-84h22zM132.5 447.5q9.5 9.5 24.5 9.5t25 -9.5
t10 -24.5q0 -14 -10 -24t-25 -10t-24.5 10t-9.5 24q0 15 9.5 24.5zM124 -44q0 7 4 11.5t10 4.5q7 0 11 -4.5t4 -11.5v-19h-29v19zM170 122v-28l-39 14z"/><glyph glyph-name="nacute" unicode="ń" d="M125 -132h86v-24h-86v-30h-22v84h22v-30zM116.5 381.5q16.5 -16.5 40.5 -16.5t40.5 16.5t16.5 41.5t-16.5 41.5t-40.5 16.5t-40.5 -16.5t-16.5 -41.5t16.5 -41.5zM211 -86v23h-37v16l37 21v26l-41 -24q-10 20 -31 20q-16 0 -26 -10.5t-10 -27.5v-44h108zM103 40h108v-24
h-108v24zM211 54v25l-20 7v43l20 8v26l-108 -44v-23zM211 176v66h-21v-42h-87v-24h108zM211 290v23h-41v38h-22v-38h-23v42h-22v-65h108zM211 499v23h-68l68 50v19h-108v-23h66l-66 -47v-22h108zM125 607v30h86v24h-86v30h-22v-84h22zM132.5 447.5q9.5 9.5 24.5 9.5t25 -9.5
t10 -24.5q0 -14 -10 -24t-25 -10t-24.5 10t-9.5 24q0 15 9.5 24.5zM124 -44q0 7 4 11.5t10 4.5q7 0 11 -4.5t4 -11.5v-19h-29v19zM170 122v-28l-39 14z"/><glyph glyph-name="uni0145" unicode="Ņ" d="M125 -132h86v-24h-86v-30h-22v84h22v-30zM116.5 381.5q16.5 -16.5 40.5 -16.5t40.5 16.5t16.5 41.5t-16.5 41.5t-40.5 16.5t-40.5 -16.5t-16.5 -41.5t16.5 -41.5zM211 -86v23h-37v16l37 21v26l-41 -24q-10 20 -31 20q-16 0 -26 -10.5t-10 -27.5v-44h108zM103 40h108v-24
h-108v24zM211 54v25l-20 7v43l20 8v26l-108 -44v-23zM211 176v66h-21v-42h-87v-24h108zM211 290v23h-41v38h-22v-38h-23v42h-22v-65h108zM211 499v23h-68l68 50v19h-108v-23h66l-66 -47v-22h108zM125 607v30h86v24h-86v30h-22v-84h22zM132.5 447.5q9.5 9.5 24.5 9.5t25 -9.5
t10 -24.5q0 -14 -10 -24t-25 -10t-24.5 10t-9.5 24q0 15 9.5 24.5zM124 -44q0 7 4 11.5t10 4.5q7 0 11 -4.5t4 -11.5v-19h-29v19zM170 122v-28l-39 14z"/><glyph glyph-name="uni0146" unicode="ņ" d="M125 -132h86v-24h-86v-30h-22v84h22v-30zM116.5 381.5q16.5 -16.5 40.5 -16.5t40.5 16.5t16.5 41.5t-16.5 41.5t-40.5 16.5t-40.5 -16.5t-16.5 -41.5t16.5 -41.5zM211 -86v23h-37v16l37 21v26l-41 -24q-10 20 -31 20q-16 0 -26 -10.5t-10 -27.5v-44h108zM103 40h108v-24
h-108v24zM211 54v25l-20 7v43l20 8v26l-108 -44v-23zM211 176v66h-21v-42h-87v-24h108zM211 290v23h-41v38h-22v-38h-23v42h-22v-65h108zM211 499v23h-68l68 50v19h-108v-23h66l-66 -47v-22h108zM125 607v30h86v24h-86v30h-22v-84h22zM132.5 447.5q9.5 9.5 24.5 9.5t25 -9.5
t10 -24.5q0 -14 -10 -24t-25 -10t-24.5 10t-9.5 24q0 15 9.5 24.5zM124 -44q0 7 4 11.5t10 4.5q7 0 11 -4.5t4 -11.5v-19h-29v19zM170 122v-28l-39 14z"/><glyph glyph-name="Ncaron" unicode="Ň" d="M125 -132h86v-24h-86v-30h-22v84h22v-30zM116.5 381.5q16.5 -16.5 40.5 -16.5t40.5 16.5t16.5 41.5t-16.5 41.5t-40.5 16.5t-40.5 -16.5t-16.5 -41.5t16.5 -41.5zM211 -86v23h-37v16l37 21v26l-41 -24q-10 20 -31 20q-16 0 -26 -10.5t-10 -27.5v-44h108zM103 40h108v-24
h-108v24zM211 54v25l-20 7v43l20 8v26l-108 -44v-23zM211 176v66h-21v-42h-87v-24h108zM211 290v23h-41v38h-22v-38h-23v42h-22v-65h108zM211 499v23h-68l68 50v19h-108v-23h66l-66 -47v-22h108zM125 607v30h86v24h-86v30h-22v-84h22zM132.5 447.5q9.5 9.5 24.5 9.5t25 -9.5
t10 -24.5q0 -14 -10 -24t-25 -10t-24.5 10t-9.5 24q0 15 9.5 24.5zM124 -44q0 7 4 11.5t10 4.5q7 0 11 -4.5t4 -11.5v-19h-29v19zM170 122v-28l-39 14z"/><glyph glyph-name="ncaron" unicode="ň" d="M125 -132h86v-24h-86v-30h-22v84h22v-30zM116.5 381.5q16.5 -16.5 40.5 -16.5t40.5 16.5t16.5 41.5t-16.5 41.5t-40.5 16.5t-40.5 -16.5t-16.5 -41.5t16.5 -41.5zM211 -86v23h-37v16l37 21v26l-41 -24q-10 20 -31 20q-16 0 -26 -10.5t-10 -27.5v-44h108zM103 40h108v-24
h-108v24zM211 54v25l-20 7v43l20 8v26l-108 -44v-23zM211 176v66h-21v-42h-87v-24h108zM211 290v23h-41v38h-22v-38h-23v42h-22v-65h108zM211 499v23h-68l68 50v19h-108v-23h66l-66 -47v-22h108zM125 607v30h86v24h-86v30h-22v-84h22zM132.5 447.5q9.5 9.5 24.5 9.5t25 -9.5
t10 -24.5q0 -14 -10 -24t-25 -10t-24.5 10t-9.5 24q0 15 9.5 24.5zM124 -44q0 7 4 11.5t10 4.5q7 0 11 -4.5t4 -11.5v-19h-29v19zM170 122v-28l-39 14z"/><glyph glyph-name="napostrophe" unicode="ŉ" d="M125 -132h86v-24h-86v-30h-22v84h22v-30zM116.5 381.5q16.5 -16.5 40.5 -16.5t40.5 16.5t16.5 41.5t-16.5 41.5t-40.5 16.5t-40.5 -16.5t-16.5 -41.5t16.5 -41.5zM211 -86v23h-37v16l37 21v26l-41 -24q-10 20 -31 20q-16 0 -26 -10.5t-10 -27.5v-44h108zM103 40h108v-24
h-108v24zM211 54v25l-20 7v43l20 8v26l-108 -44v-23zM211 176v66h-21v-42h-87v-24h108zM211 290v23h-41v38h-22v-38h-23v42h-22v-65h108zM211 499v23h-68l68 50v19h-108v-23h66l-66 -47v-22h108zM125 607v30h86v24h-86v30h-22v-84h22zM132.5 447.5q9.5 9.5 24.5 9.5t25 -9.5
t10 -24.5q0 -14 -10 -24t-25 -10t-24.5 10t-9.5 24q0 15 9.5 24.5zM124 -44q0 7 4 11.5t10 4.5q7 0 11 -4.5t4 -11.5v-19h-29v19zM170 122v-28l-39 14z"/><glyph glyph-name="Eng" unicode="Ŋ" d="M125 -132h86v-24h-86v-30h-22v84h22v-30zM116.5 381.5q16.5 -16.5 40.5 -16.5t40.5 16.5t16.5 41.5t-16.5 41.5t-40.5 16.5t-40.5 -16.5t-16.5 -41.5t16.5 -41.5zM211 -86v23h-37v16l37 21v26l-41 -24q-10 20 -31 20q-16 0 -26 -10.5t-10 -27.5v-44h108zM103 40h108v-24
h-108v24zM211 54v25l-20 7v43l20 8v26l-108 -44v-23zM211 176v66h-21v-42h-87v-24h108zM211 290v23h-41v38h-22v-38h-23v42h-22v-65h108zM211 499v23h-68l68 50v19h-108v-23h66l-66 -47v-22h108zM125 607v30h86v24h-86v30h-22v-84h22zM132.5 447.5q9.5 9.5 24.5 9.5t25 -9.5
t10 -24.5q0 -14 -10 -24t-25 -10t-24.5 10t-9.5 24q0 15 9.5 24.5zM124 -44q0 7 4 11.5t10 4.5q7 0 11 -4.5t4 -11.5v-19h-29v19zM170 122v-28l-39 14z"/><glyph glyph-name="eng" unicode="ŋ" d="M125 -132h86v-24h-86v-30h-22v84h22v-30zM116.5 381.5q16.5 -16.5 40.5 -16.5t40.5 16.5t16.5 41.5t-16.5 41.5t-40.5 16.5t-40.5 -16.5t-16.5 -41.5t16.5 -41.5zM211 -86v23h-37v16l37 21v26l-41 -24q-10 20 -31 20q-16 0 -26 -10.5t-10 -27.5v-44h108zM103 40h108v-24
h-108v24zM211 54v25l-20 7v43l20 8v26l-108 -44v-23zM211 176v66h-21v-42h-87v-24h108zM211 290v23h-41v38h-22v-38h-23v42h-22v-65h108zM211 499v23h-68l68 50v19h-108v-23h66l-66 -47v-22h108zM125 607v30h86v24h-86v30h-22v-84h22zM132.5 447.5q9.5 9.5 24.5 9.5t25 -9.5
t10 -24.5q0 -14 -10 -24t-25 -10t-24.5 10t-9.5 24q0 15 9.5 24.5zM124 -44q0 7 4 11.5t10 4.5q7 0 11 -4.5t4 -11.5v-19h-29v19zM170 122v-28l-39 14z"/><glyph glyph-name="Omacron" unicode="Ō" d="M125 -132h86v-24h-86v-30h-22v84h22v-30zM116.5 381.5q16.5 -16.5 40.5 -16.5t40.5 16.5t16.5 41.5t-16.5 41.5t-40.5 16.5t-40.5 -16.5t-16.5 -41.5t16.5 -41.5zM211 -86v23h-37v16l37 21v26l-41 -24q-10 20 -31 20q-16 0 -26 -10.5t-10 -27.5v-44h108zM103 40h108v-24
h-108v24zM211 54v25l-20 7v43l20 8v26l-108 -44v-23zM211 176v66h-21v-42h-87v-24h108zM211 290v23h-41v38h-22v-38h-23v42h-22v-65h108zM211 499v23h-68l68 50v19h-108v-23h66l-66 -47v-22h108zM125 607v30h86v24h-86v30h-22v-84h22zM132.5 447.5q9.5 9.5 24.5 9.5t25 -9.5
t10 -24.5q0 -14 -10 -24t-25 -10t-24.5 10t-9.5 24q0 15 9.5 24.5zM124 -44q0 7 4 11.5t10 4.5q7 0 11 -4.5t4 -11.5v-19h-29v19zM170 122v-28l-39 14z"/><glyph glyph-name="omacron" unicode="ō" d="M125 -132h86v-24h-86v-30h-22v84h22v-30zM116.5 381.5q16.5 -16.5 40.5 -16.5t40.5 16.5t16.5 41.5t-16.5 41.5t-40.5 16.5t-40.5 -16.5t-16.5 -41.5t16.5 -41.5zM211 -86v23h-37v16l37 21v26l-41 -24q-10 20 -31 20q-16 0 -26 -10.5t-10 -27.5v-44h108zM103 40h108v-24
h-108v24zM211 54v25l-20 7v43l20 8v26l-108 -44v-23zM211 176v66h-21v-42h-87v-24h108zM211 290v23h-41v38h-22v-38h-23v42h-22v-65h108zM211 499v23h-68l68 50v19h-108v-23h66l-66 -47v-22h108zM125 607v30h86v24h-86v30h-22v-84h22zM132.5 447.5q9.5 9.5 24.5 9.5t25 -9.5
t10 -24.5q0 -14 -10 -24t-25 -10t-24.5 10t-9.5 24q0 15 9.5 24.5zM124 -44q0 7 4 11.5t10 4.5q7 0 11 -4.5t4 -11.5v-19h-29v19zM170 122v-28l-39 14z"/><glyph glyph-name="Obreve" unicode="Ŏ" d="M125 -132h86v-24h-86v-30h-22v84h22v-30zM116.5 381.5q16.5 -16.5 40.5 -16.5t40.5 16.5t16.5 41.5t-16.5 41.5t-40.5 16.5t-40.5 -16.5t-16.5 -41.5t16.5 -41.5zM211 -86v23h-37v16l37 21v26l-41 -24q-10 20 -31 20q-16 0 -26 -10.5t-10 -27.5v-44h108zM103 40h108v-24
h-108v24zM211 54v25l-20 7v43l20 8v26l-108 -44v-23zM211 176v66h-21v-42h-87v-24h108zM211 290v23h-41v38h-22v-38h-23v42h-22v-65h108zM211 499v23h-68l68 50v19h-108v-23h66l-66 -47v-22h108zM125 607v30h86v24h-86v30h-22v-84h22zM132.5 447.5q9.5 9.5 24.5 9.5t25 -9.5
t10 -24.5q0 -14 -10 -24t-25 -10t-24.5 10t-9.5 24q0 15 9.5 24.5zM124 -44q0 7 4 11.5t10 4.5q7 0 11 -4.5t4 -11.5v-19h-29v19zM170 122v-28l-39 14z"/><glyph glyph-name="obreve" unicode="ŏ" d="M125 -132h86v-24h-86v-30h-22v84h22v-30zM116.5 381.5q16.5 -16.5 40.5 -16.5t40.5 16.5t16.5 41.5t-16.5 41.5t-40.5 16.5t-40.5 -16.5t-16.5 -41.5t16.5 -41.5zM211 -86v23h-37v16l37 21v26l-41 -24q-10 20 -31 20q-16 0 -26 -10.5t-10 -27.5v-44h108zM103 40h108v-24
h-108v24zM211 54v25l-20 7v43l20 8v26l-108 -44v-23zM211 176v66h-21v-42h-87v-24h108zM211 290v23h-41v38h-22v-38h-23v42h-22v-65h108zM211 499v23h-68l68 50v19h-108v-23h66l-66 -47v-22h108zM125 607v30h86v24h-86v30h-22v-84h22zM132.5 447.5q9.5 9.5 24.5 9.5t25 -9.5
t10 -24.5q0 -14 -10 -24t-25 -10t-24.5 10t-9.5 24q0 15 9.5 24.5zM124 -44q0 7 4 11.5t10 4.5q7 0 11 -4.5t4 -11.5v-19h-29v19zM170 122v-28l-39 14z"/><glyph glyph-name="Ohungarumlaut" unicode="Ő" d="M125 -132h86v-24h-86v-30h-22v84h22v-30zM116.5 381.5q16.5 -16.5 40.5 -16.5t40.5 16.5t16.5 41.5t-16.5 41.5t-40.5 16.5t-40.5 -16.5t-16.5 -41.5t16.5 -41.5zM211 -86v23h-37v16l37 21v26l-41 -24q-10 20 -31 20q-16 0 -26 -10.5t-10 -27.5v-44h108zM103 40h108v-24
h-108v24zM211 54v25l-20 7v43l20 8v26l-108 -44v-23zM211 176v66h-21v-42h-87v-24h108zM211 290v23h-41v38h-22v-38h-23v42h-22v-65h108zM211 499v23h-68l68 50v19h-108v-23h66l-66 -47v-22h108zM125 607v30h86v24h-86v30h-22v-84h22zM132.5 447.5q9.5 9.5 24.5 9.5t25 -9.5
t10 -24.5q0 -14 -10 -24t-25 -10t-24.5 10t-9.5 24q0 15 9.5 24.5zM124 -44q0 7 4 11.5t10 4.5q7 0 11 -4.5t4 -11.5v-19h-29v19zM170 122v-28l-39 14z"/><glyph glyph-name="ohungarumlaut" unicode="ő" d="M125 -132h86v-24h-86v-30h-22v84h22v-30zM116.5 381.5q16.5 -16.5 40.5 -16.5t40.5 16.5t16.5 41.5t-16.5 41.5t-40.5 16.5t-40.5 -16.5t-16.5 -41.5t16.5 -41.5zM211 -86v23h-37v16l37 21v26l-41 -24q-10 20 -31 20q-16 0 -26 -10.5t-10 -27.5v-44h108zM103 40h108v-24
h-108v24zM211 54v25l-20 7v43l20 8v26l-108 -44v-23zM211 176v66h-21v-42h-87v-24h108zM211 290v23h-41v38h-22v-38h-23v42h-22v-65h108zM211 499v23h-68l68 50v19h-108v-23h66l-66 -47v-22h108zM125 607v30h86v24h-86v30h-22v-84h22zM132.5 447.5q9.5 9.5 24.5 9.5t25 -9.5
t10 -24.5q0 -14 -10 -24t-25 -10t-24.5 10t-9.5 24q0 15 9.5 24.5zM124 -44q0 7 4 11.5t10 4.5q7 0 11 -4.5t4 -11.5v-19h-29v19zM170 122v-28l-39 14z"/><glyph glyph-name="OE" unicode="Œ" d="M125 -132h86v-24h-86v-30h-22v84h22v-30zM116.5 381.5q16.5 -16.5 40.5 -16.5t40.5 16.5t16.5 41.5t-16.5 41.5t-40.5 16.5t-40.5 -16.5t-16.5 -41.5t16.5 -41.5zM211 -86v23h-37v16l37 21v26l-41 -24q-10 20 -31 20q-16 0 -26 -10.5t-10 -27.5v-44h108zM103 40h108v-24
h-108v24zM211 54v25l-20 7v43l20 8v26l-108 -44v-23zM211 176v66h-21v-42h-87v-24h108zM211 290v23h-41v38h-22v-38h-23v42h-22v-65h108zM211 499v23h-68l68 50v19h-108v-23h66l-66 -47v-22h108zM125 607v30h86v24h-86v30h-22v-84h22zM132.5 447.5q9.5 9.5 24.5 9.5t25 -9.5
t10 -24.5q0 -14 -10 -24t-25 -10t-24.5 10t-9.5 24q0 15 9.5 24.5zM124 -44q0 7 4 11.5t10 4.5q7 0 11 -4.5t4 -11.5v-19h-29v19zM170 122v-28l-39 14z"/><glyph glyph-name="oe" unicode="œ" d="M125 -132h86v-24h-86v-30h-22v84h22v-30zM116.5 381.5q16.5 -16.5 40.5 -16.5t40.5 16.5t16.5 41.5t-16.5 41.5t-40.5 16.5t-40.5 -16.5t-16.5 -41.5t16.5 -41.5zM211 -86v23h-37v16l37 21v26l-41 -24q-10 20 -31 20q-16 0 -26 -10.5t-10 -27.5v-44h108zM103 40h108v-24
h-108v24zM211 54v25l-20 7v43l20 8v26l-108 -44v-23zM211 176v66h-21v-42h-87v-24h108zM211 290v23h-41v38h-22v-38h-23v42h-22v-65h108zM211 499v23h-68l68 50v19h-108v-23h66l-66 -47v-22h108zM125 607v30h86v24h-86v30h-22v-84h22zM132.5 447.5q9.5 9.5 24.5 9.5t25 -9.5
t10 -24.5q0 -14 -10 -24t-25 -10t-24.5 10t-9.5 24q0 15 9.5 24.5zM124 -44q0 7 4 11.5t10 4.5q7 0 11 -4.5t4 -11.5v-19h-29v19zM170 122v-28l-39 14z"/><glyph glyph-name="Racute" unicode="Ŕ" d="M125 -132h86v-24h-86v-30h-22v84h22v-30zM116.5 381.5q16.5 -16.5 40.5 -16.5t40.5 16.5t16.5 41.5t-16.5 41.5t-40.5 16.5t-40.5 -16.5t-16.5 -41.5t16.5 -41.5zM211 -86v23h-37v16l37 21v26l-41 -24q-10 20 -31 20q-16 0 -26 -10.5t-10 -27.5v-44h108zM103 40h108v-24
h-108v24zM211 54v25l-20 7v43l20 8v26l-108 -44v-23zM211 176v66h-21v-42h-87v-24h108zM211 290v23h-41v38h-22v-38h-23v42h-22v-65h108zM211 499v23h-68l68 50v19h-108v-23h66l-66 -47v-22h108zM125 607v30h86v24h-86v30h-22v-84h22zM132.5 447.5q9.5 9.5 24.5 9.5t25 -9.5
t10 -24.5q0 -14 -10 -24t-25 -10t-24.5 10t-9.5 24q0 15 9.5 24.5zM124 -44q0 7 4 11.5t10 4.5q7 0 11 -4.5t4 -11.5v-19h-29v19zM170 122v-28l-39 14z"/><glyph glyph-name="racute" unicode="ŕ" d="M125 -132h86v-24h-86v-30h-22v84h22v-30zM116.5 381.5q16.5 -16.5 40.5 -16.5t40.5 16.5t16.5 41.5t-16.5 41.5t-40.5 16.5t-40.5 -16.5t-16.5 -41.5t16.5 -41.5zM211 -86v23h-37v16l37 21v26l-41 -24q-10 20 -31 20q-16 0 -26 -10.5t-10 -27.5v-44h108zM103 40h108v-24
h-108v24zM211 54v25l-20 7v43l20 8v26l-108 -44v-23zM211 176v66h-21v-42h-87v-24h108zM211 290v23h-41v38h-22v-38h-23v42h-22v-65h108zM211 499v23h-68l68 50v19h-108v-23h66l-66 -47v-22h108zM125 607v30h86v24h-86v30h-22v-84h22zM132.5 447.5q9.5 9.5 24.5 9.5t25 -9.5
t10 -24.5q0 -14 -10 -24t-25 -10t-24.5 10t-9.5 24q0 15 9.5 24.5zM124 -44q0 7 4 11.5t10 4.5q7 0 11 -4.5t4 -11.5v-19h-29v19zM170 122v-28l-39 14z"/><glyph glyph-name="uni0156" unicode="Ŗ" d="M125 -132h86v-24h-86v-30h-22v84h22v-30zM116.5 381.5q16.5 -16.5 40.5 -16.5t40.5 16.5t16.5 41.5t-16.5 41.5t-40.5 16.5t-40.5 -16.5t-16.5 -41.5t16.5 -41.5zM211 -86v23h-37v16l37 21v26l-41 -24q-10 20 -31 20q-16 0 -26 -10.5t-10 -27.5v-44h108zM103 40h108v-24
h-108v24zM211 54v25l-20 7v43l20 8v26l-108 -44v-23zM211 176v66h-21v-42h-87v-24h108zM211 290v23h-41v38h-22v-38h-23v42h-22v-65h108zM211 499v23h-68l68 50v19h-108v-23h66l-66 -47v-22h108zM125 607v30h86v24h-86v30h-22v-84h22zM132.5 447.5q9.5 9.5 24.5 9.5t25 -9.5
t10 -24.5q0 -14 -10 -24t-25 -10t-24.5 10t-9.5 24q0 15 9.5 24.5zM124 -44q0 7 4 11.5t10 4.5q7 0 11 -4.5t4 -11.5v-19h-29v19zM170 122v-28l-39 14z"/><glyph glyph-name="uni0157" unicode="ŗ" d="M125 -132h86v-24h-86v-30h-22v84h22v-30zM116.5 381.5q16.5 -16.5 40.5 -16.5t40.5 16.5t16.5 41.5t-16.5 41.5t-40.5 16.5t-40.5 -16.5t-16.5 -41.5t16.5 -41.5zM211 -86v23h-37v16l37 21v26l-41 -24q-10 20 -31 20q-16 0 -26 -10.5t-10 -27.5v-44h108zM103 40h108v-24
h-108v24zM211 54v25l-20 7v43l20 8v26l-108 -44v-23zM211 176v66h-21v-42h-87v-24h108zM211 290v23h-41v38h-22v-38h-23v42h-22v-65h108zM211 499v23h-68l68 50v19h-108v-23h66l-66 -47v-22h108zM125 607v30h86v24h-86v30h-22v-84h22zM132.5 447.5q9.5 9.5 24.5 9.5t25 -9.5
t10 -24.5q0 -14 -10 -24t-25 -10t-24.5 10t-9.5 24q0 15 9.5 24.5zM124 -44q0 7 4 11.5t10 4.5q7 0 11 -4.5t4 -11.5v-19h-29v19zM170 122v-28l-39 14z"/><glyph glyph-name="Rcaron" unicode="Ř" d="M125 -132h86v-24h-86v-30h-22v84h22v-30zM116.5 381.5q16.5 -16.5 40.5 -16.5t40.5 16.5t16.5 41.5t-16.5 41.5t-40.5 16.5t-40.5 -16.5t-16.5 -41.5t16.5 -41.5zM211 -86v23h-37v16l37 21v26l-41 -24q-10 20 -31 20q-16 0 -26 -10.5t-10 -27.5v-44h108zM103 40h108v-24
h-108v24zM211 54v25l-20 7v43l20 8v26l-108 -44v-23zM211 176v66h-21v-42h-87v-24h108zM211 290v23h-41v38h-22v-38h-23v42h-22v-65h108zM211 499v23h-68l68 50v19h-108v-23h66l-66 -47v-22h108zM125 607v30h86v24h-86v30h-22v-84h22zM132.5 447.5q9.5 9.5 24.5 9.5t25 -9.5
t10 -24.5q0 -14 -10 -24t-25 -10t-24.5 10t-9.5 24q0 15 9.5 24.5zM124 -44q0 7 4 11.5t10 4.5q7 0 11 -4.5t4 -11.5v-19h-29v19zM170 122v-28l-39 14z"/><glyph glyph-name="rcaron" unicode="ř" d="M125 -132h86v-24h-86v-30h-22v84h22v-30zM116.5 381.5q16.5 -16.5 40.5 -16.5t40.5 16.5t16.5 41.5t-16.5 41.5t-40.5 16.5t-40.5 -16.5t-16.5 -41.5t16.5 -41.5zM211 -86v23h-37v16l37 21v26l-41 -24q-10 20 -31 20q-16 0 -26 -10.5t-10 -27.5v-44h108zM103 40h108v-24
h-108v24zM211 54v25l-20 7v43l20 8v26l-108 -44v-23zM211 176v66h-21v-42h-87v-24h108zM211 290v23h-41v38h-22v-38h-23v42h-22v-65h108zM211 499v23h-68l68 50v19h-108v-23h66l-66 -47v-22h108zM125 607v30h86v24h-86v30h-22v-84h22zM132.5 447.5q9.5 9.5 24.5 9.5t25 -9.5
t10 -24.5q0 -14 -10 -24t-25 -10t-24.5 10t-9.5 24q0 15 9.5 24.5zM124 -44q0 7 4 11.5t10 4.5q7 0 11 -4.5t4 -11.5v-19h-29v19zM170 122v-28l-39 14z"/><glyph glyph-name="Sacute" unicode="Ś" d="M125 -132h86v-24h-86v-30h-22v84h22v-30zM116.5 381.5q16.5 -16.5 40.5 -16.5t40.5 16.5t16.5 41.5t-16.5 41.5t-40.5 16.5t-40.5 -16.5t-16.5 -41.5t16.5 -41.5zM211 -86v23h-37v16l37 21v26l-41 -24q-10 20 -31 20q-16 0 -26 -10.5t-10 -27.5v-44h108zM103 40h108v-24
h-108v24zM211 54v25l-20 7v43l20 8v26l-108 -44v-23zM211 176v66h-21v-42h-87v-24h108zM211 290v23h-41v38h-22v-38h-23v42h-22v-65h108zM211 499v23h-68l68 50v19h-108v-23h66l-66 -47v-22h108zM125 607v30h86v24h-86v30h-22v-84h22zM132.5 447.5q9.5 9.5 24.5 9.5t25 -9.5
t10 -24.5q0 -14 -10 -24t-25 -10t-24.5 10t-9.5 24q0 15 9.5 24.5zM124 -44q0 7 4 11.5t10 4.5q7 0 11 -4.5t4 -11.5v-19h-29v19zM170 122v-28l-39 14z"/><glyph glyph-name="sacute" unicode="ś" d="M125 -132h86v-24h-86v-30h-22v84h22v-30zM116.5 381.5q16.5 -16.5 40.5 -16.5t40.5 16.5t16.5 41.5t-16.5 41.5t-40.5 16.5t-40.5 -16.5t-16.5 -41.5t16.5 -41.5zM211 -86v23h-37v16l37 21v26l-41 -24q-10 20 -31 20q-16 0 -26 -10.5t-10 -27.5v-44h108zM103 40h108v-24
h-108v24zM211 54v25l-20 7v43l20 8v26l-108 -44v-23zM211 176v66h-21v-42h-87v-24h108zM211 290v23h-41v38h-22v-38h-23v42h-22v-65h108zM211 499v23h-68l68 50v19h-108v-23h66l-66 -47v-22h108zM125 607v30h86v24h-86v30h-22v-84h22zM132.5 447.5q9.5 9.5 24.5 9.5t25 -9.5
t10 -24.5q0 -14 -10 -24t-25 -10t-24.5 10t-9.5 24q0 15 9.5 24.5zM124 -44q0 7 4 11.5t10 4.5q7 0 11 -4.5t4 -11.5v-19h-29v19zM170 122v-28l-39 14z"/><glyph glyph-name="Scircumflex" unicode="Ŝ" d="M125 -132h86v-24h-86v-30h-22v84h22v-30zM116.5 381.5q16.5 -16.5 40.5 -16.5t40.5 16.5t16.5 41.5t-16.5 41.5t-40.5 16.5t-40.5 -16.5t-16.5 -41.5t16.5 -41.5zM211 -86v23h-37v16l37 21v26l-41 -24q-10 20 -31 20q-16 0 -26 -10.5t-10 -27.5v-44h108zM103 40h108v-24
h-108v24zM211 54v25l-20 7v43l20 8v26l-108 -44v-23zM211 176v66h-21v-42h-87v-24h108zM211 290v23h-41v38h-22v-38h-23v42h-22v-65h108zM211 499v23h-68l68 50v19h-108v-23h66l-66 -47v-22h108zM125 607v30h86v24h-86v30h-22v-84h22zM132.5 447.5q9.5 9.5 24.5 9.5t25 -9.5
t10 -24.5q0 -14 -10 -24t-25 -10t-24.5 10t-9.5 24q0 15 9.5 24.5zM124 -44q0 7 4 11.5t10 4.5q7 0 11 -4.5t4 -11.5v-19h-29v19zM170 122v-28l-39 14z"/><glyph glyph-name="scircumflex" unicode="ŝ" d="M125 -132h86v-24h-86v-30h-22v84h22v-30zM116.5 381.5q16.5 -16.5 40.5 -16.5t40.5 16.5t16.5 41.5t-16.5 41.5t-40.5 16.5t-40.5 -16.5t-16.5 -41.5t16.5 -41.5zM211 -86v23h-37v16l37 21v26l-41 -24q-10 20 -31 20q-16 0 -26 -10.5t-10 -27.5v-44h108zM103 40h108v-24
h-108v24zM211 54v25l-20 7v43l20 8v26l-108 -44v-23zM211 176v66h-21v-42h-87v-24h108zM211 290v23h-41v38h-22v-38h-23v42h-22v-65h108zM211 499v23h-68l68 50v19h-108v-23h66l-66 -47v-22h108zM125 607v30h86v24h-86v30h-22v-84h22zM132.5 447.5q9.5 9.5 24.5 9.5t25 -9.5
t10 -24.5q0 -14 -10 -24t-25 -10t-24.5 10t-9.5 24q0 15 9.5 24.5zM124 -44q0 7 4 11.5t10 4.5q7 0 11 -4.5t4 -11.5v-19h-29v19zM170 122v-28l-39 14z"/><glyph glyph-name="Scedilla" unicode="Ş" d="M125 -132h86v-24h-86v-30h-22v84h22v-30zM116.5 381.5q16.5 -16.5 40.5 -16.5t40.5 16.5t16.5 41.5t-16.5 41.5t-40.5 16.5t-40.5 -16.5t-16.5 -41.5t16.5 -41.5zM211 -86v23h-37v16l37 21v26l-41 -24q-10 20 -31 20q-16 0 -26 -10.5t-10 -27.5v-44h108zM103 40h108v-24
h-108v24zM211 54v25l-20 7v43l20 8v26l-108 -44v-23zM211 176v66h-21v-42h-87v-24h108zM211 290v23h-41v38h-22v-38h-23v42h-22v-65h108zM211 499v23h-68l68 50v19h-108v-23h66l-66 -47v-22h108zM125 607v30h86v24h-86v30h-22v-84h22zM132.5 447.5q9.5 9.5 24.5 9.5t25 -9.5
t10 -24.5q0 -14 -10 -24t-25 -10t-24.5 10t-9.5 24q0 15 9.5 24.5zM124 -44q0 7 4 11.5t10 4.5q7 0 11 -4.5t4 -11.5v-19h-29v19zM170 122v-28l-39 14z"/><glyph glyph-name="scedilla" unicode="ş" d="M125 -132h86v-24h-86v-30h-22v84h22v-30zM116.5 381.5q16.5 -16.5 40.5 -16.5t40.5 16.5t16.5 41.5t-16.5 41.5t-40.5 16.5t-40.5 -16.5t-16.5 -41.5t16.5 -41.5zM211 -86v23h-37v16l37 21v26l-41 -24q-10 20 -31 20q-16 0 -26 -10.5t-10 -27.5v-44h108zM103 40h108v-24
h-108v24zM211 54v25l-20 7v43l20 8v26l-108 -44v-23zM211 176v66h-21v-42h-87v-24h108zM211 290v23h-41v38h-22v-38h-23v42h-22v-65h108zM211 499v23h-68l68 50v19h-108v-23h66l-66 -47v-22h108zM125 607v30h86v24h-86v30h-22v-84h22zM132.5 447.5q9.5 9.5 24.5 9.5t25 -9.5
t10 -24.5q0 -14 -10 -24t-25 -10t-24.5 10t-9.5 24q0 15 9.5 24.5zM124 -44q0 7 4 11.5t10 4.5q7 0 11 -4.5t4 -11.5v-19h-29v19zM170 122v-28l-39 14z"/><glyph glyph-name="Scaron" unicode="Š" d="M125 -132h86v-24h-86v-30h-22v84h22v-30zM116.5 381.5q16.5 -16.5 40.5 -16.5t40.5 16.5t16.5 41.5t-16.5 41.5t-40.5 16.5t-40.5 -16.5t-16.5 -41.5t16.5 -41.5zM211 -86v23h-37v16l37 21v26l-41 -24q-10 20 -31 20q-16 0 -26 -10.5t-10 -27.5v-44h108zM103 40h108v-24
h-108v24zM211 54v25l-20 7v43l20 8v26l-108 -44v-23zM211 176v66h-21v-42h-87v-24h108zM211 290v23h-41v38h-22v-38h-23v42h-22v-65h108zM211 499v23h-68l68 50v19h-108v-23h66l-66 -47v-22h108zM125 607v30h86v24h-86v30h-22v-84h22zM132.5 447.5q9.5 9.5 24.5 9.5t25 -9.5
t10 -24.5q0 -14 -10 -24t-25 -10t-24.5 10t-9.5 24q0 15 9.5 24.5zM124 -44q0 7 4 11.5t10 4.5q7 0 11 -4.5t4 -11.5v-19h-29v19zM170 122v-28l-39 14z"/><glyph glyph-name="scaron" unicode="š" d="M125 -132h86v-24h-86v-30h-22v84h22v-30zM116.5 381.5q16.5 -16.5 40.5 -16.5t40.5 16.5t16.5 41.5t-16.5 41.5t-40.5 16.5t-40.5 -16.5t-16.5 -41.5t16.5 -41.5zM211 -86v23h-37v16l37 21v26l-41 -24q-10 20 -31 20q-16 0 -26 -10.5t-10 -27.5v-44h108zM103 40h108v-24
h-108v24zM211 54v25l-20 7v43l20 8v26l-108 -44v-23zM211 176v66h-21v-42h-87v-24h108zM211 290v23h-41v38h-22v-38h-23v42h-22v-65h108zM211 499v23h-68l68 50v19h-108v-23h66l-66 -47v-22h108zM125 607v30h86v24h-86v30h-22v-84h22zM132.5 447.5q9.5 9.5 24.5 9.5t25 -9.5
t10 -24.5q0 -14 -10 -24t-25 -10t-24.5 10t-9.5 24q0 15 9.5 24.5zM124 -44q0 7 4 11.5t10 4.5q7 0 11 -4.5t4 -11.5v-19h-29v19zM170 122v-28l-39 14z"/><glyph glyph-name="uni0162" unicode="Ţ" d="M125 -132h86v-24h-86v-30h-22v84h22v-30zM116.5 381.5q16.5 -16.5 40.5 -16.5t40.5 16.5t16.5 41.5t-16.5 41.5t-40.5 16.5t-40.5 -16.5t-16.5 -41.5t16.5 -41.5zM211 -86v23h-37v16l37 21v26l-41 -24q-10 20 -31 20q-16 0 -26 -10.5t-10 -27.5v-44h108zM103 40h108v-24
h-108v24zM211 54v25l-20 7v43l20 8v26l-108 -44v-23zM211 176v66h-21v-42h-87v-24h108zM211 290v23h-41v38h-22v-38h-23v42h-22v-65h108zM211 499v23h-68l68 50v19h-108v-23h66l-66 -47v-22h108zM125 607v30h86v24h-86v30h-22v-84h22zM132.5 447.5q9.5 9.5 24.5 9.5t25 -9.5
t10 -24.5q0 -14 -10 -24t-25 -10t-24.5 10t-9.5 24q0 15 9.5 24.5zM124 -44q0 7 4 11.5t10 4.5q7 0 11 -4.5t4 -11.5v-19h-29v19zM170 122v-28l-39 14z"/><glyph glyph-name="uni0163" unicode="ţ" d="M125 -132h86v-24h-86v-30h-22v84h22v-30zM116.5 381.5q16.5 -16.5 40.5 -16.5t40.5 16.5t16.5 41.5t-16.5 41.5t-40.5 16.5t-40.5 -16.5t-16.5 -41.5t16.5 -41.5zM211 -86v23h-37v16l37 21v26l-41 -24q-10 20 -31 20q-16 0 -26 -10.5t-10 -27.5v-44h108zM103 40h108v-24
h-108v24zM211 54v25l-20 7v43l20 8v26l-108 -44v-23zM211 176v66h-21v-42h-87v-24h108zM211 290v23h-41v38h-22v-38h-23v42h-22v-65h108zM211 499v23h-68l68 50v19h-108v-23h66l-66 -47v-22h108zM125 607v30h86v24h-86v30h-22v-84h22zM132.5 447.5q9.5 9.5 24.5 9.5t25 -9.5
t10 -24.5q0 -14 -10 -24t-25 -10t-24.5 10t-9.5 24q0 15 9.5 24.5zM124 -44q0 7 4 11.5t10 4.5q7 0 11 -4.5t4 -11.5v-19h-29v19zM170 122v-28l-39 14z"/><glyph glyph-name="Tcaron" unicode="Ť" d="M125 -132h86v-24h-86v-30h-22v84h22v-30zM116.5 381.5q16.5 -16.5 40.5 -16.5t40.5 16.5t16.5 41.5t-16.5 41.5t-40.5 16.5t-40.5 -16.5t-16.5 -41.5t16.5 -41.5zM211 -86v23h-37v16l37 21v26l-41 -24q-10 20 -31 20q-16 0 -26 -10.5t-10 -27.5v-44h108zM103 40h108v-24
h-108v24zM211 54v25l-20 7v43l20 8v26l-108 -44v-23zM211 176v66h-21v-42h-87v-24h108zM211 290v23h-41v38h-22v-38h-23v42h-22v-65h108zM211 499v23h-68l68 50v19h-108v-23h66l-66 -47v-22h108zM125 607v30h86v24h-86v30h-22v-84h22zM132.5 447.5q9.5 9.5 24.5 9.5t25 -9.5
t10 -24.5q0 -14 -10 -24t-25 -10t-24.5 10t-9.5 24q0 15 9.5 24.5zM124 -44q0 7 4 11.5t10 4.5q7 0 11 -4.5t4 -11.5v-19h-29v19zM170 122v-28l-39 14z"/><glyph glyph-name="tcaron" unicode="ť" d="M125 -132h86v-24h-86v-30h-22v84h22v-30zM116.5 381.5q16.5 -16.5 40.5 -16.5t40.5 16.5t16.5 41.5t-16.5 41.5t-40.5 16.5t-40.5 -16.5t-16.5 -41.5t16.5 -41.5zM211 -86v23h-37v16l37 21v26l-41 -24q-10 20 -31 20q-16 0 -26 -10.5t-10 -27.5v-44h108zM103 40h108v-24
h-108v24zM211 54v25l-20 7v43l20 8v26l-108 -44v-23zM211 176v66h-21v-42h-87v-24h108zM211 290v23h-41v38h-22v-38h-23v42h-22v-65h108zM211 499v23h-68l68 50v19h-108v-23h66l-66 -47v-22h108zM125 607v30h86v24h-86v30h-22v-84h22zM132.5 447.5q9.5 9.5 24.5 9.5t25 -9.5
t10 -24.5q0 -14 -10 -24t-25 -10t-24.5 10t-9.5 24q0 15 9.5 24.5zM124 -44q0 7 4 11.5t10 4.5q7 0 11 -4.5t4 -11.5v-19h-29v19zM170 122v-28l-39 14z"/><glyph glyph-name="Tbar" unicode="Ŧ" d="M125 -132h86v-24h-86v-30h-22v84h22v-30zM116.5 381.5q16.5 -16.5 40.5 -16.5t40.5 16.5t16.5 41.5t-16.5 41.5t-40.5 16.5t-40.5 -16.5t-16.5 -41.5t16.5 -41.5zM211 -86v23h-37v16l37 21v26l-41 -24q-10 20 -31 20q-16 0 -26 -10.5t-10 -27.5v-44h108zM103 40h108v-24
h-108v24zM211 54v25l-20 7v43l20 8v26l-108 -44v-23zM211 176v66h-21v-42h-87v-24h108zM211 290v23h-41v38h-22v-38h-23v42h-22v-65h108zM211 499v23h-68l68 50v19h-108v-23h66l-66 -47v-22h108zM125 607v30h86v24h-86v30h-22v-84h22zM132.5 447.5q9.5 9.5 24.5 9.5t25 -9.5
t10 -24.5q0 -14 -10 -24t-25 -10t-24.5 10t-9.5 24q0 15 9.5 24.5zM124 -44q0 7 4 11.5t10 4.5q7 0 11 -4.5t4 -11.5v-19h-29v19zM170 122v-28l-39 14z"/><glyph glyph-name="tbar" unicode="ŧ" d="M125 -132h86v-24h-86v-30h-22v84h22v-30zM116.5 381.5q16.5 -16.5 40.5 -16.5t40.5 16.5t16.5 41.5t-16.5 41.5t-40.5 16.5t-40.5 -16.5t-16.5 -41.5t16.5 -41.5zM211 -86v23h-37v16l37 21v26l-41 -24q-10 20 -31 20q-16 0 -26 -10.5t-10 -27.5v-44h108zM103 40h108v-24
h-108v24zM211 54v25l-20 7v43l20 8v26l-108 -44v-23zM211 176v66h-21v-42h-87v-24h108zM211 290v23h-41v38h-22v-38h-23v42h-22v-65h108zM211 499v23h-68l68 50v19h-108v-23h66l-66 -47v-22h108zM125 607v30h86v24h-86v30h-22v-84h22zM132.5 447.5q9.5 9.5 24.5 9.5t25 -9.5
t10 -24.5q0 -14 -10 -24t-25 -10t-24.5 10t-9.5 24q0 15 9.5 24.5zM124 -44q0 7 4 11.5t10 4.5q7 0 11 -4.5t4 -11.5v-19h-29v19zM170 122v-28l-39 14z"/><glyph glyph-name="Utilde" unicode="Ũ" d="M125 -132h86v-24h-86v-30h-22v84h22v-30zM116.5 381.5q16.5 -16.5 40.5 -16.5t40.5 16.5t16.5 41.5t-16.5 41.5t-40.5 16.5t-40.5 -16.5t-16.5 -41.5t16.5 -41.5zM211 -86v23h-37v16l37 21v26l-41 -24q-10 20 -31 20q-16 0 -26 -10.5t-10 -27.5v-44h108zM103 40h108v-24
h-108v24zM211 54v25l-20 7v43l20 8v26l-108 -44v-23zM211 176v66h-21v-42h-87v-24h108zM211 290v23h-41v38h-22v-38h-23v42h-22v-65h108zM211 499v23h-68l68 50v19h-108v-23h66l-66 -47v-22h108zM125 607v30h86v24h-86v30h-22v-84h22zM132.5 447.5q9.5 9.5 24.5 9.5t25 -9.5
t10 -24.5q0 -14 -10 -24t-25 -10t-24.5 10t-9.5 24q0 15 9.5 24.5zM124 -44q0 7 4 11.5t10 4.5q7 0 11 -4.5t4 -11.5v-19h-29v19zM170 122v-28l-39 14z"/><glyph glyph-name="utilde" unicode="ũ" d="M125 -132h86v-24h-86v-30h-22v84h22v-30zM116.5 381.5q16.5 -16.5 40.5 -16.5t40.5 16.5t16.5 41.5t-16.5 41.5t-40.5 16.5t-40.5 -16.5t-16.5 -41.5t16.5 -41.5zM211 -86v23h-37v16l37 21v26l-41 -24q-10 20 -31 20q-16 0 -26 -10.5t-10 -27.5v-44h108zM103 40h108v-24
h-108v24zM211 54v25l-20 7v43l20 8v26l-108 -44v-23zM211 176v66h-21v-42h-87v-24h108zM211 290v23h-41v38h-22v-38h-23v42h-22v-65h108zM211 499v23h-68l68 50v19h-108v-23h66l-66 -47v-22h108zM125 607v30h86v24h-86v30h-22v-84h22zM132.5 447.5q9.5 9.5 24.5 9.5t25 -9.5
t10 -24.5q0 -14 -10 -24t-25 -10t-24.5 10t-9.5 24q0 15 9.5 24.5zM124 -44q0 7 4 11.5t10 4.5q7 0 11 -4.5t4 -11.5v-19h-29v19zM170 122v-28l-39 14z"/><glyph glyph-name="Umacron" unicode="Ū" d="M125 -132h86v-24h-86v-30h-22v84h22v-30zM116.5 381.5q16.5 -16.5 40.5 -16.5t40.5 16.5t16.5 41.5t-16.5 41.5t-40.5 16.5t-40.5 -16.5t-16.5 -41.5t16.5 -41.5zM211 -86v23h-37v16l37 21v26l-41 -24q-10 20 -31 20q-16 0 -26 -10.5t-10 -27.5v-44h108zM103 40h108v-24
h-108v24zM211 54v25l-20 7v43l20 8v26l-108 -44v-23zM211 176v66h-21v-42h-87v-24h108zM211 290v23h-41v38h-22v-38h-23v42h-22v-65h108zM211 499v23h-68l68 50v19h-108v-23h66l-66 -47v-22h108zM125 607v30h86v24h-86v30h-22v-84h22zM132.5 447.5q9.5 9.5 24.5 9.5t25 -9.5
t10 -24.5q0 -14 -10 -24t-25 -10t-24.5 10t-9.5 24q0 15 9.5 24.5zM124 -44q0 7 4 11.5t10 4.5q7 0 11 -4.5t4 -11.5v-19h-29v19zM170 122v-28l-39 14z"/><glyph glyph-name="umacron" unicode="ū" d="M125 -132h86v-24h-86v-30h-22v84h22v-30zM116.5 381.5q16.5 -16.5 40.5 -16.5t40.5 16.5t16.5 41.5t-16.5 41.5t-40.5 16.5t-40.5 -16.5t-16.5 -41.5t16.5 -41.5zM211 -86v23h-37v16l37 21v26l-41 -24q-10 20 -31 20q-16 0 -26 -10.5t-10 -27.5v-44h108zM103 40h108v-24
h-108v24zM211 54v25l-20 7v43l20 8v26l-108 -44v-23zM211 176v66h-21v-42h-87v-24h108zM211 290v23h-41v38h-22v-38h-23v42h-22v-65h108zM211 499v23h-68l68 50v19h-108v-23h66l-66 -47v-22h108zM125 607v30h86v24h-86v30h-22v-84h22zM132.5 447.5q9.5 9.5 24.5 9.5t25 -9.5
t10 -24.5q0 -14 -10 -24t-25 -10t-24.5 10t-9.5 24q0 15 9.5 24.5zM124 -44q0 7 4 11.5t10 4.5q7 0 11 -4.5t4 -11.5v-19h-29v19zM170 122v-28l-39 14z"/><glyph glyph-name="Ubreve" unicode="Ŭ" d="M125 -132h86v-24h-86v-30h-22v84h22v-30zM116.5 381.5q16.5 -16.5 40.5 -16.5t40.5 16.5t16.5 41.5t-16.5 41.5t-40.5 16.5t-40.5 -16.5t-16.5 -41.5t16.5 -41.5zM211 -86v23h-37v16l37 21v26l-41 -24q-10 20 -31 20q-16 0 -26 -10.5t-10 -27.5v-44h108zM103 40h108v-24
h-108v24zM211 54v25l-20 7v43l20 8v26l-108 -44v-23zM211 176v66h-21v-42h-87v-24h108zM211 290v23h-41v38h-22v-38h-23v42h-22v-65h108zM211 499v23h-68l68 50v19h-108v-23h66l-66 -47v-22h108zM125 607v30h86v24h-86v30h-22v-84h22zM132.5 447.5q9.5 9.5 24.5 9.5t25 -9.5
t10 -24.5q0 -14 -10 -24t-25 -10t-24.5 10t-9.5 24q0 15 9.5 24.5zM124 -44q0 7 4 11.5t10 4.5q7 0 11 -4.5t4 -11.5v-19h-29v19zM170 122v-28l-39 14z"/><glyph glyph-name="ubreve" unicode="ŭ" d="M125 -132h86v-24h-86v-30h-22v84h22v-30zM116.5 381.5q16.5 -16.5 40.5 -16.5t40.5 16.5t16.5 41.5t-16.5 41.5t-40.5 16.5t-40.5 -16.5t-16.5 -41.5t16.5 -41.5zM211 -86v23h-37v16l37 21v26l-41 -24q-10 20 -31 20q-16 0 -26 -10.5t-10 -27.5v-44h108zM103 40h108v-24
h-108v24zM211 54v25l-20 7v43l20 8v26l-108 -44v-23zM211 176v66h-21v-42h-87v-24h108zM211 290v23h-41v38h-22v-38h-23v42h-22v-65h108zM211 499v23h-68l68 50v19h-108v-23h66l-66 -47v-22h108zM125 607v30h86v24h-86v30h-22v-84h22zM132.5 447.5q9.5 9.5 24.5 9.5t25 -9.5
t10 -24.5q0 -14 -10 -24t-25 -10t-24.5 10t-9.5 24q0 15 9.5 24.5zM124 -44q0 7 4 11.5t10 4.5q7 0 11 -4.5t4 -11.5v-19h-29v19zM170 122v-28l-39 14z"/><glyph glyph-name="Uring" unicode="Ů" d="M125 -132h86v-24h-86v-30h-22v84h22v-30zM116.5 381.5q16.5 -16.5 40.5 -16.5t40.5 16.5t16.5 41.5t-16.5 41.5t-40.5 16.5t-40.5 -16.5t-16.5 -41.5t16.5 -41.5zM211 -86v23h-37v16l37 21v26l-41 -24q-10 20 -31 20q-16 0 -26 -10.5t-10 -27.5v-44h108zM103 40h108v-24
h-108v24zM211 54v25l-20 7v43l20 8v26l-108 -44v-23zM211 176v66h-21v-42h-87v-24h108zM211 290v23h-41v38h-22v-38h-23v42h-22v-65h108zM211 499v23h-68l68 50v19h-108v-23h66l-66 -47v-22h108zM125 607v30h86v24h-86v30h-22v-84h22zM132.5 447.5q9.5 9.5 24.5 9.5t25 -9.5
t10 -24.5q0 -14 -10 -24t-25 -10t-24.5 10t-9.5 24q0 15 9.5 24.5zM124 -44q0 7 4 11.5t10 4.5q7 0 11 -4.5t4 -11.5v-19h-29v19zM170 122v-28l-39 14z"/><glyph glyph-name="uring" unicode="ů" d="M125 -132h86v-24h-86v-30h-22v84h22v-30zM116.5 381.5q16.5 -16.5 40.5 -16.5t40.5 16.5t16.5 41.5t-16.5 41.5t-40.5 16.5t-40.5 -16.5t-16.5 -41.5t16.5 -41.5zM211 -86v23h-37v16l37 21v26l-41 -24q-10 20 -31 20q-16 0 -26 -10.5t-10 -27.5v-44h108zM103 40h108v-24
h-108v24zM211 54v25l-20 7v43l20 8v26l-108 -44v-23zM211 176v66h-21v-42h-87v-24h108zM211 290v23h-41v38h-22v-38h-23v42h-22v-65h108zM211 499v23h-68l68 50v19h-108v-23h66l-66 -47v-22h108zM125 607v30h86v24h-86v30h-22v-84h22zM132.5 447.5q9.5 9.5 24.5 9.5t25 -9.5
t10 -24.5q0 -14 -10 -24t-25 -10t-24.5 10t-9.5 24q0 15 9.5 24.5zM124 -44q0 7 4 11.5t10 4.5q7 0 11 -4.5t4 -11.5v-19h-29v19zM170 122v-28l-39 14z"/><glyph glyph-name="Uhungarumlaut" unicode="Ű" d="M125 -132h86v-24h-86v-30h-22v84h22v-30zM116.5 381.5q16.5 -16.5 40.5 -16.5t40.5 16.5t16.5 41.5t-16.5 41.5t-40.5 16.5t-40.5 -16.5t-16.5 -41.5t16.5 -41.5zM211 -86v23h-37v16l37 21v26l-41 -24q-10 20 -31 20q-16 0 -26 -10.5t-10 -27.5v-44h108zM103 40h108v-24
h-108v24zM211 54v25l-20 7v43l20 8v26l-108 -44v-23zM211 176v66h-21v-42h-87v-24h108zM211 290v23h-41v38h-22v-38h-23v42h-22v-65h108zM211 499v23h-68l68 50v19h-108v-23h66l-66 -47v-22h108zM125 607v30h86v24h-86v30h-22v-84h22zM132.5 447.5q9.5 9.5 24.5 9.5t25 -9.5
t10 -24.5q0 -14 -10 -24t-25 -10t-24.5 10t-9.5 24q0 15 9.5 24.5zM124 -44q0 7 4 11.5t10 4.5q7 0 11 -4.5t4 -11.5v-19h-29v19zM170 122v-28l-39 14z"/><glyph glyph-name="uhungarumlaut" unicode="ű" d="M125 -132h86v-24h-86v-30h-22v84h22v-30zM116.5 381.5q16.5 -16.5 40.5 -16.5t40.5 16.5t16.5 41.5t-16.5 41.5t-40.5 16.5t-40.5 -16.5t-16.5 -41.5t16.5 -41.5zM211 -86v23h-37v16l37 21v26l-41 -24q-10 20 -31 20q-16 0 -26 -10.5t-10 -27.5v-44h108zM103 40h108v-24
h-108v24zM211 54v25l-20 7v43l20 8v26l-108 -44v-23zM211 176v66h-21v-42h-87v-24h108zM211 290v23h-41v38h-22v-38h-23v42h-22v-65h108zM211 499v23h-68l68 50v19h-108v-23h66l-66 -47v-22h108zM125 607v30h86v24h-86v30h-22v-84h22zM132.5 447.5q9.5 9.5 24.5 9.5t25 -9.5
t10 -24.5q0 -14 -10 -24t-25 -10t-24.5 10t-9.5 24q0 15 9.5 24.5zM124 -44q0 7 4 11.5t10 4.5q7 0 11 -4.5t4 -11.5v-19h-29v19zM170 122v-28l-39 14z"/><glyph glyph-name="Uogonek" unicode="Ų" d="M125 -132h86v-24h-86v-30h-22v84h22v-30zM116.5 381.5q16.5 -16.5 40.5 -16.5t40.5 16.5t16.5 41.5t-16.5 41.5t-40.5 16.5t-40.5 -16.5t-16.5 -41.5t16.5 -41.5zM211 -86v23h-37v16l37 21v26l-41 -24q-10 20 -31 20q-16 0 -26 -10.5t-10 -27.5v-44h108zM103 40h108v-24
h-108v24zM211 54v25l-20 7v43l20 8v26l-108 -44v-23zM211 176v66h-21v-42h-87v-24h108zM211 290v23h-41v38h-22v-38h-23v42h-22v-65h108zM211 499v23h-68l68 50v19h-108v-23h66l-66 -47v-22h108zM125 607v30h86v24h-86v30h-22v-84h22zM132.5 447.5q9.5 9.5 24.5 9.5t25 -9.5
t10 -24.5q0 -14 -10 -24t-25 -10t-24.5 10t-9.5 24q0 15 9.5 24.5zM124 -44q0 7 4 11.5t10 4.5q7 0 11 -4.5t4 -11.5v-19h-29v19zM170 122v-28l-39 14z"/><glyph glyph-name="uogonek" unicode="ų" d="M125 -132h86v-24h-86v-30h-22v84h22v-30zM116.5 381.5q16.5 -16.5 40.5 -16.5t40.5 16.5t16.5 41.5t-16.5 41.5t-40.5 16.5t-40.5 -16.5t-16.5 -41.5t16.5 -41.5zM211 -86v23h-37v16l37 21v26l-41 -24q-10 20 -31 20q-16 0 -26 -10.5t-10 -27.5v-44h108zM103 40h108v-24
h-108v24zM211 54v25l-20 7v43l20 8v26l-108 -44v-23zM211 176v66h-21v-42h-87v-24h108zM211 290v23h-41v38h-22v-38h-23v42h-22v-65h108zM211 499v23h-68l68 50v19h-108v-23h66l-66 -47v-22h108zM125 607v30h86v24h-86v30h-22v-84h22zM132.5 447.5q9.5 9.5 24.5 9.5t25 -9.5
t10 -24.5q0 -14 -10 -24t-25 -10t-24.5 10t-9.5 24q0 15 9.5 24.5zM124 -44q0 7 4 11.5t10 4.5q7 0 11 -4.5t4 -11.5v-19h-29v19zM170 122v-28l-39 14z"/><glyph glyph-name="Wcircumflex" unicode="Ŵ" d="M125 -132h86v-24h-86v-30h-22v84h22v-30zM116.5 381.5q16.5 -16.5 40.5 -16.5t40.5 16.5t16.5 41.5t-16.5 41.5t-40.5 16.5t-40.5 -16.5t-16.5 -41.5t16.5 -41.5zM211 -86v23h-37v16l37 21v26l-41 -24q-10 20 -31 20q-16 0 -26 -10.5t-10 -27.5v-44h108zM103 40h108v-24
h-108v24zM211 54v25l-20 7v43l20 8v26l-108 -44v-23zM211 176v66h-21v-42h-87v-24h108zM211 290v23h-41v38h-22v-38h-23v42h-22v-65h108zM211 499v23h-68l68 50v19h-108v-23h66l-66 -47v-22h108zM125 607v30h86v24h-86v30h-22v-84h22zM132.5 447.5q9.5 9.5 24.5 9.5t25 -9.5
t10 -24.5q0 -14 -10 -24t-25 -10t-24.5 10t-9.5 24q0 15 9.5 24.5zM124 -44q0 7 4 11.5t10 4.5q7 0 11 -4.5t4 -11.5v-19h-29v19zM170 122v-28l-39 14z"/><glyph glyph-name="wcircumflex" unicode="ŵ" d="M125 -132h86v-24h-86v-30h-22v84h22v-30zM116.5 381.5q16.5 -16.5 40.5 -16.5t40.5 16.5t16.5 41.5t-16.5 41.5t-40.5 16.5t-40.5 -16.5t-16.5 -41.5t16.5 -41.5zM211 -86v23h-37v16l37 21v26l-41 -24q-10 20 -31 20q-16 0 -26 -10.5t-10 -27.5v-44h108zM103 40h108v-24
h-108v24zM211 54v25l-20 7v43l20 8v26l-108 -44v-23zM211 176v66h-21v-42h-87v-24h108zM211 290v23h-41v38h-22v-38h-23v42h-22v-65h108zM211 499v23h-68l68 50v19h-108v-23h66l-66 -47v-22h108zM125 607v30h86v24h-86v30h-22v-84h22zM132.5 447.5q9.5 9.5 24.5 9.5t25 -9.5
t10 -24.5q0 -14 -10 -24t-25 -10t-24.5 10t-9.5 24q0 15 9.5 24.5zM124 -44q0 7 4 11.5t10 4.5q7 0 11 -4.5t4 -11.5v-19h-29v19zM170 122v-28l-39 14z"/><glyph glyph-name="Ycircumflex" unicode="Ŷ" d="M125 -132h86v-24h-86v-30h-22v84h22v-30zM116.5 381.5q16.5 -16.5 40.5 -16.5t40.5 16.5t16.5 41.5t-16.5 41.5t-40.5 16.5t-40.5 -16.5t-16.5 -41.5t16.5 -41.5zM211 -86v23h-37v16l37 21v26l-41 -24q-10 20 -31 20q-16 0 -26 -10.5t-10 -27.5v-44h108zM103 40h108v-24
h-108v24zM211 54v25l-20 7v43l20 8v26l-108 -44v-23zM211 176v66h-21v-42h-87v-24h108zM211 290v23h-41v38h-22v-38h-23v42h-22v-65h108zM211 499v23h-68l68 50v19h-108v-23h66l-66 -47v-22h108zM125 607v30h86v24h-86v30h-22v-84h22zM132.5 447.5q9.5 9.5 24.5 9.5t25 -9.5
t10 -24.5q0 -14 -10 -24t-25 -10t-24.5 10t-9.5 24q0 15 9.5 24.5zM124 -44q0 7 4 11.5t10 4.5q7 0 11 -4.5t4 -11.5v-19h-29v19zM170 122v-28l-39 14z"/><glyph glyph-name="ycircumflex" unicode="ŷ" d="M125 -132h86v-24h-86v-30h-22v84h22v-30zM116.5 381.5q16.5 -16.5 40.5 -16.5t40.5 16.5t16.5 41.5t-16.5 41.5t-40.5 16.5t-40.5 -16.5t-16.5 -41.5t16.5 -41.5zM211 -86v23h-37v16l37 21v26l-41 -24q-10 20 -31 20q-16 0 -26 -10.5t-10 -27.5v-44h108zM103 40h108v-24
h-108v24zM211 54v25l-20 7v43l20 8v26l-108 -44v-23zM211 176v66h-21v-42h-87v-24h108zM211 290v23h-41v38h-22v-38h-23v42h-22v-65h108zM211 499v23h-68l68 50v19h-108v-23h66l-66 -47v-22h108zM125 607v30h86v24h-86v30h-22v-84h22zM132.5 447.5q9.5 9.5 24.5 9.5t25 -9.5
t10 -24.5q0 -14 -10 -24t-25 -10t-24.5 10t-9.5 24q0 15 9.5 24.5zM124 -44q0 7 4 11.5t10 4.5q7 0 11 -4.5t4 -11.5v-19h-29v19zM170 122v-28l-39 14z"/><glyph glyph-name="Ydieresis" unicode="Ÿ" d="M125 -132h86v-24h-86v-30h-22v84h22v-30zM116.5 381.5q16.5 -16.5 40.5 -16.5t40.5 16.5t16.5 41.5t-16.5 41.5t-40.5 16.5t-40.5 -16.5t-16.5 -41.5t16.5 -41.5zM211 -86v23h-37v16l37 21v26l-41 -24q-10 20 -31 20q-16 0 -26 -10.5t-10 -27.5v-44h108zM103 40h108v-24
h-108v24zM211 54v25l-20 7v43l20 8v26l-108 -44v-23zM211 176v66h-21v-42h-87v-24h108zM211 290v23h-41v38h-22v-38h-23v42h-22v-65h108zM211 499v23h-68l68 50v19h-108v-23h66l-66 -47v-22h108zM125 607v30h86v24h-86v30h-22v-84h22zM132.5 447.5q9.5 9.5 24.5 9.5t25 -9.5
t10 -24.5q0 -14 -10 -24t-25 -10t-24.5 10t-9.5 24q0 15 9.5 24.5zM124 -44q0 7 4 11.5t10 4.5q7 0 11 -4.5t4 -11.5v-19h-29v19zM170 122v-28l-39 14z"/><glyph glyph-name="Zacute" unicode="Ź" d="M125 -132h86v-24h-86v-30h-22v84h22v-30zM116.5 381.5q16.5 -16.5 40.5 -16.5t40.5 16.5t16.5 41.5t-16.5 41.5t-40.5 16.5t-40.5 -16.5t-16.5 -41.5t16.5 -41.5zM211 -86v23h-37v16l37 21v26l-41 -24q-10 20 -31 20q-16 0 -26 -10.5t-10 -27.5v-44h108zM103 40h108v-24
h-108v24zM211 54v25l-20 7v43l20 8v26l-108 -44v-23zM211 176v66h-21v-42h-87v-24h108zM211 290v23h-41v38h-22v-38h-23v42h-22v-65h108zM211 499v23h-68l68 50v19h-108v-23h66l-66 -47v-22h108zM125 607v30h86v24h-86v30h-22v-84h22zM132.5 447.5q9.5 9.5 24.5 9.5t25 -9.5
t10 -24.5q0 -14 -10 -24t-25 -10t-24.5 10t-9.5 24q0 15 9.5 24.5zM124 -44q0 7 4 11.5t10 4.5q7 0 11 -4.5t4 -11.5v-19h-29v19zM170 122v-28l-39 14z"/><glyph glyph-name="zacute" unicode="ź" d="M125 -132h86v-24h-86v-30h-22v84h22v-30zM116.5 381.5q16.5 -16.5 40.5 -16.5t40.5 16.5t16.5 41.5t-16.5 41.5t-40.5 16.5t-40.5 -16.5t-16.5 -41.5t16.5 -41.5zM211 -86v23h-37v16l37 21v26l-41 -24q-10 20 -31 20q-16 0 -26 -10.5t-10 -27.5v-44h108zM103 40h108v-24
h-108v24zM211 54v25l-20 7v43l20 8v26l-108 -44v-23zM211 176v66h-21v-42h-87v-24h108zM211 290v23h-41v38h-22v-38h-23v42h-22v-65h108zM211 499v23h-68l68 50v19h-108v-23h66l-66 -47v-22h108zM125 607v30h86v24h-86v30h-22v-84h22zM132.5 447.5q9.5 9.5 24.5 9.5t25 -9.5
t10 -24.5q0 -14 -10 -24t-25 -10t-24.5 10t-9.5 24q0 15 9.5 24.5zM124 -44q0 7 4 11.5t10 4.5q7 0 11 -4.5t4 -11.5v-19h-29v19zM170 122v-28l-39 14z"/><glyph glyph-name="Zdotaccent" unicode="Ż" d="M125 -132h86v-24h-86v-30h-22v84h22v-30zM116.5 381.5q16.5 -16.5 40.5 -16.5t40.5 16.5t16.5 41.5t-16.5 41.5t-40.5 16.5t-40.5 -16.5t-16.5 -41.5t16.5 -41.5zM211 -86v23h-37v16l37 21v26l-41 -24q-10 20 -31 20q-16 0 -26 -10.5t-10 -27.5v-44h108zM103 40h108v-24
h-108v24zM211 54v25l-20 7v43l20 8v26l-108 -44v-23zM211 176v66h-21v-42h-87v-24h108zM211 290v23h-41v38h-22v-38h-23v42h-22v-65h108zM211 499v23h-68l68 50v19h-108v-23h66l-66 -47v-22h108zM125 607v30h86v24h-86v30h-22v-84h22zM132.5 447.5q9.5 9.5 24.5 9.5t25 -9.5
t10 -24.5q0 -14 -10 -24t-25 -10t-24.5 10t-9.5 24q0 15 9.5 24.5zM124 -44q0 7 4 11.5t10 4.5q7 0 11 -4.5t4 -11.5v-19h-29v19zM170 122v-28l-39 14z"/><glyph glyph-name="zdotaccent" unicode="ż" d="M125 -132h86v-24h-86v-30h-22v84h22v-30zM116.5 381.5q16.5 -16.5 40.5 -16.5t40.5 16.5t16.5 41.5t-16.5 41.5t-40.5 16.5t-40.5 -16.5t-16.5 -41.5t16.5 -41.5zM211 -86v23h-37v16l37 21v26l-41 -24q-10 20 -31 20q-16 0 -26 -10.5t-10 -27.5v-44h108zM103 40h108v-24
h-108v24zM211 54v25l-20 7v43l20 8v26l-108 -44v-23zM211 176v66h-21v-42h-87v-24h108zM211 290v23h-41v38h-22v-38h-23v42h-22v-65h108zM211 499v23h-68l68 50v19h-108v-23h66l-66 -47v-22h108zM125 607v30h86v24h-86v30h-22v-84h22zM132.5 447.5q9.5 9.5 24.5 9.5t25 -9.5
t10 -24.5q0 -14 -10 -24t-25 -10t-24.5 10t-9.5 24q0 15 9.5 24.5zM124 -44q0 7 4 11.5t10 4.5q7 0 11 -4.5t4 -11.5v-19h-29v19zM170 122v-28l-39 14z"/><glyph glyph-name="Zcaron" unicode="Ž" d="M125 -132h86v-24h-86v-30h-22v84h22v-30zM116.5 381.5q16.5 -16.5 40.5 -16.5t40.5 16.5t16.5 41.5t-16.5 41.5t-40.5 16.5t-40.5 -16.5t-16.5 -41.5t16.5 -41.5zM211 -86v23h-37v16l37 21v26l-41 -24q-10 20 -31 20q-16 0 -26 -10.5t-10 -27.5v-44h108zM103 40h108v-24
h-108v24zM211 54v25l-20 7v43l20 8v26l-108 -44v-23zM211 176v66h-21v-42h-87v-24h108zM211 290v23h-41v38h-22v-38h-23v42h-22v-65h108zM211 499v23h-68l68 50v19h-108v-23h66l-66 -47v-22h108zM125 607v30h86v24h-86v30h-22v-84h22zM132.5 447.5q9.5 9.5 24.5 9.5t25 -9.5
t10 -24.5q0 -14 -10 -24t-25 -10t-24.5 10t-9.5 24q0 15 9.5 24.5zM124 -44q0 7 4 11.5t10 4.5q7 0 11 -4.5t4 -11.5v-19h-29v19zM170 122v-28l-39 14z"/><glyph glyph-name="zcaron" unicode="ž" d="M125 -132h86v-24h-86v-30h-22v84h22v-30zM116.5 381.5q16.5 -16.5 40.5 -16.5t40.5 16.5t16.5 41.5t-16.5 41.5t-40.5 16.5t-40.5 -16.5t-16.5 -41.5t16.5 -41.5zM211 -86v23h-37v16l37 21v26l-41 -24q-10 20 -31 20q-16 0 -26 -10.5t-10 -27.5v-44h108zM103 40h108v-24
h-108v24zM211 54v25l-20 7v43l20 8v26l-108 -44v-23zM211 176v66h-21v-42h-87v-24h108zM211 290v23h-41v38h-22v-38h-23v42h-22v-65h108zM211 499v23h-68l68 50v19h-108v-23h66l-66 -47v-22h108zM125 607v30h86v24h-86v30h-22v-84h22zM132.5 447.5q9.5 9.5 24.5 9.5t25 -9.5
t10 -24.5q0 -14 -10 -24t-25 -10t-24.5 10t-9.5 24q0 15 9.5 24.5zM124 -44q0 7 4 11.5t10 4.5q7 0 11 -4.5t4 -11.5v-19h-29v19zM170 122v-28l-39 14z"/><glyph glyph-name="longs" unicode="ſ" d="M125 -132h86v-24h-86v-30h-22v84h22v-30zM116.5 381.5q16.5 -16.5 40.5 -16.5t40.5 16.5t16.5 41.5t-16.5 41.5t-40.5 16.5t-40.5 -16.5t-16.5 -41.5t16.5 -41.5zM211 -86v23h-37v16l37 21v26l-41 -24q-10 20 -31 20q-16 0 -26 -10.5t-10 -27.5v-44h108zM103 40h108v-24
h-108v24zM211 54v25l-20 7v43l20 8v26l-108 -44v-23zM211 176v66h-21v-42h-87v-24h108zM211 290v23h-41v38h-22v-38h-23v42h-22v-65h108zM211 499v23h-68l68 50v19h-108v-23h66l-66 -47v-22h108zM125 607v30h86v24h-86v30h-22v-84h22zM132.5 447.5q9.5 9.5 24.5 9.5t25 -9.5
t10 -24.5q0 -14 -10 -24t-25 -10t-24.5 10t-9.5 24q0 15 9.5 24.5zM124 -44q0 7 4 11.5t10 4.5q7 0 11 -4.5t4 -11.5v-19h-29v19zM170 122v-28l-39 14z"/><glyph glyph-name="florin" unicode="ƒ" d="M125 -132h86v-24h-86v-30h-22v84h22v-30zM116.5 381.5q16.5 -16.5 40.5 -16.5t40.5 16.5t16.5 41.5t-16.5 41.5t-40.5 16.5t-40.5 -16.5t-16.5 -41.5t16.5 -41.5zM211 -86v23h-37v16l37 21v26l-41 -24q-10 20 -31 20q-16 0 -26 -10.5t-10 -27.5v-44h108zM103 40h108v-24
h-108v24zM211 54v25l-20 7v43l20 8v26l-108 -44v-23zM211 176v66h-21v-42h-87v-24h108zM211 290v23h-41v38h-22v-38h-23v42h-22v-65h108zM211 499v23h-68l68 50v19h-108v-23h66l-66 -47v-22h108zM125 607v30h86v24h-86v30h-22v-84h22zM132.5 447.5q9.5 9.5 24.5 9.5t25 -9.5
t10 -24.5q0 -14 -10 -24t-25 -10t-24.5 10t-9.5 24q0 15 9.5 24.5zM124 -44q0 7 4 11.5t10 4.5q7 0 11 -4.5t4 -11.5v-19h-29v19zM170 122v-28l-39 14z"/><glyph glyph-name="AEacute" unicode="Ǽ" d="M125 -132h86v-24h-86v-30h-22v84h22v-30zM116.5 381.5q16.5 -16.5 40.5 -16.5t40.5 16.5t16.5 41.5t-16.5 41.5t-40.5 16.5t-40.5 -16.5t-16.5 -41.5t16.5 -41.5zM211 -86v23h-37v16l37 21v26l-41 -24q-10 20 -31 20q-16 0 -26 -10.5t-10 -27.5v-44h108zM103 40h108v-24
h-108v24zM211 54v25l-20 7v43l20 8v26l-108 -44v-23zM211 176v66h-21v-42h-87v-24h108zM211 290v23h-41v38h-22v-38h-23v42h-22v-65h108zM211 499v23h-68l68 50v19h-108v-23h66l-66 -47v-22h108zM125 607v30h86v24h-86v30h-22v-84h22zM132.5 447.5q9.5 9.5 24.5 9.5t25 -9.5
t10 -24.5q0 -14 -10 -24t-25 -10t-24.5 10t-9.5 24q0 15 9.5 24.5zM124 -44q0 7 4 11.5t10 4.5q7 0 11 -4.5t4 -11.5v-19h-29v19zM170 122v-28l-39 14z"/><glyph glyph-name="aeacute" unicode="ǽ" d="M125 -132h86v-24h-86v-30h-22v84h22v-30zM116.5 381.5q16.5 -16.5 40.5 -16.5t40.5 16.5t16.5 41.5t-16.5 41.5t-40.5 16.5t-40.5 -16.5t-16.5 -41.5t16.5 -41.5zM211 -86v23h-37v16l37 21v26l-41 -24q-10 20 -31 20q-16 0 -26 -10.5t-10 -27.5v-44h108zM103 40h108v-24
h-108v24zM211 54v25l-20 7v43l20 8v26l-108 -44v-23zM211 176v66h-21v-42h-87v-24h108zM211 290v23h-41v38h-22v-38h-23v42h-22v-65h108zM211 499v23h-68l68 50v19h-108v-23h66l-66 -47v-22h108zM125 607v30h86v24h-86v30h-22v-84h22zM132.5 447.5q9.5 9.5 24.5 9.5t25 -9.5
t10 -24.5q0 -14 -10 -24t-25 -10t-24.5 10t-9.5 24q0 15 9.5 24.5zM124 -44q0 7 4 11.5t10 4.5q7 0 11 -4.5t4 -11.5v-19h-29v19zM170 122v-28l-39 14z"/><glyph glyph-name="Oslashacute" unicode="Ǿ" d="M125 -132h86v-24h-86v-30h-22v84h22v-30zM116.5 381.5q16.5 -16.5 40.5 -16.5t40.5 16.5t16.5 41.5t-16.5 41.5t-40.5 16.5t-40.5 -16.5t-16.5 -41.5t16.5 -41.5zM211 -86v23h-37v16l37 21v26l-41 -24q-10 20 -31 20q-16 0 -26 -10.5t-10 -27.5v-44h108zM103 40h108v-24
h-108v24zM211 54v25l-20 7v43l20 8v26l-108 -44v-23zM211 176v66h-21v-42h-87v-24h108zM211 290v23h-41v38h-22v-38h-23v42h-22v-65h108zM211 499v23h-68l68 50v19h-108v-23h66l-66 -47v-22h108zM125 607v30h86v24h-86v30h-22v-84h22zM132.5 447.5q9.5 9.5 24.5 9.5t25 -9.5
t10 -24.5q0 -14 -10 -24t-25 -10t-24.5 10t-9.5 24q0 15 9.5 24.5zM124 -44q0 7 4 11.5t10 4.5q7 0 11 -4.5t4 -11.5v-19h-29v19zM170 122v-28l-39 14z"/><glyph glyph-name="oslashacute" unicode="ǿ" d="M125 -132h86v-24h-86v-30h-22v84h22v-30zM116.5 381.5q16.5 -16.5 40.5 -16.5t40.5 16.5t16.5 41.5t-16.5 41.5t-40.5 16.5t-40.5 -16.5t-16.5 -41.5t16.5 -41.5zM211 -86v23h-37v16l37 21v26l-41 -24q-10 20 -31 20q-16 0 -26 -10.5t-10 -27.5v-44h108zM103 40h108v-24
h-108v24zM211 54v25l-20 7v43l20 8v26l-108 -44v-23zM211 176v66h-21v-42h-87v-24h108zM211 290v23h-41v38h-22v-38h-23v42h-22v-65h108zM211 499v23h-68l68 50v19h-108v-23h66l-66 -47v-22h108zM125 607v30h86v24h-86v30h-22v-84h22zM132.5 447.5q9.5 9.5 24.5 9.5t25 -9.5
t10 -24.5q0 -14 -10 -24t-25 -10t-24.5 10t-9.5 24q0 15 9.5 24.5zM124 -44q0 7 4 11.5t10 4.5q7 0 11 -4.5t4 -11.5v-19h-29v19zM170 122v-28l-39 14z"/><glyph glyph-name="uni0218" unicode="Ș" d="M125 -132h86v-24h-86v-30h-22v84h22v-30zM116.5 381.5q16.5 -16.5 40.5 -16.5t40.5 16.5t16.5 41.5t-16.5 41.5t-40.5 16.5t-40.5 -16.5t-16.5 -41.5t16.5 -41.5zM211 -86v23h-37v16l37 21v26l-41 -24q-10 20 -31 20q-16 0 -26 -10.5t-10 -27.5v-44h108zM103 40h108v-24
h-108v24zM211 54v25l-20 7v43l20 8v26l-108 -44v-23zM211 176v66h-21v-42h-87v-24h108zM211 290v23h-41v38h-22v-38h-23v42h-22v-65h108zM211 499v23h-68l68 50v19h-108v-23h66l-66 -47v-22h108zM125 607v30h86v24h-86v30h-22v-84h22zM132.5 447.5q9.5 9.5 24.5 9.5t25 -9.5
t10 -24.5q0 -14 -10 -24t-25 -10t-24.5 10t-9.5 24q0 15 9.5 24.5zM124 -44q0 7 4 11.5t10 4.5q7 0 11 -4.5t4 -11.5v-19h-29v19zM170 122v-28l-39 14z"/><glyph glyph-name="uni0219" unicode="ș" d="M125 -132h86v-24h-86v-30h-22v84h22v-30zM116.5 381.5q16.5 -16.5 40.5 -16.5t40.5 16.5t16.5 41.5t-16.5 41.5t-40.5 16.5t-40.5 -16.5t-16.5 -41.5t16.5 -41.5zM211 -86v23h-37v16l37 21v26l-41 -24q-10 20 -31 20q-16 0 -26 -10.5t-10 -27.5v-44h108zM103 40h108v-24
h-108v24zM211 54v25l-20 7v43l20 8v26l-108 -44v-23zM211 176v66h-21v-42h-87v-24h108zM211 290v23h-41v38h-22v-38h-23v42h-22v-65h108zM211 499v23h-68l68 50v19h-108v-23h66l-66 -47v-22h108zM125 607v30h86v24h-86v30h-22v-84h22zM132.5 447.5q9.5 9.5 24.5 9.5t25 -9.5
t10 -24.5q0 -14 -10 -24t-25 -10t-24.5 10t-9.5 24q0 15 9.5 24.5zM124 -44q0 7 4 11.5t10 4.5q7 0 11 -4.5t4 -11.5v-19h-29v19zM170 122v-28l-39 14z"/><glyph glyph-name="uni021A" unicode="Ț" d="M125 -132h86v-24h-86v-30h-22v84h22v-30zM116.5 381.5q16.5 -16.5 40.5 -16.5t40.5 16.5t16.5 41.5t-16.5 41.5t-40.5 16.5t-40.5 -16.5t-16.5 -41.5t16.5 -41.5zM211 -86v23h-37v16l37 21v26l-41 -24q-10 20 -31 20q-16 0 -26 -10.5t-10 -27.5v-44h108zM103 40h108v-24
h-108v24zM211 54v25l-20 7v43l20 8v26l-108 -44v-23zM211 176v66h-21v-42h-87v-24h108zM211 290v23h-41v38h-22v-38h-23v42h-22v-65h108zM211 499v23h-68l68 50v19h-108v-23h66l-66 -47v-22h108zM125 607v30h86v24h-86v30h-22v-84h22zM132.5 447.5q9.5 9.5 24.5 9.5t25 -9.5
t10 -24.5q0 -14 -10 -24t-25 -10t-24.5 10t-9.5 24q0 15 9.5 24.5zM124 -44q0 7 4 11.5t10 4.5q7 0 11 -4.5t4 -11.5v-19h-29v19zM170 122v-28l-39 14z"/><glyph glyph-name="uni021B" unicode="ț" d="M125 -132h86v-24h-86v-30h-22v84h22v-30zM116.5 381.5q16.5 -16.5 40.5 -16.5t40.5 16.5t16.5 41.5t-16.5 41.5t-40.5 16.5t-40.5 -16.5t-16.5 -41.5t16.5 -41.5zM211 -86v23h-37v16l37 21v26l-41 -24q-10 20 -31 20q-16 0 -26 -10.5t-10 -27.5v-44h108zM103 40h108v-24
h-108v24zM211 54v25l-20 7v43l20 8v26l-108 -44v-23zM211 176v66h-21v-42h-87v-24h108zM211 290v23h-41v38h-22v-38h-23v42h-22v-65h108zM211 499v23h-68l68 50v19h-108v-23h66l-66 -47v-22h108zM125 607v30h86v24h-86v30h-22v-84h22zM132.5 447.5q9.5 9.5 24.5 9.5t25 -9.5
t10 -24.5q0 -14 -10 -24t-25 -10t-24.5 10t-9.5 24q0 15 9.5 24.5zM124 -44q0 7 4 11.5t10 4.5q7 0 11 -4.5t4 -11.5v-19h-29v19zM170 122v-28l-39 14z"/><glyph glyph-name="uni0237" unicode="ȷ" d="M125 -132h86v-24h-86v-30h-22v84h22v-30zM116.5 381.5q16.5 -16.5 40.5 -16.5t40.5 16.5t16.5 41.5t-16.5 41.5t-40.5 16.5t-40.5 -16.5t-16.5 -41.5t16.5 -41.5zM211 -86v23h-37v16l37 21v26l-41 -24q-10 20 -31 20q-16 0 -26 -10.5t-10 -27.5v-44h108zM103 40h108v-24
h-108v24zM211 54v25l-20 7v43l20 8v26l-108 -44v-23zM211 176v66h-21v-42h-87v-24h108zM211 290v23h-41v38h-22v-38h-23v42h-22v-65h108zM211 499v23h-68l68 50v19h-108v-23h66l-66 -47v-22h108zM125 607v30h86v24h-86v30h-22v-84h22zM132.5 447.5q9.5 9.5 24.5 9.5t25 -9.5
t10 -24.5q0 -14 -10 -24t-25 -10t-24.5 10t-9.5 24q0 15 9.5 24.5zM124 -44q0 7 4 11.5t10 4.5q7 0 11 -4.5t4 -11.5v-19h-29v19zM170 122v-28l-39 14z"/></font>
</defs>
</svg>
