<?xml version="1.0" standalone="no"?><!DOCTYPE svg PUBLIC "-//W3C//DTD SVG 1.1//EN" "http://www.w3.org/Graphics/SVG/1.1/DTD/svg11.dtd" ><svg xmlns="http://www.w3.org/2000/svg" xmlns:xlink="http://www.w3.org/1999/xlink" version="1.1"><metadata>Created by FontForge 20170731 at Thu Sep 21 15:20:03 2023
 By Aleksey,,,
Copyright (c) 2012 by Fontfabric LLC. All rights reserved.</metadata><defs><font id="NexaRegular" horiz-adv-x="1421"><font-face font-family="Nexa Regular" font-weight="400" font-stretch="normal" units-per-em="2048" panose-1="2 0 5 0 0 0 0 0 0 0" ascent="1638" descent="-410" x-height="1012" cap-height="1434" bbox="-311 -592 2207 1933" underline-thickness="102" underline-position="-307" unicode-range="U+000D-FB02"/><missing-glyph horiz-adv-x="1308" d="M76 1434h1104v-1434h-1104v1434zM383 913l2 -2q0 65 37.5 109t88.5 61t110 17q47 0 88.5 -8t81 -27.5t63 -58.5t23.5 -95q0 -19 -2 -35.5t-9 -30t-11.5 -23.5t-17.5 -20.5t-18 -15.5t-23.5 -14t-22.5 -11t-26.5 -11.5t-25.5 -10.5q-67 -24 -105.5 -56t-59.5 -92t-21 -155
h122q0 97 21 135t92 64q9 5 38 17.5t44.5 21t41.5 24.5t41 34.5t31 44t23.5 60t7.5 76.5q0 65 -21.5 117.5t-57 86t-84.5 56t-101.5 32t-111.5 9.5q-71 0 -134 -17.5t-115.5 -52t-83 -93.5t-30.5 -136h125zM516 262q0 -32 16.5 -53.5t39.5 -26.5t46 -0.5t39.5 26t16.5 52.5
q0 53 -39.5 75t-79 0.5t-39.5 -73.5z"/><glyph glyph-name=".notdef" horiz-adv-x="1308" d="M76 1434h1104v-1434h-1104v1434zM383 913l2 -2q0 65 37.5 109t88.5 61t110 17q47 0 88.5 -8t81 -27.5t63 -58.5t23.5 -95q0 -19 -2 -35.5t-9 -30t-11.5 -23.5t-17.5 -20.5t-18 -15.5t-23.5 -14t-22.5 -11t-26.5 -11.5t-25.5 -10.5q-67 -24 -105.5 -56t-59.5 -92t-21 -155
h122q0 97 21 135t92 64q9 5 38 17.5t44.5 21t41.5 24.5t41 34.5t31 44t23.5 60t7.5 76.5q0 65 -21.5 117.5t-57 86t-84.5 56t-101.5 32t-111.5 9.5q-71 0 -134 -17.5t-115.5 -52t-83 -93.5t-30.5 -136h125zM516 262q0 -32 16.5 -53.5t39.5 -26.5t46 -0.5t39.5 26t16.5 52.5
q0 53 -39.5 75t-79 0.5t-39.5 -73.5z"/><glyph glyph-name=".null" horiz-adv-x="0"/><glyph glyph-name="nonmarkingreturn" horiz-adv-x="682"/><glyph glyph-name="CR" unicode="" horiz-adv-x="548"/><glyph glyph-name="space" unicode=" " horiz-adv-x="526"/><glyph glyph-name="exclam" unicode="!" horiz-adv-x="540" d="M360 1434v-1106h-182v1106h182zM156 109q0 45 24.5 75.5t59.5 37.5t69.5 -0.5t59 -38.5t24.5 -77q0 -44 -24.5 -74.5t-59 -37.5t-69.5 0.5t-59.5 38.5t-24.5 76z"/><glyph glyph-name="quotedbl" unicode="&quot;" horiz-adv-x="776" d="M303 1438v-537h-151v537h151zM623 1438v-537h-152v537h152z"/><glyph glyph-name="numbersign" unicode="#" horiz-adv-x="1357" d="M682 1434l-78 -326h340l82 326h168l-82 -326h168v-154h-205l-125 -483h183v-154h-218l-77 -317h-168l78 317h-342l-80 -317h-166l78 317h-162v154h198l127 483h-174v154h209l80 326h166zM567 965l-127 -502h342l127 502h-342z"/><glyph glyph-name="dollar" unicode="$" horiz-adv-x="1368" d="M782 1649v4v-193q345 -44 455 -264l-145 -74q-49 84 -166.5 134.5t-233.5 50.5q-67 0 -132.5 -13.5t-125.5 -40.5t-96.5 -76.5t-34.5 -113.5q0 -47 22.5 -84t56.5 -61t90 -42.5t106.5 -29t121.5 -21.5q60 -9 97 -14.5t93 -17t91.5 -22.5t82 -29.5t75.5 -39.5t60 -51
t48.5 -65.5t29 -82t11.5 -100.5q0 -98 -44.5 -177t-119 -127t-161.5 -75.5t-183 -33.5v-203h-166v199q-116 9 -215 40t-188 99.5t-137 167.5l155 78q32 -74 111 -127t168.5 -76t179.5 -23q72 0 142.5 14t135 43.5t104.5 82t40 121.5q0 51 -25 91.5t-63 66.5t-98 46.5
t-114.5 31.5t-127.5 22q-80 13 -120.5 21t-109.5 25t-106 34t-85 47t-72 65.5t-42.5 87.5t-19.5 115q-2 95 40.5 170t115 121t156.5 72t175 32v195h168z"/><glyph glyph-name="percent" unicode="%" horiz-adv-x="1523" d="M397 1452q77 0 139 -27t100.5 -70.5t59.5 -99.5t21 -114.5t-20.5 -114.5t-59 -99.5t-101 -70.5t-139.5 -27q-78 0 -141 27t-101.5 70.5t-59.5 99.5t-21 114.5t21 114.5t59.5 99.5t101.5 70.5t141 27zM1126 1438h189l-926 -1438h-190zM397 1319h-2q-50 0 -89.5 -19.5
t-59.5 -51t-29.5 -69.5t0.5 -75.5t31 -69t60.5 -50.5t90.5 -19q49 0 87 19.5t57.5 50.5t28.5 69t-0.5 76t-29.5 69t-58 50.5t-87 19.5zM1130 608h-4q78 0 141 -26.5t101.5 -70.5t60 -100t21.5 -114t-21 -114t-60 -100t-102 -70.5t-141 -26.5q-69 0 -126.5 21.5t-95 57.5
t-63.5 82.5t-32 98t-0.5 103t32 98t64 82.5t96.5 57.5t129 21.5zM1126 479q-49 0 -87.5 -20t-58.5 -51.5t-29 -70t0 -77t29 -70t58.5 -51.5t87.5 -20t88 20t59 51.5t29.5 70t0 77t-29.5 70t-59 51.5t-88 20z"/><glyph glyph-name="ampersand" unicode="&amp;" horiz-adv-x="1431" d="M991 1073v2q0 66 -25.5 111.5t-73 69.5t-102 34t-124.5 10q-171 0 -259 -73t-88 -176q0 -54 23.5 -98t60 -70.5t85 -44t93.5 -24.5t89 -7h637v-145h-125v-265q0 -237 155 -237v-162q-93 -6 -160.5 36t-95.5 140q-36 -58 -84.5 -98t-105.5 -59.5t-109.5 -27t-115.5 -7.5
q-260 0 -403.5 104.5t-143.5 321.5q0 110 73.5 197t184.5 128q-104 30 -168 118.5t-64 192.5q0 127 70 220t187.5 138.5t267.5 45.5q77 0 144 -10t132 -36t111 -67.5t74 -108t28 -153.5h-168zM1018 664h-361q-171 0 -267.5 -77.5t-96.5 -176.5q0 -128 99.5 -199.5
t269.5 -71.5q43 0 88.5 8t94 28t86.5 48.5t62.5 75t24.5 102.5v263z"/><glyph glyph-name="quotesingle" unicode="'" horiz-adv-x="456" d="M303 1438v-537h-151v537h151z"/><glyph glyph-name="parenleft" unicode="(" horiz-adv-x="694" d="M643 1386q-178 -131 -276.5 -340.5t-98.5 -441.5q-3 -244 91.5 -450.5t283.5 -346.5l-90 -126q-224 146 -342.5 392t-118.5 521q0 273 120 517.5t347 393.5z"/><glyph glyph-name="parenright" unicode=")" horiz-adv-x="694" d="M49 1393l84 118q227 -149 347 -393.5t120 -517.5q0 -275 -118.5 -521t-342.5 -392l-90 127q189 140 283.5 346t91.5 450q0 232 -98.5 442t-276.5 341z"/><glyph glyph-name="asterisk" unicode="*" horiz-adv-x="772" d="M498 934l-115 164l-113 -164l-108 78l125 151l-174 43l37 129l174 -63l-7 178h134l-9 -180l183 61l37 -125l-183 -43l125 -151z"/><glyph glyph-name="plus" unicode="+" horiz-adv-x="1024" d="M96 784h332v330h164v-330h336v-157h-336v-338h-164v338h-332v157z"/><glyph glyph-name="comma" unicode="," horiz-adv-x="487" d="M203 -6l2 4q-32 8 -52 31.5t-20 58.5q0 41 23 68.5t55.5 33t64.5 -1.5t55 -35t23 -69q0 -7 -14 -46t-38 -106t-40 -122h-110z"/><glyph glyph-name="hyphen" unicode="-" horiz-adv-x="1015" d="M139 668h735v-160h-735v160z"/><glyph glyph-name="period" unicode="." horiz-adv-x="487" d="M133 92q0 41 23 69.5t56 35t65.5 -0.5t55.5 -35.5t23 -70.5q0 -41 -23 -69.5t-55.5 -35t-65.5 0.5t-56 35.5t-23 70.5z"/><glyph glyph-name="slash" unicode="/" horiz-adv-x="1005" d="M778 1561h176l-731 -1729h-172z"/><glyph glyph-name="zero" unicode="0" horiz-adv-x="1413" d="M127 573v287q0 145 49.5 262.5t132 190t185 111t213.5 38.5q110 0 212 -39.5t184.5 -112.5t132.5 -190t50 -260v-287q0 -116 -32.5 -215.5t-88.5 -169.5t-130 -119.5t-157.5 -73.5t-170.5 -24q-111 0 -213.5 39t-185 111.5t-132 190t-49.5 261.5zM303 860v-287
q0 -104 34 -188.5t91 -137t128 -80.5t149 -28q77 0 148.5 28.5t129 81.5t92.5 137.5t35 188.5v287q0 104 -34.5 187.5t-92 135.5t-128.5 79.5t-148 27.5t-148 -28t-129 -80t-92.5 -136t-34.5 -188z"/><glyph glyph-name="one" unicode="1" horiz-adv-x="864" d="M106 150h267v1062l-252 -67v162l430 127v-1284h260v-150h-705v150z"/><glyph glyph-name="two" unicode="2" horiz-adv-x="1382" d="M317 1049h-180q3 92 39 165t91.5 118.5t130.5 75.5t150.5 42t158.5 12t160 -14t150 -46.5t126.5 -81t86 -124t32.5 -168.5q0 -95 -32.5 -170t-86.5 -124t-128 -81t-152.5 -45.5t-164.5 -13.5q-56 0 -106.5 -6t-103.5 -23t-91.5 -43.5t-63 -72t-24.5 -103.5v-176h946v-170
h-1126v346q0 93 33.5 166t87.5 119t129.5 75.5t153 41.5t163.5 12q64 0 126.5 13t123.5 41.5t99 83.5t38 128q0 75 -31.5 131.5t-86 88.5t-119 47.5t-139.5 15.5q-69 0 -134 -13.5t-124.5 -42t-95.5 -81.5t-36 -123z"/><glyph glyph-name="three" unicode="3" horiz-adv-x="1376" d="M311 1067h-180q0 87 34 156.5t88.5 113t128 72.5t148.5 41t154 12q154 0 277 -47.5t195.5 -140.5t72.5 -217q0 -111 -73 -201t-183 -115q122 -30 204.5 -122.5t82.5 -210.5q0 -104 -45.5 -187.5t-125 -136.5t-183.5 -81t-224 -28q-82 0 -158 11.5t-153 41t-133.5 75
t-91.5 118t-35 164.5h178q0 -62 27.5 -108.5t67.5 -72t96.5 -41t104 -20t101.5 -4.5q174 0 283.5 71t109.5 193q0 48 -22 92t-66 82.5t-121 61.5t-176 23h-231v149h219q163 0 268 70t105 174q0 46 -21.5 88t-64 77.5t-116 56.5t-167.5 21q-51 0 -98.5 -5.5t-99.5 -21.5
t-90 -40.5t-62.5 -66.5t-24.5 -97z"/><glyph glyph-name="four" unicode="4" horiz-adv-x="1351" d="M905 299h-827l-29 158l828 977h208v-967h189v-168h-189v-299h-180v299zM905 467v754l-647 -754h647z"/><glyph glyph-name="five" unicode="5" horiz-adv-x="1347" d="M707 899q261 0 403.5 -121.5t142.5 -331.5q0 -209 -154 -341t-405 -132q-89 0 -168 12.5t-153.5 43t-128 78t-85.5 121.5t-32 169h176q0 -60 25 -106.5t63.5 -74t91.5 -45t103 -24t104 -6.5q169 0 276 84t107 219q0 132 -94 209.5t-272 77.5h-553v703h1017v-164h-843
v-371h379z"/><glyph glyph-name="six" unicode="6" horiz-adv-x="1419" d="M330 1024v-307q64 90 174.5 132t232.5 42q87 0 167 -15t155 -50t130.5 -86t88.5 -129.5t33 -174.5q0 -93 -33 -171t-89 -131.5t-130.5 -90t-156 -53.5t-167.5 -17q-87 0 -169 17t-157.5 54.5t-131.5 91t-89.5 132.5t-33.5 174v584q0 107 48 192t129 137t181 79.5
t209 27.5q113 0 211.5 -23.5t176.5 -70t124.5 -122.5t50.5 -173h-176q-3 75 -59.5 130.5t-142 81.5t-185.5 26t-188.5 -33.5t-145.5 -100.5t-57 -153zM735 135q59 0 114.5 10t108 33.5t91.5 57.5t62.5 85.5t23.5 114.5q0 76 -33.5 134.5t-91 92.5t-126 51t-145.5 17
q-76 0 -146.5 -18t-130 -52.5t-95 -92.5t-35.5 -132q0 -78 35.5 -138t95 -94.5t128.5 -51.5t144 -17z"/><glyph glyph-name="seven" unicode="7" horiz-adv-x="1150" d="M905 1268h-842v166h1049l14 -115l-716 -1319h-203z"/><glyph glyph-name="eight" unicode="8" horiz-adv-x="1439" d="M117 408q0 117 77.5 208t200.5 125q-248 94 -248 314q0 85 33.5 154.5t89 115.5t130.5 77.5t155 45.5t166 14q84 0 164 -14t155.5 -45.5t132 -77.5t91 -115.5t34.5 -154.5q0 -108 -70 -190.5t-186 -121.5q120 -33 200.5 -128.5t80.5 -211.5q0 -100 -35.5 -177t-92.5 -124
t-137.5 -77.5t-162 -42t-174.5 -11.5q-91 0 -172.5 11.5t-162.5 42.5t-139 78.5t-94 125.5t-36 179zM1116 1059q0 64 -36.5 114.5t-96 80t-128 44.5t-138.5 15q-72 0 -140.5 -16t-125 -46t-91 -80t-34.5 -112q0 -52 25.5 -94.5t66 -70t93.5 -46.5t105.5 -27t104.5 -8
q66 0 132 13.5t127 41.5t98.5 77.5t37.5 113.5zM721 672q-69 3 -141.5 -11t-138 -43.5t-107 -83.5t-41.5 -124q0 -71 39 -126.5t102.5 -86.5t135.5 -46.5t147 -15.5q60 0 118 9t115 29.5t100.5 51t70 78t26.5 105.5q0 69 -42 122.5t-108 83t-136.5 44t-139.5 14.5z"/><glyph glyph-name="nine" unicode="9" horiz-adv-x="1413" d="M1092 414v313q-67 -95 -176 -137.5t-234 -42.5q-86 0 -166 15t-155 49.5t-130 86t-88.5 129.5t-33.5 174q0 93 33.5 171t89.5 130.5t130.5 89.5t155.5 53.5t166 16.5q87 0 169.5 -17t158 -54t132.5 -90.5t90.5 -132t33.5 -173.5v-583q0 -107 -48 -191t-129.5 -135
t-181 -77.5t-209.5 -26.5q-113 0 -212 23.5t-178.5 69.5t-126.5 122t-50 174h178q3 -75 59 -129.5t141 -79.5t187 -25q74 0 143.5 18.5t126 52t90.5 87.5t34 119zM684 1300q-73 0 -140.5 -17t-126 -51t-93.5 -93.5t-35 -137.5q0 -61 23 -111.5t60.5 -83.5t89 -56t106.5 -33
t114 -10q76 0 146 18t128.5 52.5t93.5 92.5t35 131q0 78 -35.5 137.5t-94.5 93.5t-127.5 51t-143.5 17z"/><glyph glyph-name="colon" unicode=":" horiz-adv-x="501" d="M139 698q0 51 35 80.5t76.5 29.5t76.5 -29.5t35 -80.5t-35 -80.5t-76.5 -29.5t-76.5 29.5t-35 80.5zM139 94q0 51 35 80.5t76.5 29.5t76.5 -29.5t35 -80.5t-35 -80.5t-76.5 -29.5t-76.5 29.5t-35 80.5z"/><glyph glyph-name="semicolon" unicode=";" horiz-adv-x="505" d="M367 698q0 -41 -23 -69.5t-55.5 -34.5t-65 0t-55.5 34t-23 68q0 41 23 69.5t55.5 34.5t65 0t55.5 -34t23 -68zM213 -4q-32 8 -52 31.5t-20 60.5q0 41 23 68t56 33t66 -1.5t56 -35.5t23 -68q0 -8 -14 -46.5t-38 -106t-41 -121.5h-110z"/><glyph glyph-name="less" unicode="&lt;" horiz-adv-x="765" d="M541 1098l106 -117l-360 -334l366 -332l-112 -116l-449 419v58z"/><glyph glyph-name="equal" unicode="=" horiz-adv-x="1148" d="M150 938h845v-158h-845v158zM150 506h845v-158h-845v158z"/><glyph glyph-name="greater" unicode="&gt;" horiz-adv-x="770" d="M680 676v-58l-453 -419l-110 110l368 338l-364 338l106 113z"/><glyph glyph-name="question" unicode="?" horiz-adv-x="1243" d="M244 1024h-172q0 89 31 162t82.5 121t122.5 81t147.5 47.5t160.5 14.5q86 0 162.5 -13t148.5 -44.5t124 -79t83 -121t31 -166.5q0 -47 -7 -87.5t-21.5 -72.5t-30.5 -58t-40.5 -47t-45 -36.5t-50 -30t-49 -23.5t-49.5 -21t-45 -19q-74 -27 -109 -58t-49 -81.5t-14 -145.5
h-176q0 82 11.5 143.5t31.5 105t55.5 76.5t76 55t100.5 44q52 19 86 36t71.5 47t56.5 75t19 104q0 62 -24 110t-61 76t-89 46t-101 24t-104 6q-64 0 -125 -15t-116 -45.5t-89 -85t-34 -124.5zM457 111q0 55 36.5 86.5t81 31.5t81 -31.5t36.5 -86.5t-36.5 -86.5t-81 -31.5
t-81 31.5t-36.5 86.5z"/><glyph glyph-name="at" unicode="@" horiz-adv-x="1851" d="M934 1241q-188 0 -341.5 -82.5t-244 -237t-90.5 -352.5q0 -124 34 -229t95.5 -181.5t145.5 -130t184 -80t211 -26.5q163 0 305 80l72 -121q-167 -100 -379 -100q-174 0 -324 53t-261 151.5t-174 248.5t-63 335q0 178 63.5 330t174 257t263.5 164.5t329 59.5
q182 0 334 -53t261.5 -153t170.5 -252t61 -342q0 -142 -43 -260t-121 -183q-61 -47 -133.5 -53t-123.5 38t-46 128q-51 -93 -158.5 -145t-215.5 -52q-217 0 -365.5 145.5t-148.5 364.5q0 154 69 271.5t185 178t260 60.5q110 0 211.5 -53.5t144.5 -142.5l8 145l137 -12v-736
q0 -32 19.5 -47.5t44.5 -9t41 30.5q44 45 67 137.5t23 196.5q0 332 -177.5 495.5t-504.5 163.5zM924 924q-162 0 -260.5 -97t-98.5 -262q0 -169 97 -264.5t258 -95.5q116 0 199 52t121 132.5t38 177.5q0 71 -22.5 134.5t-65 113.5t-111.5 79.5t-155 29.5z"/><glyph glyph-name="A" unicode="A" horiz-adv-x="1556" d="M680 1434h197l645 -1434h-193l-139 315h-819l-142 -315h-194zM1118 481l-340 774l-338 -774h678z"/><glyph glyph-name="B" unicode="B" horiz-adv-x="1447" d="M190 1434h627q99 0 185.5 -25t153.5 -72.5t105.5 -125.5t38.5 -177q0 -101 -55 -178.5t-160 -118.5q124 -35 192.5 -133.5t68.5 -206.5q0 -89 -29.5 -159t-78 -114t-118 -72.5t-143.5 -40t-160 -11.5h-627v1434zM371 1272v-455h454q136 0 216.5 52.5t80.5 162.5
q0 116 -84 178t-221 62h-446zM371 655v-487h446q63 0 118 9.5t110 33.5t87.5 73t32.5 119q0 64 -31 114t-81.5 79t-109 44t-118.5 15h-454z"/><glyph glyph-name="C" unicode="C" horiz-adv-x="1454" d="M1384 182q-221 -211 -534 -211q-148 0 -272 40t-211 110t-148 164t-90 201t-29 223q-1 116 28 225t90.5 205t149 168t212 113.5t270.5 41.5q145 0 281.5 -55t244.5 -162l-123 -112q-83 78 -187.5 117.5t-215.5 39.5q-112 0 -206.5 -31.5t-160.5 -86.5t-112 -129t-68 -158
t-22 -174q2 -89 24 -171.5t68 -155.5t111 -127.5t159 -86t207 -31.5q110 0 219.5 43.5t190.5 122.5z"/><glyph glyph-name="D" unicode="D" horiz-adv-x="1536" d="M190 1434v2h523q142 0 261.5 -39.5t203 -106.5t142.5 -157.5t86.5 -191.5t27.5 -208q0 -112 -26 -216.5t-83 -199t-140 -164.5t-204 -111.5t-268 -41.5h-523v1434zM371 176h342q111 0 203 32t154.5 86t105 126t62 151.5t19.5 163.5q0 102 -34 195.5t-99 169.5t-171.5 121
t-239.5 45h-342v-1090z"/><glyph glyph-name="E" unicode="E" horiz-adv-x="1335" d="M190 0v1434h1008v-164h-829v-449h794v-166h-794v-485h862v-170h-1041z"/><glyph glyph-name="F" unicode="F" horiz-adv-x="1282" d="M190 1434h998v-168h-817v-502h780v-164h-780v-602h-181v1436z"/><glyph glyph-name="G" unicode="G" horiz-adv-x="1525" d="M1378 1245l-104 -119q-85 80 -199 125t-225 45q-107 0 -199.5 -31.5t-159.5 -87.5t-115 -131t-71.5 -162.5t-23.5 -181.5q0 -112 35.5 -211.5t104 -179.5t180.5 -127t253 -47q222 0 391 148v340h-446v155h608v-567q-225 -242 -555 -242q-150 0 -274 39t-211 107t-147 161
t-88 200t-28 224q0 161 51 300t145.5 241t236 160.5t313.5 58.5q145 0 281 -55t247 -162z"/><glyph glyph-name="H" unicode="H" horiz-adv-x="1556" d="M1190 0v647h-819v-647h-181v1434h181v-621h819v621h176v-1434h-176z"/><glyph glyph-name="I" unicode="I" horiz-adv-x="561" d="M190 0v1434h181v-1434h-181z"/><glyph glyph-name="J" unicode="J" horiz-adv-x="1409" d="M1235 573q4 -270 -160 -436t-432 -166q-173 0 -307 71t-210.5 207t-76.5 316h174q0 -196 114.5 -312t305.5 -116t304.5 119.5t113.5 316.5v697h-502v164h676v-861z"/><glyph glyph-name="K" unicode="K" horiz-adv-x="1286" d="M190 0v1434h179v-633l630 633h228v-11l-690 -680l749 -731v-12h-219l-698 674v-674h-179z"/><glyph glyph-name="L" unicode="L" horiz-adv-x="1187" d="M371 1434v-1268h780v-166h-961v1434h181z"/><glyph glyph-name="M" unicode="M" horiz-adv-x="1812" d="M1444 1178l-520 -727h-37l-518 731v-1182h-179v1434h216l501 -738l500 738h213v-1434h-176v1178z"/><glyph glyph-name="N" unicode="N" horiz-adv-x="1560" d="M190 1434h125l879 -1100v1100h176v-1434h-123l-878 1096v-1096h-179v1434z"/><glyph glyph-name="O" unicode="O" horiz-adv-x="1656" d="M831 1462q141 0 261 -41.5t204.5 -113t143.5 -167t87.5 -204t28.5 -223.5t-28 -222t-87.5 -202t-144 -165.5t-205 -111.5t-262.5 -41q-144 0 -265 41t-206 111t-144.5 165t-87.5 202.5t-28 222.5q0 156 51.5 293t144.5 238t232 159.5t305 58.5zM1380 713q0 88 -20.5 171
t-65 157.5t-108 130.5t-155 90t-200.5 36q-133 0 -240 -47.5t-174 -129t-102.5 -186t-35.5 -222.5q0 -88 21 -171t65.5 -156.5t108 -129t155.5 -87.5t202 -32t201.5 33t155 88.5t107.5 129.5t64.5 156t20.5 169z"/><glyph glyph-name="P" unicode="P" horiz-adv-x="1400" d="M369 463v-463h-179v1434h652q120 0 216.5 -41.5t156 -110t91.5 -155.5t32 -178.5t-32.5 -178.5t-92 -155.5t-156 -110t-215.5 -41.5h-473zM369 629h473q77 0 139 27.5t100.5 72.5t59 102.5t20 117t-21 117t-59 102.5t-100.5 72.5t-138 27.5h-473v-639z"/><glyph glyph-name="Q" unicode="Q" horiz-adv-x="1665" d="M1284 109v2q-180 -140 -450 -140q-146 0 -268 40.5t-207 110.5t-144 165.5t-87 205.5t-28 230q0 116 29 223.5t89.5 201.5t146 163.5t206.5 110t263 40.5q144 0 264.5 -40t205 -109.5t144 -164t87.5 -202t28 -223.5q0 -133 -39 -261.5t-115 -228.5l178 -174l-125 -122z
M834 1292q-129 -2 -235 -49.5t-175 -126.5t-106 -182t-37 -217q0 -91 21.5 -176t66.5 -159t109 -129t154.5 -86.5t198.5 -31.5q134 0 241.5 49.5t174.5 133t102 188t33 219.5q-2 89 -22.5 170.5t-64 154.5t-106 126.5t-154 84.5t-201.5 31z"/><glyph glyph-name="R" unicode="R" horiz-adv-x="1460" d="M1163 0l-446 518h-346v-518h-181v1434h652q117 0 211 -38.5t153 -103.5t90 -146.5t31 -170.5q0 -66 -14 -126.5t-45.5 -116t-78 -97.5t-117 -70t-157.5 -35l474 -530h-226zM371 676h463q154 0 235.5 83t81.5 212q0 43 -12 85.5t-37 82t-60.5 69.5t-87 48t-112.5 18h-471
v-598z"/><glyph glyph-name="S" unicode="S" horiz-adv-x="1359" d="M1092 1114q-59 90 -169 138.5t-237 50.5q-95 0 -178.5 -25.5t-141 -81.5t-57.5 -133q0 -46 21 -82.5t54.5 -60.5t86.5 -43.5t104.5 -31t122.5 -22.5q70 -11 122 -21t115 -27t108 -38t90 -52.5t72.5 -70.5t45 -92.5t17.5 -118.5q0 -94 -35 -169t-92 -123.5t-134.5 -80.5
t-157.5 -45.5t-165 -13.5q-94 0 -180.5 18t-168 55t-147.5 103t-106 154l141 88q70 -128 190 -191t273 -63q56 0 109.5 7.5t109 27t96.5 49t67 78t26 109.5q0 51 -23.5 91.5t-59.5 66.5t-93.5 47t-111 32.5t-126.5 22.5q-69 11 -118 20.5t-110.5 26t-103.5 35.5t-85.5 49
t-70 66t-43 86.5t-16.5 111.5q-2 83 31.5 152t89 114.5t128.5 76.5t148.5 44.5t151.5 13.5q384 0 545 -264z"/><glyph glyph-name="T" unicode="T" horiz-adv-x="1226" d="M526 1274h-491v160h1155v-160h-490v-1274h-174v1274z"/><glyph glyph-name="U" unicode="U" horiz-adv-x="1517" d="M1167 1434h179v-865q0 -144 -47 -260t-128.5 -188.5t-186 -111t-222.5 -38.5q-117 0 -221 38t-187 110t-131.5 188.5t-48.5 261.5v865h178v-865q0 -138 57 -238t148.5 -148t204.5 -48q172 0 288.5 116.5t116.5 319.5v863z"/><glyph glyph-name="V" unicode="V" horiz-adv-x="1462" d="M41 1434h199l489 -1225l496 1225h196l-594 -1438h-192z"/><glyph glyph-name="W" unicode="W" horiz-adv-x="2211" d="M55 1434h199l397 -1186l400 1186h112l402 -1186l393 1186h203l-504 -1436h-178l-371 1075l-373 -1075h-178z"/><glyph glyph-name="X" unicode="X" horiz-adv-x="1304" d="M1051 1432h202v-7l-487 -694l514 -727v-4h-205l-424 604l-424 -604h-204v4l514 727l-486 694v7h205l395 -580z"/><glyph glyph-name="Y" unicode="Y" horiz-adv-x="1392" d="M604 582l-557 845v7h215l432 -680l443 680h215v-7l-566 -845v-582h-182v582z"/><glyph glyph-name="Z" unicode="Z" horiz-adv-x="1243" d="M104 1434h1059v-78l-850 -1184h850v-172h-1104v96l836 1172h-791v166z"/><glyph glyph-name="bracketleft" unicode="[" horiz-adv-x="675" d="M174 1460h430v-153h-256v-1504h256v-157h-430v1814z"/><glyph glyph-name="backslash" unicode="\" horiz-adv-x="1005" d="M778 -168l-727 1729h176l727 -1729h-176z"/><glyph glyph-name="bracketright" unicode="]" horiz-adv-x="679" d="M502 -352h-426v157h254v1502h-254v155h426v-1814z"/><glyph glyph-name="asciicircum" unicode="^" horiz-adv-x="1247" d="M100 735l-2 10l461 691h125l465 -691l-2 -10h-186l-340 527l-342 -527h-179z"/><glyph glyph-name="underscore" unicode="_" horiz-adv-x="1241" d="M137 -33h967v-147h-967v147z"/><glyph glyph-name="grave" unicode="`" horiz-adv-x="483" d="M231 1163l-204 264v7h204l154 -258v-13h-154z"/><glyph glyph-name="a" unicode="a" horiz-adv-x="1306" d="M1151 0h-166l-4 178q-57 -98 -160 -150.5t-213 -52.5q-146 0 -263 63t-186 185t-69 283q0 166 71 287.5t187 181t262 59.5q124 0 221 -51.5t154 -155.5l2 185h164v-1012zM616 874q-156 0 -260 -100.5t-104 -273.5q0 -164 105 -267.5t259 -103.5q101 0 180 41t120 107
t60.5 145.5t0 159t-60 145.5t-120 106.5t-180.5 40.5z"/><glyph glyph-name="b" unicode="b" horiz-adv-x="1306" d="M340 1434v-603q52 97 164 150t227 53q221 0 352 -138.5t131 -389.5q0 -244 -145.5 -386.5t-368.5 -142.5q-242 0 -360 197l-8 -174h-158v1434h166zM688 872q-150 0 -244 -101t-94 -263q0 -166 93.5 -268.5t244.5 -102.5q153 0 254.5 99.5t101.5 269.5q0 179 -99.5 272.5
t-256.5 93.5z"/><glyph glyph-name="c" unicode="c" horiz-adv-x="1058" d="M995 129l-2 2q-152 -156 -375 -156q-109 0 -204.5 36t-167.5 102.5t-114 168t-42 224.5q0 163 71 284.5t189.5 182.5t267.5 61q209 0 367 -151l-108 -111q-99 102 -254 102t-260 -100.5t-105 -267.5q0 -172 104.5 -271.5t258.5 -99.5q160 0 264 107z"/><glyph glyph-name="d" unicode="d" horiz-adv-x="1304" d="M1149 1434l2 2v-1436h-160l-8 186q-60 -102 -161.5 -156.5t-217.5 -54.5q-225 0 -368.5 140t-143.5 391q0 125 39.5 225.5t108.5 166.5t162 101t202 35q113 0 219.5 -54.5t157.5 -152.5v607h168zM614 877q-153 0 -254.5 -98.5t-101.5 -270.5q0 -179 101.5 -276t256.5 -97
q154 0 256.5 105.5t102.5 269.5q0 161 -103.5 264t-257.5 103z"/><glyph glyph-name="e" unicode="e" horiz-adv-x="1200" d="M1063 156h-2q-76 -89 -194.5 -135t-243.5 -46q-238 0 -385.5 145t-147.5 390q0 229 147.5 376.5t376.5 147.5q118 0 215 -35.5t168 -105.5t104 -184t19 -260h-862q13 -145 117 -231.5t252 -86.5q91 0 182.5 33.5t138.5 91.5zM258 588h700q-4 143 -95.5 219t-244.5 76
q-138 0 -237 -76t-123 -219z"/><glyph glyph-name="f" unicode="f" horiz-adv-x="782" d="M434 0h-170v852h-196v145h196v82q0 172 91.5 269.5t250.5 97.5q126 0 230 -74l-70 -125q-88 53 -156 53q-176 0 -176 -221v-82h316v-145h-316v-852z"/><glyph glyph-name="g" unicode="g" horiz-adv-x="1253" d="M104 -150h160q0 -57 20 -104.5t54 -79.5t80.5 -54t98 -32t108.5 -10q69 0 129.5 13t113 40t83 75t30.5 112q0 78 -50.5 130.5t-127.5 73.5t-176 21q-242 0 -388.5 133t-146.5 367q0 97 31 180t83 140.5t121 98.5t145 60.5t155 19.5q75 0 153.5 -20t132.5 -58l109 136
l121 -99l-117 -133q67 -73 99 -147t32 -178q0 -137 -72 -251t-213 -161q279 -80 279 -311q0 -80 -29.5 -146t-79.5 -112t-117.5 -77.5t-143.5 -46t-158 -14.5q-153 0 -271.5 51t-185 150.5t-62.5 232.5zM256 535q3 -113 54 -194.5t133.5 -121t185.5 -39.5q159 0 261.5 101
t102.5 251q0 110 -52.5 191t-134 119.5t-179.5 38.5q-69 0 -134 -21.5t-118.5 -62.5t-86 -109t-32.5 -153z"/><glyph glyph-name="h" unicode="h" horiz-adv-x="1232" d="M336 1434v-2v-588q126 187 334 190q207 0 310 -125.5t103 -343.5v-565h-168v565q0 150 -68 229.5t-204 79.5q-137 0 -220 -97t-83 -240v-537h-168v1434h164z"/><glyph glyph-name="i" unicode="i" horiz-adv-x="477" d="M129 1321q0 51 32.5 80t78.5 29q44 0 78 -29.5t34 -81.5t-34 -79.5t-78 -27.5q-46 0 -78.5 28.5t-32.5 80.5zM154 0v1010h168v-1010h-168z"/><glyph glyph-name="j" unicode="j" horiz-adv-x="477" d="M129 1327q0 51 32.5 80t78.5 29q44 0 78 -29.5t34 -81.5q0 -50 -34 -78t-78 -28q-46 0 -78.5 28.5t-32.5 79.5zM154 1010h2h166v-1143q0 -182 -69 -276.5t-230 -94.5q-113 0 -199 55l53 138q86 -35 137 -35q44 0 72.5 15.5t43 46.5t19.5 66t5 85v1143z"/><glyph glyph-name="k" unicode="k" horiz-adv-x="1015" d="M319 1434v-848l416 426h209v-13l-465 -464l520 -523v-12h-202l-478 479v-479h-165v1434h165z"/><glyph glyph-name="l" unicode="l" horiz-adv-x="499" d="M332 1434v-1434h-166v1434h166z"/><glyph glyph-name="m" unicode="m" horiz-adv-x="1886" d="M154 1010h157l11 -148q45 86 126 129t173 43q114 0 205.5 -53.5t131.5 -167.5q54 112 149.5 166.5t209.5 54.5q201 0 314.5 -120t113.5 -330v-584h-170v584q0 128 -70.5 210.5t-191.5 82.5t-199 -86t-78 -211v-580h-168v580q0 126 -74 211.5t-196 85.5
q-123 0 -199.5 -88.5t-76.5 -215.5v-573h-168v1010z"/><glyph glyph-name="n" unicode="n" horiz-adv-x="1245" d="M174 0v1010h154l8 -158q125 182 342 182q194 0 312 -124.5t118 -348.5v-561h-170v559q0 154 -74 236t-219 82q-135 0 -220 -97.5t-85 -236.5v-543h-166z"/><glyph glyph-name="o" unicode="o" horiz-adv-x="1228" d="M88 504q0 233 148.5 381.5t375.5 148.5q231 0 380 -148t149 -382q0 -233 -150 -381t-379 -148q-228 0 -376 147.5t-148 381.5zM973 504q0 165 -102.5 270t-256.5 105q-155 0 -257.5 -104.5t-102.5 -270.5q0 -163 101.5 -267t256.5 -104q157 0 259 103.5t102 267.5z"/><glyph glyph-name="p" unicode="p" horiz-adv-x="1306" d="M174 -479v1489h160l10 -197q60 103 162 162t223 59q220 -6 355 -149t135 -381q0 -241 -136 -385t-362 -144q-113 0 -218 52.5t-165 152.5v-659h-164zM711 133q154 0 247 98.5t93 268.5q0 176 -91.5 272t-248.5 96q-156 0 -254.5 -105t-98.5 -263q0 -157 100 -262
t253 -105z"/><glyph glyph-name="q" unicode="q" horiz-adv-x="1304" d="M983 -479h4v659q-56 -102 -162 -153.5t-221 -51.5q-231 0 -372.5 144.5t-141.5 388.5q0 236 141 379.5t363 146.5q123 0 226.5 -57t162.5 -160l6 193h162v-1489h-168zM618 135l3 2q153 0 252.5 104t99.5 265q0 162 -98.5 264t-256.5 102q-159 0 -258.5 -98t-99.5 -268
q0 -171 101 -271t257 -100z"/><glyph glyph-name="r" unicode="r" horiz-adv-x="876" d="M309 1010l15 -148q97 172 311 172q119 3 235 -80l-75 -143q-80 57 -177 57q-125 0 -210.5 -84t-85.5 -219v-565h-168v1010h155z"/><glyph glyph-name="s" unicode="s" horiz-adv-x="1021" d="M901 899l-98 -113q-62 56 -130 77.5t-153 21.5q-111 0 -181.5 -38t-70.5 -110q0 -31 15 -55t37.5 -39t58.5 -26.5t68 -17t75 -11.5q38 -5 63 -8.5t64 -11t65.5 -15.5t60.5 -21t57 -28.5t47 -38t37.5 -49t22 -61.5t7.5 -76q-3 -99 -61.5 -169t-151 -102.5t-209.5 -32.5
q-311 0 -456 189l100 112q61 -78 157 -112.5t201 -34.5q46 0 87.5 7.5t80 24t62.5 48.5t26 76q0 76 -70.5 112.5t-201.5 51.5q-65 7 -117.5 17.5t-108 32t-93 51.5t-61.5 78t-24 109q0 78 36 137.5t96 93t131 50t149 16.5q230 0 383 -135z"/><glyph glyph-name="t" unicode="t" horiz-adv-x="813" d="M440 1307v-291h312v-144h-314v-553q0 -95 36 -144.5t124 -49.5q59 0 139 39l49 -139q-100 -47 -196 -50q-161 -4 -240.5 85t-79.5 259v553h-202v144h202v272z"/><glyph glyph-name="u" unicode="u" horiz-adv-x="1220" d="M1061 0h-156l-8 162q-126 -184 -344 -187q-195 0 -306.5 124.5t-111.5 346.5v566h168v-566q0 -151 71 -233t214 -82q136 0 219.5 97.5t83.5 240.5v543h170v-1012z"/><glyph glyph-name="v" unicode="v" horiz-adv-x="1150" d="M55 1012h185l166 -396l169 -440l170 438l164 398h187l-428 -1014h-183z"/><glyph glyph-name="w" unicode="w" horiz-adv-x="1720" d="M63 1012h187l274 -836l267 836h137l268 -836l272 836h185l-353 -1014h-192l-139 377l-109 368l-110 -368l-138 -377h-190z"/><glyph glyph-name="x" unicode="x" horiz-adv-x="1013" d="M33 4l366 516l-342 486v6h187l262 -383l258 383h190v-6l-342 -486l371 -516v-4h-192l-285 410l-289 -410h-184v4z"/><glyph glyph-name="y" unicode="y" horiz-adv-x="1130" d="M1077 1012l-637 -1491h-184l213 493l-410 998h193l199 -525l112 -290l107 288l223 527h184z"/><glyph glyph-name="z" unicode="z" horiz-adv-x="964" d="M96 1012h787v-76l-570 -774h570v-162h-820v66l576 792h-543v154z"/><glyph glyph-name="braceleft" unicode="{" horiz-adv-x="675" d="M602 -279l-2 -2q-204 -31 -288.5 43t-84.5 263v294q0 32 -3 59t-12.5 56t-26 48.5t-45 32.5t-66.5 13v129q38 0 66.5 13t45 32.5t26 48.5t12.5 56t3 59v285q0 187 88 263.5t285 39.5v-125q-117 23 -160 -18t-43 -166v-279q0 -35 -0.5 -50.5t-3 -47t-7.5 -47.5t-15.5 -40
t-25.5 -38t-38.5 -27.5t-54.5 -21.5q31 -8 55 -21.5t39.5 -27.5t26 -38.5t16 -40t8 -47.5t2.5 -46.5v-50.5v-289q0 -126 40.5 -163t162.5 -20v-129z"/><glyph glyph-name="bar" unicode="|" horiz-adv-x="520" d="M340 1487v-1698h-166v1698h166z"/><glyph glyph-name="braceright" unicode="}" horiz-adv-x="673" d="M80 -283l-2 2v129q122 -17 161.5 19.5t39.5 161.5v286q0 112 15 158q29 88 132 113q-31 8 -54.5 21.5t-38.5 27t-25.5 37.5t-15.5 39.5t-7.5 47t-3 47t-0.5 50.5v277q0 124 -42.5 164.5t-158.5 17.5v125q196 37 283.5 -39t87.5 -262v-283q0 -41 5.5 -73.5t20.5 -65
t46.5 -50.5t78.5 -18v-129q-151 0 -151 -207v-293q0 -187 -84.5 -260.5t-286.5 -42.5z"/><glyph glyph-name="asciitilde" unicode="~" horiz-adv-x="1304" d="M1036 739l127 -49q-32 -95 -88.5 -152t-135.5 -70.5t-175 30.5l-264 129q-38 14 -68 17t-62 -6t-59.5 -41.5t-50.5 -88.5l-115 51q45 137 160 197.5t242 1.5l260 -127q154 -77 229 108z"/><glyph glyph-name="exclamdown" unicode="¡" horiz-adv-x="503" d="M369 885q0 -45 -24.5 -75.5t-60 -37.5t-71 0.5t-60 38.5t-24.5 76q0 32 13 57t34.5 38t47 19t51 -0.5t47 -19.5t34.5 -38t13 -58zM340 664v-1106h-178v1106h178z"/><glyph glyph-name="cent" unicode="¢" horiz-adv-x="1124" d="M559 -33h-2q-201 32 -323.5 168.5t-122.5 349.5q0 203 123 342t325 170v138h156v-138q167 -21 299 -147l-105 -107q-53 51 -125 80t-141 29q-154 0 -259 -100.5t-105 -266.5q0 -172 104 -271t260 -99q68 0 140 31.5t124 84.5l107 -120q-128 -125 -299 -146v-143h-156v145
z"/><glyph glyph-name="sterling" unicode="£" horiz-adv-x="1337" d="M119 166l4 -2q126 93 164.5 195.5t21.5 228.5h-188v151h155q-47 147 -47 271q0 143 66.5 243.5t178.5 148.5t259 48q101 0 183.5 -21.5t148.5 -66.5t103.5 -123t39.5 -184h-157q-2 67 -29 115.5t-73 75t-99 38.5t-117 12q-156 0 -244 -75.5t-88 -206.5q0 -114 41 -271
h490v-151h-457q40 -283 -153 -434h899v-158h-1102v166z"/><glyph glyph-name="currency" unicode="¤" horiz-adv-x="1239" d="M618 375q129 0 204 84t75 198q0 116 -75.5 201.5t-203.5 85.5t-205 -86t-77 -201q0 -114 77 -198t205 -84zM389 297l-121 -121l-123 123l119 121q-69 109 -68 238t72 235l-123 121l123 127l121 -125q99 61 232 61q132 0 227 -61l123 125l125 -127l-121 -119
q71 -103 70.5 -238.5t-72.5 -236.5l123 -121l-125 -123l-123 121q-92 -57 -230 -57q-132 0 -229 57z"/><glyph glyph-name="yen" unicode="¥" horiz-adv-x="1427" d="M299 430h322v117h-322v137h252l-492 743v7h205l445 -699l454 699h203v-7l-498 -743h252v-137h-325v-117h325v-137h-325v-293h-174v293h-322v137z"/><glyph glyph-name="brokenbar" unicode="¦" horiz-adv-x="532" d="M176 700v750h180v-750h-180zM356 565v-745h-180v745h180z"/><glyph glyph-name="section" unicode="§" horiz-adv-x="1181" d="M913 1221h-4q-68 54 -138.5 73t-166.5 19q-122 0 -204.5 -38t-82.5 -110q0 -126 283 -149q58 -5 105.5 -12t105.5 -20t101 -35t79.5 -52.5t54.5 -76.5t15 -103q-4 -82 -58 -137t-139 -78q94 -25 146.5 -86.5t48.5 -147.5q-3 -69 -35.5 -123.5t-81 -88t-112 -55t-123 -30
t-119.5 -8.5q-148 0 -274.5 49.5t-198.5 149.5l112 112q65 -82 160.5 -119.5t204.5 -35.5q114 0 199.5 37.5t91.5 117.5q2 38 -20 65t-67.5 43t-92.5 24t-115 14q-89 7 -164.5 24.5t-143 50t-106.5 88.5t-39 130q0 68 51 133t138 92q-88 23 -136.5 83.5t-46.5 141.5
q3 64 33 116t76 85.5t107 56t123.5 32t127.5 9.5q122 0 232 -35t182 -112zM885 717v-2q0 41 -32 75t-83.5 53t-113.5 29t-124 3t-113.5 -24.5t-83.5 -53.5t-32 -84q0 -40 32 -72t83.5 -49t113.5 -26t124 -1.5t113.5 24t83.5 50.5t32 78z"/><glyph glyph-name="dieresis" unicode="¨" horiz-adv-x="983" d="M117 1366q0 42 22.5 70t54 34.5t63.5 0t54.5 -34.5t22.5 -68t-22.5 -67.5t-54.5 -34t-63.5 -0.5t-54 33t-22.5 67zM588 1366q0 51 34 80.5t75.5 29.5t75.5 -29.5t34 -80.5q0 -50 -34 -78.5t-75.5 -28.5t-75.5 28.5t-34 78.5z"/><glyph glyph-name="copyright" unicode="©" horiz-adv-x="1703" d="M856 1466v-2q173 0 315 -59.5t233.5 -161.5t141 -236t49.5 -286q0 -155 -49.5 -290.5t-141 -238t-233.5 -162t-315 -59.5q-174 0 -316.5 59.5t-236 162t-144 238.5t-50.5 290q0 122 31.5 233.5t95 204.5t152 161.5t209 107t259.5 38.5zM262 717q0 -128 41 -239
t115.5 -194t187.5 -130.5t250 -47.5q181 0 315.5 82.5t201.5 219.5t67 309q0 129 -39.5 240.5t-112.5 193.5t-184 129t-248 47t-249.5 -47t-187.5 -129t-116 -193.5t-41 -240.5zM1165 1001l9 -8l-101 -92q-81 78 -188 78q-112 0 -189.5 -73t-77.5 -185q0 -115 76 -186.5
t189 -71.5q105 0 190 82l98 -96q-123 -123 -292 -123q-172 0 -290 111t-118 286q0 176 117 288.5t289 112.5q168 0 288 -123z"/><glyph glyph-name="ordfeminine" unicode="ª" horiz-adv-x="1032" d="M725 772l-2 -2l-2 115q-36 -61 -103 -94t-135 -35q-150 0 -247 93t-97 257q0 159 98.5 250.5t249.5 91.5q72 0 136.5 -32t101.5 -91v111h133v-664h-133zM494 1315l4 -2q-89 0 -149 -58.5t-60 -150.5q0 -99 59 -157t148 -58q45 0 82 14.5t61 39t40.5 56.5t20 67.5t-0.5 71
t-20.5 67.5t-41 56.5t-61.5 39t-82 14.5zM170 645h702v-133h-702v133z"/><glyph glyph-name="guillemotleft" unicode="«" horiz-adv-x="915" d="M373 1061h180l-281 -453l281 -452h-180l-283 452zM360 608l283 453h178l-280 -453l280 -452h-178z"/><glyph glyph-name="logicalnot" unicode="¬" horiz-adv-x="1064" d="M903 334h-153v272h-600v154h753v-426z"/><glyph glyph-name="uni00AD" unicode="­" horiz-adv-x="991" d="M96 668h735v-160h-735v160z"/><glyph glyph-name="registered" unicode="®" horiz-adv-x="1695" d="M848 1462q174 0 315.5 -59t233 -161t141 -237t49.5 -290q0 -153 -49.5 -288t-141 -238t-233.5 -162.5t-315 -59.5q-139 0 -258 38.5t-206.5 108t-150 163t-93.5 205t-31 233.5q0 155 49.5 290t141.5 237t233.5 161t314.5 59zM262 715v6q0 -129 40 -240.5t113.5 -194.5
t185 -130t247.5 -47q137 0 248.5 47.5t185 130t113 193t39.5 237.5q0 129 -39.5 240.5t-113 193.5t-185 129t-248.5 47q-181 0 -315.5 -81t-202.5 -218.5t-68 -312.5zM989 625v2l219 -256v-31h-153l-217 268h-131v-268h-142v772h350q80 0 141.5 -33t92.5 -82.5t38 -109
t-11.5 -113t-67.5 -95t-119 -54.5zM915 977h-208v-248h206q37 0 65.5 13.5t43.5 35.5t22.5 48.5t0.5 53t-21.5 48.5t-43 35.5t-65.5 13.5z"/><glyph glyph-name="macron" unicode="¯" horiz-adv-x="862" d="M72 1438h684v-144h-684v144z"/><glyph glyph-name="degree" unicode="°" horiz-adv-x="679" d="M338 1372q-57 0 -90 -37t-33.5 -81.5t32 -81.5t91.5 -37q46 0 77.5 24.5t39 59.5t0 69.5t-39 59t-77.5 24.5zM340 1477q49 0 90 -15t68 -41t45.5 -59.5t23 -70t1 -73.5t-21.5 -70.5t-44.5 -59.5t-67.5 -41t-90 -15q-52 0 -95 15t-70.5 41t-46 59.5t-22.5 70t1 73.5
t24 70.5t46 59.5t68.5 41t90.5 15z"/><glyph glyph-name="plusminus" unicode="±" horiz-adv-x="1085" d="M145 838h316v323h164v-323h315v-154h-315v-322h-164v322h-316v154zM154 223h780v-153h-780v153z"/><glyph glyph-name="twosuperior" unicode="²" horiz-adv-x="745" d="M90 1376l2 -4q0 49 16 88t43 64t64.5 42t77 24t82.5 7q60 0 110 -11.5t92 -37t65.5 -71.5t23.5 -109q0 -41 -10.5 -74.5t-25.5 -56t-40.5 -39.5t-46.5 -26t-54 -16t-53 -9.5t-51 -5.5q-164 -14 -164 -119v-43h434v-133h-569v178q0 107 75.5 162t190.5 63q84 9 130 35
t46 86q0 111 -153 111q-152 0 -154 -105h-131z"/><glyph glyph-name="threesuperior" unicode="³" horiz-adv-x="745" d="M211 1065h-4q7 -107 160 -107q28 0 53.5 5t50.5 16.5t40 35t15 56.5q0 39 -38 73t-117 34h-117v108h111q150 0 153 98q0 37 -38.5 69t-112.5 32q-28 0 -53.5 -5t-50 -16t-40.5 -32.5t-18 -51.5h-121q0 74 43 125t104 71.5t134 20.5q115 0 198.5 -55.5t83.5 -157.5
q0 -58 -28.5 -99t-79.5 -56q59 -16 93 -62t34 -96q0 -53 -18 -94.5t-47 -67t-69 -42.5t-81 -24t-86 -7q-57 0 -107 12.5t-93 38t-68 71.5t-25 107h139z"/><glyph glyph-name="acute" unicode="´" horiz-adv-x="475" d="M41 1163v13l152 258h208v-7l-206 -264h-154z"/><glyph glyph-name="_181" unicode="µ" horiz-adv-x="1257" d="M1075 0h-147l-15 125q-42 -83 -135.5 -128t-187.5 -40q-64 0 -123 14t-114 53t-77 99v-578h-155v1467h166v-596q0 -96 46.5 -169t117 -108t149.5 -35q58 0 112 20t98.5 60t71.5 107t27 153v568h166v-1012z"/><glyph glyph-name="paragraph" unicode="¶" horiz-adv-x="1660" d="M729 1272v-1716h-166v823q-123 6 -220 52.5t-155.5 120t-89 163t-30.5 188.5q0 80 21 156.5t65 144t106 118.5t149 80.5t189 29.5h991v-160h-205v-1714h-161v1714h-494z"/><glyph glyph-name="periodcentered" unicode="·" horiz-adv-x="512" d="M139 580q0 54 36.5 84.5t79.5 30.5t79.5 -30.5t36.5 -84.5t-36.5 -84.5t-79.5 -30.5t-79.5 30.5t-36.5 84.5z"/><glyph glyph-name="cedilla" unicode="¸" horiz-adv-x="686" d="M248 -246l-35 33l72 215h133l-45 -129q130 -4 187 -78.5t30 -181.5q-23 -97 -100.5 -148t-194.5 -51q-75 0 -141 31.5t-105 89.5l84 88q65 -74 162 -74q123 0 145 99q12 60 -36 94t-156 12z"/><glyph glyph-name="onesuperior" unicode="¹" horiz-adv-x="524" d="M76 961h129v473l-111 -29v119l244 59v-622h133v-115h-395v115z"/><glyph glyph-name="ordmasculine" unicode="º" horiz-adv-x="987" d="M494 754q-152 0 -252.5 93.5t-100.5 256.5q0 160 99 251t252 91q152 0 249 -90.5t97 -249.5q0 -162 -98 -257t-246 -95zM494 889q93 0 149.5 57.5t56.5 157.5q0 95 -59.5 155t-148.5 60q-88 0 -146.5 -60t-58.5 -153q0 -99 57 -158t150 -59zM164 631h665v-133h-665v133z
"/><glyph glyph-name="guillemotright" unicode="»" horiz-adv-x="915" d="M274 160h-178l279 450l-279 453h178l285 -453zM825 610l-282 -450h-176l276 450l-276 453h176z"/><glyph glyph-name="onequarter" unicode="¼" horiz-adv-x="1548" d="M98 819h129v471l-110 -26v118l243 58v-621h134v-117h-396v117zM285 -6l776 1450h158l-777 -1450h-157zM1374 737v-469h86v-121h-86v-147h-133v147h-393l-6 109l354 481h178zM1241 268v340l-252 -340h252z"/><glyph glyph-name="onehalf" unicode="½" horiz-adv-x="1656" d="M283 -6l776 1450h158l-777 -1450h-157zM98 819h129v471l-110 -26v118l243 58v-621h134v-117h-396v117zM967 0l2 2v176q0 62 25.5 107.5t69.5 70.5t92 38t104 16q153 10 153 116q0 109 -156 109q-151 0 -153 -107h-131q0 61 24 106.5t65.5 70.5t89.5 37t103 12
q60 0 110 -11.5t92 -37t65.5 -71t23.5 -108.5q0 -56 -18 -98t-43.5 -65t-65 -38.5t-68.5 -20.5t-69 -9q-30 -3 -49.5 -6t-47 -11t-43.5 -20t-28 -33t-12 -49v-43h434v-133h-569z"/><glyph glyph-name="threequarters" unicode="¾" horiz-adv-x="1617" d="M1442 737v-469h86v-121h-86v-147h-133v147h-394l-6 109l355 481h178zM1309 268v340l-252 -340h252zM381 -6l776 1450h158l-776 -1450h-158zM219 932h-4q4 -101 158 -101q38 0 70.5 8t59.5 33.5t27 65.5q0 41 -37.5 73.5t-117.5 32.5h-117v111h111q149 0 149 96
q0 36 -38.5 68.5t-110.5 32.5q-62 0 -108 -25t-50 -82h-121q0 74 43 124.5t104 70.5t134 20q72 0 133.5 -21.5t104 -71t42.5 -118.5q0 -54 -28.5 -95t-77.5 -58q58 -14 91.5 -60.5t33.5 -97.5q0 -63 -26.5 -109.5t-71.5 -71.5t-95 -36.5t-106 -11.5q-75 0 -138 21t-107 73
t-44 129h137z"/><glyph glyph-name="questiondown" unicode="¿" horiz-adv-x="1232" d="M991 -6h170q0 -90 -30.5 -163.5t-81.5 -122.5t-120.5 -82t-145.5 -47.5t-158 -14.5q-85 0 -160.5 13t-146.5 44.5t-122 79.5t-81.5 122.5t-30.5 168.5q0 53 10 99t24 79t39 62.5t45.5 47.5t54.5 37.5t54 28.5t55.5 24t49.5 21q106 41 138 95.5t32 193.5h174
q0 -84 -11 -146.5t-31 -106t-55.5 -76.5t-75 -55t-98.5 -44q-41 -16 -67.5 -28.5t-60 -35.5t-53.5 -48.5t-34 -65.5t-14 -88q0 -63 23.5 -111.5t60 -77t87.5 -46t99.5 -24t102.5 -6.5q63 0 123.5 15.5t114.5 46t87 85.5t33 126zM782 918q0 -45 -24 -76t-58.5 -38t-68.5 0
t-58 38t-24 76t24 76t58.5 38t68.5 0t58 -38t24 -76z"/><glyph glyph-name="Agrave" unicode="À" horiz-adv-x="1556" d="M680 1434h197l645 -1434h-193l-139 315h-819l-142 -315h-194zM1118 481l-340 774l-338 -774h678zM719 1583l-205 264v6h205l153 -258v-12h-153z"/><glyph glyph-name="Aacute" unicode="Á" horiz-adv-x="1556" d="M680 1434h197l645 -1434h-193l-139 315h-819l-142 -315h-194zM1118 481l-340 774l-338 -774h678zM692 1577v12l152 258h209v-6l-207 -264h-154z"/><glyph glyph-name="Acircumflex" unicode="Â" horiz-adv-x="1556" d="M680 1434h197l645 -1434h-193l-139 315h-819l-142 -315h-194zM1118 481l-340 774l-338 -774h678zM729 1837h107l294 -272v-17h-174l-176 162l-174 -162h-176v17z"/><glyph glyph-name="Atilde" unicode="Ã" horiz-adv-x="1556" d="M680 1434h197l645 -1434h-193l-139 315h-819l-142 -315h-194zM1118 481l-340 774l-338 -774h678zM483 1636l-2 6q23 93 90.5 134t153.5 12q14 -1 62 -27t57 -28q83 -30 110 55l113 -47q-27 -103 -93.5 -139t-144.5 -7q-14 2 -62.5 27t-53.5 27q-85 33 -119 -60z"/><glyph glyph-name="Adieresis" unicode="Ä" horiz-adv-x="1556" d="M680 1434h197l645 -1434h-193l-139 315h-819l-142 -315h-194zM1118 481l-340 774l-338 -774h678zM432 1669q0 42 22.5 70t54 34.5t63.5 0t54.5 -34.5t22.5 -68t-22.5 -67.5t-54.5 -34t-63.5 -0.5t-54 33t-22.5 67zM903 1669q0 51 34 80.5t75.5 29.5t75.5 -29.5t34 -80.5
q0 -50 -34 -78.5t-75.5 -28.5t-75.5 28.5t-34 78.5z"/><glyph glyph-name="Aring" unicode="Å" horiz-adv-x="1556" d="M881 1423l641 -1423h-193l-139 315h-819l-142 -315h-194l639 1423q-62 23 -98.5 74t-36.5 125q0 105 71 164t170 59q96 0 169 -59.5t73 -163.5q0 -74 -38.5 -125t-102.5 -74zM1118 481l-340 774l-338 -774h678zM778 1509q46 0 78 23.5t39.5 56.5t0.5 66.5t-38.5 57
t-77.5 24.5q-46 0 -77 -23.5t-38.5 -57t-0.5 -67t38 -57t76 -23.5z"/><glyph glyph-name="AE" unicode="Æ" horiz-adv-x="1888" d="M854 1434h905v-168h-682v-463h649v-168h-649v-461h699v-174h-869v410h-485l-248 -410h-209zM907 571v525l2 141l-385 -666h383z"/><glyph glyph-name="Ccedilla" unicode="Ç" horiz-adv-x="1454" d="M694 -252l-35 35l66 197q-154 19 -275.5 86.5t-196.5 168t-114 221.5t-39 253q-1 116 28 224.5t90.5 204.5t149 167.5t212 113t270.5 41.5q145 0 281.5 -55t244.5 -162l-123 -113q-83 78 -187.5 118t-215.5 40q-112 0 -206.5 -31.5t-160.5 -86t-112 -128t-68 -157.5
t-22 -174q2 -89 24 -171.5t68 -155.5t111 -127.5t159 -86t207 -31.5q110 0 219.5 43.5t190.5 122.5l124 -123q-218 -208 -530 -211l-35 -104q130 -3 188 -77.5t29 -182.5q-24 -97 -101.5 -148t-191.5 -51q-75 0 -141 31t-106 90l84 88q66 -72 163 -72q123 0 142 97
q13 60 -35.5 94t-155.5 12z"/><glyph glyph-name="Egrave" unicode="È" horiz-adv-x="1335" d="M190 0v1434h1008v-164h-829v-449h794v-166h-794v-485h862v-170h-1041zM674 1595l-205 265v6h205l153 -258v-13h-153z"/><glyph glyph-name="Eacute" unicode="É" horiz-adv-x="1335" d="M190 0v1434h1008v-164h-829v-449h794v-166h-794v-485h862v-170h-1041zM594 1575v12l151 258h209v-6l-206 -264h-154z"/><glyph glyph-name="Ecircumflex" unicode="Ê" horiz-adv-x="1335" d="M190 0v1434h1008v-164h-829v-449h794v-166h-794v-485h862v-170h-1041zM664 1870h106l295 -273v-16h-174l-176 162l-174 -162h-176v16z"/><glyph glyph-name="Edieresis" unicode="Ë" horiz-adv-x="1335" d="M190 0v1434h1008v-164h-829v-449h794v-166h-794v-485h862v-170h-1041zM375 1696q0 42 22.5 70t54.5 34.5t63.5 0t54 -34.5t22.5 -68t-22.5 -67.5t-54 -34t-63.5 -0.5t-54.5 33t-22.5 67zM846 1696q0 51 34 80.5t75.5 29.5t75.5 -29.5t34 -80.5q0 -50 -34 -78.5
t-75.5 -28.5t-75.5 28.5t-34 78.5z"/><glyph glyph-name="Igrave" unicode="Ì" horiz-adv-x="563" d="M190 0v1434h181v-1434h-181zM231 1583l-204 264v6h204l154 -258v-12h-154z"/><glyph glyph-name="Iacute" unicode="Í" horiz-adv-x="563" d="M190 0v1434h181v-1434h-181zM186 1581v12l152 258h209v-6l-207 -264h-154z"/><glyph glyph-name="Icircumflex" unicode="Î" horiz-adv-x="563" d="M227 1845h103l280 -276v-15h-166l-165 164l-162 -164h-170v15zM190 0v1434h181v-1434h-181z"/><glyph glyph-name="Idieresis" unicode="Ï" horiz-adv-x="563" d="M-20 1675q0 52 34 81.5t75.5 29.5t75.5 -29.5t34 -81.5q0 -51 -34 -79.5t-75.5 -28.5t-75.5 28.5t-34 79.5zM360 1673q0 41 22.5 69.5t54.5 34.5t64 0t54.5 -34t22.5 -68q0 -41 -22.5 -69t-54.5 -34.5t-64 0t-54.5 34t-22.5 67.5zM190 0v1434h181v-1434h-181z"/><glyph glyph-name="Eth" unicode="Ð" horiz-adv-x="1544" d="M190 1436h523q142 0 261.5 -39.5t203 -106.5t142.5 -157.5t86.5 -191.5t27.5 -208q0 -112 -26 -216.5t-83 -199t-140 -164.5t-204 -111.5t-268 -41.5h-523v639h-172v147h172v650zM371 176h342q111 0 203 32t154.5 86t105 126t62 151.5t19.5 163.5q0 102 -34 195.5
t-99 169.5t-171.5 121t-239.5 45h-342v-480h374v-147h-374v-463z"/><glyph glyph-name="Ntilde" unicode="Ñ" horiz-adv-x="1560" d="M190 1434h125l879 -1100v1100h176v-1434h-123l-878 1096v-1096h-179v1434zM508 1634l-2 6q23 93 90.5 134t153.5 12q14 -1 61.5 -27t56.5 -28q84 -30 111 55l113 -47q-27 -103 -93.5 -139t-144.5 -7q-14 2 -63 27t-54 27q-85 33 -119 -60z"/><glyph glyph-name="Ograve" unicode="Ò" horiz-adv-x="1656" d="M831 1462q141 0 261 -41.5t204.5 -113t143.5 -167t87.5 -204t28.5 -223.5t-28 -222t-87.5 -202t-144 -165.5t-205 -111.5t-262.5 -41q-144 0 -265 41t-206 111t-144.5 165t-87.5 202.5t-28 222.5q0 156 51.5 293t144.5 238t232 159.5t305 58.5zM1380 713q0 88 -20.5 171
t-65 157.5t-108 130.5t-155 90t-200.5 36q-133 0 -240 -47.5t-174 -129t-102.5 -186t-35.5 -222.5q0 -88 21 -171t65.5 -156.5t108 -129t155.5 -87.5t202 -32t201.5 33t155 88.5t107.5 129.5t64.5 156t20.5 169zM797 1604l-205 264v6h205l153 -258v-12h-153z"/><glyph glyph-name="Oacute" unicode="Ó" horiz-adv-x="1656" d="M831 1462q141 0 261 -41.5t204.5 -113t143.5 -167t87.5 -204t28.5 -223.5t-28 -222t-87.5 -202t-144 -165.5t-205 -111.5t-262.5 -41q-144 0 -265 41t-206 111t-144.5 165t-87.5 202.5t-28 222.5q0 156 51.5 293t144.5 238t232 159.5t305 58.5zM1380 713q0 88 -20.5 171
t-65 157.5t-108 130.5t-155 90t-200.5 36q-133 0 -240 -47.5t-174 -129t-102.5 -186t-35.5 -222.5q0 -88 21 -171t65.5 -156.5t108 -129t155.5 -87.5t202 -32t201.5 33t155 88.5t107.5 129.5t64.5 156t20.5 169zM709 1597v13l151 258h209v-6l-207 -265h-153z"/><glyph glyph-name="Ocircumflex" unicode="Ô" horiz-adv-x="1656" d="M831 1462q141 0 261 -41.5t204.5 -113t143.5 -167t87.5 -204t28.5 -223.5t-28 -222t-87.5 -202t-144 -165.5t-205 -111.5t-262.5 -41q-144 0 -265 41t-206 111t-144.5 165t-87.5 202.5t-28 222.5q0 156 51.5 293t144.5 238t232 159.5t305 58.5zM1380 713q0 88 -20.5 171
t-65 157.5t-108 130.5t-155 90t-200.5 36q-133 0 -240 -47.5t-174 -129t-102.5 -186t-35.5 -222.5q0 -88 21 -171t65.5 -156.5t108 -129t155.5 -87.5t202 -32t201.5 33t155 88.5t107.5 129.5t64.5 156t20.5 169zM788 1880h107l295 -272v-17h-174l-176 162l-174 -162h-177v17
z"/><glyph glyph-name="Otilde" unicode="Õ" horiz-adv-x="1656" d="M831 1462q141 0 261 -41.5t204.5 -113t143.5 -167t87.5 -204t28.5 -223.5t-28 -222t-87.5 -202t-144 -165.5t-205 -111.5t-262.5 -41q-144 0 -265 41t-206 111t-144.5 165t-87.5 202.5t-28 222.5q0 156 51.5 293t144.5 238t232 159.5t305 58.5zM1380 713q0 88 -20.5 171
t-65 157.5t-108 130.5t-155 90t-200.5 36q-133 0 -240 -47.5t-174 -129t-102.5 -186t-35.5 -222.5q0 -88 21 -171t65.5 -156.5t108 -129t155.5 -87.5t202 -32t201.5 33t155 88.5t107.5 129.5t64.5 156t20.5 169zM541 1663l-2 6q23 93 90 134t153 12q14 -1 62 -27.5t57 -28.5
q33 -15 65 -1.5t46 57.5l112 -48q-27 -102 -93 -138t-144 -7q-15 2 -63.5 26.5t-53.5 26.5q-85 33 -119 -59z"/><glyph glyph-name="Odieresis" unicode="Ö" horiz-adv-x="1656" d="M831 1462q141 0 261 -41.5t204.5 -113t143.5 -167t87.5 -204t28.5 -223.5t-28 -222t-87.5 -202t-144 -165.5t-205 -111.5t-262.5 -41q-144 0 -265 41t-206 111t-144.5 165t-87.5 202.5t-28 222.5q0 156 51.5 293t144.5 238t232 159.5t305 58.5zM1380 713q0 88 -20.5 171
t-65 157.5t-108 130.5t-155 90t-200.5 36q-133 0 -240 -47.5t-174 -129t-102.5 -186t-35.5 -222.5q0 -88 21 -171t65.5 -156.5t108 -129t155.5 -87.5t202 -32t201.5 33t155 88.5t107.5 129.5t64.5 156t20.5 169zM506 1696q0 42 22.5 70t54 34.5t63.5 0t54.5 -34.5t22.5 -68
t-22.5 -67.5t-54.5 -34t-63.5 -0.5t-54 33t-22.5 67zM977 1696q0 51 34 80.5t75.5 29.5t75.5 -29.5t34 -80.5q0 -50 -34 -78.5t-75.5 -28.5t-75.5 28.5t-34 78.5z"/><glyph glyph-name="multiply" unicode="×" horiz-adv-x="942" d="M244 991l225 -227l227 227l109 -106l-232 -234l236 -233l-107 -103l-231 234l-231 -234l-111 109l236 233l-232 228z"/><glyph glyph-name="Oslash" unicode="Ø" horiz-adv-x="1656" d="M831 1460q177 0 324 -67l100 170h162l-141 -242q136 -102 208 -264t72 -344q0 -115 -28 -222t-87.5 -202t-144 -165.5t-205 -111.5t-262.5 -41q-168 0 -309 56l-108 -183h-158l147 250q-148 100 -225.5 265t-77.5 354q0 156 51.5 293t144.5 237.5t232 158.5t305 58z
M279 713q0 -140 53 -264t155 -205l584 1001q-112 48 -240 51q-134 0 -240.5 -47t-173.5 -128t-102.5 -185.5t-35.5 -222.5zM1380 713q0 133 -49 254t-143 202l-582 -993q103 -39 225 -39q110 0 201.5 33t155 88.5t107.5 129.5t64.5 156t20.5 169z"/><glyph glyph-name="Ugrave" unicode="Ù" horiz-adv-x="1517" d="M1167 1434h179v-865q0 -144 -47 -260t-128.5 -188.5t-186 -111t-222.5 -38.5q-117 0 -221 38t-187 110t-131.5 188.5t-48.5 261.5v865h178v-865q0 -138 57 -238t148.5 -148t204.5 -48q172 0 288.5 116.5t116.5 319.5v863zM729 1591l-205 264v7h205l154 -258v-13h-154z
"/><glyph glyph-name="Uacute" unicode="Ú" horiz-adv-x="1519" d="M1167 1434h179v-865q0 -144 -47 -260t-128.5 -188.5t-186 -111t-222.5 -38.5q-117 0 -221 38t-187 110t-131.5 188.5t-48.5 261.5v865h178v-865q0 -138 57 -238t148.5 -148t204.5 -48q172 0 288.5 116.5t116.5 319.5v863zM657 1593v13l152 258h209v-6l-207 -265h-154z
"/><glyph glyph-name="Ucircumflex" unicode="Û" horiz-adv-x="1515" d="M1167 1434h179v-865q0 -144 -47 -260t-128.5 -188.5t-186 -111t-222.5 -38.5q-117 0 -221 38t-187 110t-131.5 188.5t-48.5 261.5v865h178v-865q0 -138 57 -238t148.5 -148t204.5 -48q172 0 288.5 116.5t116.5 319.5v863zM709 1870h106l295 -273v-16h-174l-176 162
l-174 -162h-176v16z"/><glyph glyph-name="Udieresis" unicode="Ü" horiz-adv-x="1519" d="M1167 1434h179v-865q0 -144 -47 -260t-128.5 -188.5t-186 -111t-222.5 -38.5q-117 0 -221 38t-187 110t-131.5 188.5t-48.5 261.5v865h178v-865q0 -138 57 -238t148.5 -148t204.5 -48q172 0 288.5 116.5t116.5 319.5v863zM428 1692q0 42 22.5 70t54 34.5t63.5 0
t54.5 -34.5t22.5 -68t-22.5 -67.5t-54.5 -34t-63.5 -0.5t-54 33t-22.5 67zM899 1692q0 51 34 80.5t75.5 29.5t75.5 -29.5t34 -80.5q0 -50 -34 -78.5t-75.5 -28.5t-75.5 28.5t-34 78.5z"/><glyph glyph-name="Yacute" unicode="Ý" horiz-adv-x="1392" d="M604 582l-557 845v7h215l432 -680l443 680h215v-7l-566 -845v-582h-182v582zM590 1587v12l151 259h209v-7l-207 -264h-153z"/><glyph glyph-name="Thorn" unicode="Þ" horiz-adv-x="1400" d="M190 0h3v1432h178v-242h471q136 0 242.5 -52.5t161 -136t80.5 -185t0 -202.5t-81.5 -184.5t-162.5 -135.5t-244 -52h-467v-242h-181zM371 408h471q76 0 137 26.5t98.5 69.5t58 98t20.5 113t-20.5 113t-58 98t-98.5 69.5t-137 26.5h-471v-614z"/><glyph glyph-name="germandbls" unicode="ß" horiz-adv-x="1253" d="M154 1059v2q0 96 38 174t102.5 126t144 73.5t167.5 25.5q93 0 174.5 -23.5t146.5 -69t102.5 -121t37.5 -171.5q0 -100 -61 -177t-164 -101q111 -22 185.5 -83.5t105 -137.5t30.5 -166q0 -116 -40.5 -204t-109.5 -138.5t-159 -74t-190 -16.5t-201 41v154
q109 -42 207.5 -44.5t168.5 30t111 96t41 147.5q0 85 -33 148t-90 97t-122 49.5t-140 15.5h-139v155h133q39 0 76.5 5.5t77.5 20t70 37t49.5 59.5t19.5 85q0 65 -25 112t-67.5 71.5t-89.5 35.5t-101 11q-140 0 -209.5 -65t-72.5 -179l2 -1059h-176v1059z"/><glyph glyph-name="agrave" unicode="à" horiz-adv-x="1306" d="M1151 0h-166l-4 178q-57 -98 -160 -150.5t-213 -52.5q-146 0 -263 63t-186 185t-69 283q0 166 71 287.5t187 181t262 59.5q124 0 221 -51.5t154 -155.5l2 185h164v-1012zM616 874q-156 0 -260 -100.5t-104 -273.5q0 -164 105 -267.5t259 -103.5q101 0 180 41t120 107
t60.5 145.5t0 159t-60 145.5t-120 106.5t-180.5 40.5zM614 1180l-215 258v6h215l160 -252v-12h-160z"/><glyph glyph-name="aacute" unicode="á" horiz-adv-x="1304" d="M1151 0h-166l-4 178q-57 -98 -160 -150.5t-213 -52.5q-146 0 -263 63t-186 185t-69 283q0 166 71 287.5t187 181t262 59.5q124 0 221 -51.5t154 -155.5l2 185h164v-1012zM616 874q-156 0 -260 -100.5t-104 -273.5q0 -164 105 -267.5t259 -103.5q101 0 180 41t120 107
t60.5 145.5t0 159t-60 145.5t-120 106.5t-180.5 40.5zM510 1171v13l152 258h208v-6l-206 -265h-154z"/><glyph glyph-name="acircumflex" unicode="â" horiz-adv-x="1306" d="M1151 0h-166l-4 178q-57 -98 -160 -150.5t-213 -52.5q-146 0 -263 63t-186 185t-69 283q0 166 71 287.5t187 181t262 59.5q124 0 221 -51.5t154 -155.5l2 185h164v-1012zM616 874q-156 0 -260 -100.5t-104 -273.5q0 -164 105 -267.5t259 -103.5q101 0 180 41t120 107
t60.5 145.5t0 159t-60 145.5t-120 106.5t-180.5 40.5zM596 1448h106l295 -272v-17h-174l-176 162l-174 -162h-176v17z"/><glyph glyph-name="atilde" unicode="ã" horiz-adv-x="1306" d="M1151 0h-166l-4 178q-57 -98 -160 -150.5t-213 -52.5q-146 0 -263 63t-186 185t-69 283q0 166 71 287.5t187 181t262 59.5q124 0 221 -51.5t154 -155.5l2 185h164v-1012zM616 874q-156 0 -260 -100.5t-104 -273.5q0 -164 105 -267.5t259 -103.5q101 0 180 41t120 107
t60.5 145.5t0 159t-60 145.5t-120 106.5t-180.5 40.5zM350 1282l-2 6q23 93 90.5 134t153.5 12q14 -1 62 -27.5t57 -28.5q83 -29 110 56l113 -48q-27 -102 -93.5 -138t-144.5 -7q-14 2 -62.5 26.5t-53.5 26.5q-85 33 -119 -59z"/><glyph glyph-name="adieresis" unicode="ä" horiz-adv-x="1304" d="M1151 0h-166l-4 178q-57 -98 -160 -150.5t-213 -52.5q-146 0 -263 63t-186 185t-69 283q0 166 71 287.5t187 181t262 59.5q124 0 221 -51.5t154 -155.5l2 185h164v-1012zM616 874q-156 0 -260 -100.5t-104 -273.5q0 -164 105 -267.5t259 -103.5q101 0 180 41t120 107
t60.5 145.5t0 159t-60 145.5t-120 106.5t-180.5 40.5zM317 1354q0 42 22.5 70t54.5 34.5t64 0t54.5 -34.5t22.5 -68t-22.5 -67.5t-54.5 -34t-64 -0.5t-54.5 33t-22.5 67zM788 1354q0 51 34.5 80.5t75.5 29.5t75.5 -29.5t34.5 -80.5q0 -50 -34.5 -78.5t-75.5 -28.5
t-75.5 28.5t-34.5 78.5z"/><glyph glyph-name="aring" unicode="å" horiz-adv-x="1306" d="M1151 0h-166l-4 178q-57 -98 -160 -150.5t-213 -52.5q-146 0 -263 63t-186 185t-69 283q0 166 71 287.5t187 181t262 59.5q124 0 221 -51.5t154 -155.5l2 185h164v-1012zM616 874q-156 0 -260 -100.5t-104 -273.5q0 -164 105 -267.5t259 -103.5q101 0 180 41t120 107
t60.5 145.5t0 159t-60 145.5t-120 106.5t-180.5 40.5zM393 1348q0 100 69.5 157.5t162.5 57.5q96 0 166.5 -56t70.5 -157t-67.5 -158t-171.5 -57q-98 0 -164 57t-66 156zM625 1458q-44 0 -74 -22.5t-37 -54t0 -63.5t37 -54.5t74 -22.5q46 0 77.5 22.5t39 54.5t0 63.5t-39 54
t-77.5 22.5z"/><glyph glyph-name="ae" unicode="æ" horiz-adv-x="2076" d="M983 0l2 -6v182q-59 -99 -161.5 -151t-215.5 -52q-146 0 -263 63t-186 185t-69 283q0 121 40.5 220.5t111 165t164.5 101t202 35.5q119 0 223 -53t156 -148l2 185h131v-174q65 97 165 147.5t220 48.5q85 0 164 -24t145 -74t112 -119t65 -166t4 -209h-858
q12 -140 113 -222.5t251 -82.5q90 0 182.5 34t137.5 91l110 -100q-73 -88 -191.5 -134t-244.5 -46q-257 0 -379 192l-4 -172h-129zM1837 575l-2 -2q-6 145 -98.5 224.5t-243.5 79.5q-138 0 -235.5 -79t-118.5 -223h698zM618 866v-2q-153 0 -258.5 -101.5t-105.5 -266.5
t105.5 -268t258.5 -103q89 0 161.5 32t117 84t68.5 118.5t24 136t-24 136t-68.5 118.5t-117 84t-161.5 32z"/><glyph glyph-name="ccedilla" unicode="ç" horiz-adv-x="1058" d="M481 -254l-35 35l68 203q-188 32 -306 169.5t-118 352.5q0 163 71 284.5t189.5 182.5t267.5 61q209 0 367 -151l-108 -111q-99 102 -254 102t-260 -100.5t-105 -267.5q0 -172 104.5 -271.5t258.5 -99.5q160 0 264 107l108 -111q-147 -150 -350 -156l-39 -110
q131 -3 187.5 -74t29.5 -178q-23 -97 -100 -148t-193 -51q-75 0 -141.5 31.5t-105.5 89.5l86 88q65 -74 161 -74q122 0 144 99q12 59 -36 89.5t-155 8.5z"/><glyph glyph-name="egrave" unicode="è" horiz-adv-x="1200" d="M1063 156h-2q-76 -89 -194.5 -135t-243.5 -46q-238 0 -385.5 145t-147.5 390q0 229 147.5 376.5t376.5 147.5q118 0 215 -35.5t168 -105.5t104 -184t19 -260h-862q13 -145 117 -231.5t252 -86.5q91 0 182.5 33.5t138.5 91.5zM258 588h700q-4 143 -95.5 219t-244.5 76
q-138 0 -237 -76t-123 -219zM608 1174l-200 258v6h200l150 -252v-12h-150z"/><glyph glyph-name="eacute" unicode="é" horiz-adv-x="1198" d="M1063 156h-2q-76 -89 -194.5 -135t-243.5 -46q-238 0 -385.5 145t-147.5 390q0 229 147.5 376.5t376.5 147.5q118 0 215 -35.5t168 -105.5t104 -184t19 -260h-862q13 -145 117 -231.5t252 -86.5q91 0 182.5 33.5t138.5 91.5zM258 588h700q-4 143 -95.5 219t-244.5 76
q-138 0 -237 -76t-123 -219zM504 1171v13l151 258h209v-6l-207 -265h-153z"/><glyph glyph-name="ecircumflex" unicode="ê" horiz-adv-x="1200" d="M1063 156h-2q-76 -89 -194.5 -135t-243.5 -46q-238 0 -385.5 145t-147.5 390q0 229 147.5 376.5t376.5 147.5q118 0 215 -35.5t168 -105.5t104 -184t19 -260h-862q13 -145 117 -231.5t252 -86.5q91 0 182.5 33.5t138.5 91.5zM258 588h700q-4 143 -95.5 219t-244.5 76
q-138 0 -237 -76t-123 -219zM573 1448h107l295 -272v-17h-174l-176 162l-174 -162h-177v17z"/><glyph glyph-name="edieresis" unicode="ë" horiz-adv-x="1198" d="M1063 156h-2q-76 -89 -194.5 -135t-243.5 -46q-238 0 -385.5 145t-147.5 390q0 229 147.5 376.5t376.5 147.5q118 0 215 -35.5t168 -105.5t104 -184t19 -260h-862q13 -145 117 -231.5t252 -86.5q91 0 182.5 33.5t138.5 91.5zM258 588h700q-4 143 -95.5 219t-244.5 76
q-138 0 -237 -76t-123 -219zM291 1329q0 41 22 68.5t53.5 33.5t62.5 -0.5t53 -33.5t22 -66q0 -40 -22 -67t-53 -33.5t-62.5 0t-53.5 33t-22 65.5zM752 1329q0 50 33.5 78.5t74 28.5t74 -28.5t33.5 -78.5q0 -49 -33.5 -77t-74 -28t-74 28t-33.5 77z"/><glyph glyph-name="igrave" unicode="ì" horiz-adv-x="481" d="M43 1427v7h184l103 -263v-12h-144zM328 1012v-1012h-174v1012h174z"/><glyph glyph-name="iacute" unicode="í" horiz-adv-x="483" d="M152 1171l100 263h186v-7l-145 -268h-141v12zM328 1012v-1012h-174v1012h174z"/><glyph glyph-name="icircumflex" unicode="î" horiz-adv-x="483" d="M-25 1171l232 267h86l229 -267v-16h-149l-123 152l-125 -152h-150v16zM328 1012v-1012h-174v1012h174z"/><glyph glyph-name="idieresis" unicode="ï" horiz-adv-x="483" d="M-20 1331q0 40 22 67t53 33t62.5 0t53.5 -33t22 -67t-22 -67t-53.5 -33t-62.5 0t-53 33t-22 67zM303 1331q0 40 22.5 67t54.5 33t63.5 0t54 -33t22.5 -67t-22.5 -67t-54 -33t-63.5 0t-54.5 33t-22.5 67zM328 1012v-1012h-174v1012h174z"/><glyph glyph-name="eth" unicode="ð" horiz-adv-x="1230" d="M612 131q110 0 193.5 52.5t124.5 133t41 172.5q0 91 -41 171.5t-124.5 133t-193.5 52.5q-84 0 -152.5 -30.5t-111 -81.5t-65.5 -114t-23 -131q0 -69 22.5 -132t65.5 -114t111.5 -81.5t152.5 -30.5zM561 989q244 9 381 -143q-32 99 -117.5 185t-173.5 136l-76 -96l-88 59
l70 97q-76 39 -192 69l36 136q141 -30 250 -86l111 149l92 -65l-104 -142q204 -146 293.5 -337.5t91.5 -432.5q0 -241 -141 -389.5t-382 -148.5q-126 0 -227.5 43t-164.5 115t-96.5 161.5t-33.5 187.5q0 92 30 177.5t87.5 155.5t148.5 115.5t205 53.5z"/><glyph glyph-name="ntilde" unicode="ñ" horiz-adv-x="1245" d="M174 0v1010h154l8 -158q125 182 342 182q194 0 312 -124.5t118 -348.5v-561h-170v559q0 154 -74 236t-219 82q-135 0 -220 -97.5t-85 -236.5v-543h-166zM379 1286l-2 6q22 93 87.5 133t151.5 11q13 -1 60 -26t57 -28q31 -15 63 -2t46 56l110 -45q-27 -101 -92 -137
t-141 -7q-15 2 -62.5 25.5t-52.5 25.5q-86 33 -117 -57z"/><glyph glyph-name="ograve" unicode="ò" horiz-adv-x="1220" d="M88 504q0 233 148.5 381.5t375.5 148.5q231 0 380 -148t149 -382q0 -233 -150 -381t-379 -148q-228 0 -376 147.5t-148 381.5zM973 504q0 165 -102.5 270t-256.5 105q-155 0 -257.5 -104.5t-102.5 -270.5q0 -163 101.5 -267t256.5 -104q157 0 259 103.5t102 267.5z
M594 1171l-205 265v6h205l154 -258v-13h-154z"/><glyph glyph-name="oacute" unicode="ó" horiz-adv-x="1218" d="M82 504q0 233 148.5 381.5t375.5 148.5q231 0 380 -148t149 -382q0 -233 -150 -381t-379 -148q-228 0 -376 147.5t-148 381.5zM967 504q0 165 -102.5 270t-256.5 105q-155 0 -257.5 -104.5t-102.5 -270.5q0 -163 101.5 -267t256.5 -104q157 0 259 103.5t102 267.5z
M487 1174v12l146 248h198v-7l-196 -253h-148z"/><glyph glyph-name="ocircumflex" unicode="ô" horiz-adv-x="1218" d="M82 504q0 233 148.5 381.5t375.5 148.5q231 0 380 -148t149 -382q0 -233 -150 -381t-379 -148q-228 0 -376 147.5t-148 381.5zM967 504q0 165 -102.5 270t-256.5 105q-155 0 -257.5 -104.5t-102.5 -270.5q0 -163 101.5 -267t256.5 -104q157 0 259 103.5t102 267.5z
M559 1448h107l295 -272v-17h-175l-176 162l-174 -162h-176v17z"/><glyph glyph-name="otilde" unicode="õ" horiz-adv-x="1218" d="M82 504q0 233 148.5 381.5t375.5 148.5q231 0 380 -148t149 -382q0 -233 -150 -381t-379 -148q-228 0 -376 147.5t-148 381.5zM967 504q0 165 -102.5 270t-256.5 105q-155 0 -257.5 -104.5t-102.5 -270.5q0 -163 101.5 -267t256.5 -104q157 0 259 103.5t102 267.5z
M334 1278l-2 6q23 93 90 134t153 12q14 -1 62 -27.5t57 -28.5q33 -15 65 -1.5t46 57.5l113 -48q-27 -102 -93.5 -138t-144.5 -7q-15 2 -63.5 26.5t-53.5 26.5q-85 33 -119 -59z"/><glyph glyph-name="odieresis" unicode="ö" horiz-adv-x="1218" d="M82 504q0 233 148.5 381.5t375.5 148.5q231 0 380 -148t149 -382q0 -233 -150 -381t-379 -148q-228 0 -376 147.5t-148 381.5zM967 504q0 165 -102.5 270t-256.5 105q-155 0 -257.5 -104.5t-102.5 -270.5q0 -163 101.5 -267t256.5 -104q157 0 259 103.5t102 267.5z
M272 1321q0 40 21.5 67t52 33.5t61.5 0t52.5 -33t21.5 -65.5t-21.5 -66t-52.5 -33t-61.5 0t-52 32.5t-21.5 64.5zM727 1321q0 40 22 67t53.5 33t62.5 0t53 -33t22 -67q0 -49 -33.5 -76.5t-73 -27.5t-73 27.5t-33.5 76.5z"/><glyph glyph-name="divide" unicode="÷" horiz-adv-x="1155" d="M1012 592h-871v166h871v-166zM467 324q0 41 23 69.5t55.5 35t65.5 -0.5t56 -35.5t23 -70.5q0 -41 -23 -69.5t-56 -35t-65.5 0.5t-55.5 35.5t-23 70.5zM467 1016q0 41 23 69.5t55.5 35t65.5 -0.5t56 -35.5t23 -70.5q0 -41 -23 -69.5t-56 -35t-65.5 0.5t-55.5 35.5
t-23 70.5z"/><glyph glyph-name="oslash" unicode="ø" horiz-adv-x="1218" d="M88 504q0 233 148.5 381.5t375.5 148.5q125 0 236 -49l84 135h127l-121 -190q96 -70 149.5 -180.5t53.5 -245.5q0 -233 -150 -381t-379 -148q-128 0 -237 50l-90 -146h-123l123 199q-94 72 -145.5 181.5t-51.5 244.5zM973 504q0 178 -121 289l-391 -629q70 -31 151 -31
q157 0 259 103.5t102 267.5zM254 504q0 -181 119 -287l389 631q-67 31 -148 31q-155 0 -257.5 -104.5t-102.5 -270.5z"/><glyph glyph-name="ugrave" unicode="ù" horiz-adv-x="1247" d="M1087 0h-155l-8 162q-126 -184 -344 -187q-195 0 -306.5 124.5t-111.5 346.5v566h168v-566q0 -151 70.5 -233t213.5 -82q136 0 220 97.5t84 240.5v543h169v-1012zM621 1163l-205 264v7h205l153 -258v-13h-153z"/><glyph glyph-name="uacute" unicode="ú" horiz-adv-x="1245" d="M1087 0h-155l-8 162q-126 -184 -344 -187q-195 0 -306.5 124.5t-111.5 346.5v566h168v-566q0 -151 70.5 -233t213.5 -82q136 0 220 97.5t84 240.5v543h169v-1012zM524 1163v13l152 258h209v-7l-207 -264h-154z"/><glyph glyph-name="ucircumflex" unicode="û" horiz-adv-x="1247" d="M571 1448h107l295 -272v-17h-174l-176 162l-174 -162h-177v17zM1087 0h-155l-8 162q-126 -184 -344 -187q-195 0 -306.5 124.5t-111.5 346.5v566h168v-566q0 -151 70.5 -233t213.5 -82q136 0 220 97.5t84 240.5v543h169v-1012z"/><glyph glyph-name="udieresis" unicode="ü" horiz-adv-x="1245" d="M1087 0h-155l-8 162q-126 -184 -344 -187q-195 0 -306.5 124.5t-111.5 346.5v566h168v-566q0 -151 70.5 -233t213.5 -82q136 0 220 97.5t84 240.5v543h169v-1012zM285 1337q0 42 22.5 70t54.5 34.5t63.5 0t54 -34.5t22.5 -68t-22.5 -67.5t-54 -34t-63.5 -0.5t-54.5 33
t-22.5 67zM756 1337q0 51 34 80.5t75.5 29.5t75.5 -29.5t34 -80.5q0 -50 -34 -78.5t-75.5 -28.5t-75.5 28.5t-34 78.5z"/><glyph glyph-name="yacute" unicode="ý" horiz-adv-x="1130" d="M1077 1012l-637 -1491h-184l213 493l-410 998h193l199 -525l112 -290l107 288l223 527h184zM440 1171v11l148 252h205v-7l-203 -256h-150z"/><glyph glyph-name="thorn" unicode="þ" horiz-adv-x="1306" d="M156 -422l-2 -2v1854h165v-615q55 99 161.5 157t228.5 58q145 -4 257.5 -64.5t180 -180t67.5 -281.5q0 -126 -39.5 -227t-109 -166t-163 -99.5t-202.5 -34.5q-115 0 -217 54t-161 159v-612h-166zM688 137q154 0 255 97.5t101 269.5t-100.5 266t-255.5 94
q-152 0 -254 -103t-102 -259t103 -260.5t253 -104.5z"/><glyph glyph-name="ydieresis" unicode="ÿ" horiz-adv-x="1130" d="M1077 1012l-637 -1491h-184l213 493l-410 998h193l199 -525l112 -290l107 288l223 527h184zM240 1337q0 42 22.5 70t54 34.5t63.5 0t54.5 -34.5t22.5 -68t-22.5 -67.5t-54.5 -34t-63.5 -0.5t-54 33t-22.5 67zM711 1337q0 51 34 80.5t75.5 29.5t75.5 -29.5t34 -80.5
q0 -50 -34 -78.5t-75.5 -28.5t-75.5 28.5t-34 78.5z"/><glyph glyph-name="Amacron" unicode="Ā" horiz-adv-x="1556" d="M680 1434h197l645 -1434h-193l-139 315h-819l-142 -315h-194zM1118 481l-340 774l-338 -774h678zM436 1743h684v-144h-684v144z"/><glyph glyph-name="amacron" unicode="ā" horiz-adv-x="1306" d="M1151 0h-166l-4 178q-57 -98 -160 -150.5t-213 -52.5q-146 0 -263 63t-186 185t-69 283q0 166 71 287.5t187 181t262 59.5q124 0 221 -51.5t154 -155.5l2 185h164v-1012zM616 874q-156 0 -260 -100.5t-104 -273.5q0 -164 105 -267.5t259 -103.5q101 0 180 41t120 107
t60.5 145.5t0 159t-60 145.5t-120 106.5t-180.5 40.5zM311 1405h684v-143h-684v143z"/><glyph glyph-name="Abreve" unicode="Ă" horiz-adv-x="1556" d="M680 1434h197l645 -1434h-193l-139 315h-819l-142 -315h-194zM1118 481l-340 774l-338 -774h678zM1098 1851q2 -87 -48 -152.5t-121.5 -95.5t-148.5 -30q-139 0 -231.5 75.5t-85.5 202.5h135q0 -62 46.5 -104.5t135.5 -42.5q87 0 132.5 42t45.5 105h140z"/><glyph glyph-name="abreve" unicode="ă" horiz-adv-x="1306" d="M1151 0h-166l-4 178q-57 -98 -160 -150.5t-213 -52.5q-146 0 -263 63t-186 185t-69 283q0 166 71 287.5t187 181t262 59.5q124 0 221 -51.5t154 -155.5l2 185h164v-1012zM616 874q-156 0 -260 -100.5t-104 -273.5q0 -164 105 -267.5t259 -103.5q101 0 180 41t120 107
t60.5 145.5t0 159t-60 145.5t-120 106.5t-180.5 40.5zM965 1444q1 -66 -27.5 -120.5t-75.5 -88.5t-102.5 -52t-112.5 -18q-139 0 -231.5 76t-85.5 203h135q0 -62 47 -105t135 -43q87 0 132.5 42.5t45.5 105.5h140z"/><glyph glyph-name="Aogonek" unicode="Ą" horiz-adv-x="1558" d="M680 1434h197l645 -1434q-87 -39 -153 -83.5t-103 -83.5t-59 -78.5t-27.5 -68.5t-1.5 -53q7 -41 38.5 -62.5t69.5 -21.5q62 0 107.5 16t93.5 56l76 -96q-47 -45 -123 -78t-148 -33q-113 0 -178.5 43t-81.5 111q-9 41 -8.5 83.5t21 89t55 91t93 89t134.5 83.5l-137 311
h-819l-142 -315h-194zM1118 481l-340 774l-338 -774h678z"/><glyph glyph-name="aogonek" unicode="ą" horiz-adv-x="1306" d="M1151 0q-89 -39 -156 -83.5t-103 -83.5t-56.5 -79t-24.5 -68.5t0 -52.5q7 -41 39.5 -62.5t69.5 -21.5q62 0 108 16t94 56l76 -96q-45 -45 -121.5 -78t-150.5 -33q-113 0 -178.5 43t-81.5 111q-8 43 -7.5 86.5t22 92t57 94t99 92t148.5 85.5l-4 160q-57 -98 -160 -150.5
t-213 -52.5q-146 0 -263 63t-186 185t-69 283q0 166 71 287.5t187 181t262 59.5q124 0 221 -51.5t154 -155.5l2 185h164v-1012zM616 874q-156 0 -260 -100.5t-104 -273.5q0 -164 105 -267.5t259 -103.5q101 0 180 41t120 107t60.5 145.5t0 159t-60 145.5t-120 106.5
t-180.5 40.5z"/><glyph glyph-name="Cacute" unicode="Ć" horiz-adv-x="1449" d="M1384 182q-221 -211 -534 -211q-148 0 -272 40t-211 110t-148 164t-90 201t-29 223q-1 116 28 225t90.5 205t149 168t212 113.5t270.5 41.5q145 0 281.5 -55t244.5 -162l-123 -112q-83 78 -187.5 117.5t-215.5 39.5q-112 0 -206.5 -31.5t-160.5 -86.5t-112 -129t-68 -158
t-22 -174q2 -89 24 -171.5t68 -155.5t111 -127.5t159 -86t207 -31.5q110 0 219.5 43.5t190.5 122.5zM721 1593v13l151 258h209v-6l-207 -265h-153z"/><glyph glyph-name="cacute" unicode="ć" horiz-adv-x="1060" d="M995 129l-2 2q-152 -156 -375 -156q-109 0 -204.5 36t-167.5 102.5t-114 168t-42 224.5q0 163 71 284.5t189.5 182.5t267.5 61q209 0 367 -151l-108 -111q-99 102 -254 102t-260 -100.5t-105 -267.5q0 -172 104.5 -271.5t258.5 -99.5q160 0 264 107zM485 1192v10l140 238
h190v-6l-188 -242h-142z"/><glyph glyph-name="Ccircumflex" unicode="Ĉ" horiz-adv-x="1454" d="M1384 182q-221 -211 -534 -211q-148 0 -272 40t-211 110t-148 164t-90 201t-29 223q-1 116 28 225t90.5 205t149 168t212 113.5t270.5 41.5q145 0 281.5 -55t244.5 -162l-123 -112q-83 78 -187.5 117.5t-215.5 39.5q-112 0 -206.5 -31.5t-160.5 -86.5t-112 -129t-68 -158
t-22 -174q2 -89 24 -171.5t68 -155.5t111 -127.5t159 -86t207 -31.5q110 0 219.5 43.5t190.5 122.5zM788 1888h107l295 -272v-17h-174l-176 162l-174 -162h-177v17z"/><glyph glyph-name="ccircumflex" unicode="ĉ" horiz-adv-x="1058" d="M995 129l-2 2q-152 -156 -375 -156q-109 0 -204.5 36t-167.5 102.5t-114 168t-42 224.5q0 163 71 284.5t189.5 182.5t267.5 61q209 0 367 -151l-108 -111q-99 102 -254 102t-260 -100.5t-105 -267.5q0 -172 104.5 -271.5t258.5 -99.5q160 0 264 107zM549 1438h98
l277 -254v-15h-162l-166 150l-162 -150h-166v15z"/><glyph glyph-name="Cdotaccent" unicode="Ċ" horiz-adv-x="1449" d="M1384 182q-221 -211 -534 -211q-148 0 -272 40t-211 110t-148 164t-90 201t-29 223q-1 116 28 225t90.5 205t149 168t212 113.5t270.5 41.5q145 0 281.5 -55t244.5 -162l-123 -112q-83 78 -187.5 117.5t-215.5 39.5q-112 0 -206.5 -31.5t-160.5 -86.5t-112 -129t-68 -158
t-22 -174q2 -89 24 -171.5t68 -155.5t111 -127.5t159 -86t207 -31.5q110 0 219.5 43.5t190.5 122.5zM719 1714q0 41 23 69.5t55.5 35t65.5 -0.5t56 -35.5t23 -70.5q0 -41 -23 -69.5t-56 -35t-65.5 0.5t-55.5 35.5t-23 70.5z"/><glyph glyph-name="cdotaccent" unicode="ċ" horiz-adv-x="1060" d="M995 129l-2 2q-152 -156 -375 -156q-109 0 -204.5 36t-167.5 102.5t-114 168t-42 224.5q0 163 71 284.5t189.5 182.5t267.5 61q209 0 367 -151l-108 -111q-99 102 -254 102t-260 -100.5t-105 -267.5q0 -172 104.5 -271.5t258.5 -99.5q160 0 264 107zM496 1329
q0 40 22.5 67.5t54 34t63.5 0t54.5 -34.5t22.5 -69q0 -40 -22.5 -67.5t-54.5 -34t-63.5 0t-54 34.5t-22.5 69z"/><glyph glyph-name="Ccaron" unicode="Č" horiz-adv-x="1454" d="M1384 182q-221 -211 -534 -211q-148 0 -272 40t-211 110t-148 164t-90 201t-29 223q-1 116 28 225t90.5 205t149 168t212 113.5t270.5 41.5q145 0 281.5 -55t244.5 -162l-123 -112q-83 78 -187.5 117.5t-215.5 39.5q-112 0 -206.5 -31.5t-160.5 -86.5t-112 -129t-68 -158
t-22 -174q2 -89 24 -171.5t68 -155.5t111 -127.5t159 -86t207 -31.5q110 0 219.5 43.5t190.5 122.5zM481 1858v12h174l179 -158l180 158h170v-12l-299 -263h-105z"/><glyph glyph-name="ccaron" unicode="č" horiz-adv-x="1058" d="M995 129l-2 2q-152 -156 -375 -156q-109 0 -204.5 36t-167.5 102.5t-114 168t-42 224.5q0 163 71 284.5t189.5 182.5t267.5 61q209 0 367 -151l-108 -111q-99 102 -254 102t-260 -100.5t-105 -267.5q0 -172 104.5 -271.5t258.5 -99.5q160 0 264 107zM250 1430v12h172
l176 -156l178 156h168v-12l-295 -261h-104z"/><glyph glyph-name="Dcaron" unicode="Ď" horiz-adv-x="1536" d="M190 1434v2h523q142 0 261.5 -39.5t203 -106.5t142.5 -157.5t86.5 -191.5t27.5 -208q0 -112 -26 -216.5t-83 -199t-140 -164.5t-204 -111.5t-268 -41.5h-523v1434zM371 176h342q111 0 203 32t154.5 86t105 126t62 151.5t19.5 163.5q0 102 -34 195.5t-99 169.5t-171.5 121
t-239.5 45h-342v-1090zM350 1843v12h174l178 -157l181 157h170v-12l-299 -262h-105z"/><glyph glyph-name="dcaron" unicode="ď" horiz-adv-x="1304" d="M1327 1434h166l-125 -355h-129zM1149 1434l2 2v-1436h-160l-8 186q-60 -102 -161.5 -156.5t-217.5 -54.5q-225 0 -368.5 140t-143.5 391q0 125 39.5 225.5t108.5 166.5t162 101t202 35q113 0 219.5 -54.5t157.5 -152.5v607h168zM614 877q-153 0 -254.5 -98.5
t-101.5 -270.5q0 -179 101.5 -276t256.5 -97q154 0 256.5 105.5t102.5 269.5q0 161 -103.5 264t-257.5 103z"/><glyph glyph-name="Dcroat" unicode="Đ" horiz-adv-x="1548" d="M190 1436h523q142 0 261.5 -39.5t203 -106.5t142.5 -157.5t86.5 -191.5t27.5 -208q0 -112 -26 -216.5t-83 -199t-140 -164.5t-204 -111.5t-268 -41.5h-523v639h-172v147h172v650zM371 176h342q111 0 203 32t154.5 86t105 126t62 151.5t19.5 163.5q0 102 -34 195.5
t-99 169.5t-171.5 121t-239.5 45h-342v-480h374v-147h-374v-463z"/><glyph glyph-name="dcroat" unicode="đ" horiz-adv-x="1304" d="M1149 1434l2 2v-140h156v-122h-156v-1172h-160l-8 184q-60 -102 -161.5 -156.5t-217.5 -54.5q-225 0 -368.5 140t-143.5 391q0 125 39.5 225.5t108.5 166.5t162 101t202 35q113 0 219.5 -54.5t157.5 -152.5v347h-313v122h313v138h168zM614 877q-153 0 -254.5 -98.5
t-101.5 -270.5q0 -179 101.5 -276t256.5 -97q154 0 256.5 105.5t102.5 269.5q0 161 -103.5 264t-257.5 103z"/><glyph glyph-name="Emacron" unicode="Ē" horiz-adv-x="1335" d="M190 0v1434h1008v-164h-829v-449h794v-166h-794v-485h862v-170h-1041zM365 1753h684v-143h-684v143z"/><glyph glyph-name="emacron" unicode="ē" horiz-adv-x="1200" d="M1063 156h-2q-76 -89 -194.5 -135t-243.5 -46q-238 0 -385.5 145t-147.5 390q0 229 147.5 376.5t376.5 147.5q118 0 215 -35.5t168 -105.5t104 -184t19 -260h-862q13 -145 117 -231.5t252 -86.5q91 0 182.5 33.5t138.5 91.5zM258 588h700q-4 143 -95.5 219t-244.5 76
q-138 0 -237 -76t-123 -219zM305 1425h629v-131h-629v131z"/><glyph glyph-name="Ebreve" unicode="Ĕ" horiz-adv-x="1335" d="M190 0v1434h1008v-164h-829v-449h794v-166h-794v-485h862v-170h-1041zM1024 1853q2 -87 -47.5 -152.5t-121 -95.5t-148.5 -30q-140 0 -232.5 75.5t-85.5 202.5h135q0 -62 47 -104.5t136 -42.5q87 0 132.5 42t45.5 105h139z"/><glyph glyph-name="ebreve" unicode="ĕ" horiz-adv-x="1200" d="M1063 156h-2q-76 -89 -194.5 -135t-243.5 -46q-238 0 -385.5 145t-147.5 390q0 229 147.5 376.5t376.5 147.5q118 0 215 -35.5t168 -105.5t104 -184t19 -260h-862q13 -145 117 -231.5t252 -86.5q91 0 182.5 33.5t138.5 91.5zM258 588h700q-4 143 -95.5 219t-244.5 76
q-138 0 -237 -76t-123 -219zM930 1442q2 -84 -46 -148t-117 -93.5t-144 -29.5q-135 0 -225 74t-83 197h131q0 -60 45.5 -102t131.5 -42q84 0 128 41t44 103h135z"/><glyph glyph-name="Edotaccent" unicode="Ė" horiz-adv-x="1335" d="M190 0v1434h1008v-164h-829v-449h794v-166h-794v-485h862v-170h-1041zM614 1702q0 41 23 69.5t56 35t66 -0.5t56 -35.5t23 -70.5q0 -41 -23 -69.5t-56 -35t-66 0.5t-56 35.5t-23 70.5z"/><glyph glyph-name="edotaccent" unicode="ė" horiz-adv-x="1198" d="M1063 156h-2q-76 -89 -194.5 -135t-243.5 -46q-238 0 -385.5 145t-147.5 390q0 229 147.5 376.5t376.5 147.5q118 0 215 -35.5t168 -105.5t104 -184t19 -260h-862q13 -145 117 -231.5t252 -86.5q91 0 182.5 33.5t138.5 91.5zM258 588h700q-4 143 -95.5 219t-244.5 76
q-138 0 -237 -76t-123 -219zM506 1350q0 41 23 69.5t56 35t65.5 -0.5t55.5 -35.5t23 -70.5q0 -41 -23 -69.5t-55.5 -35t-65.5 0.5t-56 35.5t-23 70.5z"/><glyph glyph-name="Eogonek" unicode="Ę" horiz-adv-x="1337" d="M190 0v1434h1008v-164h-829v-449h794v-166h-794v-485h862v-170q-87 -39 -154 -83.5t-104.5 -83.5t-60 -78.5t-28.5 -68.5t-3 -53q7 -41 39.5 -62.5t70.5 -21.5q63 0 107.5 15.5t93.5 56.5l76 -96q-45 -45 -121.5 -78t-151.5 -33q-112 0 -176.5 43t-83.5 111
q-27 108 44 223t255 209h-844z"/><glyph glyph-name="eogonek" unicode="ę" horiz-adv-x="1200" d="M1063 156h-2q-63 -71 -160 -119q-323 -204 -295 -404q7 -41 40 -62.5t71 -21.5q61 0 105 15.5t93 56.5l78 -96q-47 -46 -123 -78.5t-149 -32.5q-112 0 -176.5 43t-83.5 111q-15 62 -0.5 129.5t71 143.5t150.5 139q-58 -5 -59 -5q-238 0 -385.5 145t-147.5 390
q0 229 147.5 376.5t376.5 147.5q118 0 215 -35.5t168 -105.5t104 -184t19 -260h-862q13 -145 117 -231.5t252 -86.5q91 0 182.5 33.5t138.5 91.5zM258 588h700q-4 143 -95.5 219t-244.5 76q-138 0 -237 -76t-123 -219z"/><glyph glyph-name="Ecaron" unicode="Ě" horiz-adv-x="1335" d="M190 0v1434h1008v-164h-829v-449h794v-166h-794v-485h862v-170h-1041zM367 1841v12h172l174 -161l176 161h168v-12l-293 -270h-102z"/><glyph glyph-name="ecaron" unicode="ě" horiz-adv-x="1200" d="M1063 156h-2q-76 -89 -194.5 -135t-243.5 -46q-238 0 -385.5 145t-147.5 390q0 229 147.5 376.5t376.5 147.5q118 0 215 -35.5t168 -105.5t104 -184t19 -260h-862q13 -145 117 -231.5t252 -86.5q91 0 182.5 33.5t138.5 91.5zM258 588h700q-4 143 -95.5 219t-244.5 76
q-138 0 -237 -76t-123 -219zM281 1423v13h168l172 -160l174 160h163v-13l-288 -266h-101z"/><glyph glyph-name="Gcircumflex" unicode="Ĝ" horiz-adv-x="1519" d="M1378 1245l-104 -119q-85 80 -199 125t-225 45q-107 0 -199.5 -31.5t-159.5 -87.5t-115 -131t-71.5 -162.5t-23.5 -181.5q0 -112 35.5 -211.5t104 -179.5t180.5 -127t253 -47q222 0 391 148v340h-446v155h608v-567q-225 -242 -555 -242q-150 0 -274 39t-211 107t-147 161
t-88 200t-28 224q0 161 51 300t145.5 241t236 160.5t313.5 58.5q145 0 281 -55t247 -162zM774 1878h105l286 -266v-15h-170l-172 158l-168 -158h-172v15z"/><glyph glyph-name="gcircumflex" unicode="ĝ" horiz-adv-x="1253" d="M104 -150h160q0 -57 20 -104.5t54 -79.5t80.5 -54t98 -32t108.5 -10q69 0 129.5 13t113 40t83 75t30.5 112q0 78 -50.5 130.5t-127.5 73.5t-176 21q-242 0 -388.5 133t-146.5 367q0 97 31 180t83 140.5t121 98.5t145 60.5t155 19.5q75 0 153.5 -20t132.5 -58l109 136
l121 -99l-117 -133q67 -73 99 -147t32 -178q0 -137 -72 -251t-213 -161q279 -80 279 -311q0 -80 -29.5 -146t-79.5 -112t-117.5 -77.5t-143.5 -46t-158 -14.5q-153 0 -271.5 51t-185 150.5t-62.5 232.5zM256 535q3 -113 54 -194.5t133.5 -121t185.5 -39.5q159 0 261.5 101
t102.5 251q0 110 -52.5 191t-134 119.5t-179.5 38.5q-69 0 -134 -21.5t-118.5 -62.5t-86 -109t-32.5 -153zM580 1462h102l281 -260v-16h-166l-168 153l-166 -153h-168v16z"/><glyph glyph-name="Gbreve" unicode="Ğ" horiz-adv-x="1525" d="M1378 1245l-104 -119q-85 80 -199 125t-225 45q-107 0 -199.5 -31.5t-159.5 -87.5t-115 -131t-71.5 -162.5t-23.5 -181.5q0 -112 35.5 -211.5t104 -179.5t180.5 -127t253 -47q222 0 391 148v340h-446v155h608v-567q-225 -242 -555 -242q-150 0 -274 39t-211 107t-147 161
t-88 200t-28 224q0 161 51 300t145.5 241t236 160.5t313.5 58.5q145 0 281 -55t247 -162zM1147 1864q2 -84 -48 -148t-121.5 -93.5t-148.5 -29.5q-138 0 -230 74t-85 197h135q0 -60 46.5 -102t133.5 -42t133 41.5t46 102.5h139z"/><glyph glyph-name="gbreve" unicode="ğ" horiz-adv-x="1253" d="M104 -150h160q0 -57 20 -104.5t54 -79.5t80.5 -54t98 -32t108.5 -10q69 0 129.5 13t113 40t83 75t30.5 112q0 78 -50.5 130.5t-127.5 73.5t-176 21q-242 0 -388.5 133t-146.5 367q0 97 31 180t83 140.5t121 98.5t145 60.5t155 19.5q75 0 153.5 -20t132.5 -58l109 136
l121 -99l-117 -133q67 -73 99 -147t32 -178q0 -137 -72 -251t-213 -161q279 -80 279 -311q0 -80 -29.5 -146t-79.5 -112t-117.5 -77.5t-143.5 -46t-158 -14.5q-153 0 -271.5 51t-185 150.5t-62.5 232.5zM256 535q3 -113 54 -194.5t133.5 -121t185.5 -39.5q159 0 261.5 101
t102.5 251q0 110 -52.5 191t-134 119.5t-179.5 38.5q-69 0 -134 -21.5t-118.5 -62.5t-86 -109t-32.5 -153zM948 1452q1 -64 -27 -117t-75 -85.5t-102.5 -50t-112.5 -17.5q-138 0 -230.5 73.5t-85.5 196.5h136q0 -60 46.5 -101.5t133.5 -41.5t132.5 41t45.5 102h139z"/><glyph glyph-name="Gdotaccent" unicode="Ġ" horiz-adv-x="1523" d="M1378 1245l-104 -119q-85 80 -199 125t-225 45q-107 0 -199.5 -31.5t-159.5 -87.5t-115 -131t-71.5 -162.5t-23.5 -181.5q0 -112 35.5 -211.5t104 -179.5t180.5 -127t253 -47q222 0 391 148v340h-446v155h608v-567q-225 -242 -555 -242q-150 0 -274 39t-211 107t-147 161
t-88 200t-28 224q0 161 51 300t145.5 241t236 160.5t313.5 58.5q145 0 281 -55t247 -162zM735 1708q0 41 23 69.5t55.5 35t65.5 -0.5t56 -35.5t23 -70.5q0 -41 -23 -69.5t-56 -35t-65.5 0.5t-55.5 35.5t-23 70.5z"/><glyph glyph-name="gdotaccent" unicode="ġ" horiz-adv-x="1255" d="M104 -150h160q0 -57 20 -104.5t54 -79.5t80.5 -54t98 -32t108.5 -10q69 0 129.5 13t113 40t83 75t30.5 112q0 78 -50.5 130.5t-127.5 73.5t-176 21q-242 0 -388.5 133t-146.5 367q0 97 31 180t83 140.5t121 98.5t145 60.5t155 19.5q75 0 153.5 -20t132.5 -58l109 136
l121 -99l-117 -133q67 -73 99 -147t32 -178q0 -137 -72 -251t-213 -161q279 -80 279 -311q0 -80 -29.5 -146t-79.5 -112t-117.5 -77.5t-143.5 -46t-158 -14.5q-153 0 -271.5 51t-185 150.5t-62.5 232.5zM256 535q3 -113 54 -194.5t133.5 -121t185.5 -39.5q159 0 261.5 101
t102.5 251q0 110 -52.5 191t-134 119.5t-179.5 38.5q-69 0 -134 -21.5t-118.5 -62.5t-86 -109t-32.5 -153zM539 1348q0 41 23 69.5t55.5 35t65.5 -0.5t56 -35.5t23 -70.5q0 -41 -23 -69.5t-56 -35t-65.5 0.5t-55.5 35.5t-23 70.5z"/><glyph glyph-name="Gcommaaccent" unicode="Ģ" horiz-adv-x="1525" d="M1378 1245l-104 -119q-85 80 -199 125t-225 45q-107 0 -199.5 -31.5t-159.5 -87.5t-115 -131t-71.5 -162.5t-23.5 -181.5q0 -112 35.5 -211.5t104 -179.5t180.5 -127t253 -47q222 0 391 148v340h-446v155h608v-567q-225 -242 -555 -242q-150 0 -274 39t-211 107t-147 161
t-88 200t-28 224q0 161 51 300t145.5 241t236 160.5t313.5 58.5q145 0 281 -55t247 -162zM793 -395l2 4q-32 8 -52 31.5t-20 58.5q0 41 23 68.5t55.5 33t64.5 -1.5t55 -35t23 -69q0 -7 -14 -46.5t-38 -106.5t-40 -122h-111z"/><glyph glyph-name="gcommaaccent" unicode="ģ" horiz-adv-x="1253" d="M684 1382l-2 -2q35 -8 56.5 -32t21.5 -60q0 -40 -22.5 -66.5t-55 -32.5t-64.5 1t-54.5 35t-22.5 69q0 15 34 106.5t56 131.5h112zM104 -150h160q0 -57 20 -104.5t54 -79.5t80.5 -54t98 -32t108.5 -10q69 0 129.5 13t113 40t83 75t30.5 112q0 78 -50.5 130.5t-127.5 73.5
t-176 21q-242 0 -388.5 133t-146.5 367q0 97 31 180t83 140.5t121 98.5t145 60.5t155 19.5q75 0 153.5 -20t132.5 -58l109 136l121 -99l-117 -133q67 -73 99 -147t32 -178q0 -137 -72 -251t-213 -161q279 -80 279 -311q0 -80 -29.5 -146t-79.5 -112t-117.5 -77.5t-143.5 -46
t-158 -14.5q-153 0 -271.5 51t-185 150.5t-62.5 232.5zM256 535q3 -113 54 -194.5t133.5 -121t185.5 -39.5q159 0 261.5 101t102.5 251q0 110 -52.5 191t-134 119.5t-179.5 38.5q-69 0 -134 -21.5t-118.5 -62.5t-86 -109t-32.5 -153z"/><glyph glyph-name="Hcircumflex" unicode="Ĥ" horiz-adv-x="1564" d="M1190 0v647h-819v-647h-181v1434h181v-621h819v621h176v-1434h-176zM727 1872h107l294 -273v-16h-174l-176 162l-174 -162h-176v16z"/><glyph glyph-name="hcircumflex" unicode="ĥ" horiz-adv-x="1222" d="M336 1434v-2v-588q126 187 334 190q207 0 310 -125.5t103 -343.5v-565h-168v565q0 150 -68 229.5t-204 79.5q-137 0 -220 -97t-83 -240v-537h-168v1434h164zM496 1825h102l289 -266v-15h-170l-172 158l-170 -158h-172v15z"/><glyph glyph-name="Hbar" unicode="Ħ" horiz-adv-x="1589" d="M49 1071v121h160v242h178v-242h819v242h178v-242h156v-121h-156v-1071h-178v647h-819v-647h-178v1071h-160zM387 813h819v258h-819v-258z"/><glyph glyph-name="hbar" unicode="ħ" horiz-adv-x="1222" d="M336 1434v-150h287v-113h-287v-327q126 187 334 190q207 0 310 -125.5t103 -343.5v-565h-168v565q0 150 -68 229.5t-204 79.5q-137 0 -220 -97t-83 -240v-537h-168v1171h-147v113h147v150h164z"/><glyph glyph-name="Itilde" unicode="Ĩ" horiz-adv-x="563" d="M190 0v1434h181v-1434h-181zM-4 1642l-2 7q22 90 86 129.5t147 11.5q13 -1 59 -26t56 -27q80 -30 107 53l106 -47q-25 -99 -88.5 -134t-138.5 -7q-13 2 -60 26.5t-53 26.5q-83 29 -113 -58z"/><glyph glyph-name="itilde" unicode="ĩ" horiz-adv-x="483" d="M328 1012v-1012h-174v1012h174zM0 1300l-2 7q20 87 76.5 125t128.5 12q11 -1 51.5 -25.5t48.5 -27.5q69 -26 92 53l94 -45q-22 -97 -77.5 -131t-120.5 -6q-11 2 -51 24.5t-47 24.5q-69 32 -101 -56z"/><glyph glyph-name="Imacron" unicode="Ī" horiz-adv-x="563" d="M190 0v1434h181v-1434h-181zM8 1735h539v-140h-539v140z"/><glyph glyph-name="imacron" unicode="ī" horiz-adv-x="483" d="M328 1012v-1012h-174v1012h174zM0 1425h479v-143h-479v143z"/><glyph glyph-name="Ibreve" unicode="Ĭ" horiz-adv-x="563" d="M190 0v1434h181v-1434h-181zM580 1831q1 -62 -25.5 -113t-70.5 -82t-96.5 -48t-106.5 -17q-131 0 -217.5 70t-79.5 190h127q0 -59 43.5 -99t126.5 -40t125.5 39.5t42.5 99.5h131z"/><glyph glyph-name="ibreve" unicode="ĭ" horiz-adv-x="483" d="M328 1012v-1012h-174v1012h174zM522 1434q1 -62 -23.5 -112.5t-66 -81.5t-90.5 -47.5t-100 -16.5q-124 0 -206 70t-75 188h119q0 -57 42 -97.5t120 -40.5q77 0 117 39.5t40 98.5h123z"/><glyph glyph-name="Iogonek" unicode="Į" horiz-adv-x="561" d="M190 0v1434h181v-1434h-4q-135 -80 -187 -215q-41 -105 -10 -179q24 -59 82 -59q55 0 94.5 15.5t81.5 56.5l64 -96q-39 -46 -104.5 -78.5t-129.5 -32.5q-74 0 -128 29.5t-80.5 77.5t-30 111t16.5 127.5t65.5 129t111.5 113.5h-23z"/><glyph glyph-name="iogonek" unicode="į" horiz-adv-x="477" d="M154 0v1016h168v-1016q-134 -101 -179 -242q-34 -106 1 -169q24 -41 69 -42q45 0 80 16t72 56l55 -98q-34 -45 -92 -78t-111 -33q-82 0 -137 38.5t-72.5 102.5t-7 140t58 158.5t123.5 150.5h-28zM129 1321q0 51 32.5 80t78.5 29q44 0 78 -29.5t34 -81.5t-34 -79.5
t-78 -27.5q-46 0 -78.5 28.5t-32.5 80.5z"/><glyph glyph-name="Idotaccent" unicode="İ" horiz-adv-x="563" d="M172 1696q0 43 23 72t56 36t65.5 0t55.5 -36t23 -72q0 -41 -23 -69t-55.5 -34.5t-65.5 0t-56 34.5t-23 69zM190 0v1434h181v-1434h-181z"/><glyph glyph-name="dotlessi" unicode="ı" horiz-adv-x="483" d="M328 1012v-1012h-174v1012h174z"/><glyph glyph-name="IJ" unicode="Ĳ" horiz-adv-x="1970" d="M190 0v1434h181v-1434h-181zM1796 573q4 -270 -160 -436t-432 -166q-173 0 -307 71t-210.5 207t-76.5 316h174q0 -196 114.5 -312t305.5 -116t304.5 119.5t113.5 316.5v697h-502v164h676v-861z"/><glyph glyph-name="ij" unicode="ĳ" horiz-adv-x="1060" d="M184 1321q0 51 32.5 80t78.5 29q44 0 78.5 -29.5t34.5 -81.5t-34 -79.5t-79 -27.5q-46 0 -78.5 28.5t-32.5 80.5zM209 0v1010h168v-1010h-168zM711 1327q0 51 32 80t78 29q44 0 78.5 -29.5t34.5 -81.5q0 -50 -34.5 -78t-78.5 -28q-46 0 -78 28.5t-32 79.5zM735 1010h2
h166v-1143q0 -182 -69 -276.5t-230 -94.5q-112 0 -198 55l53 138q86 -35 137 -35q83 0 111 54t28 159v1143z"/><glyph glyph-name="Jcircumflex" unicode="Ĵ" horiz-adv-x="1411" d="M1235 573q4 -270 -160 -436t-432 -166q-173 0 -307 71t-210.5 207t-76.5 316h174q0 -196 114.5 -312t305.5 -116t304.5 119.5t113.5 316.5v697h-502v164h676v-861zM795 1870h106l295 -273v-16h-174l-176 162l-174 -162h-176v16z"/><glyph glyph-name="jcircumflex" unicode="ĵ" horiz-adv-x="475" d="M-51 1176l246 272h90l245 -272v-15h-147l-143 158l-144 -158h-147v15zM319 -133l3 2q2 -184 -67.5 -278.5t-231.5 -94.5q-105 0 -199 55l53 138q76 -40 137 -35q44 0 72.5 15t43 46t19.5 66t5 86v1147h165v-1147z"/><glyph glyph-name="Kcommaaccent" unicode="Ķ" horiz-adv-x="1282" d="M657 -406l2 5q-32 8 -51.5 31t-19.5 59q0 41 23 68.5t55 33t64.5 -1.5t55.5 -35t23 -69q0 -7 -14 -46.5t-38 -106.5t-40 -122h-111zM190 0v1434h179v-633l630 633h228v-11l-690 -680l749 -731v-12h-219l-698 674v-674h-179z"/><glyph glyph-name="kcommaaccent" unicode="ķ" horiz-adv-x="1015" d="M319 1434v-848l416 426h209v-13l-465 -464l520 -523v-12h-202l-478 479v-479h-165v1434h165zM502 -416l2 4q-32 8 -51 29.5t-19 54.5q0 38 21.5 63.5t52.5 31t62.5 -1t53 -33t21.5 -64.5q0 -7 -13.5 -43t-36 -98t-38.5 -113h-104z"/><glyph glyph-name="kgreenlandic" unicode="ĸ" horiz-adv-x="1015" d="M319 1012v-426l416 426h209v-13l-465 -464l520 -523v-12h-202l-478 479v-479h-165v1012h165z"/><glyph glyph-name="Lacute" unicode="Ĺ" horiz-adv-x="1187" d="M371 1434v-1268h780v-166h-961v1434h181zM193 1579v12l151 258h209v-6l-207 -264h-153z"/><glyph glyph-name="lacute" unicode="ĺ" horiz-adv-x="499" d="M332 1434v-1434h-166v1434h166zM154 1579v10l133 238h186v-6l-184 -242h-135z"/><glyph glyph-name="Lcommaaccent" unicode="Ļ" horiz-adv-x="1187" d="M371 1434v-1268h780v-166h-961v1434h181zM641 -401l2 4q-32 8 -52 31.5t-20 58.5q0 41 23 68.5t55.5 33t65 -1.5t55.5 -35t23 -69q0 -7 -14.5 -46.5t-38.5 -106.5t-40 -122h-110z"/><glyph glyph-name="lcommaaccent" unicode="ļ" horiz-adv-x="499" d="M332 1434v-1434h-166v1434h166zM211 -401l2 4q-32 8 -52 31.5t-20 58.5q0 41 23 68.5t55.5 33t64.5 -1.5t55 -35t23 -69q0 -7 -14 -46.5t-38 -106.5t-40 -122h-110z"/><glyph glyph-name="Lcaron" unicode="Ľ" horiz-adv-x="1191" d="M848 1425h174l-131 -360h-131zM371 1434v-1268h780v-166h-961v1434h181z"/><glyph glyph-name="lcaron" unicode="ľ" horiz-adv-x="606" d="M512 1436h168l-129 -363h-127zM332 1434v-1434h-166v1434h166z"/><glyph glyph-name="Ldot" unicode="Ŀ" horiz-adv-x="1189" d="M371 1434v-1268h780v-166h-961v1434h181zM633 735q0 42 24.5 70.5t59.5 35.5t69.5 0t59 -36t24.5 -72t-24.5 -72t-59 -36t-69.5 0t-59.5 37t-24.5 73z"/><glyph glyph-name="ldot" unicode="ŀ" horiz-adv-x="788" d="M492 621q0 42 24.5 70.5t59 35t69.5 -0.5t59.5 -36t24.5 -72t-24.5 -72t-59.5 -35.5t-69.5 0.5t-59 37t-24.5 73zM332 1434v-1434h-166v1434h166z"/><glyph glyph-name="Lslash" unicode="Ł" horiz-adv-x="1204" d="M383 1434v-678l453 202v-141l-453 -203v-448h780v-166h-958v537l-176 -80v139l176 80v758h178z"/><glyph glyph-name="lslash" unicode="ł" horiz-adv-x="563" d="M362 1434v-646l175 80v-139l-175 -78v-651h-169v580l-166 -72v133l166 74v719h169z"/><glyph glyph-name="Nacute" unicode="Ń" horiz-adv-x="1560" d="M190 1434h125l879 -1100v1100h176v-1434h-123l-878 1096v-1096h-179v1434zM662 1583v12l151 258h209v-6l-207 -264h-153z"/><glyph glyph-name="nacute" unicode="ń" horiz-adv-x="1232" d="M174 0v1010h154l8 -158q125 182 342 182q194 0 312 -124.5t118 -348.5v-561h-170v559q0 154 -74 236t-219 82q-135 0 -220 -97.5t-85 -236.5v-543h-166zM526 1178v12l144 244h196v-7l-194 -249h-146z"/><glyph glyph-name="Ncommaaccent" unicode="Ņ" horiz-adv-x="1560" d="M190 1434h125l879 -1100v1100h176v-1434h-123l-878 1096v-1096h-179v1434zM737 -401l2 4q-32 8 -51.5 31t-19.5 59q0 41 23 68.5t55 33t64.5 -1.5t55.5 -35t23 -69q0 -7 -14 -46.5t-38 -106.5t-40 -122h-111z"/><glyph glyph-name="ncommaaccent" unicode="ņ" horiz-adv-x="1241" d="M174 0v1010h154l8 -158q125 182 342 182q194 0 312 -124.5t118 -348.5v-561h-170v559q0 154 -74 236t-219 82q-135 0 -220 -97.5t-85 -236.5v-543h-166zM606 -401l2 4q-32 8 -51.5 31t-19.5 59q0 41 23 68.5t55.5 33t64.5 -1.5t55 -35t23 -69q0 -7 -14 -46.5t-38 -106.5
t-40 -122h-111z"/><glyph glyph-name="Ncaron" unicode="Ň" horiz-adv-x="1560" d="M190 1434h125l879 -1100v1100h176v-1434h-123l-878 1096v-1096h-179v1434zM430 1849v13h174l178 -166l181 166h170v-13l-299 -276h-105z"/><glyph glyph-name="ncaron" unicode="ň" horiz-adv-x="1245" d="M174 0v1010h154l8 -158q125 182 342 182q194 0 312 -124.5t118 -348.5v-561h-170v559q0 154 -74 236t-219 82q-135 0 -220 -97.5t-85 -236.5v-543h-166zM330 1442v10h164l168 -156l172 156h159v-10l-282 -262h-99z"/><glyph glyph-name="napostrophe" unicode="ŉ" horiz-adv-x="1245" d="M174 0v1010h154l8 -158q125 182 342 182q194 0 312 -124.5t118 -348.5v-561h-170v559q0 154 -74 236t-219 82q-135 0 -220 -97.5t-85 -236.5v-543h-166z"/><glyph glyph-name="Eng" unicode="Ŋ" horiz-adv-x="1560" d="M190 1434h125l879 -1100v1100h176v-1485q2 -180 -68 -275.5t-229 -95.5q-100 0 -199 55l58 138q65 -36 135 -33q44 0 72.5 14.5t42.5 45t19 65t5 86.5v102l-837 1045v-1096h-179v1434z"/><glyph glyph-name="eng" unicode="ŋ" horiz-adv-x="1265" d="M174 0v1014h154l8 -162q125 182 342 182q194 0 312 -124.5t118 -348.5v-610q3 -178 -67 -273.5t-232 -95.5q-101 0 -191 56l56 137q67 -36 127 -33q44 0 72 14.5t42 45t18.5 64.5t4.5 87v606q0 154 -74 236t-219 82q-135 0 -220 -97.5t-85 -236.5v-543h-166z"/><glyph glyph-name="Omacron" unicode="Ō" horiz-adv-x="1656" d="M831 1462q141 0 261 -41.5t204.5 -113t143.5 -167t87.5 -204t28.5 -223.5t-28 -222t-87.5 -202t-144 -165.5t-205 -111.5t-262.5 -41q-144 0 -265 41t-206 111t-144.5 165t-87.5 202.5t-28 222.5q0 156 51.5 293t144.5 238t232 159.5t305 58.5zM1380 713q0 88 -20.5 171
t-65 157.5t-108 130.5t-155 90t-200.5 36q-133 0 -240 -47.5t-174 -129t-102.5 -186t-35.5 -222.5q0 -88 21 -171t65.5 -156.5t108 -129t155.5 -87.5t202 -32t201.5 33t155 88.5t107.5 129.5t64.5 156t20.5 169zM500 1776h669v-144h-669v144z"/><glyph glyph-name="omacron" unicode="ō" horiz-adv-x="1220" d="M84 504q0 233 148.5 381.5t375.5 148.5q231 0 380 -148t149 -382q0 -233 -150 -381t-379 -148q-228 0 -376 147.5t-148 381.5zM969 504q0 165 -102.5 270t-256.5 105q-155 0 -257.5 -104.5t-102.5 -270.5q0 -163 101.5 -267t256.5 -104q157 0 259 103.5t102 267.5z
M313 1399h605v-139h-605v139z"/><glyph glyph-name="Obreve" unicode="Ŏ" horiz-adv-x="1656" d="M831 1462q141 0 261 -41.5t204.5 -113t143.5 -167t87.5 -204t28.5 -223.5t-28 -222t-87.5 -202t-144 -165.5t-205 -111.5t-262.5 -41q-144 0 -265 41t-206 111t-144.5 165t-87.5 202.5t-28 222.5q0 156 51.5 293t144.5 238t232 159.5t305 58.5zM1380 713q0 88 -20.5 171
t-65 157.5t-108 130.5t-155 90t-200.5 36q-133 0 -240 -47.5t-174 -129t-102.5 -186t-35.5 -222.5q0 -88 21 -171t65.5 -156.5t108 -129t155.5 -87.5t202 -32t201.5 33t155 88.5t107.5 129.5t64.5 156t20.5 169zM1155 1872q1 -66 -27 -120.5t-75 -88.5t-102.5 -52
t-112.5 -18q-139 0 -232 76t-86 203h135q0 -62 47 -105t136 -43q87 0 132.5 42.5t45.5 105.5h139z"/><glyph glyph-name="obreve" unicode="ŏ" horiz-adv-x="1220" d="M84 504q0 233 148.5 381.5t375.5 148.5q231 0 380 -148t149 -382q0 -233 -150 -381t-379 -148q-228 0 -376 147.5t-148 381.5zM969 504q0 165 -102.5 270t-256.5 105q-155 0 -257.5 -104.5t-102.5 -270.5q0 -163 101.5 -267t256.5 -104q157 0 259 103.5t102 267.5z
M913 1434q1 -63 -25.5 -115.5t-70.5 -84.5t-97 -49.5t-106 -17.5q-130 0 -217 72.5t-80 194.5h127q0 -59 43.5 -100.5t126.5 -41.5t125.5 41t42.5 101h131z"/><glyph glyph-name="Ohungarumlaut" unicode="Ő" horiz-adv-x="1656" d="M831 1462q141 0 261 -41.5t204.5 -113t143.5 -167t87.5 -204t28.5 -223.5t-28 -222t-87.5 -202t-144 -165.5t-205 -111.5t-262.5 -41q-144 0 -265 41t-206 111t-144.5 165t-87.5 202.5t-28 222.5q0 156 51.5 293t144.5 238t232 159.5t305 58.5zM1380 713q0 88 -20.5 171
t-65 157.5t-108 130.5t-155 90t-200.5 36q-133 0 -240 -47.5t-174 -129t-102.5 -186t-35.5 -222.5q0 -88 21 -171t65.5 -156.5t108 -129t155.5 -87.5t202 -32t201.5 33t155 88.5t107.5 129.5t64.5 156t20.5 169zM551 1589l164 254h194v-4l-209 -250h-149zM868 1587l164 256
h191v-4l-209 -252h-146z"/><glyph glyph-name="ohungarumlaut" unicode="ő" horiz-adv-x="1218" d="M84 504q0 233 148.5 381.5t375.5 148.5q231 0 380 -148t149 -382q0 -233 -150 -381t-379 -148q-228 0 -376 147.5t-148 381.5zM969 504q0 165 -102.5 270t-256.5 105q-155 0 -257.5 -104.5t-102.5 -270.5q0 -163 101.5 -267t256.5 -104q157 0 259 103.5t102 267.5z
M367 1198l157 229h187v-4l-201 -225h-143zM672 1196l157 231h183v-4l-201 -227h-139z"/><glyph glyph-name="OE" unicode="Œ" horiz-adv-x="2021" d="M1014 0v-2q-86 -21 -185 -21q-142 0 -261.5 38.5t-205 107t-145 162.5t-88.5 204t-29 232q0 153 47 284.5t136 231.5t229.5 157.5t316.5 57.5q46 0 105.5 -6.5t81.5 -11.5h878v-172h-714v-457h678v-170h-678v-461h733v-174h-899zM1014 1274v2q-85 29 -185 29
q-133 0 -238.5 -47t-172 -128.5t-101 -186.5t-34.5 -226q0 -112 35.5 -215t102.5 -186.5t174 -133t239 -49.5q106 0 180 25v1116z"/><glyph glyph-name="oe" unicode="œ" horiz-adv-x="2041" d="M1901 162h-3q-74 -89 -189.5 -134.5t-242.5 -45.5q-149 0 -262 68t-170 190q-62 -124 -171.5 -190t-254.5 -66q-229 0 -373.5 146t-144.5 376q0 231 145.5 379.5t372.5 148.5q145 0 257 -68.5t171 -191.5q55 118 167 189t257 71q118 0 214 -36.5t165.5 -107.5t102 -185.5
t18.5 -260.5q-84 0 -423.5 -1t-422.5 -1q17 -142 112.5 -224.5t243.5 -82.5q89 0 179 34.5t141 92.5zM1802 582v-2q-6 145 -97.5 224t-242.5 79q-137 0 -231.5 -78t-118.5 -223h690zM256 502h2q0 -159 99.5 -263t252.5 -104q155 0 251.5 103.5t96.5 263.5q0 163 -98 267.5
t-250 104.5q-154 0 -254 -105t-100 -267z"/><glyph glyph-name="Racute" unicode="Ŕ" horiz-adv-x="1462" d="M1163 0l-446 518h-346v-518h-181v1434h652q117 0 211 -38.5t153 -103.5t90 -146.5t31 -170.5q0 -66 -14 -126.5t-45.5 -116t-78 -97.5t-117 -70t-157.5 -35l474 -530h-226zM371 676h463q154 0 235.5 83t81.5 212q0 43 -12 85.5t-37 82t-60.5 69.5t-87 48t-112.5 18h-471
v-598zM606 1591v13l152 258h209v-7l-207 -264h-154z"/><glyph glyph-name="racute" unicode="ŕ" horiz-adv-x="874" d="M309 1010l15 -148q97 172 311 172q119 3 235 -80l-75 -143q-80 57 -177 57q-125 0 -210.5 -84t-85.5 -219v-565h-168v1010h155zM397 1186v10l140 238h190v-7l-188 -241h-142z"/><glyph glyph-name="Rcommaaccent" unicode="Ŗ" horiz-adv-x="1462" d="M1163 0l-446 518h-346v-518h-181v1434h652q117 0 211 -38.5t153 -103.5t90 -146.5t31 -170.5q0 -66 -14 -126.5t-45.5 -116t-78 -97.5t-117 -70t-157.5 -35l474 -530h-226zM371 676h463q154 0 235.5 83t81.5 212q0 43 -12 85.5t-37 82t-60.5 69.5t-87 48t-112.5 18h-471
v-598zM698 -401l2 4q-32 8 -51.5 31t-19.5 59q0 41 23 68.5t55.5 33t64.5 -1.5t55 -35t23 -69q0 -7 -14 -46.5t-38 -106.5t-40 -122h-111z"/><glyph glyph-name="rcommaaccent" unicode="ŗ" horiz-adv-x="876" d="M309 1010l15 -148q97 172 311 172q119 3 235 -80l-75 -143q-80 57 -177 57q-125 0 -210.5 -84t-85.5 -219v-565h-168v1010h155zM211 -399l2 4q-32 8 -52 31.5t-20 58.5q0 41 23 68.5t55.5 33t64.5 -1.5t55 -35t23 -69q0 -7 -14 -46.5t-38 -106.5t-40 -122h-110z"/><glyph glyph-name="Rcaron" unicode="Ř" horiz-adv-x="1462" d="M1163 0l-446 518h-346v-518h-181v1434h652q117 0 211 -38.5t153 -103.5t90 -146.5t31 -170.5q0 -66 -14 -126.5t-45.5 -116t-78 -97.5t-117 -70t-157.5 -35l474 -530h-226zM371 676h463q154 0 235.5 83t81.5 212q0 43 -12 85.5t-37 82t-60.5 69.5t-87 48t-112.5 18h-471
v-598zM371 1851v13h168l172 -160l174 160h164v-13l-289 -266h-101z"/><glyph glyph-name="rcaron" unicode="ř" horiz-adv-x="876" d="M309 1010l15 -148q97 172 311 172q119 3 235 -80l-75 -143q-80 57 -177 57q-125 0 -210.5 -84t-85.5 -219v-565h-168v1010h155zM186 1423v13h160l164 -154l166 154h155v-13l-274 -254h-96z"/><glyph glyph-name="Sacute" unicode="Ś" horiz-adv-x="1361" d="M1092 1114q-59 90 -169 138.5t-237 50.5q-95 0 -178.5 -25.5t-141 -81.5t-57.5 -133q0 -46 21 -82.5t54.5 -60.5t86.5 -43.5t104.5 -31t122.5 -22.5q70 -11 122 -21t115 -27t108 -38t90 -52.5t72.5 -70.5t45 -92.5t17.5 -118.5q0 -94 -35 -169t-92 -123.5t-134.5 -80.5
t-157.5 -45.5t-165 -13.5q-94 0 -180.5 18t-168 55t-147.5 103t-106 154l141 88q70 -128 190 -191t273 -63q56 0 109.5 7.5t109 27t96.5 49t67 78t26 109.5q0 51 -23.5 91.5t-59.5 66.5t-93.5 47t-111 32.5t-126.5 22.5q-69 11 -118 20.5t-110.5 26t-103.5 35.5t-85.5 49
t-70 66t-43 86.5t-16.5 111.5q-2 83 31.5 152t89 114.5t128.5 76.5t148.5 44.5t151.5 13.5q384 0 545 -264zM588 1610v12l151 258h209v-6l-207 -264h-153z"/><glyph glyph-name="sacute" unicode="ś" horiz-adv-x="1021" d="M901 899l-98 -113q-62 56 -130 77.5t-153 21.5q-111 0 -181.5 -38t-70.5 -110q0 -31 15 -55t37.5 -39t58.5 -26.5t68 -17t75 -11.5q38 -5 63 -8.5t64 -11t65.5 -15.5t60.5 -21t57 -28.5t47 -38t37.5 -49t22 -61.5t7.5 -76q-3 -99 -61.5 -169t-151 -102.5t-209.5 -32.5
q-311 0 -456 189l100 112q61 -78 157 -112.5t201 -34.5q46 0 87.5 7.5t80 24t62.5 48.5t26 76q0 76 -70.5 112.5t-201.5 51.5q-65 7 -117.5 17.5t-108 32t-93 51.5t-61.5 78t-24 109q0 78 36 137.5t96 93t131 50t149 16.5q230 0 383 -135zM416 1182v12l141 242h195v-6
l-193 -248h-143z"/><glyph glyph-name="Scircumflex" unicode="Ŝ" horiz-adv-x="1359" d="M1092 1114q-59 90 -169 138.5t-237 50.5q-95 0 -178.5 -25.5t-141 -81.5t-57.5 -133q0 -46 21 -82.5t54.5 -60.5t86.5 -43.5t104.5 -31t122.5 -22.5q70 -11 122 -21t115 -27t108 -38t90 -52.5t72.5 -70.5t45 -92.5t17.5 -118.5q0 -94 -35 -169t-92 -123.5t-134.5 -80.5
t-157.5 -45.5t-165 -13.5q-94 0 -180.5 18t-168 55t-147.5 103t-106 154l141 88q70 -128 190 -191t273 -63q56 0 109.5 7.5t109 27t96.5 49t67 78t26 109.5q0 51 -23.5 91.5t-59.5 66.5t-93.5 47t-111 32.5t-126.5 22.5q-69 11 -118 20.5t-110.5 26t-103.5 35.5t-85.5 49
t-70 66t-43 86.5t-16.5 111.5q-2 83 31.5 152t89 114.5t128.5 76.5t148.5 44.5t151.5 13.5q384 0 545 -264zM653 1894h107l295 -272v-16h-174l-176 161l-175 -161h-176v16z"/><glyph glyph-name="scircumflex" unicode="ŝ" horiz-adv-x="1021" d="M901 899l-98 -113q-62 56 -130 77.5t-153 21.5q-111 0 -181.5 -38t-70.5 -110q0 -31 15 -55t37.5 -39t58.5 -26.5t68 -17t75 -11.5q38 -5 63 -8.5t64 -11t65.5 -15.5t60.5 -21t57 -28.5t47 -38t37.5 -49t22 -61.5t7.5 -76q-3 -99 -61.5 -169t-151 -102.5t-209.5 -32.5
q-311 0 -456 189l100 112q61 -78 157 -112.5t201 -34.5q46 0 87.5 7.5t80 24t62.5 48.5t26 76q0 76 -70.5 112.5t-201.5 51.5q-65 7 -117.5 17.5t-108 32t-93 51.5t-61.5 78t-24 109q0 78 36 137.5t96 93t131 50t149 16.5q230 0 383 -135zM477 1438h101l278 -258v-17h-164
l-168 154l-164 -154h-167v17z"/><glyph glyph-name="Scedilla" unicode="Ş" horiz-adv-x="1357" d="M1092 1114q-59 90 -168.5 137t-237.5 49q-96 0 -179 -24.5t-140.5 -80t-57.5 -132.5q0 -46 21 -82.5t54.5 -60.5t86.5 -43.5t104.5 -31t122.5 -22.5q70 -11 122 -21t115 -27t108 -38t90 -52.5t72.5 -70.5t45 -92.5t17.5 -118.5q0 -87 -30 -158t-79 -118.5t-117 -81
t-139.5 -50.5t-150.5 -22l-35 -106q129 -3 185.5 -75t29.5 -179q-23 -97 -100 -148t-191 -51q-76 0 -142 31t-106 90l84 88q68 -74 164 -74q119 0 141 99q13 59 -35 90.5t-155 9.5l-35 35l61 192q-178 10 -321.5 90t-214.5 236l141 88q70 -128 190 -191t273 -63
q56 0 109.5 7.5t109 27t96.5 49t67 78t26 109.5q0 51 -23.5 91.5t-59.5 66.5t-93.5 47t-111 32.5t-126.5 22.5q-69 11 -118 20.5t-110.5 26t-103.5 35.5t-85.5 49t-70 66t-43 86.5t-16.5 111.5q-2 83 31.5 152t89 114t128.5 75.5t148.5 44t151.5 13.5q84 0 156 -11.5
t144.5 -39.5t135 -81.5t109.5 -129.5z"/><glyph glyph-name="scedilla" unicode="ş" horiz-adv-x="1021" d="M901 899l-98 -113q-62 56 -130 77.5t-153 21.5q-111 0 -181.5 -38t-70.5 -110q0 -31 15 -55t37.5 -39t58.5 -26.5t68 -17t75 -11.5q38 -5 63 -8.5t64 -11t65.5 -15.5t60.5 -21t57 -28.5t47 -38t37.5 -49t22 -61.5t7.5 -76q-4 -132 -102 -207t-254 -88l-41 -115
q131 -4 187.5 -73.5t29.5 -170.5q-23 -91 -101 -139.5t-194 -48.5q-77 0 -144.5 29t-109.5 83l86 84q70 -67 168 -67q125 0 143 94q13 55 -35.5 86t-156.5 12l-37 31l70 193q-260 21 -387 186l100 113q61 -78 157 -113t201 -35q47 0 87.5 7t79.5 22.5t63 47t26 75.5
q0 76 -70.5 112.5t-201.5 51.5q-65 7 -117.5 17.5t-108 32t-93 51.5t-61.5 78t-24 109q0 78 36 137.5t96 93t131 50t149 16.5q230 0 383 -135z"/><glyph glyph-name="Scaron" unicode="Š" horiz-adv-x="1359" d="M1092 1114q-59 90 -169 138.5t-237 50.5q-95 0 -178.5 -25.5t-141 -81.5t-57.5 -133q0 -46 21 -82.5t54.5 -60.5t86.5 -43.5t104.5 -31t122.5 -22.5q70 -11 122 -21t115 -27t108 -38t90 -52.5t72.5 -70.5t45 -92.5t17.5 -118.5q0 -94 -35 -169t-92 -123.5t-134.5 -80.5
t-157.5 -45.5t-165 -13.5q-94 0 -180.5 18t-168 55t-147.5 103t-106 154l141 88q70 -128 190 -191t273 -63q56 0 109.5 7.5t109 27t96.5 49t67 78t26 109.5q0 51 -23.5 91.5t-59.5 66.5t-93.5 47t-111 32.5t-126.5 22.5q-69 11 -118 20.5t-110.5 26t-103.5 35.5t-85.5 49
t-70 66t-43 86.5t-16.5 111.5q-2 83 31.5 152t89 114.5t128.5 76.5t148.5 44.5t151.5 13.5q384 0 545 -264zM350 1876v12h174l178 -166l181 166h170v-12l-299 -277h-105z"/><glyph glyph-name="scaron" unicode="š" horiz-adv-x="1021" d="M901 899l-98 -113q-62 56 -130 77.5t-153 21.5q-111 0 -181.5 -38t-70.5 -110q0 -31 15 -55t37.5 -39t58.5 -26.5t68 -17t75 -11.5q38 -5 63 -8.5t64 -11t65.5 -15.5t60.5 -21t57 -28.5t47 -38t37.5 -49t22 -61.5t7.5 -76q-3 -99 -61.5 -169t-151 -102.5t-209.5 -32.5
q-311 0 -456 189l100 112q61 -78 157 -112.5t201 -34.5q46 0 87.5 7.5t80 24t62.5 48.5t26 76q0 76 -70.5 112.5t-201.5 51.5q-65 7 -117.5 17.5t-108 32t-93 51.5t-61.5 78t-24 109q0 78 36 137.5t96 93t131 50t149 16.5q230 0 383 -135zM190 1423v13h164l166 -156l170 156
h158v-13l-279 -260h-98z"/><glyph glyph-name="Tcommaaccent" unicode="Ţ" horiz-adv-x="1226" d="M526 1274h-491v160h1155v-160h-490v-1274h-174v1274zM573 -401l2 4q-32 8 -51.5 31t-19.5 59q0 41 23 68.5t55 33t64.5 -1.5t55.5 -35t23 -69q0 -7 -14 -46.5t-38 -106.5t-40 -122h-111z"/><glyph glyph-name="tcommaaccent" unicode="ţ" horiz-adv-x="813" d="M440 1307v-291h312v-144h-314v-553q0 -95 36 -144.5t124 -49.5q59 0 139 39l49 -139q-100 -47 -196 -50q-161 -4 -240.5 85t-79.5 259v553h-202v144h202v272zM461 -401l2 4q-32 8 -52 31.5t-20 58.5q0 41 23 68.5t55.5 33t64.5 -1.5t55 -35t23 -69q0 -7 -14 -46.5
t-38 -106.5t-40 -122h-110z"/><glyph glyph-name="Tcaron" unicode="Ť" horiz-adv-x="1234" d="M526 1274h-491v160h1155v-160h-490v-1274h-174v1274zM272 1845v13h174l179 -166l180 166h170v-13l-299 -276h-105z"/><glyph glyph-name="tcaron" unicode="ť" horiz-adv-x="788" d="M414 1307h-2v-297h215v-144h-215v-536q0 -94 36.5 -143.5t124.5 -49.5q59 0 142 37l51 -139q-105 -46 -199 -49q-160 -4 -239.5 85t-79.5 259v536h-180v144h180v278zM731 1370h160l-121 -340h-125z"/><glyph glyph-name="Tbar" unicode="Ŧ" horiz-adv-x="1226" d="M526 1274h-491v160h1155v-160h-490v-520h299v-138h-299v-616h-174v616h-280v138h280v520z"/><glyph glyph-name="tbar" unicode="ŧ" horiz-adv-x="813" d="M440 1307v-297h312v-144h-314v-262h232v-115h-232v-159q0 -96 36 -145.5t124 -49.5q59 0 139 39l49 -139q-98 -46 -196 -49q-161 -4 -240.5 85t-79.5 259v159h-157v115h157v262h-202v144h202v278z"/><glyph glyph-name="Utilde" unicode="Ũ" horiz-adv-x="1517" d="M1167 1434h179v-865q0 -144 -47 -260t-128.5 -188.5t-186 -111t-222.5 -38.5q-117 0 -221 38t-187 110t-131.5 188.5t-48.5 261.5v865h178v-865q0 -138 57 -238t148.5 -148t204.5 -48q172 0 288.5 116.5t116.5 319.5v863zM483 1647l-2 6q23 93 90.5 133.5t153.5 11.5
q14 -1 62 -27t57 -28q83 -30 110 55l113 -47q-27 -102 -93.5 -138t-144.5 -7q-14 2 -62.5 26.5t-53.5 26.5q-85 33 -119 -60z"/><glyph glyph-name="utilde" unicode="ũ" horiz-adv-x="1220" d="M1061 0h-156l-8 162q-126 -184 -344 -187q-195 0 -306.5 124.5t-111.5 346.5v566h168v-566q0 -151 71 -233t214 -82q136 0 219.5 97.5t83.5 240.5v543h170v-1012zM307 1257l-2 7q23 93 90.5 133.5t153.5 11.5q14 -1 62 -27t57 -28q83 -30 110 55l113 -47
q-27 -102 -93.5 -138t-144.5 -7q-14 2 -62.5 26.5t-53.5 26.5q-85 33 -119 -60z"/><glyph glyph-name="Umacron" unicode="Ū" horiz-adv-x="1517" d="M1167 1434h179v-865q0 -144 -47 -260t-128.5 -188.5t-186 -111t-222.5 -38.5q-117 0 -221 38t-187 110t-131.5 188.5t-48.5 261.5v865h178v-865q0 -138 57 -238t148.5 -148t204.5 -48q172 0 288.5 116.5t116.5 319.5v863zM436 1743h668v-144h-668v144z"/><glyph glyph-name="umacron" unicode="ū" horiz-adv-x="1247" d="M1090 0h-156l-8 162q-126 -184 -344 -187q-195 0 -306.5 124.5t-111.5 346.5v566h168v-566q0 -151 70.5 -233t213.5 -82q136 0 220 97.5t84 240.5v543h170v-1012zM332 1413h598v-123h-598v123z"/><glyph glyph-name="Ubreve" unicode="Ŭ" horiz-adv-x="1517" d="M1167 1434h179v-865q0 -144 -47 -260t-128.5 -188.5t-186 -111t-222.5 -38.5q-117 0 -221 38t-187 110t-131.5 188.5t-48.5 261.5v865h178v-865q0 -138 57 -238t148.5 -148t204.5 -48q172 0 288.5 116.5t116.5 319.5v863zM1094 1845q2 -87 -48 -152.5t-121.5 -95.5
t-148.5 -30q-139 0 -231.5 75.5t-85.5 202.5h135q0 -62 46.5 -104.5t135.5 -42.5q87 0 132.5 42t45.5 105h140z"/><glyph glyph-name="ubreve" unicode="ŭ" horiz-adv-x="1247" d="M1090 0h-156l-8 162q-126 -184 -344 -187q-195 0 -306.5 124.5t-111.5 346.5v566h168v-566q0 -151 70.5 -233t213.5 -82q136 0 220 97.5t84 240.5v543h170v-1012zM928 1427q2 -83 -45 -146t-114 -91.5t-140 -28.5q-130 0 -217 72.5t-80 193.5h127q0 -59 43.5 -100
t126.5 -41t125.5 40.5t42.5 100.5h131z"/><glyph glyph-name="Uring" unicode="Ů" horiz-adv-x="1517" d="M1167 1434h179v-865q0 -144 -47 -260t-128.5 -188.5t-186 -111t-222.5 -38.5q-117 0 -221 38t-187 110t-131.5 188.5t-48.5 261.5v865h178v-865q0 -138 57 -238t148.5 -148t204.5 -48q172 0 288.5 116.5t116.5 319.5v863zM512 1710q0 97 72 153t168 56q98 0 170.5 -54.5
t72.5 -152.5q0 -99 -69.5 -155t-175.5 -56q-101 0 -169.5 55.5t-68.5 153.5zM752 1817q-57 0 -89 -33t-32 -72.5t32 -72.5t89 -33q47 0 79.5 21.5t40 53t0 62.5t-40 52.5t-79.5 21.5z"/><glyph glyph-name="uring" unicode="ů" horiz-adv-x="1247" d="M1090 0h-156l-8 162q-126 -184 -344 -187q-195 0 -306.5 124.5t-111.5 346.5v566h168v-566q0 -151 70.5 -233t213.5 -82q136 0 220 97.5t84 240.5v543h170v-1012zM391 1300q0 93 69 147t161 54q94 0 164.5 -52t70.5 -146q0 -95 -68 -149t-170 -54q-97 0 -162 53.5
t-65 146.5zM621 1403q-54 0 -84.5 -31.5t-30.5 -70t30.5 -70t84.5 -31.5q57 0 89 31.5t32 70t-32 70t-89 31.5z"/><glyph glyph-name="Uhungarumlaut" unicode="Ű" horiz-adv-x="1519" d="M1167 1434h179v-865q0 -144 -47 -260t-128.5 -188.5t-186 -111t-222.5 -38.5q-117 0 -221 38t-187 110t-131.5 188.5t-48.5 261.5v865h178v-865q0 -138 57 -238t148.5 -148t204.5 -48q172 0 288.5 116.5t116.5 319.5v863zM494 1585l163 254h195v-4l-209 -250h-149z
M811 1583l164 256h190v-4l-209 -252h-145z"/><glyph glyph-name="uhungarumlaut" unicode="ű" horiz-adv-x="1245" d="M362 1202l152 234h180v-4l-192 -230h-140zM655 1200l152 236h176v-4l-192 -232h-136zM1090 0h-156l-8 162q-126 -184 -344 -187q-195 0 -306.5 124.5t-111.5 346.5v566h168v-566q0 -151 70.5 -233t213.5 -82q136 0 220 97.5t84 240.5v543h170v-1012z"/><glyph glyph-name="Uogonek" unicode="Ų" horiz-adv-x="1519" d="M1167 1434h179v-865q0 -187 -76 -320t-205 -204q-76 -39 -136 -89t-94.5 -96t-56 -92t-28 -79.5t-2.5 -55.5q7 -41 38.5 -62.5t69.5 -21.5q61 0 107 16t96 56l76 -96q-47 -45 -124 -78t-149 -33q-114 0 -181 43t-83 111q-22 85 21 197t151 206q-120 0 -226 38t-189 110
t-132 188t-49 262v865h178v-865q0 -138 57 -238t148.5 -148t204.5 -48q172 0 288.5 116.5t116.5 319.5v863z"/><glyph glyph-name="uogonek" unicode="ų" horiz-adv-x="1220" d="M1061 0q-87 -39 -153.5 -83.5t-103.5 -83.5t-58.5 -78.5t-27 -68.5t-1.5 -53q6 -41 38 -62.5t70 -21.5q61 0 106 15.5t95 56.5l78 -96q-47 -45 -124 -78t-149 -33q-113 0 -178 42.5t-84 111.5q-8 42 -4.5 87t28.5 95.5t63.5 96.5t102.5 91t144 80l-6 144
q-125 -182 -344 -185q-194 0 -306 125t-112 347v563h168v-563q0 -151 71 -233.5t214 -82.5q136 0 219.5 96.5t83.5 239.5v543h170v-1012z"/><glyph glyph-name="Wcircumflex" unicode="Ŵ" horiz-adv-x="2211" d="M55 1434h199l397 -1186l400 1186h112l402 -1186l393 1186h203l-504 -1436h-178l-371 1075l-373 -1075h-178zM1057 1884h106l295 -272v-17h-174l-176 162l-174 -162h-176v17z"/><glyph glyph-name="wcircumflex" unicode="ŵ" horiz-adv-x="1720" d="M63 1012h187l274 -836l267 836h137l268 -836l272 836h185l-353 -1014h-192l-139 377l-109 368l-110 -368l-138 -377h-190zM811 1448h102l281 -260v-17h-166l-168 156l-168 -156h-168v17z"/><glyph glyph-name="Ycircumflex" unicode="Ŷ" horiz-adv-x="1392" d="M604 582l-557 845v7h215l432 -680l443 680h215v-7l-566 -845v-582h-182v582zM645 1884h107l295 -272v-17h-175l-176 162l-174 -162h-176v17z"/><glyph glyph-name="ycircumflex" unicode="ŷ" horiz-adv-x="1130" d="M1077 1012l-637 -1491h-184l213 493l-410 998h193l199 -525l112 -290l107 288l223 527h184zM512 1450h102l285 -262v-17h-168l-170 156l-168 -156h-170v17z"/><glyph glyph-name="Ydieresis" unicode="Ÿ" horiz-adv-x="1392" d="M604 582l-557 845v7h215l432 -680l443 680h215v-7l-566 -845v-582h-182v582zM365 1686q0 40 21.5 67t52.5 33.5t62 0t52.5 -33t21.5 -65.5t-21.5 -66t-52.5 -33t-62 0t-52.5 32.5t-21.5 64.5zM821 1686q0 40 22 67t53.5 33t62.5 0t53 -33t22 -67q0 -49 -33.5 -76.5
t-73 -27.5t-73 27.5t-33.5 76.5z"/><glyph glyph-name="Zacute" unicode="Ź" horiz-adv-x="1243" d="M104 1434h1059v-78l-850 -1184h850v-172h-1104v96l836 1172h-791v166zM510 1597v13l152 258h208v-6l-206 -265h-154z"/><glyph glyph-name="zacute" unicode="ź" horiz-adv-x="964" d="M96 1012h787v-76l-570 -774h570v-162h-820v66l576 792h-543v154zM391 1186v10l139 238h191v-7l-189 -241h-141z"/><glyph glyph-name="Zdotaccent" unicode="Ż" horiz-adv-x="1243" d="M104 1434h1059v-78l-850 -1184h850v-172h-1104v96l836 1172h-791v166zM530 1710q0 41 23 69.5t56 35t66 -0.5t56 -35.5t23 -70.5q0 -41 -23 -69.5t-56 -35t-66 0.5t-56 35.5t-23 70.5z"/><glyph glyph-name="zdotaccent" unicode="ż" horiz-adv-x="964" d="M96 1012h787v-76l-570 -774h570v-162h-820v66l576 792h-543v154zM399 1323q0 41 23 69.5t56 35t66 -0.5t56 -35.5t23 -70.5q0 -41 -23 -69.5t-56 -35t-66 0.5t-56 35.5t-23 70.5z"/><glyph glyph-name="Zcaron" unicode="Ž" horiz-adv-x="1243" d="M104 1434h1059v-78l-850 -1184h850v-172h-1104v96l836 1172h-791v166zM287 1862v12h174l178 -166l180 166h170v-12l-299 -277h-104z"/><glyph glyph-name="zcaron" unicode="ž" horiz-adv-x="964" d="M96 1012h787v-76l-570 -774h570v-162h-820v66l576 792h-543v154zM166 1423v13h166l172 -160l172 160h164v-13l-287 -266h-100z"/><glyph glyph-name="longs" unicode="ſ" horiz-adv-x="626" d="M262 0l2 -2v854h-196v145h196v82q0 174 91.5 270.5t250.5 96.5q118 0 230 -74l-70 -125q-85 53 -156 53q-176 0 -176 -221v-1079h-172z"/><glyph glyph-name="florin" unicode="ƒ" horiz-adv-x="915" d="M311 854l2 -2h-198v145h198v82q0 173 90.5 270t249.5 97q126 0 230 -74l-70 -125q-88 53 -156 53q-176 0 -176 -221v-82h316v-145h-316v-856q0 -176 -83 -272.5t-242 -96.5q-60 0 -107.5 17.5t-103.5 56.5l67 123q39 -30 66.5 -40.5t68.5 -10.5q164 0 164 225v856z"/><glyph glyph-name="Aringacute" unicode="Ǻ" horiz-adv-x="1556" d="M993 1530q0 -51 -26 -89.5t-68 -56.5l623 -1384h-193l-139 315h-819l-142 -315h-194l620 1384q-46 19 -72 57.5t-26 90.5q0 82 63.5 129t153.5 47q88 0 153.5 -47.5t65.5 -130.5zM1118 481l-340 774l-338 -774h678zM682 1761l160 172h221v-4l-219 -176h-162v8zM772 1610
q-51 0 -80.5 -27t-29.5 -59t29.5 -59t80.5 -27q54 0 84 27t29.5 59t-31 59t-82.5 27z"/><glyph glyph-name="aringacute" unicode="ǻ" horiz-adv-x="1304" d="M569 1509l148 189h198v-2l-194 -193h-152v6zM434 1270v2q0 86 61.5 133t149.5 47q87 0 150 -47t63 -133q0 -87 -60.5 -133.5t-152.5 -46.5q-93 0 -152 46.5t-59 131.5zM643 1360q-51 0 -79.5 -28t-28.5 -62t28.5 -62t79.5 -28q52 0 80.5 28t27.5 62t-30 62t-78 28z
M1151 0h-166l-4 178q-57 -98 -160 -150.5t-213 -52.5q-146 0 -263 63t-186 185t-69 283q0 166 71 287.5t187 181t262 59.5q124 0 221 -51.5t154 -155.5l2 185h164v-1012zM616 874q-156 0 -260 -100.5t-104 -273.5q0 -164 105 -267.5t259 -103.5q101 0 180 41t120 107
t60.5 145.5t0 159t-60 145.5t-120 106.5t-180.5 40.5z"/><glyph glyph-name="AEacute" unicode="Ǽ" horiz-adv-x="1888" d="M854 1434h905v-168h-682v-463h649v-168h-649v-461h699v-174h-869v410h-485l-248 -410h-209zM907 571v525l2 141l-385 -666h383zM952 1595v13l146 247h198v-6l-196 -254h-148z"/><glyph glyph-name="aeacute" unicode="ǽ" horiz-adv-x="2078" d="M983 0l2 -6v182q-59 -99 -161.5 -151t-215.5 -52q-146 0 -263 63t-186 185t-69 283q0 121 40.5 220.5t111 165t164.5 101t202 35.5q119 0 223 -53t156 -148l2 185h131v-174q65 97 165 147.5t220 48.5q85 0 164 -24t145 -74t112 -119t65 -166t4 -209h-858
q12 -140 113 -222.5t251 -82.5q90 0 182.5 34t137.5 91l110 -100q-73 -88 -191.5 -134t-244.5 -46q-257 0 -379 192l-4 -172h-129zM1837 575l-2 -2q-6 145 -98.5 224.5t-243.5 79.5q-138 0 -235.5 -79t-118.5 -223h698zM618 866v-2q-153 0 -258.5 -101.5t-105.5 -266.5
t105.5 -268t258.5 -103q89 0 161.5 32t117 84t68.5 118.5t24 136t-24 136t-68.5 118.5t-117 84t-161.5 32zM952 1174v12l146 248h198v-7l-196 -253h-148z"/><glyph glyph-name="Oslashacute" unicode="Ǿ" horiz-adv-x="1656" d="M831 1460q177 0 324 -67l100 170h162l-141 -242q136 -102 208 -264t72 -344q0 -115 -28 -222t-87.5 -202t-144 -165.5t-205 -111.5t-262.5 -41q-168 0 -309 56l-108 -183h-158l147 250q-148 100 -225.5 265t-77.5 354q0 156 51.5 293t144.5 237.5t232 158.5t305 58z
M279 713q0 -140 53 -264t155 -205l584 1001q-112 48 -240 51q-134 0 -240.5 -47t-173.5 -128t-102.5 -185.5t-35.5 -222.5zM1380 713q0 133 -49 254t-143 202l-582 -993q103 -39 225 -39q110 0 201.5 33t155 88.5t107.5 129.5t64.5 156t20.5 169zM725 1595v13l145 247h199
v-6l-197 -254h-147z"/><glyph glyph-name="oslashacute" unicode="ǿ" horiz-adv-x="1218" d="M88 504q0 233 148.5 381.5t375.5 148.5q125 0 236 -49l84 135h127l-121 -190q96 -70 149.5 -180.5t53.5 -245.5q0 -233 -150 -381t-379 -148q-128 0 -237 50l-90 -146h-123l123 199q-94 72 -145.5 181.5t-51.5 244.5zM973 504q0 178 -121 289l-391 -629q70 -31 151 -31
q157 0 259 103.5t102 267.5zM254 504q0 -181 119 -287l389 631q-67 31 -148 31q-155 0 -257.5 -104.5t-102.5 -270.5zM516 1182v12l139 240h195v-7l-193 -245h-141z"/><glyph glyph-name="Scommaaccent" unicode="Ș" horiz-adv-x="1359" d="M1092 1114q-59 90 -169 138.5t-237 50.5q-95 0 -178.5 -25.5t-141 -81.5t-57.5 -133q0 -46 21 -82.5t54.5 -60.5t86.5 -43.5t104.5 -31t122.5 -22.5q70 -11 122 -21t115 -27t108 -38t90 -52.5t72.5 -70.5t45 -92.5t17.5 -118.5q0 -94 -35 -169t-92 -123.5t-134.5 -80.5
t-157.5 -45.5t-165 -13.5q-94 0 -180.5 18t-168 55t-147.5 103t-106 154l141 88q70 -128 190 -191t273 -63q56 0 109.5 7.5t109 27t96.5 49t67 78t26 109.5q0 51 -23.5 91.5t-59.5 66.5t-93.5 47t-111 32.5t-126.5 22.5q-69 11 -118 20.5t-110.5 26t-103.5 35.5t-85.5 49
t-70 66t-43 86.5t-16.5 111.5q-2 83 31.5 152t89 114.5t128.5 76.5t148.5 44.5t151.5 13.5q384 0 545 -264zM637 -399l2 4q-32 8 -52 31.5t-20 58.5q0 41 23 68.5t55.5 33t64.5 -1.5t55 -35t23 -69q0 -7 -14 -46.5t-38 -106.5t-40 -122h-110z"/><glyph glyph-name="scommaaccent" unicode="ș" horiz-adv-x="1021" d="M901 899l-98 -113q-62 56 -130 77.5t-153 21.5q-111 0 -181.5 -38t-70.5 -110q0 -31 15 -55t37.5 -39t58.5 -26.5t68 -17t75 -11.5q38 -5 63 -8.5t64 -11t65.5 -15.5t60.5 -21t57 -28.5t47 -38t37.5 -49t22 -61.5t7.5 -76q-3 -99 -61.5 -169t-151 -102.5t-209.5 -32.5
q-311 0 -456 189l100 112q61 -78 157 -112.5t201 -34.5q46 0 87.5 7.5t80 24t62.5 48.5t26 76q0 76 -70.5 112.5t-201.5 51.5q-65 7 -117.5 17.5t-108 32t-93 51.5t-61.5 78t-24 109q0 78 36 137.5t96 93t131 50t149 16.5q230 0 383 -135zM461 -399l2 4q-32 8 -52 31.5
t-20 58.5q0 41 23 68.5t55.5 33t64.5 -1.5t55 -35t23 -69q0 -7 -14 -46.5t-38 -106.5t-40 -122h-110z"/><glyph glyph-name="uni021A" unicode="Ț" horiz-adv-x="1234" d="M575 -399l3 4q-32 8 -52 31.5t-20 58.5q0 41 23 68.5t55 33t64.5 -1.5t55.5 -35t23 -69q0 -7 -14 -46.5t-38 -106.5t-40 -122h-111zM526 1274h-491v160h1155v-160h-490v-1274h-174v1274z"/><glyph glyph-name="uni021B" unicode="ț" horiz-adv-x="813" d="M440 1307v-291h312v-144h-314v-553q0 -95 36 -144.5t124 -49.5q59 0 139 39l49 -139q-100 -47 -196 -50q-161 -4 -240.5 85t-79.5 259v553h-202v144h202v272zM475 -399l2 4q-32 8 -51.5 31t-19.5 59q0 41 23 68.5t55 33t64.5 -1.5t55.5 -35t23 -69q0 -7 -14 -46.5
t-38 -106.5t-40 -122h-111z"/><glyph glyph-name="dotlessj" unicode="ȷ" horiz-adv-x="477" d="M319 1014l3 2v-1147q2 -184 -67.5 -278.5t-231.5 -94.5q-105 0 -199 55l53 138q76 -40 137 -35q44 0 72.5 15t43 46t19.5 66t5 86v1147h165z"/><glyph glyph-name="circumflex" unicode="ˆ" horiz-adv-x="866" d="M358 1448h107l295 -272v-17h-174l-176 162l-174 -162h-177v17z"/><glyph glyph-name="caron" unicode="ˇ" horiz-adv-x="827" d="M55 1423v13h174l179 -166l180 166h170v-13l-299 -276h-105z"/><glyph glyph-name="breve" unicode="˘" horiz-adv-x="733" d="M678 1434q1 -66 -27.5 -120.5t-75.5 -88.5t-102.5 -52t-112.5 -18q-139 0 -231.5 76t-85.5 203h135q0 -62 47 -105t135 -43q87 0 133 42.5t46 105.5h139z"/><glyph glyph-name="dotaccent" unicode="˙" horiz-adv-x="413" d="M74 1343q0 41 22.5 68.5t55 33.5t64.5 -0.5t54.5 -34.5t22.5 -69q0 -42 -22.5 -70.5t-54.5 -35.5t-64.5 0t-55 36t-22.5 72z"/><glyph glyph-name="ring" unicode="˚" horiz-adv-x="737" d="M96 1247q0 103 72 162t168 59q62 0 116 -23.5t91 -74.5t37 -121q0 -104 -70.5 -163.5t-175.5 -59.5q-101 0 -169.5 59.5t-68.5 161.5zM336 1360q-57 0 -89 -35t-32 -76.5t32 -76.5t89 -35q47 0 79.5 23t40 55.5t0 65.5t-40 56t-79.5 23z"/><glyph glyph-name="ogonek" unicode="˛" horiz-adv-x="708" d="M594 0q-87 -39 -153.5 -83.5t-104 -83.5t-59.5 -78.5t-27.5 -68.5t-1.5 -53q6 -41 38 -62.5t72 -21.5q61 0 106 15.5t95 56.5l76 -96q-47 -45 -122.5 -78t-147.5 -33q-115 0 -180.5 43t-84.5 111q-8 43 -6.5 86.5t24.5 92t61 94t103 92t150 85.5z"/><glyph glyph-name="tilde" unicode="˜" horiz-adv-x="733" d="M59 1350l-2 6q23 93 90.5 133.5t153.5 11.5q14 -1 62 -27t57 -28q83 -30 110 55l113 -47q-27 -102 -93 -138t-144 -7q-15 2 -63.5 26.5t-53.5 26.5q-85 33 -119 -59z"/><glyph glyph-name="hungarumlaut" unicode="˝" horiz-adv-x="796" d="M45 1182l164 254h194v-4l-208 -250h-150zM362 1180l164 256h191v-4l-209 -252h-146z"/><glyph glyph-name="commaaccentcomb" unicode="̦" horiz-adv-x="0" d="M457 -369h2q-32 8 -52 32.5t-20 62.5q0 41 22.5 68.5t55 33t64.5 -2t54.5 -36t22.5 -68.5q0 -7 -12.5 -45t-36 -108t-39.5 -123h-112z"/><glyph glyph-name="_375" unicode="Δ" d="M1391 0h-1407l643 1434h121zM686 1233l-473 -1086h948z"/><glyph glyph-name="Omega" unicode="Ω" horiz-adv-x="1673" d="M172 156h250q-157 92 -236.5 239.5t-79.5 331.5q0 148 50.5 281t142.5 234t231 160.5t306 59.5q169 0 309 -59.5t231 -161t141 -234t50 -280.5q0 -183 -79.5 -331t-234.5 -242h250v-156h-512v160q130 32 222.5 121.5t135 203.5t42.5 240q0 88 -21.5 170.5t-66.5 155.5
t-109 127.5t-155.5 86t-200.5 31.5q-108 0 -199 -31.5t-155.5 -86t-110 -127.5t-67 -155.5t-21.5 -170.5q0 -197 104 -354t295 -209v-160h-512v156z"/><glyph glyph-name="mu" unicode="μ" horiz-adv-x="1243" d="M170 -453v2v1444h174v-575q0 -143 92.5 -227.5t214.5 -84.5q58 0 110 21t94.5 61t67.5 106t25 150v547h176v-991h-157l-15 125q-43 -82 -128 -125t-177 -43q-228 0 -303 170v-580h-174z"/><glyph glyph-name="pi" unicode="π" horiz-adv-x="1394" d="M291 0v-2v866h-234v146h1270v-146h-235v-563q0 -104 41.5 -148.5t152.5 -25.5l12 -133q-189 -34 -281.5 47.5t-90.5 259.5v565h-467v-866h-168z"/><glyph glyph-name="Wgrave" unicode="Ẁ" horiz-adv-x="2211" d="M55 1434h199l397 -1186l400 1186h112l402 -1186l393 1186h203l-504 -1436h-178l-371 1075l-373 -1075h-178zM1071 1587l-205 264v7h205l154 -259v-12h-154z"/><glyph glyph-name="wgrave" unicode="ẁ" horiz-adv-x="1720" d="M63 1012h187l274 -836l267 836h137l268 -836l272 836h185l-353 -1014h-192l-139 377l-109 368l-110 -368l-138 -377h-190zM813 1182l-192 248v6h192l143 -242v-12h-143z"/><glyph glyph-name="Wacute" unicode="Ẃ" horiz-adv-x="2211" d="M55 1434h199l397 -1186l400 1186h112l402 -1186l393 1186h203l-504 -1436h-178l-371 1075l-373 -1075h-178zM997 1597v13l152 258h209v-6l-207 -265h-154z"/><glyph glyph-name="wacute" unicode="ẃ" horiz-adv-x="1720" d="M63 1012h187l274 -836l267 836h137l268 -836l272 836h185l-353 -1014h-192l-139 377l-109 368l-110 -368l-138 -377h-190zM758 1174v12l145 248h199v-7l-197 -253h-147z"/><glyph glyph-name="Wdieresis" unicode="Ẅ" horiz-adv-x="2211" d="M55 1434h199l397 -1186l400 1186h112l402 -1186l393 1186h203l-504 -1436h-178l-371 1075l-373 -1075h-178zM760 1729q0 42 22.5 70t54 34.5t63.5 0t54.5 -34.5t22.5 -68t-22.5 -67.5t-54.5 -34t-63.5 -0.5t-54 33t-22.5 67zM1231 1729q0 51 34 80.5t75.5 29.5
t75.5 -29.5t34 -80.5q0 -50 -34 -78.5t-75.5 -28.5t-75.5 28.5t-34 78.5z"/><glyph glyph-name="wdieresis" unicode="ẅ" horiz-adv-x="1720" d="M63 1012h187l274 -836l267 836h137l268 -836l272 836h185l-353 -1014h-192l-139 377l-109 368l-110 -368l-138 -377h-190zM537 1346q0 40 21 66.5t51 32.5t60 0t51 -32.5t21 -64.5t-21 -64t-51 -32t-60 0t-51 31.5t-21 62.5zM983 1346q0 49 32.5 76.5t71 27.5t71 -27.5
t32.5 -76.5q0 -47 -32.5 -74t-71 -27t-71 27t-32.5 74z"/><glyph glyph-name="Ygrave" unicode="Ỳ" horiz-adv-x="1392" d="M604 582l-557 845v7h215l432 -680l443 680h215v-7l-566 -845v-582h-182v582zM641 1575l-205 264v6h205l154 -258v-12h-154z"/><glyph glyph-name="ygrave" unicode="ỳ" horiz-adv-x="1130" d="M1077 1012l-637 -1491h-184l213 493l-410 998h193l199 -525l112 -290l107 288l223 527h184zM530 1186l-186 241v7h186l142 -238v-10h-142z"/><glyph glyph-name="endash" unicode="–" horiz-adv-x="1232" d="M147 662h938v-158h-938v158z"/><glyph glyph-name="emdash" unicode="—" horiz-adv-x="1441" d="M147 662h1149v-158h-1149v158z"/><glyph glyph-name="quoteleft" unicode="‘" horiz-adv-x="483" d="M385 1436l-94 -392h-180l137 392h137z"/><glyph glyph-name="quoteright" unicode="’" horiz-adv-x="471" d="M115 1036l96 400h182l-141 -400h-137z"/><glyph glyph-name="quotesinglbase" unicode="‚" horiz-adv-x="495" d="M78 -236l94 398h182l-141 -398h-135z"/><glyph glyph-name="quotedblleft" unicode="“" horiz-adv-x="778" d="M383 1430l-96 -396h-181l140 396h137zM682 1430l-98 -396h-178l137 396h139z"/><glyph glyph-name="quotedblright" unicode="”" horiz-adv-x="772" d="M119 1049l94 387h184l-141 -387h-137zM418 1049l94 387h180l-135 -387h-139z"/><glyph glyph-name="quotedblbase" unicode="„" horiz-adv-x="792" d="M76 -236l96 398h182l-141 -398h-137zM375 -236l94 398h180l-137 -398h-137z"/><glyph glyph-name="dagger" unicode="†" horiz-adv-x="1163" d="M1096 885h-424v-1139h-178v1139h-424v153h424v396h178v-396h424v-153z"/><glyph glyph-name="daggerdbl" unicode="‡" horiz-adv-x="1257" d="M1143 887h-426v-516h426v-158h-426v-475h-178v475h-424v158h424v516h-424v153h424v394h178v-394h426v-153z"/><glyph glyph-name="bullet" unicode="•" horiz-adv-x="808" d="M408 352v2q-102 0 -168 61t-66 160q0 103 65.5 164.5t168.5 61.5q96 0 159.5 -62.5t63.5 -165.5q0 -100 -63.5 -160.5t-159.5 -60.5z"/><glyph glyph-name="ellipsis" unicode="…" horiz-adv-x="1298" d="M133 92q0 41 23 69.5t56 35t65.5 -0.5t55.5 -35.5t23 -70.5q0 -41 -23 -69.5t-55.5 -35t-65.5 0.5t-56 35.5t-23 70.5zM541 92q0 41 23 69.5t55.5 35t65.5 -0.5t56 -35.5t23 -70.5q0 -41 -23 -69.5t-56 -35t-65.5 0.5t-55.5 35.5t-23 70.5zM942 92q0 41 23 69.5t56 35
t65.5 -0.5t55.5 -35.5t23 -70.5q0 -41 -23 -69.5t-55.5 -35t-65.5 0.5t-56 35.5t-23 70.5z"/><glyph glyph-name="perthousand" unicode="‰" horiz-adv-x="2273" d="M1886 608h-2q78 0 141 -26.5t101.5 -70.5t59.5 -100t21 -114t-21 -114t-59.5 -100t-101.5 -70.5t-141 -26.5q-88 0 -157.5 34.5t-105.5 89t-53 121t0 133t53 121t106 89t159 34.5zM1884 479h2q-49 0 -87.5 -20t-58.5 -51.5t-29 -70t0 -77t29 -70t58.5 -51.5t87.5 -20
t87.5 20t58 51.5t28.5 70t-0.5 77t-29.5 70t-58.5 51.5t-87.5 20zM406 1452q77 0 139 -27t100.5 -70.5t59.5 -99.5t21 -114.5t-20.5 -114.5t-59 -99.5t-101 -70.5t-139.5 -27q-78 0 -141 27t-101.5 70.5t-59.5 99.5t-21 114.5t21 114.5t59.5 99.5t101.5 70.5t141 27z
M1135 1438h188l-926 -1438h-190zM406 1319h-3q-50 0 -89.5 -19.5t-59.5 -51t-29 -69.5t1 -75.5t31 -69t60.5 -50.5t90.5 -19q49 0 87 19.5t57.5 50.5t28.5 69t-0.5 76t-29.5 69t-58 50.5t-87 19.5zM1139 608h-4q78 0 141 -26.5t101.5 -70.5t60 -100t21.5 -114t-21 -114
t-60 -100t-102 -70.5t-141 -26.5q-69 0 -126.5 21.5t-95 57.5t-63.5 82.5t-32 98t-0.5 103t32 98t64 82.5t96.5 57.5t129 21.5zM1135 479q-49 0 -87.5 -20t-58.5 -51.5t-29 -70t0 -77t29 -70t58.5 -51.5t87.5 -20t88 20t59 51.5t29.5 70t0 77t-29.5 70t-59 51.5t-88 20z"/><glyph glyph-name="guilsinglleft" unicode="‹" horiz-adv-x="647" d="M90 610l283 453h180l-281 -453l281 -452h-180z"/><glyph glyph-name="guilsinglright" unicode="›" horiz-adv-x="651" d="M379 608l-283 453h183l284 -453l-284 -452h-183z"/><glyph glyph-name="fraction" unicode="⁄" horiz-adv-x="313" d="M-311 -6l776 1450h158l-777 -1450h-157z"/><glyph glyph-name="zerosuperior" unicode="⁰" horiz-adv-x="796" d="M84 1251v109q0 78 27 142t71.5 103t101 60t115 21t115 -21t101 -60t71.5 -103t27 -142v-109q0 -79 -27 -143t-71.5 -103.5t-101 -61t-115 -21.5t-115 21.5t-101 61t-71.5 103.5t-27 143zM215 1358v-109q0 -54 20 -97t51.5 -65.5t70 -33t77 0t70 32.5t51.5 65t20 98v109
q0 56 -20 100t-51.5 66.5t-70 33t-77 0t-70 -33t-51.5 -66.5t-20 -100z"/><glyph glyph-name="foursuperior" unicode="⁴" horiz-adv-x="749" d="M584 1675v-469h86v-121h-86v-147h-133v147h-394l-6 109l355 481h178zM451 1206v340l-252 -340h252z"/><glyph glyph-name="fivesuperior" unicode="⁵" horiz-adv-x="741" d="M371 1403q144 -2 223 -64t78 -184q0 -114 -80 -177t-217 -63q-59 0 -108.5 11t-93 35.5t-68.5 70.5t-25 109h131q0 -54 46 -78.5t114 -24.5q164 0 164 121q0 54 -39 90.5t-125 36.5h-275v385h531v-119h-404v-149h148z"/><glyph glyph-name="sixsuperior" unicode="⁶" horiz-adv-x="768" d="M397 1026q65 0 114.5 30.5t49.5 90.5q0 61 -49 93t-115 32q-71 0 -120.5 -31t-49.5 -92t48.5 -90.5t121.5 -32.5zM229 1438v-109q58 55 168 55q59 0 108.5 -11t93.5 -36.5t69.5 -74t25.5 -115.5q0 -79 -46 -133.5t-111 -77.5t-140 -23q-78 0 -144 23.5t-111.5 79.5
t-45.5 137v285q0 81 43.5 136.5t107 79t140.5 23.5q125 0 208.5 -50.5t86.5 -151.5h-133q-9 84 -160 84q-73 0 -116.5 -29t-43.5 -92z"/><glyph glyph-name="sevensuperior" unicode="⁷" horiz-adv-x="649" d="M57 1669h549l8 -57l-352 -682h-151l327 618h-381v121z"/><glyph glyph-name="eightsuperior" unicode="⁸" horiz-adv-x="786" d="M82 1128q2 63 40 111.5t101 65.5q-127 48 -127 159q0 57 26 99.5t70.5 66.5t96 35.5t108.5 11.5q76 0 140 -19t110.5 -69t46.5 -125q0 -116 -125 -159q60 -17 100 -68.5t40 -110.5q0 -64 -27.5 -109.5t-75 -69t-99.5 -34t-112 -10.5q-62 0 -114.5 11t-99 35t-73 70
t-26.5 109zM559 1464q0 52 -50 77.5t-112 25.5q-65 0 -114.5 -25.5t-49.5 -77.5q0 -51 46 -76.5t118 -25.5q70 0 115.5 25.5t46.5 76.5zM569 1128q0 54 -52.5 84.5t-119.5 30.5q-73 0 -125.5 -30t-52.5 -87q0 -52 53.5 -81t124.5 -29q66 0 119 29.5t53 82.5z"/><glyph glyph-name="ninesuperior" unicode="⁹" horiz-adv-x="772" d="M672 1151q1 -118 -83.5 -179t-205.5 -61q-127 0 -209 51t-86 154h131q12 -84 162 -84q74 0 117 29t43 90v113q-58 -58 -168 -58q-47 0 -88 6.5t-80.5 23.5t-68 43.5t-45.5 68.5t-17 96q0 79 46 133.5t111.5 77t141.5 22.5q79 0 144.5 -23t110 -78.5t44.5 -135.5v-289z
M373 1563q-68 0 -116 -29t-48 -90q0 -62 48 -92.5t116 -30.5q69 0 118.5 30.5t49.5 86.5q0 62 -48.5 92t-119.5 33z"/><glyph glyph-name="zeroinferior" unicode="₀" horiz-adv-x="796" d="M84 143v109q0 78 27 142t71.5 103t101 60t115 21t115 -21t101 -60t71.5 -103t27 -142v-109q0 -79 -27 -143t-71.5 -103.5t-101 -61t-115 -21.5t-115 21.5t-101 61t-71.5 103.5t-27 143zM215 250v-109q0 -54 20 -97t51.5 -65.5t70 -33t77 0t70 32.5t51.5 65t20 98v109
q0 56 -20 100t-51.5 66.5t-70 33t-77 0t-70 -33t-51.5 -66.5t-20 -100z"/><glyph glyph-name="oneinferior" unicode="₁" horiz-adv-x="526" d="M74 -59h129v471l-111 -27v119l244 57v-620h133v-117h-395v117z"/><glyph glyph-name="twoinferior" unicode="₂" horiz-adv-x="743" d="M82 -172l2 2v176q0 62 25.5 107.5t69.5 70.5t92 38t104 16q153 10 153 116q0 109 -155 109q-152 0 -154 -107h-131q0 61 24 106.5t65.5 70.5t90 37t103.5 12q60 0 110 -11.5t92 -37t65.5 -71t23.5 -108.5q0 -56 -18.5 -98t-43.5 -65t-65 -38.5t-69 -20.5t-69 -9
q-30 -3 -49.5 -6t-47 -11t-43.5 -20t-28 -33t-12 -49v-43h434v-133h-569z"/><glyph glyph-name="threeinferior" unicode="₃" horiz-adv-x="749" d="M213 37h-4q4 -100 160 -100q28 0 54 4.5t50.5 15.5t39.5 33t15 53q0 42 -38 75.5t-119 33.5h-117v112h111q151 0 151 96q0 37 -38.5 70t-112.5 33q-39 0 -71.5 -8.5t-59 -34.5t-29.5 -66h-121q0 57 24.5 100.5t65.5 68.5t90 37.5t103 12.5q115 0 199.5 -56t84.5 -159
q0 -54 -28.5 -95t-79.5 -60q60 -14 93.5 -60.5t33.5 -99.5q0 -64 -27 -111t-72.5 -72t-96 -36.5t-107.5 -11.5q-77 0 -140.5 21t-108 73.5t-44.5 130.5h139z"/><glyph glyph-name="fourinferior" unicode="₄" horiz-adv-x="747" d="M584 563v-469h86v-121h-86v-147h-133v147h-394l-6 109l355 481h178zM451 94v340l-252 -340h252z"/><glyph glyph-name="fiveinferior" unicode="₅" horiz-adv-x="741" d="M371 297q144 -2 223 -64t78 -184q0 -114 -80 -176.5t-217 -62.5q-59 0 -108.5 11t-93 35t-68.5 70t-25 109h131q0 -54 46 -78.5t114 -24.5q164 0 164 121q0 54 -39 90.5t-125 36.5h-275v385h531v-119h-404v-149h148z"/><glyph glyph-name="sixinferior" unicode="₆" horiz-adv-x="768" d="M397 -76q65 0 114.5 30.5t49.5 90.5q0 61 -49 93t-115 32q-71 0 -120.5 -31t-49.5 -92t48.5 -90.5t121.5 -32.5zM229 336v-109q59 56 168 56q59 0 108.5 -11.5t93.5 -36.5t69.5 -74t25.5 -116q0 -79 -46 -133.5t-111 -77t-140 -22.5q-57 0 -109 14t-96 41.5t-70 75
t-26 108.5v285q0 81 43.5 136.5t107 79t140.5 23.5q125 0 208.5 -50.5t86.5 -151.5h-133q-9 84 -160 84q-73 0 -116.5 -29t-43.5 -92z"/><glyph glyph-name="seveninferior" unicode="₇" horiz-adv-x="645" d="M57 563h549l8 -57l-352 -682h-151l327 618h-381v121z"/><glyph glyph-name="eightinferior" unicode="₈" horiz-adv-x="788" d="M82 35q2 63 40 111t101 65q-127 48 -127 160q0 57 26 99.5t70.5 66.5t96 35.5t108.5 11.5q76 0 140 -19t110.5 -69t46.5 -125q0 -117 -125 -160q60 -17 100 -68t40 -110q0 -64 -27.5 -109.5t-75 -69t-99.5 -34t-112 -10.5q-62 0 -114.5 11t-99 35t-73 70t-26.5 109z
M559 371q0 36 -27 60t-61.5 33t-73.5 9q-65 0 -114.5 -25t-49.5 -77q0 -51 46 -77t118 -26q69 0 115 26t47 77zM569 35q0 54 -52.5 84.5t-119.5 30.5q-73 0 -125.5 -30t-52.5 -87q0 -52 53.5 -81.5t124.5 -29.5q66 0 119 30t53 83z"/><glyph glyph-name="nineinferior" unicode="₉" horiz-adv-x="765" d="M672 49q1 -118 -83.5 -178.5t-205.5 -60.5q-127 0 -209 50.5t-86 153.5h131q12 -84 162 -84q74 0 117 29t43 90v113q-58 -58 -168 -58q-47 0 -88 6.5t-80.5 23.5t-68 43.5t-45.5 68.5t-17 96q0 79 46 133.5t111.5 77t141.5 22.5q79 0 144.5 -23t110 -78.5t44.5 -135.5
v-289zM373 461q-68 0 -116 -29t-48 -90q0 -62 48 -92.5t116 -30.5q69 0 118.5 30.5t49.5 86.5q0 62 -48.5 92t-119.5 33z"/><glyph glyph-name="Euro" unicode="€" horiz-adv-x="1257" d="M1182 16v-6q-125 -41 -254 -41q-303 0 -478.5 143t-228.5 396h-133v141h115q-2 8 -2 56q0 40 2 63h-117v143h135q23 117 78 214.5t141 171.5t210.5 115.5t275.5 41.5q103 0 215 -31l-51 -157q-79 18 -160 18q-410 0 -516 -373h518l-35 -143h-518q-2 -18 -2 -59
q0 -40 2 -54h487l-30 -139h-424q42 -176 172 -272.5t346 -96.5q103 0 203 35z"/><glyph glyph-name="afii61289" unicode="ℓ" horiz-adv-x="821" d="M416 496v-197q0 -90 76.5 -126t189.5 -7v-141q-79 -25 -148 -31.5t-129 10t-103 55t-68 108t-25 165.5l-100 -47l-29 94q81 35 127 63v680q0 188 69.5 265t249.5 77q55 0 97 -16t68 -45.5t42.5 -66t21.5 -82t4.5 -90t-7.5 -93.5q-19 -161 -110.5 -309.5t-225.5 -265.5z
M410 1122v-483q219 257 243 451q3 29 5 47.5t2.5 49.5t-3 52t-12 45.5t-22.5 39t-38 24.5t-55 10q-39 0 -67 -35.5t-40.5 -88t-12.5 -112.5z"/><glyph glyph-name="uni2117" unicode="℗" horiz-adv-x="1695" d="M848 1462q174 0 315.5 -59t233 -161t141 -237t49.5 -290q0 -153 -49.5 -288t-141 -238t-233.5 -162.5t-315 -59.5q-139 0 -258 38.5t-206.5 108t-150 163t-93.5 205t-31 233.5q0 155 49.5 290t141.5 237t233.5 161t314.5 59zM262 715v6q0 -129 40 -240.5t113.5 -194.5
t185 -130t247.5 -47q137 0 248.5 47.5t185 130t113 193t39.5 237.5q0 129 -39.5 240.5t-113 193.5t-185 129t-248.5 47q-181 0 -315.5 -81t-202.5 -218.5t-68 -312.5zM942 563l2 2h-209v-248h-143v773h354q57 0 105 -18t79.5 -48.5t53.5 -70t27.5 -83.5t1 -87.5t-26.5 -83
t-54 -70t-81.5 -48.5t-108.5 -18zM733 952v2v-270h207q37 0 66 15t44 38.5t22 52t0 57t-21.5 52t-42.5 38.5t-64 15h-211z"/><glyph glyph-name="trademark" unicode="™" horiz-adv-x="1646" d="M793 1436h143l203 -254l204 254h138v-586h-142l7 385l-195 -246h-31l-190 252l6 -391h-143v586zM346 1315h-215v119h571v-119h-215v-465h-141v465z"/><glyph glyph-name="estimated" unicode="℮" horiz-adv-x="1314" d="M1065 272l76 -59q-90 -125 -202 -176t-265 -51q-115 0 -214 39.5t-174 114t-118 191t-43 261.5q0 146 43 263.5t118 191.5t173.5 113.5t212.5 39.5q78 0 148 -14.5t134.5 -45.5t114.5 -83.5t85.5 -123.5t49.5 -171.5t4 -222.5h-823v-349q120 -108 289 -108q127 0 222 44
t169 146zM965 635v381q-116 90 -293 90t-287 -96v-375h580z"/><glyph glyph-name="uni2153" unicode="⅓" horiz-adv-x="1556" d="M104 827h129v471l-110 -26v119l244 57v-621h133v-116h-396v116zM1026 213h-4q4 -100 160 -100q28 0 54 4.5t50.5 15.5t39.5 33t15 53q0 42 -38 75.5t-119 33.5h-117v112h111q151 0 151 97q0 37 -38.5 69.5t-112.5 32.5q-39 0 -71.5 -8.5t-59 -34.5t-29.5 -66h-121
q0 75 43 126.5t104.5 72.5t135.5 21q115 0 199.5 -56t84.5 -159q0 -54 -28.5 -95.5t-79.5 -60.5q60 -14 93.5 -60.5t33.5 -99.5q0 -64 -27 -111t-72.5 -72t-96 -36.5t-107.5 -11.5q-77 0 -140.5 21t-108 73.5t-44.5 130.5h139zM250 -6l776 1450h158l-776 -1450h-158z"/><glyph glyph-name="uni2154" unicode="⅔" horiz-adv-x="1720" d="M1186 213h-4q4 -100 159 -100q39 0 72.5 8t60.5 33t27 65q0 42 -38.5 75.5t-119.5 33.5h-116v112h110q152 0 152 97q0 37 -39 69.5t-113 32.5q-39 0 -71.5 -8.5t-58.5 -34.5t-29 -66h-121q0 75 42.5 126.5t104 72.5t135.5 21q115 0 200 -56t85 -159q0 -54 -28.5 -95.5
t-79.5 -60.5q60 -14 93 -60.5t33 -99.5q0 -64 -27 -111t-72.5 -72t-96 -36.5t-107.5 -11.5q-77 0 -140 21t-107.5 73.5t-44.5 130.5h139zM82 698l2 2v177q0 62 25.5 107t69.5 70.5t92 38t104 15.5q153 10 153 117q0 108 -155 108q-152 0 -154 -106h-131q0 61 24 106.5
t66 70.5t90 36.5t103 11.5q60 0 110 -11.5t92 -36.5t65.5 -70.5t23.5 -108.5q0 -56 -18.5 -98t-43.5 -65t-64.5 -39t-69 -21t-69.5 -9q-30 -3 -49.5 -6t-47 -11t-43.5 -20t-28 -33t-12 -49v-43h434v-133h-569zM414 -6l776 1450h158l-777 -1450h-157z"/><glyph glyph-name="oneeighth" unicode="⅛" horiz-adv-x="1607" d="M104 827h129v471l-110 -26v119l244 57v-621h133v-116h-396v116zM901 207q2 63 40 111t101 65q-127 48 -127 160q0 57 26.5 99.5t71 66.5t96 35.5t108.5 11.5q56 0 106.5 -11.5t94 -35.5t69.5 -66.5t26 -99.5q0 -117 -124 -160q60 -17 99.5 -68t39.5 -110
q0 -64 -27.5 -109.5t-75 -69t-99.5 -34t-112 -10.5q-62 0 -114.5 11t-99 35t-73 70t-26.5 109zM1378 543q0 52 -49.5 77t-111.5 25q-65 0 -114.5 -25t-49.5 -77q0 -51 46 -77t118 -26q69 0 114.5 26t46.5 77zM1389 207q0 54 -52.5 84.5t-119.5 30.5q-73 0 -126 -30t-53 -87
q0 -52 54 -81.5t125 -29.5q66 0 119 30t53 83zM252 -6l776 1450h158l-776 -1450h-158z"/><glyph glyph-name="threeeighths" unicode="⅜" horiz-adv-x="1732" d="M223 909h-4q4 -100 160 -100q39 0 72.5 8t60.5 33t27 65q0 42 -38.5 75.5t-119.5 33.5h-117v113h111q151 0 151 96q0 37 -38.5 69.5t-112.5 32.5q-29 0 -54.5 -5t-49.5 -16.5t-39 -33.5t-17 -53h-121q0 57 24.5 100.5t65.5 68.5t90 37.5t103 12.5q115 0 200 -56t85 -159
q0 -54 -29 -95.5t-80 -60.5q60 -14 93.5 -60.5t33.5 -99.5q0 -64 -27 -111t-72.5 -72t-96 -36.5t-107.5 -11.5q-77 0 -140.5 21t-108 73.5t-44.5 130.5h139zM1028 207q2 63 40 111t101 65q-127 48 -127 160q0 57 26 99.5t70.5 66.5t96 35.5t108.5 11.5q76 0 140 -19
t110.5 -69t46.5 -125q0 -117 -124 -160q60 -17 99.5 -68t39.5 -110q0 -64 -27.5 -109.5t-75 -69t-99.5 -34t-112 -10.5q-62 0 -114.5 11t-99 35t-73 70t-26.5 109zM1505 543q0 36 -27 60t-61.5 33t-73.5 9q-65 0 -114 -25t-49 -77q0 -51 45.5 -77t117.5 -26q69 0 115 26
t47 77zM1516 207q0 53 -52.5 84t-120.5 31q-73 0 -125.5 -30t-52.5 -87q0 -52 53.5 -81.5t124.5 -29.5q66 0 119.5 30t53.5 83zM381 -6l776 1450h158l-776 -1450h-158z"/><glyph glyph-name="fiveeighths" unicode="⅝" horiz-adv-x="1736" d="M1030 207q2 63 40 111t101 65q-127 48 -127 160q0 57 26.5 99.5t71 66.5t96 35.5t108.5 11.5q56 0 106.5 -11.5t94 -35.5t69.5 -66.5t26 -99.5q0 -117 -124 -160q60 -17 99.5 -68t39.5 -110q0 -64 -27.5 -109.5t-75 -69t-99.5 -34t-112 -10.5q-62 0 -114.5 11t-99 35
t-73 70t-26.5 109zM1507 543q0 52 -49.5 77t-111.5 25q-65 0 -114.5 -25t-49.5 -77q0 -51 46 -77t118 -26q69 0 114.5 26t46.5 77zM1518 207q0 54 -52.5 84.5t-119.5 30.5q-73 0 -126 -30t-53 -87q0 -52 54 -81.5t125 -29.5q66 0 119 30t53 83zM371 1169q145 -2 223.5 -63.5
t77.5 -183.5q0 -114 -80 -177t-217 -63q-59 0 -108.5 11t-93 35t-68.5 70t-25 109h131q0 -54 45.5 -78t114.5 -24q164 0 164 121q0 54 -39 90.5t-125 36.5h-275v385h531v-119h-404v-150h148zM391 -6l776 1450h158l-776 -1450h-158z"/><glyph glyph-name="seveneighths" unicode="⅞" horiz-adv-x="1564" d="M862 207q1 63 40 111t102 65q-127 48 -127 160q0 57 26 99.5t70.5 66.5t96 35.5t108.5 11.5q76 0 140 -19t110.5 -69t46.5 -125q0 -117 -125 -160q60 -17 99.5 -68t39.5 -110q0 -64 -27.5 -109.5t-75 -69t-99 -34t-111.5 -10.5q-49 0 -92 6.5t-84.5 22.5t-71.5 40.5
t-48 64.5t-18 91zM1339 543q0 52 -49.5 77t-111.5 25q-65 0 -114.5 -25t-49.5 -77q0 -51 46 -77t118 -26q69 0 114.5 26t46.5 77zM1350 207q0 54 -52.5 84.5t-119.5 30.5q-73 0 -126 -30t-53 -87q0 -52 54 -81.5t125 -29.5q66 0 119 30t53 83zM76 1436h549l8 -58l-352 -682
h-152l328 619h-381v121zM213 -6l776 1450h158l-776 -1450h-158z"/><glyph glyph-name="arrowleft" unicode="←" horiz-adv-x="1286" d="M72 721l454 453l92 -91l-288 -288h835v-154h-835l284 -295l-88 -84z"/><glyph glyph-name="arrowup" unicode="↑" horiz-adv-x="1044" d="M526 1274l451 -457l-86 -90l-289 285v-834h-156v834l-294 -283l-82 90z"/><glyph glyph-name="arrowright" unicode="→" horiz-adv-x="1286" d="M1217 721l-457 -459l-92 92l284 289h-831v156h831l-280 293l88 84z"/><glyph glyph-name="arrowdown" unicode="↓" horiz-adv-x="1040" d="M522 154l-456 454l88 92l292 -284v831h156v-831l289 280l84 -88z"/><glyph glyph-name="uni2196" unicode="↖" horiz-adv-x="1036" d="M133 1106h645l2 -133h-407l588 -590l-109 -111l-590 590l-8 -405l-121 4v645z"/><glyph glyph-name="uni2197" unicode="↗" horiz-adv-x="1038" d="M903 459l-131 -2v405l-590 -590l-108 111l590 590l-408 6l2 125h645v-645z"/><glyph glyph-name="uni2198" unicode="↘" horiz-adv-x="1124" d="M918 326h-642l-4 123l410 8l-592 587l111 111l590 -588v406l127 -2v-645z"/><glyph glyph-name="uni2199" unicode="↙" horiz-adv-x="1124" d="M205 971l129 2v-406l590 588l110 -111l-588 -587l406 -8l-4 -123h-643v645z"/><glyph glyph-name="partialdiff" unicode="∂" horiz-adv-x="1230" d="M612 131q110 0 190.5 53t118 132.5t37.5 172.5q0 68 -22.5 131t-64 114t-109 81.5t-150.5 30.5q-84 0 -152.5 -30.5t-111 -81.5t-65.5 -114t-23 -131q0 -69 22.5 -132t65.5 -114t111.5 -81.5t152.5 -30.5zM561 989q102 4 203 -25.5t168 -105.5q-37 102 -135 196
t-210.5 154t-221.5 88l36 136q356 -88 543 -319t191 -595q0 -241 -141 -389.5t-382 -148.5q-126 0 -227.5 43t-164.5 115t-96.5 161.5t-33.5 187.5q0 92 30 177.5t87.5 155.5t148.5 115.5t205 53.5z"/><glyph glyph-name="increment" unicode="∆" horiz-adv-x="1597" d="M1542 0h-1487l643 1434h201zM326 164h944l-471 1077z"/><glyph glyph-name="product" unicode="∏" horiz-adv-x="1404" d="M1036 -387v1655h-665v-1655h-185v1821h1035v-1821h-185z"/><glyph glyph-name="summation" unicode="∑" horiz-adv-x="1198" d="M332 174h760v-174h-1014v96l454 656l-423 604v78h968v-166h-696l354 -520z"/><glyph glyph-name="minus" unicode="−" horiz-adv-x="1083" d="M150 731h784v-162h-784v162z"/><glyph glyph-name="uni2215" unicode="∕" horiz-adv-x="913" d="M-12 -6l776 1450h156l-775 -1450h-157z"/><glyph glyph-name="uni2219" unicode="∙" horiz-adv-x="512" d="M139 641q0 43 24 72.5t58 36t68 -0.5t58 -36t24 -70q0 -44 -24 -74.5t-58 -37.5t-68 0t-58 37t-24 73z"/><glyph glyph-name="radical" unicode="√" horiz-adv-x="1263" d="M752 0h-144l-340 705l-180 -78l-49 116l340 152l309 -696l430 1263l117 -32z"/><glyph glyph-name="infinity" unicode="∞" horiz-adv-x="1605" d="M451 338q-82 0 -148 28.5t-106 75.5t-61 104t-21 118q0 133 92 229t254 96q165 0 342 -221q182 221 342 221q162 0 254 -96t92 -229q0 -61 -21 -118t-61 -104t-106 -75.5t-148 -28.5q-67 0 -133.5 34t-115 78.5t-103.5 110.5q-44 -51 -77 -84.5t-78 -68.5t-94 -52.5
t-103 -17.5zM455 481q23 0 43.5 3.5t40.5 13.5t33.5 17.5t33.5 25.5t28.5 26t30.5 30.5t29 29.5q28 32 33 37l-27 32q-44 50 -72.5 78t-76 54t-96.5 26q-100 0 -156.5 -61.5t-48.5 -141.5q3 -68 57 -117t148 -53zM1151 481q101 4 154 58t53 129q0 74 -55.5 130t-151.5 56
q-22 0 -42.5 -4t-40.5 -15.5t-34 -19.5t-35 -28t-30 -29t-32 -34t-30 -32l-28 -28q12 -7 32 -31h-2q12 -11 42.5 -41.5t47 -43.5t43 -32t53 -27t56.5 -8z"/><glyph glyph-name="integral" unicode="∫" horiz-adv-x="954" d="M377 1081l2 -2q0 174 90.5 270.5t251.5 96.5q118 0 227 -74l-71 -125q-85 53 -154 53q-85 0 -131.5 -54.5t-46.5 -166.5v-1083q0 -176 -83.5 -272.5t-242.5 -96.5q-57 0 -104.5 17.5t-104.5 56.5l68 123q41 -30 68 -40.5t67 -10.5q164 0 164 225v1083z"/><glyph glyph-name="approxequal" unicode="≈" horiz-adv-x="1167" d="M262 690l-108 64q43 93 125.5 135.5t175.5 19.5l290 -96q33 -11 57 -12t43 10t33 29t31 49l109 -51q-103 -226 -297 -154l-279 86q-56 20 -105.5 -3t-74.5 -77zM262 324l-108 63q43 94 125 136.5t174 19.5l290 -94q33 -12 57.5 -13t43.5 10t33.5 29t31.5 49l109 -53
q-103 -226 -301 -154l-277 89q-56 19 -105.5 -4t-72.5 -78z"/><glyph glyph-name="notequal" unicode="≠" horiz-adv-x="1136" d="M139 506h299l166 274h-465v158h557l90 152l80 -48l-63 -104h186v-158h-278l-166 -274h444v-158h-536l-91 -153l-83 47l61 106h-201v158z"/><glyph glyph-name="lessequal" unicode="≤" horiz-adv-x="923" d="M651 1255l90 -108l-401 -287l405 -295l-96 -108l-493 377v55zM141 328h637v-142h-637v142z"/><glyph glyph-name="greaterequal" unicode="≥" horiz-adv-x="923" d="M768 889v-55l-494 -377l-98 108l406 295l-402 287l94 108zM782 186h-637v142h637v-142z"/><glyph glyph-name="lozenge" unicode="◊" horiz-adv-x="1171" d="M651 14h-135l-442 707l442 704h135l449 -704zM260 721l322 -547l333 547l-333 545z"/><glyph glyph-name="fi" unicode="ﬁ" horiz-adv-x="1208" d="M786 1403l2 -2l-55 -133q-59 35 -123 35q-176 0 -176 -222v-82h305v-143h-305v-854h-172v854h-196v143h196v82q0 178 91 273.5t251 95.5q90 0 182 -47zM864 1323q0 51 33 80t78 29q46 0 78 -28.5t32 -82.5q0 -51 -32 -79t-78 -28q-45 0 -78 29t-33 80zM891 2v1016h170
v-1016h-170z"/><glyph glyph-name="fl" unicode="ﬂ" horiz-adv-x="1204" d="M733 1272h-2q-59 33 -121 33q-84 0 -130 -55.5t-46 -168.5v-82h293v-145h-293v-852h-172v852h-196v145h196v82q0 174 91.5 270.5t250.5 96.5q89 0 174 -43zM1038 1434v-1434h-168v1434h168z"/><glyph glyph-name="a.alt" horiz-adv-x="1142" d="M848 160l-2 2q-61 -89 -162 -138t-209 -49q-80 0 -150.5 20.5t-128 60.5t-91 107t-33.5 152q0 83 34 147.5t92 103t129.5 58t151.5 19.5q204 0 359 -82v80q0 65 -28 113.5t-76.5 74.5t-105 38t-122.5 12q-81 0 -172 -21t-160 -53l-29 141q198 88 363 88q105 0 190.5 -21
t153.5 -66t105.5 -123t37.5 -185v-639h-137zM838 416q-66 39 -161.5 62.5t-174.5 23.5q-70 0 -127.5 -18.5t-97 -63t-39.5 -109.5q0 -50 24 -88t63.5 -59.5t83 -32t89.5 -10.5q85 0 161.5 37t126 105.5t52.5 152.5z"/><glyph glyph-name="aacute.alt" horiz-adv-x="1142" d="M848 160l-2 2q-61 -89 -162 -138t-209 -49q-80 0 -150.5 20.5t-128 60.5t-91 107t-33.5 152q0 83 34 147.5t92 103t129.5 58t151.5 19.5q204 0 359 -82v80q0 65 -28 113.5t-76.5 74.5t-105 38t-122.5 12q-81 0 -172 -21t-160 -53l-29 141q198 88 363 88q105 0 190.5 -21
t153.5 -66t105.5 -123t37.5 -185v-639h-137zM838 416q-66 39 -161.5 62.5t-174.5 23.5q-70 0 -127.5 -18.5t-97 -63t-39.5 -109.5q0 -50 24 -88t63.5 -59.5t83 -32t89.5 -10.5q85 0 161.5 37t126 105.5t52.5 152.5zM430 1174v12l148 252h204v-6l-202 -258h-150z"/><glyph glyph-name="abreve.alt" horiz-adv-x="1142" d="M848 160l-2 2q-61 -89 -162 -138t-209 -49q-80 0 -150.5 20.5t-128 60.5t-91 107t-33.5 152q0 83 34 147.5t92 103t129.5 58t151.5 19.5q204 0 359 -82v80q0 65 -28 113.5t-76.5 74.5t-105 38t-122.5 12q-81 0 -172 -21t-160 -53l-29 141q198 88 363 88q105 0 190.5 -21
t153.5 -66t105.5 -123t37.5 -185v-639h-137zM838 416q-66 39 -161.5 62.5t-174.5 23.5q-70 0 -127.5 -18.5t-97 -63t-39.5 -109.5q0 -50 24 -88t63.5 -59.5t83 -32t89.5 -10.5q85 0 161.5 37t126 105.5t52.5 152.5zM883 1442q1 -66 -27.5 -120.5t-75.5 -88.5t-102.5 -52
t-112.5 -18q-139 0 -231.5 76t-85.5 203h135q0 -62 47 -105t135 -43q87 0 132.5 42.5t45.5 105.5h140z"/><glyph glyph-name="acircumflex.alt" horiz-adv-x="1142" d="M848 160l-2 2q-61 -89 -162 -138t-209 -49q-80 0 -150.5 20.5t-128 60.5t-91 107t-33.5 152q0 83 34 147.5t92 103t129.5 58t151.5 19.5q204 0 359 -82v80q0 65 -28 113.5t-76.5 74.5t-105 38t-122.5 12q-81 0 -172 -21t-160 -53l-29 141q198 88 363 88q105 0 190.5 -21
t153.5 -66t105.5 -123t37.5 -185v-639h-137zM838 416q-66 39 -161.5 62.5t-174.5 23.5q-70 0 -127.5 -18.5t-97 -63t-39.5 -109.5q0 -50 24 -88t63.5 -59.5t83 -32t89.5 -10.5q85 0 161.5 37t126 105.5t52.5 152.5zM508 1452h106l295 -272v-17h-174l-176 162l-174 -162h-176
v17z"/><glyph glyph-name="adieresis.alt" horiz-adv-x="1142" d="M848 160l-2 2q-61 -89 -162 -138t-209 -49q-80 0 -150.5 20.5t-128 60.5t-91 107t-33.5 152q0 83 34 147.5t92 103t129.5 58t151.5 19.5q204 0 359 -82v80q0 65 -28 113.5t-76.5 74.5t-105 38t-122.5 12q-81 0 -172 -21t-160 -53l-29 141q198 88 363 88q105 0 190.5 -21
t153.5 -66t105.5 -123t37.5 -185v-639h-137zM838 416q-66 39 -161.5 62.5t-174.5 23.5q-70 0 -127.5 -18.5t-97 -63t-39.5 -109.5q0 -50 24 -88t63.5 -59.5t83 -32t89.5 -10.5q85 0 161.5 37t126 105.5t52.5 152.5zM229 1343q0 42 22.5 70.5t54.5 35t63.5 0t54 -34.5
t22.5 -68t-22.5 -67.5t-54 -34.5t-63.5 -1t-54.5 33t-22.5 67zM700 1343q0 51 34.5 80.5t75.5 29.5t75.5 -29.5t34.5 -80.5q0 -50 -34.5 -78.5t-75.5 -28.5t-75.5 28.5t-34.5 78.5z"/><glyph glyph-name="agrave.alt" horiz-adv-x="1142" d="M848 160l-2 2q-61 -89 -162 -138t-209 -49q-80 0 -150.5 20.5t-128 60.5t-91 107t-33.5 152q0 83 34 147.5t92 103t129.5 58t151.5 19.5q204 0 359 -82v80q0 65 -28 113.5t-76.5 74.5t-105 38t-122.5 12q-81 0 -172 -21t-160 -53l-29 141q198 88 363 88q105 0 190.5 -21
t153.5 -66t105.5 -123t37.5 -185v-639h-137zM838 416q-66 39 -161.5 62.5t-174.5 23.5q-70 0 -127.5 -18.5t-97 -63t-39.5 -109.5q0 -50 24 -88t63.5 -59.5t83 -32t89.5 -10.5q85 0 161.5 37t126 105.5t52.5 152.5zM535 1180l-197 256v6h197l149 -252v-10h-149z"/><glyph glyph-name="amacron.alt" horiz-adv-x="1142" d="M254 1401h623v-133h-623v133zM848 160l-2 2q-61 -89 -162 -138t-209 -49q-80 0 -150.5 20.5t-128 60.5t-91 107t-33.5 152q0 83 34 147.5t92 103t129.5 58t151.5 19.5q204 0 359 -82v80q0 65 -28 113.5t-76.5 74.5t-105 38t-122.5 12q-81 0 -172 -21t-160 -53l-29 141
q198 88 363 88q105 0 190.5 -21t153.5 -66t105.5 -123t37.5 -185v-639h-137zM838 416q-66 39 -161.5 62.5t-174.5 23.5q-70 0 -127.5 -18.5t-97 -63t-39.5 -109.5q0 -50 24 -88t63.5 -59.5t83 -32t89.5 -10.5q85 0 161.5 37t126 105.5t52.5 152.5z"/><glyph glyph-name="aogonek.alt" horiz-adv-x="1142" d="M848 160l-2 2q-55 -80 -161.5 -129t-209.5 -49q-80 0 -150.5 19.5t-128 59t-91 105.5t-33.5 151q0 83 34 147t92.5 101.5t129.5 56.5t151 19q204 0 359 -82v80q0 65 -28 113.5t-76.5 74.5t-105 38t-122.5 12q-81 0 -172 -21t-160 -53l-29 141q198 88 363 88
q105 0 190.5 -21t153.5 -66t105.5 -123t37.5 -185v-639q-88 -39 -154.5 -83.5t-104 -83.5t-59.5 -78.5t-27.5 -68.5t-2.5 -53q7 -41 40 -62.5t71 -21.5q61 0 105 15.5t93 56.5l78 -96q-47 -46 -123 -78.5t-149 -32.5q-112 0 -176.5 43t-83.5 111q-10 33 -6 72.5t15.5 79.5
t40.5 81.5t69 80t100.5 75.5t134.5 66zM838 416q-66 39 -161.5 62.5t-174.5 23.5q-51 0 -96.5 -10.5t-84 -31.5t-61 -58.5t-22.5 -86.5q0 -50 24 -87.5t63.5 -58t83 -30.5t89.5 -10q86 0 162 35t125.5 101.5t52.5 150.5z"/><glyph glyph-name="aring.alt" horiz-adv-x="1142" d="M848 160l-2 2q-61 -89 -162 -138t-209 -49q-80 0 -150.5 20.5t-128 60.5t-91 107t-33.5 152q0 83 34 147.5t92 103t129.5 58t151.5 19.5q204 0 359 -82v80q0 65 -28 113.5t-76.5 74.5t-105 38t-122.5 12q-81 0 -172 -21t-160 -53l-29 141q198 88 363 88q105 0 190.5 -21
t153.5 -66t105.5 -123t37.5 -185v-639h-137zM838 416q-66 39 -161.5 62.5t-174.5 23.5q-70 0 -127.5 -18.5t-97 -63t-39.5 -109.5q0 -50 24 -88t63.5 -59.5t83 -32t89.5 -10.5q85 0 161.5 37t126 105.5t52.5 152.5zM334 1348q0 90 67.5 142t157.5 52q93 0 161 -51t68 -143
q0 -91 -66 -144t-165 -53q-95 0 -159 53t-64 144zM559 1446q-43 0 -72 -20.5t-36 -49t0 -57.5t36 -49.5t72 -20.5q37 0 64.5 14.5t40 36.5t12.5 47.5t-12.5 47.5t-40 36.5t-64.5 14.5z"/><glyph glyph-name="aringacute.alt" horiz-adv-x="1142" d="M481 1528l146 192h178v-4l-197 -194h-127v6zM340 1286v4q0 83 64.5 130.5t152.5 47.5q84 0 147.5 -47.5t63.5 -132.5q0 -84 -62 -132t-149 -48q-96 0 -156.5 46.5t-60.5 131.5zM551 1378h2q-50 0 -78.5 -29t-28.5 -63t28.5 -63t78.5 -29q42 0 70 19t33.5 46t-1.5 54
t-35.5 46t-68.5 19zM848 160l-2 2q-61 -89 -162 -138t-209 -49q-80 0 -150.5 20.5t-128 60.5t-91 107t-33.5 152q0 83 34 147.5t92 103t129.5 58t151.5 19.5q204 0 359 -82v80q0 65 -28 113.5t-76.5 74.5t-105 38t-122.5 12q-81 0 -172 -21t-160 -53l-29 141q198 88 363 88
q105 0 190.5 -21t153.5 -66t105.5 -123t37.5 -185v-639h-137zM838 416q-66 39 -161.5 62.5t-174.5 23.5q-70 0 -127.5 -18.5t-97 -63t-39.5 -109.5q0 -50 24 -88t63.5 -59.5t83 -32t89.5 -10.5q85 0 161.5 37t126 105.5t52.5 152.5z"/><glyph glyph-name="atilde.alt" horiz-adv-x="1142" d="M848 160l-2 2q-61 -89 -162 -138t-209 -49q-80 0 -150.5 20.5t-128 60.5t-91 107t-33.5 152q0 83 34 147.5t92 103t129.5 58t151.5 19.5q204 0 359 -82v80q0 65 -28 113.5t-76.5 74.5t-105 38t-122.5 12q-81 0 -172 -21t-160 -53l-29 141q198 88 363 88q105 0 190.5 -21
t153.5 -66t105.5 -123t37.5 -185v-639h-137zM838 416q-66 39 -161.5 62.5t-174.5 23.5q-70 0 -127.5 -18.5t-97 -63t-39.5 -109.5q0 -50 24 -88t63.5 -59.5t83 -32t89.5 -10.5q85 0 161.5 37t126 105.5t52.5 152.5zM270 1286l-2 6q23 93 90.5 134t153.5 12q14 -1 62 -27.5
t57 -28.5q83 -29 110 56l113 -47q-27 -103 -93.5 -139t-144.5 -7q-14 2 -62.5 26.5t-53.5 26.5q-85 33 -119 -59z"/><glyph glyph-name="g.alt" horiz-adv-x="1306" d="M1151 -20q0 -104 -27.5 -189.5t-74.5 -143.5t-112 -98t-138 -58.5t-154 -18.5q-227 0 -360.5 102t-137.5 281h164q10 -111 100.5 -169.5t235.5 -58.5q67 0 126 20.5t107 61t76.5 109t28.5 157.5v203q-58 -98 -161 -150.5t-216 -52.5q-146 0 -263 63t-186 185t-69 283
q0 121 41 221.5t111.5 167t165 103t202.5 36.5q117 0 219.5 -55.5t157.5 -151.5l4 183h160v-1030zM621 872q-154 0 -259.5 -103.5t-105.5 -268.5q0 -164 105.5 -267.5t259.5 -103.5q101 0 180 41t119.5 106.5t59.5 145t0 159t-59.5 145t-119.5 106t-180 40.5z"/><glyph glyph-name="gbreve.alt" horiz-adv-x="1306" d="M1151 -20q0 -104 -27.5 -189.5t-74.5 -143.5t-112 -98t-138 -58.5t-154 -18.5q-227 0 -360.5 102t-137.5 281h164q10 -111 100.5 -169.5t235.5 -58.5q67 0 126 20.5t107 61t76.5 109t28.5 157.5v203q-58 -98 -161 -150.5t-216 -52.5q-146 0 -263 63t-186 185t-69 283
q0 121 41 221.5t111.5 167t165 103t202.5 36.5q117 0 219.5 -55.5t157.5 -151.5l4 183h160v-1030zM621 872q-154 0 -259.5 -103.5t-105.5 -268.5q0 -164 105.5 -267.5t259.5 -103.5q101 0 180 41t119.5 106.5t59.5 145t0 159t-59.5 145t-119.5 106t-180 40.5zM963 1450
q1 -66 -27.5 -120.5t-75.5 -88.5t-102.5 -52t-112.5 -18q-139 0 -231.5 76t-85.5 203h135q0 -62 46.5 -104.5t135.5 -42.5q87 0 132.5 42t45.5 105h140z"/><glyph glyph-name="gcircumflex.alt" horiz-adv-x="1306" d="M1151 -20q0 -104 -27.5 -189.5t-74.5 -143.5t-112 -98t-138 -58.5t-154 -18.5q-227 0 -360.5 102t-137.5 281h164q10 -111 100.5 -169.5t235.5 -58.5q67 0 126 20.5t107 61t76.5 109t28.5 157.5v203q-58 -98 -161 -150.5t-216 -52.5q-146 0 -263 63t-186 185t-69 283
q0 121 41 221.5t111.5 167t165 103t202.5 36.5q117 0 219.5 -55.5t157.5 -151.5l4 183h160v-1030zM621 872q-154 0 -259.5 -103.5t-105.5 -268.5q0 -164 105.5 -267.5t259.5 -103.5q101 0 180 41t119.5 106.5t59.5 145t0 159t-59.5 145t-119.5 106t-180 40.5zM612 1464h107
l295 -272v-16h-174l-176 161l-175 -161h-176v16z"/><glyph glyph-name="gcommaaccent.alt" horiz-adv-x="1302" d="M684 1376h-2q72 -26 72 -92q0 -40 -22.5 -67t-55 -32.5t-64.5 1t-54.5 34t-22.5 66.5q0 9 10 38t33 90.5t40 111.5h113zM1151 -20q0 -104 -27.5 -189.5t-74.5 -143.5t-112 -98t-138 -58.5t-154 -18.5q-227 0 -360.5 102t-137.5 281h164q10 -111 100.5 -169.5t235.5 -58.5
q67 0 126 20.5t107 61t76.5 109t28.5 157.5v203q-58 -98 -161 -150.5t-216 -52.5q-146 0 -263 63t-186 185t-69 283q0 121 41 221.5t111.5 167t165 103t202.5 36.5q117 0 219.5 -55.5t157.5 -151.5l4 183h160v-1030zM621 872q-154 0 -259.5 -103.5t-105.5 -268.5
q0 -164 105.5 -267.5t259.5 -103.5q101 0 180 41t119.5 106.5t59.5 145t0 159t-59.5 145t-119.5 106t-180 40.5z"/><glyph glyph-name="gdotaccent.alt" horiz-adv-x="1302" d="M1151 -20q0 -104 -27.5 -189.5t-74.5 -143.5t-112 -98t-138 -58.5t-154 -18.5q-227 0 -360.5 102t-137.5 281h164q10 -111 100.5 -169.5t235.5 -58.5q67 0 126 20.5t107 61t76.5 109t28.5 157.5v203q-58 -98 -161 -150.5t-216 -52.5q-146 0 -263 63t-186 185t-69 283
q0 121 41 221.5t111.5 167t165 103t202.5 36.5q117 0 219.5 -55.5t157.5 -151.5l4 183h160v-1030zM621 872q-154 0 -259.5 -103.5t-105.5 -268.5q0 -164 105.5 -267.5t259.5 -103.5q101 0 180 41t119.5 106.5t59.5 145t0 159t-59.5 145t-119.5 106t-180 40.5zM532 1358
q0 41 23 69.5t56 35t66 -0.5t56 -35.5t23 -70.5q0 -41 -23 -69.5t-56 -35t-66 0.5t-56 35.5t-23 70.5z"/><glyph glyph-name="y.alt" horiz-adv-x="1247" d="M1096 -31q0 -124 -37.5 -220.5t-103.5 -155.5t-150 -89t-182 -30q-209 0 -330 99.5t-133 279.5h162q33 -222 299 -222q135 0 224 87t89 253v191q-122 -182 -354 -185q-195 0 -319 129t-124 347v557h168v-555q0 -150 82 -237t227 -87q136 0 224 99.5t88 238.5v541h170
v-1041z"/><glyph glyph-name="yacute.alt" horiz-adv-x="1247" d="M1096 -31q0 -124 -37.5 -220.5t-103.5 -155.5t-150 -89t-182 -30q-209 0 -330 99.5t-133 279.5h162q33 -222 299 -222q135 0 224 87t89 253v191q-122 -182 -354 -185q-195 0 -319 129t-124 347v557h168v-555q0 -150 82 -237t227 -87q136 0 224 99.5t88 238.5v541h170
v-1041zM500 1167v13l147 254h207v-7l-205 -260h-149z"/><glyph glyph-name="ycircumflex.alt" horiz-adv-x="1247" d="M1096 -31q0 -124 -37.5 -220.5t-103.5 -155.5t-150 -89t-182 -30q-209 0 -330 99.5t-133 279.5h162q33 -222 299 -222q135 0 224 87t89 253v191q-122 -182 -354 -185q-195 0 -319 129t-124 347v557h168v-555q0 -150 82 -237t227 -87q136 0 224 99.5t88 238.5v541h170
v-1041zM567 1448h107l295 -272v-17h-174l-177 162l-174 -162h-176v17z"/><glyph glyph-name="ydieresis.alt" horiz-adv-x="1247" d="M1096 -31q0 -124 -37.5 -220.5t-103.5 -155.5t-150 -89t-182 -30q-209 0 -330 99.5t-133 279.5h162q33 -222 299 -222q135 0 224 87t89 253v191q-122 -182 -354 -185q-195 0 -319 129t-124 347v557h168v-555q0 -150 82 -237t227 -87q136 0 224 99.5t88 238.5v541h170
v-1041zM291 1331q0 42 22.5 70t54.5 34.5t63.5 0t54 -34.5t22.5 -68t-22.5 -67.5t-54 -34t-63.5 -0.5t-54.5 33t-22.5 67zM762 1331q0 51 34 80.5t75.5 29.5t75.5 -29.5t34 -80.5q0 -50 -34 -78.5t-75.5 -28.5t-75.5 28.5t-34 78.5z"/><glyph glyph-name="ygrave.alt" horiz-adv-x="1247" d="M1096 -31q0 -124 -37.5 -220.5t-103.5 -155.5t-150 -89t-182 -30q-209 0 -330 99.5t-133 279.5h162q33 -222 299 -222q135 0 224 87t89 253v191q-122 -182 -354 -185q-195 0 -319 129t-124 347v557h168v-555q0 -150 82 -237t227 -87q136 0 224 99.5t88 238.5v541h170
v-1041zM600 1167l-203 260v7h203l154 -254v-13h-154z"/><glyph glyph-name="zero.denom" horiz-adv-x="796" d="M84 311v109q0 78 27 142t71.5 103t101 60t115 21t115 -21t101 -60t71.5 -103t27 -142v-109q0 -79 -27 -143t-71.5 -103.5t-101 -61t-115 -21.5t-115 21.5t-101 61t-71.5 103.5t-27 143zM215 418v-109q0 -54 20 -97t51.5 -65.5t70 -33t77 0t70 32.5t51.5 65t20 98v109
q0 56 -20 100t-51.5 66.5t-70 33t-77 0t-70 -33t-51.5 -66.5t-20 -100z"/><glyph glyph-name="one.denom" horiz-adv-x="524" d="M74 117h129v471l-111 -27v119l244 57v-620h133v-117h-395v117z"/><glyph glyph-name="two.denom" horiz-adv-x="743" d="M82 0l2 2v176q0 62 25.5 107.5t69.5 70.5t92 38t104 16q153 10 153 116q0 109 -155 109q-152 0 -154 -107h-131q0 61 24 106.5t65.5 70.5t90 37t103.5 12q60 0 110 -11.5t92 -37t65.5 -71t23.5 -108.5q0 -56 -18.5 -98t-43.5 -65t-65 -38.5t-69 -20.5t-69 -9
q-30 -3 -49.5 -6t-47 -11t-43.5 -20t-28 -33t-12 -49v-43h434v-133h-569z"/><glyph glyph-name="three.denom" horiz-adv-x="749" d="M213 213h-4q4 -100 160 -100q28 0 54 4.5t50.5 15.5t39.5 33t15 53q0 42 -38 75.5t-119 33.5h-117v112h111q151 0 151 97q0 37 -38.5 69.5t-112.5 32.5q-39 0 -71.5 -8.5t-59 -34.5t-29.5 -66h-121q0 75 43 126.5t104.5 72.5t135.5 21q115 0 199.5 -56t84.5 -159
q0 -54 -28.5 -95.5t-79.5 -60.5q60 -14 93.5 -60.5t33.5 -99.5q0 -64 -27 -111t-72.5 -72t-96 -36.5t-107.5 -11.5q-77 0 -140.5 21t-108 73.5t-44.5 130.5h139z"/><glyph glyph-name="four.denom" horiz-adv-x="747" d="M584 739v-469h86v-120h-86v-148h-133v148h-394l-6 108l355 481h178zM451 270v340l-252 -340h252z"/><glyph glyph-name="five.denom" horiz-adv-x="741" d="M371 471q144 -2 223 -64t78 -184q0 -114 -80 -176.5t-217 -62.5q-59 0 -108.5 11t-93 35t-68.5 70t-25 109h131q0 -54 46 -78.5t114 -24.5q164 0 164 121q0 54 -39 90.5t-125 36.5h-275v385h531v-118h-404v-150h148z"/><glyph glyph-name="six.denom" horiz-adv-x="770" d="M397 100q65 0 114.5 30.5t49.5 90.5q0 61 -49 93t-115 32q-71 0 -120.5 -31t-49.5 -92t48.5 -90.5t121.5 -32.5zM229 512v-109q59 56 168 56q59 0 108.5 -11.5t93.5 -36.5t69.5 -74t25.5 -116q0 -79 -46 -133.5t-111 -77t-140 -22.5q-57 0 -109 14t-96 41.5t-70 75
t-26 108.5v285q0 81 43.5 137t107 79.5t140.5 23.5q125 0 208.5 -51t86.5 -152h-133q-9 84 -160 84q-73 0 -116.5 -29t-43.5 -92z"/><glyph glyph-name="seven.denom" horiz-adv-x="649" d="M57 739h549l8 -57l-352 -682h-151l327 618h-381v121z"/><glyph glyph-name="eight.denom" horiz-adv-x="786" d="M82 207q2 63 40 111t101 65q-127 48 -127 160q0 57 26 99.5t70.5 66.5t96 35.5t108.5 11.5q76 0 140 -19t110.5 -69t46.5 -125q0 -117 -125 -160q60 -17 100 -68t40 -110q0 -64 -27.5 -109.5t-75 -69t-99.5 -34t-112 -10.5q-62 0 -114.5 11t-99 35t-73 70t-26.5 109z
M559 543q0 36 -27 60t-61.5 33t-73.5 9q-65 0 -114.5 -25t-49.5 -77q0 -51 46 -77t118 -26q69 0 115 26t47 77zM569 207q0 54 -52.5 84.5t-119.5 30.5q-73 0 -125.5 -30t-52.5 -87q0 -52 53.5 -81.5t124.5 -29.5q66 0 119 30t53 83z"/><glyph glyph-name="nine.denom" horiz-adv-x="768" d="M672 223q1 -118 -83.5 -178.5t-205.5 -60.5q-127 0 -209 50.5t-86 153.5h131q12 -84 162 -84q74 0 117 29t43 90v113q-57 -57 -168 -57q-59 0 -109.5 11.5t-94.5 37t-69.5 73.5t-25.5 115q0 79 46 133.5t111.5 77.5t141.5 23q79 0 144.5 -23.5t110 -79t44.5 -135.5v-289z
M373 635q-68 0 -116 -29t-48 -90q0 -62 48 -92.5t116 -30.5q69 0 118.5 30.5t49.5 86.5q0 62 -48.5 92t-119.5 33z"/><glyph glyph-name="zero.num" horiz-adv-x="796" d="M84 1024v109q0 78 27 142t71.5 103t101 60t115 21t115 -21t101 -60t71.5 -103t27 -142v-109q0 -79 -27 -143t-71.5 -103.5t-101 -61t-115 -21.5t-115 21.5t-101 61t-71.5 103.5t-27 143zM215 1130v-108q0 -54 20 -97t51.5 -65.5t70 -33t77 0t70 32.5t51.5 65t20 98v108
q0 56 -20 100t-51.5 66.5t-70 33t-77 0t-70 -33t-51.5 -66.5t-20 -100z"/><glyph glyph-name="one.num" horiz-adv-x="528" d="M74 836h129v471l-111 -27v119l244 57v-620h133v-117h-395v117z"/><glyph glyph-name="two.num" horiz-adv-x="747" d="M82 700l2 2v177q0 62 25.5 107t69.5 70.5t92 38t104 15.5q153 10 153 117q0 108 -155 108q-152 0 -154 -106h-131q0 61 24 106.5t66 70.5t90 36.5t103 11.5q60 0 110 -11.5t92 -36.5t65.5 -70.5t23.5 -108.5q0 -56 -18.5 -98t-43.5 -65t-64.5 -39t-69 -21t-69.5 -9
q-31 -3 -49.5 -6t-46.5 -11t-44 -19.5t-28 -32.5t-12 -49v-43h434v-134h-569z"/><glyph glyph-name="three.num" horiz-adv-x="751" d="M213 918h-4q4 -101 160 -101q63 0 111 24.5t48 82.5q0 42 -38 75t-119 33h-117v113h111q151 0 151 96q0 37 -38.5 69.5t-112.5 32.5q-29 0 -54.5 -5t-49.5 -16.5t-39 -33.5t-17 -53h-121q0 57 24.5 100.5t65.5 68.5t90 37.5t103 12.5q115 0 199.5 -56t84.5 -159
q0 -54 -28.5 -95.5t-79.5 -60.5q60 -14 93.5 -60t33.5 -99q0 -64 -27 -111t-72.5 -72.5t-96 -37t-107.5 -11.5q-77 0 -140.5 21.5t-108 74t-44.5 130.5h139z"/><glyph glyph-name="four.num" horiz-adv-x="747" d="M584 1438v-469h86v-121h-86v-148h-133v148h-394l-6 108l355 482h178zM451 969v340l-252 -340h252z"/><glyph glyph-name="five.num" horiz-adv-x="739" d="M371 1169q145 -2 223.5 -63.5t77.5 -183.5q0 -114 -80 -177t-217 -63q-59 0 -108.5 11t-93 35t-68.5 70t-25 109h131q0 -54 45.5 -78t114.5 -24q164 0 164 121q0 54 -39 90.5t-125 36.5h-275v385h531v-119h-404v-150h148z"/><glyph glyph-name="six.num" horiz-adv-x="770" d="M397 803q65 0 114.5 30.5t49.5 90.5q0 61 -49 93t-115 32q-71 0 -120.5 -31t-49.5 -92t48.5 -90.5t121.5 -32.5zM229 1214v-108q58 55 168 55q59 0 108.5 -11t93.5 -36.5t69.5 -74t25.5 -115.5q0 -79 -46 -133.5t-111 -77.5t-140 -23q-78 0 -144 23.5t-111.5 79.5
t-45.5 137v284q0 81 43.5 137t107 79.5t140.5 23.5q125 0 208.5 -51t86.5 -152h-133q-9 84 -160 84q-73 0 -116.5 -29t-43.5 -92z"/><glyph glyph-name="seven.num" horiz-adv-x="649" d="M57 1436h549l8 -58l-352 -682h-151l327 619h-381v121z"/><glyph glyph-name="eight.num" horiz-adv-x="788" d="M82 905q2 63 40 111t101 65q-127 48 -127 160q0 57 26 99.5t70.5 66.5t96 35.5t108.5 11.5q76 0 140 -19t110.5 -69t46.5 -125q0 -117 -125 -160q60 -17 100 -68t40 -110q0 -64 -27.5 -109.5t-75 -69t-99.5 -34t-112 -10.5q-62 0 -114.5 11t-99 35t-73 70t-26.5 109z
M559 1241q0 36 -27 60t-61.5 33t-73.5 9q-65 0 -114.5 -25t-49.5 -77q0 -51 46 -76.5t118 -25.5q70 0 115.5 25.5t46.5 76.5zM569 905q0 54 -52.5 84.5t-119.5 30.5q-73 0 -125.5 -30t-52.5 -87q0 -52 53.5 -81t124.5 -29q66 0 119 29.5t53 82.5z"/><glyph glyph-name="nine.num" horiz-adv-x="770" d="M672 932q1 -118 -83.5 -179t-205.5 -61q-127 0 -209 51t-86 154h131q12 -84 162 -84q74 0 117 29t43 90v112q-57 -57 -168 -57q-47 0 -88 6.5t-80.5 23.5t-68 43.5t-45.5 68.5t-17 96q0 79 46 133.5t111.5 77t141.5 22.5q79 0 144.5 -23t110 -78.5t44.5 -135.5v-289z
M373 1343q-68 0 -116 -28.5t-48 -89.5q0 -62 48 -92.5t116 -30.5q69 0 118.5 30.5t49.5 86.5q0 62 -48.5 91.5t-119.5 32.5z"/><glyph glyph-name="zero.tf" d="M129 573v287q0 145 49.5 262.5t132 190t185 111t213.5 38.5q110 0 212 -39.5t184.5 -112.5t132.5 -190t50 -260v-287q0 -116 -32.5 -215.5t-88.5 -169.5t-130 -119.5t-157.5 -73.5t-170.5 -24q-111 0 -213.5 39t-185 111.5t-132 190t-49.5 261.5zM305 860v-287
q0 -104 34 -188.5t91 -137t128 -80.5t149 -28q77 0 148.5 28.5t129 81.5t92.5 137.5t35 188.5v287q0 104 -34.5 187.5t-92 135.5t-128.5 79.5t-148 27.5t-148 -28t-129 -80t-92.5 -136t-34.5 -188z"/><glyph glyph-name="one.tf" d="M260 154h379v1058l-348 -86v164l526 144v-1280h400v-154h-957v154z"/><glyph glyph-name="two.tf" d="M336 1049h-180q3 92 39 165t91 118.5t130 75.5t151 42t158 12q83 0 160 -14t150 -46.5t126.5 -81t86 -124t32.5 -168.5q0 -95 -32.5 -170t-86 -124t-127.5 -81t-152.5 -45.5t-164.5 -13.5q-56 0 -106.5 -6t-103.5 -23t-91.5 -43.5t-63 -72t-24.5 -103.5v-176h946v-170
h-1127v346q0 93 33.5 166.5t88 119t129.5 75t153 41.5t164 12q64 0 126.5 13t123.5 41.5t99 83.5t38 128q0 75 -31.5 131.5t-86 88.5t-119.5 47.5t-140 15.5q-69 0 -134 -13.5t-124 -42t-95 -81.5t-36 -123z"/><glyph glyph-name="three.tf" d="M330 1067h-180q0 87 34 156.5t88 113t128 72.5t148.5 41t153.5 12q154 0 277 -47.5t195.5 -140.5t72.5 -217q0 -111 -73 -201t-183 -115q122 -30 204.5 -122.5t82.5 -210.5q0 -104 -45.5 -187.5t-125 -136.5t-183.5 -81t-224 -28q-82 0 -158 11.5t-153 41t-133.5 75
t-91.5 118t-35 164.5h178q0 -62 27.5 -108.5t67.5 -72t97 -41t104.5 -20t101.5 -4.5q174 0 283.5 71t109.5 193q0 48 -22 92t-66 82.5t-121 61.5t-176 23h-232v149h219q163 0 268 70t105 174q0 46 -21.5 88t-64 77.5t-115.5 56.5t-167 21q-51 0 -98.5 -5.5t-99.5 -21.5
t-90 -40.5t-62.5 -66.5t-24.5 -97z"/><glyph glyph-name="four.tf" d="M938 299h-827l-29 158l827 977h209v-967h189v-168h-189v-299h-180v299zM938 467v754l-647 -754h647z"/><glyph glyph-name="five.tf" d="M743 899q261 0 404 -121.5t143 -331.5q0 -209 -154 -341t-405 -132q-89 0 -168 12.5t-153.5 43t-128 78t-85.5 121.5t-32 169h176q0 -60 25 -106.5t63.5 -74t91.5 -45t103 -24t104 -6.5q169 0 276 84t107 219q0 131 -94.5 209t-272.5 78h-553v703h1018v-164h-843v-371
h378z"/><glyph glyph-name="six.tf" d="M330 1024v-307q64 90 174.5 132t232.5 42q87 0 167 -15t155 -50t130.5 -86t88.5 -129.5t33 -174.5q0 -93 -33 -171t-89 -131.5t-130.5 -90t-156 -53.5t-167.5 -17q-87 0 -169 17t-157.5 54.5t-131.5 91t-89.5 132.5t-33.5 174v584q0 107 48 192t129 137t181 79.5
t209 27.5q113 0 211.5 -23.5t176.5 -70t124.5 -122.5t50.5 -173h-176q-3 75 -59.5 130.5t-142 81.5t-185.5 26t-188.5 -33.5t-145.5 -100.5t-57 -153zM735 135q59 0 114.5 10t108 33.5t91.5 57.5t62.5 85.5t23.5 114.5q0 76 -33.5 134.5t-91 92.5t-126 51t-145.5 17
q-76 0 -146.5 -18t-130 -52.5t-95 -92.5t-35.5 -132q0 -78 35.5 -138t95 -94.5t128.5 -51.5t144 -17z"/><glyph glyph-name="seven.tf" d="M1038 1268h-841v166h1048l15 -115l-717 -1319h-203z"/><glyph glyph-name="eight.tf" d="M104 408q0 117 78 208t201 125q-248 94 -248 314q0 85 33.5 154.5t89 115.5t130.5 77.5t155 45.5t166 14q84 0 164 -14t155.5 -45.5t132 -77.5t91 -115.5t34.5 -154.5q0 -108 -70 -190.5t-186 -121.5q120 -33 200.5 -128.5t80.5 -211.5q0 -100 -35.5 -177t-92.5 -124
t-137.5 -77.5t-162 -42t-174.5 -11.5q-91 0 -172.5 11.5t-163 42.5t-139.5 78.5t-94 125.5t-36 179zM1104 1059q0 64 -36.5 114.5t-96 80t-128 44.5t-138.5 15q-99 0 -185.5 -26.5t-146.5 -86t-60 -141.5q0 -52 25.5 -94.5t66.5 -70t94 -46.5t105.5 -27t104.5 -8
q66 0 132 13.5t127 41.5t98.5 77.5t37.5 113.5zM709 672q-69 3 -141.5 -11t-138 -43.5t-107 -83.5t-41.5 -124q0 -71 39 -126.5t102.5 -86.5t135.5 -46.5t147 -15.5q60 0 118 9t115 29.5t100.5 51t70 78t26.5 105.5q0 69 -42 122.5t-108 83t-136.5 44t-139.5 14.5z"/><glyph glyph-name="nine.tf" d="M1092 414v313q-67 -95 -176 -137.5t-234 -42.5q-86 0 -166 15t-155 49.5t-130 86t-88.5 129.5t-33.5 174q0 93 33.5 171t89.5 130.5t130.5 89.5t155.5 53.5t166 16.5q87 0 169.5 -17t158 -54t132.5 -90.5t90.5 -132t33.5 -173.5v-583q0 -107 -48 -191t-129.5 -135
t-181 -77.5t-209.5 -26.5q-113 0 -212 23.5t-178.5 69.5t-126.5 122t-50 174h178q3 -75 59 -129.5t141 -79.5t187 -25q74 0 143.5 18.5t126 52t90.5 87.5t34 119zM684 1300q-73 0 -140.5 -17t-126 -51t-93.5 -93.5t-35 -137.5q0 -61 23 -111.5t60.5 -83.5t89 -56t106.5 -33
t114 -10q76 0 146 18t128.5 52.5t93.5 92.5t35 131q0 78 -35.5 137.5t-94.5 93.5t-127.5 51t-143.5 17z"/><glyph glyph-name="bullet.case" horiz-adv-x="804" d="M408 463l-2 -2q-103 0 -167.5 61t-64.5 164q0 101 65.5 163t168.5 62q95 0 159 -62.5t64 -162.5q0 -101 -63.5 -162t-159.5 -61z"/><glyph glyph-name="periodcentered.case" horiz-adv-x="528" d="M150 686q0 44 23.5 74t57 36.5t67.5 0t57.5 -36t23.5 -72.5q0 -44 -23.5 -74t-57.5 -36.5t-67.5 0t-57 36t-23.5 72.5z"/><glyph glyph-name="braceleft.case" horiz-adv-x="698" d="M608 -160l-2 4q-203 -30 -286.5 43t-83.5 263v296q0 207 -154 207v127q154 0 154 209v281q0 187 87 264t283 43v-127q-116 23 -158 -17.5t-42 -166.5v-277q0 -31 -0.5 -44t-1.5 -41t-5 -42t-10.5 -37t-17.5 -36.5t-26.5 -29t-37.5 -26t-49 -18.5q32 -7 56.5 -21t40 -28
t26.5 -38.5t16 -41t7.5 -48t3 -47t0.5 -49.5v-290q0 -126 39.5 -163.5t160.5 -17.5v-131z"/><glyph glyph-name="braceright.case" horiz-adv-x="696" d="M78 -158l-2 2v129q122 -17 163.5 20.5t41.5 162.5v288q0 114 15 160q29 88 132 113q-31 8 -54.5 21.5t-38.5 27.5t-25.5 38t-15.5 40t-7.5 47.5t-3 47t-0.5 50.5v277q0 125 -44 166t-161 18v125q199 37 287 -39.5t88 -263.5v-283q0 -42 5.5 -74.5t21 -65.5t48 -51
t80.5 -18v-129q-48 0 -80.5 -18t-48 -51t-21 -65.5t-5.5 -74.5v-295q0 -189 -85 -262.5t-290 -42.5z"/><glyph glyph-name="bracketleft.case" horiz-adv-x="702" d="M186 1618h426v-154h-252v-1503h252v-156h-426v1813z"/><glyph glyph-name="bracketright.case" horiz-adv-x="702" d="M518 -195h-428v156h254v1503h-254v154h428v-1813z"/><glyph glyph-name="parenleft.case" horiz-adv-x="716" d="M651 1522q-179 -133 -277 -342t-98 -443q-2 -243 92.5 -449t282.5 -345l-88 -127q-225 146 -345 392.5t-120 520.5q0 272 120.5 516t346.5 395z"/><glyph glyph-name="parenright.case" horiz-adv-x="714" d="M63 1524l84 118q227 -149 347 -393.5t120 -517.5q0 -275 -118 -521t-342 -392l-91 127q189 140 283.5 346t91.5 450q0 232 -98.5 442t-276.5 341z"/><glyph glyph-name="emdash.case" horiz-adv-x="1449" d="M152 768h1148v-158h-1148v158z"/><glyph glyph-name="endash.case" horiz-adv-x="1241" d="M152 764h940v-158h-940v158z"/><glyph glyph-name="hyphen.case" horiz-adv-x="1034" d="M150 774h733v-162h-733v162z"/><glyph glyph-name="guillemotleft.case" horiz-adv-x="1005" d="M406 1143h178l-283 -453l283 -452h-178l-285 452zM403 690l283 453h178l-278 -453l278 -452h-178z"/><glyph glyph-name="guillemotright.case" horiz-adv-x="1001" d="M317 250h-180l281 452l-281 451h180l285 -451zM883 702l-281 -452h-180l278 452l-278 451h180z"/><glyph glyph-name="guilsinglleft.case" horiz-adv-x="724" d="M119 705l284 450h179l-283 -450l283 -453h-179z"/><glyph glyph-name="guilsinglright.case" horiz-adv-x="724" d="M324 246h-183l283 452l-283 453h183l282 -453z"/><glyph glyph-name="florin.tf" d="M604 854l-2 -2h-299v145h299v82q0 175 88.5 271t251.5 96q119 0 229 -74l-67 -125q-88 53 -158 53q-85 0 -131.5 -54.5t-46.5 -166.5v-82h348v-145h-348v-856q0 -176 -82.5 -272.5t-241.5 -96.5q-61 0 -109.5 18t-101.5 56l66 123q42 -30 70.5 -40.5t70.5 -10.5
q164 0 164 225v856z"/><glyph glyph-name="cent.tf" d="M702 -33h3q-198 32 -322.5 169t-124.5 349q0 201 125 341t322 171v138h157v-138q172 -22 297 -147l-102 -107q-54 52 -127.5 80.5t-143.5 28.5q-153 0 -257.5 -100.5t-104.5 -266.5q0 -172 104 -271t258 -99q69 0 141.5 31t127.5 85l104 -120q-128 -125 -299 -146v-143
h-158v145z"/><glyph glyph-name="dollar.tf" d="M805 1645v-3v-192q146 -13 267.5 -76t187.5 -184l-152 -78q-50 85 -162 131.5t-231 46.5q-67 0 -131 -12.5t-123.5 -38t-95.5 -74t-35 -112.5q0 -40 13.5 -71.5t43 -54.5t60.5 -39t81.5 -28.5t90.5 -20t102 -16.5q57 -8 95 -14.5t92 -18t90.5 -23t82 -30t75.5 -40t61 -52
t49 -65.5t29.5 -81t11.5 -100q0 -98 -44.5 -177t-118.5 -127t-160.5 -75.5t-180.5 -33.5v-201h-164v197q-86 6 -164 26.5t-150.5 56t-131.5 93.5t-95 133l162 76q35 -72 111.5 -123t164 -74t177.5 -23q72 0 140 13.5t130 41.5t99.5 80t37.5 121q0 51 -24 91.5t-60.5 67
t-94.5 47t-112 32t-127 21.5q-58 8 -102.5 15.5t-97.5 19.5t-92.5 27.5t-81.5 36.5t-71 49t-53 62.5t-36.5 80.5t-13.5 100q-2 77 26 141t75.5 108t112 76t132.5 49.5t141 24.5v193h164z"/><glyph glyph-name="Euro.tf" d="M1262 16l4 -6q-116 -41 -254 -41q-155 0 -278 38.5t-208 111t-140 169t-83 220.5h-131v141h115q-2 8 -2 56q0 40 2 63h-115v143h137q23 118 77.5 215.5t140.5 171.5t209.5 115t273.5 41q104 0 213 -31l-52 -157q-77 18 -161 18q-415 0 -516 -373h518l-35 -143h-518
q-2 -20 -2 -59q0 -40 2 -54h487l-31 -139h-423q42 -176 172 -272.5t346 -96.5q102 0 198 35z"/><glyph glyph-name="sterling.tf" d="M162 743l2 -2h153q-47 150 -47 271q0 143 66.5 243.5t178.5 148.5t259 48q102 0 184.5 -21.5t147.5 -66.5t103 -123t44 -184h-163q-7 127 -93.5 183t-222.5 56q-155 0 -240 -74t-85 -206q0 -20 1 -39t4 -41.5t5 -36.5t8 -41.5t7.5 -35.5t9 -40t8.5 -37h481v-151h-449
q37 -282 -147 -422h887v-170h-1102v166q126 93 166 197t20 227h-186v151z"/><glyph glyph-name="yen.tf" d="M295 430h319v117h-319v137h252l-490 743v7h215l435 -680l442 680h213v-7l-498 -743h254v-137h-321v-117h321v-137h-321v-293h-183v293h-319v137z"/><glyph glyph-name="bar.case" horiz-adv-x="544" d="M358 1548v-1704h-170v1704h170z"/><glyph glyph-name="commaaccentcomb.alt" horiz-adv-x="1030" d="M512 1430v-3q32 -6 52 -29.5t20 -60.5q0 -41 -22.5 -69t-55 -34t-64.5 1t-54.5 36t-22.5 70q0 7 12.5 44.5t36 107t39.5 121.5h112z"/><glyph glyph-name="_0004" horiz-adv-x="0"/><glyph glyph-name="asterisk.alt" horiz-adv-x="647" d="M104 1040l101 123l-158 37q-31 11 -32 46t21.5 61.5t49.5 15.5l156 -53l-9 141q0 33 32 46.5t65.5 0t36.5 -46.5l-9 -141l154 53q28 9 50.5 -17.5t21 -61.5t-32.5 -44l-156 -37l99 -123q27 -32 7.5 -65.5t-55 -36.5t-59.5 29l-90 131l-86 -131q-17 -35 -57 -29
t-56.5 36.5t6.5 65.5z"/></font>
</defs>
</svg>
